<svg viewBox="0 0 36 36" fill="none" xmlns="http://www.w3.org/2000/svg">
<path d="M21.4737 9.91228C21.4737 11.0647 22.4069 12 23.5614 12H31.9123C33.0668 12 34 11.0647 34 9.91228V3.64914C34 2.49673 33.0668 1.56143 31.9123 1.56143H23.5614C22.4069 1.56143 21.4737 2.49673 21.4737 3.64914V9.91228Z" fill="#BBDDF5"/>
<path d="M13.3217 3.51294C14.9379 2.87669 17.3651 3.71441 17.7502 5.58611C18.288 8.19776 16.7962 10.4102 15.1482 10.2324C13.4209 10.0458 12.361 9.66283 11.6611 7.88445C10.9626 6.10681 11.7055 4.14919 13.3217 3.51294Z" fill="#D4AB88"/>
<path d="M12.121 8.34219C9.76938 5.57944 15.4349 5.84831 15.4349 5.84831C16.5074 5.88756 15.7689 7.67409 16.274 8.64957C16.6199 9.32507 15.1638 9.68282 15.1638 9.68282C15.1638 9.68282 14.4949 9.67319 14.4594 10.4842V10.4916C14.4512 10.6983 14.4727 10.9435 14.569 11.2716C15.049 12.8952 12.8676 13.8914 12.3884 12.2641C12.1988 11.6204 12.2721 11.0538 12.3684 10.5309L12.3773 10.4842C12.5225 9.70726 12.7032 9.02584 12.121 8.34219Z" fill="#D4AB88"/>
<path d="M11.2885 4.07289C12.0862 2.99372 14.7616 2.0412 16.46 3.40702C17.6362 3.20333 18.0865 4.32102 17.9865 4.96467C17.9065 5.47871 16.6436 5.61129 16.3266 6.58677C16.1067 6.34234 16.0481 5.8409 16.0955 5.57277C15.6934 5.96015 15.8689 6.97711 14.2868 7.6415C12.758 8.28367 13.0276 9.63393 13.0276 9.63393C13.0276 9.63393 12.2225 9.25322 11.6618 8.60439C10.593 7.36745 10.4093 5.26243 11.2885 4.07289Z" fill="#963B22"/>
<path d="M9.46126 23.3055C11.3611 22.6388 16.2666 22.5737 16.2666 22.5737C16.0763 21.0516 16.1052 18.3695 16.2681 15.6394C16.4407 12.7463 13.4772 10.0739 12.4966 10.3035C10.5923 10.7494 9.28053 12.8115 9.52199 15.8668C9.86937 20.2561 8.97907 23.4743 9.46126 23.3055Z" fill="#FA743E"/>
<path d="M35 20C34.447 20 34 20.447 34 21V28H2V13C2 12.448 1.553 12 1 12C0.447 12 0 12.448 0 13V35C0 35.553 0.447 36 1 36C1.553 36 2 35.553 2 35V33H34V35C34 35.553 34.447 36 35 36C35.553 36 36 35.553 36 35V21C36 20.447 35.553 20 35 20Z" fill="#C1694F"/>
<path d="M31 18.222L17 17C13.792 17 13 23 13 23H12V29H34V21C34 19.075 32.925 18.222 31 18.222Z" fill="#55ACEE"/>
<path d="M13 23H4C2.896 23 2 23.896 2 25V29H12L13 23Z" fill="#BDDDF4"/>
<path d="M2.11401 20.279C1.83101 21.492 4.01101 22.797 6.98501 23.196C9.95901 23.594 12.599 22.933 12.883 21.721C13.166 20.508 10.986 19.203 8.01201 18.804C5.03901 18.405 2.39801 19.066 2.11401 20.279Z" fill="#5C913B"/>
<path d="M13.189 22C13.055 22.595 13 23 13 23H34V22H13.189Z" fill="#226699"/>
<path d="M34 21H13.452C13.342 21.365 13.255 21.705 13.189 22H34V21Z" fill="#3B88C3"/>
<path d="M14.5447 14.0869C14.8431 15.6594 14.9491 18.412 15.1942 18.5274C16.6086 19.1918 17.8455 20.4611 18.7745 20.7865C19.4476 21.0221 20.1194 21.1578 20.4084 21.413C20.8715 21.8215 21.4231 22.1699 21.4704 22.5844C21.519 23.005 21.0349 23.1563 20.1903 22.8025C19.5698 22.5426 19.083 22.5777 18.5287 22.176C17.7388 21.6041 14.5912 21.2314 13.4003 19.4699C12.9986 18.8751 12.5719 17.485 12 14.5758C12.7373 14.2726 14.5447 14.0869 14.5447 14.0869Z" fill="#D4AB88"/>
<g clip-path="url(#clip0)">
<path d="M30.5 9.20353C30.4242 9.20353 30.3551 9.16114 30.3209 9.09367L29.9709 8.40262L29.3829 8.90739C29.3458 8.9387 29.2993 8.95542 29.2522 8.95542C29.2264 8.95542 29.2003 8.95056 29.1756 8.94025C29.1058 8.91148 29.0578 8.84556 29.0524 8.77051L28.9932 7.99739L28.2567 8.2387C28.2363 8.24531 28.2153 8.24862 28.1943 8.24862C28.1418 8.24862 28.0908 8.228 28.0523 8.1897C27.999 8.13662 27.9802 8.05728 28.0037 7.98534L28.2448 7.24878L27.4725 7.19025C27.3972 7.18423 27.3313 7.13678 27.3024 7.06698C27.2736 6.99678 27.2862 6.91687 27.3354 6.85951L27.8398 6.27151L27.1487 5.9215C27.0813 5.88728 27.0389 5.81787 27.0389 5.74242C27.0389 5.66698 27.0813 5.59756 27.1487 5.56334L27.8398 5.21334L27.3354 4.62534C27.2864 4.56798 27.2736 4.48767 27.3024 4.41806C27.3313 4.34826 27.397 4.30023 27.4725 4.29478L28.2448 4.23567L28.0037 3.49912C27.9802 3.42717 27.999 3.34842 28.0523 3.29476C28.0908 3.25664 28.1418 3.23623 28.1943 3.23623C28.2153 3.23623 28.2363 3.23953 28.2567 3.24614L28.9932 3.48726L29.0524 2.71492C29.058 2.63948 29.1058 2.57376 29.1756 2.54478C29.2003 2.53467 29.2264 2.52962 29.2522 2.52962C29.2993 2.52962 29.3458 2.54595 29.3829 2.57784L29.9709 3.08223L30.3209 2.39117C30.3551 2.3237 30.4242 2.28131 30.5 2.28131C30.5754 2.28131 30.6449 2.3237 30.6789 2.39117L31.0293 3.08223L31.6173 2.57784C31.6542 2.54595 31.7011 2.52962 31.7477 2.52962C31.774 2.52962 31.7999 2.53467 31.8247 2.54478C31.8944 2.57376 31.942 2.63948 31.948 2.71492L32.0069 3.48726L32.7429 3.24614C32.7633 3.23934 32.7847 3.23623 32.8053 3.23623C32.8578 3.23623 32.9092 3.25664 32.9471 3.29476C33.0007 3.34842 33.0196 3.42737 32.9961 3.49912L32.7548 4.23567L33.5279 4.29478C33.6029 4.30042 33.6689 4.34826 33.6976 4.41806C33.7264 4.48767 33.714 4.56798 33.6648 4.62534L33.16 5.21334L33.851 5.56334C33.9187 5.59776 33.9611 5.66698 33.9611 5.74242C33.9611 5.81787 33.9187 5.88709 33.8512 5.9215L33.1602 6.27151L33.665 6.85951C33.7142 6.91687 33.7266 6.99678 33.6978 7.06698C33.669 7.13659 33.6031 7.18423 33.5275 7.19025L32.755 7.24878L32.9963 7.98534C33.0198 8.05748 33.0009 8.13642 32.9473 8.1897C32.9094 8.228 32.8578 8.24862 32.8055 8.24862C32.7849 8.24862 32.7635 8.24531 32.7431 8.2387L32.0071 7.99739L31.9482 8.76992C31.9422 8.84556 31.8947 8.91148 31.8249 8.94025C31.7999 8.95056 31.774 8.95542 31.7479 8.95542C31.7013 8.95542 31.6546 8.9387 31.6175 8.90739L31.0295 8.40262L30.6791 9.09367C30.6449 9.16114 30.5754 9.20353 30.5 9.20353Z" fill="#F4900C"/>
<path d="M33.0278 5.74244C33.0278 7.13836 31.8959 8.27022 30.5 8.27022C29.1041 8.27022 27.9722 7.13855 27.9722 5.74244C27.9722 4.34633 29.1041 3.21466 30.5 3.21466C31.8959 3.21466 33.0278 4.34652 33.0278 5.74244Z" fill="#FFCC4D"/>
<path d="M30.5 6.80623C29.2902 6.80623 28.9444 6.35357 28.9444 6.56745C28.9444 6.78173 29.6359 7.34134 30.5 7.34134C31.3641 7.34134 32.0556 6.78154 32.0556 6.56745C32.0556 6.35357 31.71 6.80623 30.5 6.80623ZM32.0556 5.09434C32.0556 5.38076 31.8234 5.61293 31.537 5.61293C31.2507 5.61293 31.0186 5.38076 31.0186 5.09434C31.0186 4.80793 31.2507 4.57576 31.537 4.57576C31.8234 4.57576 32.0556 4.80773 32.0556 5.09434ZM29.9814 5.09434C29.9814 5.38076 29.7491 5.61293 29.4628 5.61293C29.1766 5.61293 28.9442 5.38076 28.9442 5.09434C28.9442 4.80793 29.1768 4.57576 29.463 4.57576C29.7492 4.57576 29.9814 4.80773 29.9814 5.09434Z" fill="#F4900C"/>
</g>
<defs>
<clipPath id="clip0">
<rect x="27" y="2.24243" width="7" height="7" fill="white"/>
</clipPath>
</defs>
</svg>
