<svg viewBox="0 0 36 36" fill="none" xmlns="http://www.w3.org/2000/svg">
<g clip-path="url(#clip0)">
<path d="M19.5789 16.6307H33.4072V23.5448H19.5789V16.6307Z" fill="#C1694F"/>
<path d="M18.7146 14.9021C17.7639 14.9021 16.9861 15.68 16.9861 16.6307L16.9432 32.1186H20.2719L20.4431 16.6307C20.4431 15.68 19.6653 14.9021 18.7146 14.9021ZM34.2715 14.9021C33.3208 14.9021 32.5429 15.68 32.5429 16.6307L32.6713 29.3724H36L36 16.6307C36 15.68 35.2222 14.9021 34.2715 14.9021Z" fill="#C1694F"/>
<path d="M20.4431 16.6307H21.3074V23.5448H20.4431V16.6307ZM32.5429 23.5448H31.6786V16.6307H32.5429V23.5448Z" fill="#A4523A"/>
<path d="M34.4718 26.1457H9.1129C8.83608 26.1457 8.56421 26.2214 8.32711 26.3629L0.935928 30.138C0.935928 30.138 29.1476 33.1396 31.6303 33.1396L35.3905 30.3279C35.774 30.0399 36 29.5868 36 29.1052V27.6738C36 26.8297 35.316 26.1457 34.4718 26.1457Z" fill="#D99E82"/>
<path d="M30.3393 33.594H1.93655C0.866484 33.594 0 32.7598 0 31.7319C0 30.7041 0.866484 29.8698 1.93655 29.8698H30.3393C31.4094 29.8698 32.2759 30.7041 32.2759 31.7319C32.2759 32.7598 31.4094 33.594 30.3393 33.594Z" fill="#C1694F"/>
<g clip-path="url(#clip1)">
<path d="M9.74002 23.6499L10.1318 29.0053H12.9188L13.3444 23.646L9.74002 23.6499Z" fill="#CCD6DD"/>
<path d="M12.8945 28.8655L10.154 28.896L9.95605 25.9187H13.115L12.8945 28.8655Z" fill="white"/>
<path d="M12.6818 29.6226H10.385C10.0521 29.6226 9.81838 29.3984 9.77541 29.0372L9.39138 23.6479C9.38243 23.5221 9.47713 23.4129 9.60313 23.4039C9.73127 23.3952 9.83821 23.4899 9.84716 23.6155L10.23 28.9938C10.2508 29.1657 10.3414 29.1657 10.385 29.1657H12.6818C12.7821 29.1657 12.8194 29.1657 12.8373 28.9874L13.2196 23.6155C13.2285 23.4899 13.3363 23.3956 13.4636 23.4039C13.5894 23.4129 13.6843 23.5221 13.6754 23.6479L13.2925 29.0261C13.2435 29.5202 12.9334 29.6226 12.6818 29.6226Z" fill="#8899A6"/>
<path d="M11.5334 29.1997H11.0226C9.9469 29.1997 9.82343 28.6778 9.76646 27.9409C9.70268 27.1182 9.4256 23.6448 9.4256 23.6448L9.81313 23.6139C9.81313 23.6139 10.0906 27.0883 10.1542 27.9109C10.2057 28.5796 10.2623 28.8108 11.0226 28.8108H11.5334C11.6407 28.8108 11.7278 28.8978 11.7278 29.0053C11.7278 29.1128 11.6407 29.1997 11.5334 29.1997Z" fill="#8899A6"/>
<path d="M12.0442 29.1997H11.5334C11.4261 29.1997 11.3389 29.1128 11.3389 29.0053C11.3389 28.8978 11.4261 28.8108 11.5334 28.8108H12.0442C12.8045 28.8108 12.8609 28.5796 12.9126 27.9109C12.9764 27.0881 13.2536 23.6139 13.2536 23.6139L13.6414 23.6448C13.6414 23.6448 13.3641 27.1184 13.3003 27.9409C13.2433 28.6778 13.1201 29.1997 12.0442 29.1997Z" fill="#8899A6"/>
<path d="M13.6723 23.577C13.6723 23.9081 13.1414 24.1764 11.5334 24.1764C9.92553 24.1764 9.3945 23.9081 9.3945 23.577C9.3945 23.2458 9.92533 22.9775 11.5334 22.9775C13.1414 22.9775 13.6723 23.2458 13.6723 23.577Z" fill="#CCD6DD"/>
<path d="M13.5813 23.5857C13.5216 23.4965 13.401 23.4724 13.3116 23.5321C12.906 23.8029 11.8972 23.8375 11.5427 23.8282C11.5408 23.828 11.539 23.8292 11.5371 23.829C11.5353 23.829 11.534 23.8282 11.5322 23.8282C11.1785 23.8377 10.1696 23.8035 9.76336 23.5321C9.67391 23.4726 9.55336 23.4965 9.49366 23.5857C9.43397 23.675 9.45808 23.7957 9.54733 23.8554C10.0471 24.1893 11.0867 24.2183 11.4311 24.2183C11.4873 24.2183 11.5239 24.2175 11.5375 24.2171C11.5513 24.2175 11.5876 24.2183 11.6438 24.2183C11.9882 24.2183 13.0279 24.1895 13.5276 23.8554C13.6171 23.7957 13.6412 23.675 13.5813 23.5857Z" fill="white"/>
<path d="M11.5316 26.1905C12.3722 26.1905 13.0536 26.0631 13.0536 25.9058C13.0536 25.7486 12.3722 25.6212 11.5316 25.6212C10.6911 25.6212 10.0097 25.7486 10.0097 25.9058C10.0097 26.0631 10.6911 26.1905 11.5316 26.1905Z" fill="#E1E8ED"/>
<path d="M10.1804 28.9162H12.9351V29.2726H10.1804V28.9162Z" fill="#8899A6"/>
</g>
<path d="M33.8996 26.1457V23.9702C33.8996 21.9102 31.6091 20.5515 29.5485 20.5515H22.0895C20.0302 20.5515 17.7384 21.9102 17.7384 23.9702V26.1457H33.8996Z" fill="#9266CC"/>
<path d="M25.7842 6.91951C28.3365 6.91951 32.5893 8.19562 32.5893 13.7246C32.5893 19.2536 32.5893 20.5297 31.3132 20.5297C30.0365 20.5297 28.3358 19.2536 25.7836 19.2536C23.232 19.2536 21.5668 20.5297 20.2546 20.5297C18.8331 20.5297 18.9785 15.4259 18.9785 13.7246C18.9798 8.19562 23.2326 6.91951 25.7842 6.91951" fill="#963B22"/>
<path d="M22.7111 20.5515H28.8493C28.8493 20.5515 28.0685 22.727 25.7799 22.727C23.4912 22.727 22.7111 20.5515 22.7111 20.5515Z" fill="#292F33"/>
<path d="M23.5366 20.5639C23.5366 21.4838 24.8867 22.1054 25.819 22.1054C26.7514 22.1054 28.094 21.4838 28.094 20.5639V18.5717H23.5366V20.5639V20.5639Z" fill="#D5AB88"/>
<path d="M23.5322 19.4196C24.1681 20.1375 24.9563 20.332 25.8128 20.332C26.67 20.332 27.4581 20.1381 28.094 19.4196V17.5946H23.5322V19.4196V19.4196Z" fill="#CC9B7A"/>
<path d="M20.681 13.5381C20.681 9.91182 22.966 6.97235 25.7842 6.97235C28.6025 6.97235 30.888 9.91182 30.888 13.5381C30.888 17.1638 28.6025 19.9317 25.7842 19.9317C22.966 19.9317 20.681 17.1645 20.681 13.5381" fill="#D5AB88"/>
<path d="M25.7842 18.4027C24.7866 18.4027 24.2638 17.9091 24.2079 17.8526C24.0413 17.6866 24.0413 17.4174 24.2079 17.2515C24.3732 17.0868 24.638 17.0855 24.8046 17.2471C24.8264 17.267 25.1483 17.5523 25.7842 17.5523C26.43 17.5523 26.752 17.2583 26.7645 17.2465C26.9341 17.0874 27.2014 17.0924 27.363 17.2589C27.5247 17.4261 27.5247 17.6885 27.3606 17.8526C27.3052 17.9091 26.7831 18.4027 25.7842 18.4027" fill="#DF1F32"/>
<path d="M19.4323 15.5788C19.4192 14.9572 19.4049 15.4396 19.4049 15.2898C19.4049 13.1627 20.681 15.5968 20.681 14.082C20.681 12.566 21.5314 12.4143 22.3817 11.564C22.8075 11.1382 23.6578 10.3047 23.6578 10.3047C23.6578 10.3047 25.7842 11.5895 27.4855 11.5895C29.1862 11.5895 30.888 12.4442 30.888 14.1454C30.888 15.8467 32.1642 13.1608 32.1642 15.2873C32.1642 15.4389 32.1505 14.9572 32.1393 15.5788H32.5856C32.5899 14.3356 32.5899 14.3829 32.5899 13.5885C32.5899 8.05951 28.3364 6.00082 25.7848 6.00082C23.2332 6.00082 18.9804 8.02532 18.9804 13.5543C18.9804 14.0472 18.9679 14.3356 18.9853 15.5788H19.4323V15.5788Z" fill="#963B22"/>
<path d="M23.7106 14.8863C23.4216 14.8863 23.1848 14.6495 23.1848 14.3605V13.8352C23.1848 13.5462 23.4216 13.3094 23.7106 13.3094C23.9996 13.3094 24.2371 13.5462 24.2371 13.8352V14.3605C24.2371 14.6495 23.9996 14.8863 23.7106 14.8863ZM27.9156 14.8863C27.6266 14.8863 27.3898 14.6495 27.3898 14.3605V13.8352C27.3898 13.5462 27.6266 13.3094 27.9156 13.3094C28.2047 13.3094 28.4415 13.5462 28.4415 13.8352V14.3605C28.4415 14.6495 28.2047 14.8863 27.9156 14.8863Z" fill="#662113"/>
<path d="M26.3393 16.5112H25.2882C25.1434 16.5112 25.0253 16.3931 25.0253 16.2482V16.1531C25.0253 16.0083 25.1427 15.8896 25.2882 15.8896H26.3393C26.4835 15.8896 26.6022 16.0077 26.6022 16.1531V16.2482C26.6022 16.3931 26.4835 16.5112 26.3393 16.5112Z" fill="#C1694F"/>
<path d="M21.7439 13.6743C21.7439 14.5743 21.2877 15.3041 20.7251 15.3041C20.1626 15.3041 19.7064 14.5743 19.7064 13.6743C19.7064 12.7742 20.1626 12.0439 20.7251 12.0439C21.2877 12.0432 21.7439 12.7736 21.7439 13.6743ZM31.9311 13.6743C31.9311 14.5743 31.4754 15.3041 30.9123 15.3041C30.3497 15.3041 29.8935 14.5743 29.8935 13.6743C29.8935 12.7742 30.3491 12.0439 30.9123 12.0439C31.4754 12.0432 31.9311 12.7736 31.9311 13.6743Z" fill="#D5AB88"/>
<path d="M25.819 22.5542C25.819 22.5542 27.9206 24.1044 28.3638 24.2803C28.4608 24.3189 28.1357 22.0078 28.1357 22.0078H23.503C23.503 22.0078 23.1779 24.358 23.3576 24.2611C23.7554 24.0485 25.819 22.5542 25.819 22.5542" fill="#744EAA"/>
<path d="M22.892 19.8783C23.2426 20.2301 25.819 21.9811 25.819 21.9811C25.819 21.9811 24.4982 22.7531 23.2792 24.1784C23.158 24.3214 22.3201 21.3036 22.2947 20.6298C22.2872 20.4414 22.7235 19.7098 22.892 19.8783ZM28.7591 19.8783C28.4073 20.2301 25.8321 21.9811 25.8321 21.9811C25.8321 21.9811 27.1529 22.7531 28.3706 24.1784C28.4918 24.3214 29.3285 21.3036 29.354 20.6298C29.3614 20.4414 28.9269 19.7098 28.7591 19.8783Z" fill="#CBB7EA"/>
<path d="M25.1974 22.4162H26.4406V26.1457H25.1974V22.4162Z" fill="#744EAA"/>
<path d="M25.819 25.8349C26.1623 25.8349 26.4406 25.5566 26.4406 25.2133C26.4406 24.87 26.1623 24.5918 25.819 24.5918C25.4757 24.5918 25.1974 24.87 25.1974 25.2133C25.1974 25.5566 25.4757 25.8349 25.819 25.8349Z" fill="#CBB7EA"/>
<path d="M25.819 23.9702C26.1623 23.9702 26.4406 23.6919 26.4406 23.3486C26.4406 23.0053 26.1623 22.727 25.819 22.727C25.4757 22.727 25.1974 23.0053 25.1974 23.3486C25.1974 23.6919 25.4757 23.9702 25.819 23.9702Z" fill="#CBB7EA"/>
<path d="M20.9081 30.9947C24.0949 30.9947 26.6783 29.5595 26.6783 27.7891C26.6783 26.0186 24.0949 24.5834 20.9081 24.5834C17.7213 24.5834 15.138 26.0186 15.138 27.7891C15.138 29.5595 17.7213 30.9947 20.9081 30.9947Z" fill="#939598"/>
<path d="M20.9081 30.3536C24.0949 30.3536 26.6783 28.9184 26.6783 27.1479C26.6783 25.3775 24.0949 23.9423 20.9081 23.9423C17.7213 23.9423 15.138 25.3775 15.138 27.1479C15.138 28.9184 17.7213 30.3536 20.9081 30.3536Z" fill="#F1F2F2"/>
<g clip-path="url(#clip2)">
<path d="M25.4093 25.8457C25.5142 26.2993 25.1785 27.2192 24.7268 27.8265C24.6721 27.9005 24.7113 28.0901 24.651 28.1629C23.7384 29.2659 22.2316 30.209 20.5942 29.8348C18.7549 29.4142 17.8406 28.1412 17.595 26.8304C17.5774 26.7365 17.7192 26.5651 17.6902 26.478C17.3058 25.3313 18.267 24.2201 18.3867 24.7438C18.4429 24.9887 18.5488 25.2648 18.6888 25.4516C18.7417 25.5221 18.9607 25.5377 19.0231 25.6157C19.1205 25.7369 19.3272 26.0508 19.4371 26.201C20.5256 27.6911 21.9809 27.5994 23.3835 26.8858C23.5391 26.8066 23.5617 26.9256 23.6963 26.874C24.1029 26.7189 24.4997 26.1583 24.8152 25.8182C25.0909 25.5216 25.3045 25.3925 25.4093 25.8457Z" fill="#F4900C"/>
<path d="M21.3424 29.9149C21.9224 29.9129 22.4751 29.7601 22.9782 29.5101C22.4362 29.2182 21.8483 28.6974 21.7033 27.3796C21.3643 27.3952 21.0324 27.3493 20.7134 27.2286C20.6386 27.5012 20.6056 27.7516 20.6476 27.9008C20.7862 28.3946 20.9523 29.3833 21.3424 29.9149ZM24.6872 28.0419C24.6949 27.9625 24.6929 27.8723 24.7268 27.8265C24.7365 27.8136 24.7458 27.7996 24.7555 27.7861C24.3558 27.5728 23.9939 27.2035 23.7924 26.8264C23.7606 26.8434 23.7286 26.8621 23.6966 26.8744C23.5839 26.9175 23.5487 26.8427 23.4495 26.8628C23.7411 27.8248 24.2772 27.9462 24.6872 28.0419ZM17.648 26.3183C17.6602 26.3713 17.6724 26.4244 17.6904 26.4779C17.7013 26.5107 17.6879 26.5557 17.668 26.6039C17.9727 26.2157 18.4179 25.7318 19.0019 25.597C18.9219 25.5351 18.7372 25.5159 18.6891 25.4517C18.6811 25.4408 18.6742 25.4272 18.6664 25.4159C18.3275 25.564 17.9089 25.919 17.648 26.3183Z" fill="#DB7803"/>
<path d="M22.535 29.7098C22.023 30.2261 20.1389 31.005 18.4844 29.1291C18.2708 28.7591 17.7072 27.234 20.8679 26.2433C21.3582 26.0895 21.5596 26.2596 21.5245 26.6881C21.443 27.6895 21.3603 29.4665 22.535 29.7098Z" fill="#FFAC33"/>
</g>
<g clip-path="url(#clip3)">
<path d="M12.4915 1.09787H2.38037C1.58268 1.09787 0.935928 1.74462 0.935928 2.54231V10.4868H13.9359V2.54231C13.9359 1.74462 13.2892 1.09787 12.4915 1.09787Z" fill="#88C9F9"/>
<path d="M4.54704 14.0979V3.62564L5.99149 2.1812H6.71371L8.15815 3.62564V14.0979H4.54704ZM12.8526 5.07009C12.8526 4.70898 12.4915 4.70898 12.4915 4.70898H9.96371C9.96371 4.70898 9.6026 4.70898 9.6026 5.07009V14.0979H12.8526V5.07009Z" fill="#66757F"/>
<path d="M11.047 7.23676C11.047 6.87565 10.6859 6.87565 10.6859 6.87565H7.79704C7.43593 6.87565 7.43593 7.23676 7.43593 7.23676V14.0979H11.047V7.23676ZM4.90815 7.95898H3.10259V6.15342C3.10259 6.15342 3.10259 5.79231 2.74148 5.79231H0.935928V12.6534C0.935928 13.4511 1.58268 14.0979 2.38037 14.0979H5.26926V8.32009C5.26926 8.32009 5.26926 7.95898 4.90815 7.95898ZM12.4915 10.1256C12.1304 10.1256 12.1304 10.4868 12.1304 10.4868V14.0979H12.4915C13.2892 14.0979 13.9359 13.4511 13.9359 12.6534V10.1256H12.4915Z" fill="#292F33"/>
<path d="M3.82482 11.5701H4.54704V12.2923H3.82482V11.5701ZM3.82482 8.6812H4.54704V9.40343H3.82482V8.6812ZM3.1026 10.1256H3.82482V10.8479H3.1026V10.1256ZM6.71371 4.34787H7.43593V5.07009H6.71371V4.34787ZM6.71371 5.79231H7.43593V6.51454H6.71371V5.79231ZM5.99149 7.23676H6.71371V7.95898H5.99149V7.23676ZM9.6026 7.59787H10.3248V8.32009H9.6026V7.59787ZM8.88038 9.04231H9.6026V9.76454H8.88038V9.04231ZM8.15816 11.209H8.88038V11.9312H8.15816V11.209ZM11.4082 5.4312H12.1304V6.15343H11.4082V5.4312ZM11.4082 6.87565H12.1304V7.59787H11.4082V6.87565Z" fill="#FFCC4D"/>
</g>
</g>
<defs>
<clipPath id="clip0">
<rect width="36" height="36" fill="white"/>
</clipPath>
<clipPath id="clip1">
<rect x="8.03339" y="22.7831" width="7" height="7" fill="white"/>
</clipPath>
<clipPath id="clip2">
<rect x="19.9527" y="31.6721" width="7.21134" height="7.76605" transform="rotate(-120 19.9527 31.6721)" fill="white"/>
</clipPath>
<clipPath id="clip3">
<rect x="0.935928" y="1.09787" width="13" height="13" fill="white"/>
</clipPath>
</defs>
</svg>
