<svg viewBox="0 0 36 36" fill="none" xmlns="http://www.w3.org/2000/svg">
<g clip-path="url(#clip0)">
<path d="M20.2871 17.7514C20.2871 18.218 19.9084 18.5967 19.4418 18.5967H0.845298C0.378693 18.5967 0 18.218 0 17.7514C0 17.2848 0.378693 16.9061 0.845298 16.9061H19.4418C19.9084 16.9061 20.2871 17.2848 20.2871 17.7514Z" fill="#5C913B"/>
<path d="M6.95622 7.15813H5.82916C5.67362 7.15813 5.54739 7.03189 5.54739 6.87636V2.93164C5.54739 2.7761 5.67362 2.64987 5.82916 2.64987H6.95622C7.11176 2.64987 7.23799 2.7761 7.23799 2.93164V6.87636C7.23799 7.03189 7.11176 7.15813 6.95622 7.15813Z" fill="#A0041E"/>
<path d="M3.34848 16.9061C3.27128 14.2817 3.06334 12.3978 2.81764 12.3978C2.5725 12.3978 2.36456 14.2817 2.28735 16.9061H3.34848Z" fill="#FFCC4D"/>
<path d="M5.63532 9.4286C5.63532 12.5703 4.37413 13.5249 2.81766 13.5249C1.26175 13.5249 0 12.5703 0 9.4286C0 6.28578 2.25413 1.69074 2.81766 1.69074C3.38119 1.69074 5.63532 6.28578 5.63532 9.4286Z" fill="#77B255"/>
<path d="M4.50824 7.88959L11.8342 0.563675L19.1601 7.88959V16.9061H4.50824V7.88959Z" fill="#FFE8B6"/>
<path d="M11.8342 7.88959H12.3977V16.9061H11.8342V7.88959Z" fill="#FFCC4D"/>
<path d="M19.1601 8.45312C19.0158 8.45312 18.8715 8.3979 18.7617 8.28801L11.8342 1.36051L4.90667 8.28801C4.68633 8.50835 4.33018 8.50835 4.10984 8.28801C3.88949 8.06767 3.88949 7.71152 4.10984 7.49118L11.4357 0.165263C11.6561 -0.0550776 12.0122 -0.0550776 12.2326 0.165263L19.5585 7.49118C19.7788 7.71152 19.7788 8.06767 19.5585 8.28801C19.4486 8.3979 19.3043 8.45312 19.1601 8.45312Z" fill="#66757F"/>
<path d="M11.8342 8.45313C11.6899 8.45313 11.5457 8.3979 11.4358 8.28801C11.2154 8.06767 11.2154 7.71152 11.4358 7.49118L15.0987 3.82822C15.3191 3.60788 15.6752 3.60788 15.8956 3.82822C16.1159 4.04856 16.1159 4.40471 15.8956 4.62505L12.2326 8.28801C12.1227 8.3979 11.9784 8.45313 11.8342 8.45313Z" fill="#66757F"/>
<path d="M7.3259 13.5249H9.58002V16.9061H7.3259V13.5249Z" fill="#C1694F"/>
<path d="M7.3259 8.45312H9.58002V10.7073H7.3259V8.45312ZM14.37 8.45312H16.6242V10.7073H14.37V8.45312ZM14.37 13.5249H16.6242V15.779H14.37V13.5249Z" fill="#55ACEE"/>
<path d="M5.98752 15.774C5.98752 16.6829 5.50401 16.9591 4.90723 16.9591C4.31101 16.9591 3.82693 16.6829 3.82693 15.774C3.82693 14.865 4.69083 13.535 4.90723 13.535C5.12362 13.535 5.98752 14.8644 5.98752 15.774ZM20.2167 15.774C20.2167 16.6829 19.7332 16.9591 19.1364 16.9591C18.5402 16.9591 18.0561 16.6829 18.0561 15.774C18.0561 14.865 18.92 13.535 19.1364 13.535C19.3528 13.535 20.2167 14.8644 20.2167 15.774Z" fill="#77B255"/>
<path d="M29.7923 34.516L29.7678 34.5235C29.7763 34.4914 29.7876 34.4338 29.7876 34.3427C29.7876 34.1996 29.7139 33.9323 29.6936 33.8941C29.6733 33.8558 29.6511 33.8284 29.602 33.8421C29.5647 33.8525 29.2786 33.9961 29.0958 34.0031C28.7563 34.0159 28.5924 33.7113 28.5924 33.7113C28.5924 33.7113 28.404 33.819 28.2543 33.9063C28.1041 33.9937 27.9299 34.1245 27.8014 34.2024C27.6919 34.269 27.5667 34.3006 27.4374 34.3172C27.308 34.3337 27.2027 34.328 27.1715 34.3309C27.1403 34.3337 26.8782 34.3021 26.8688 34.5613L26.8702 34.6213L26.8447 34.609C26.8447 34.609 26.8221 34.6893 26.8202 34.7044C26.8183 34.72 26.8088 34.7289 26.8419 34.7497C26.8749 34.7705 27.0204 34.8328 27.2055 34.8791C27.3906 34.9254 27.6909 34.9939 27.9228 34.9939C28.1547 34.9939 28.3521 34.9476 28.4663 34.9202C28.5811 34.8928 28.8266 34.8404 28.8502 34.8513C28.8739 34.8621 28.905 34.9414 28.9319 34.966C28.9593 34.9906 29.6922 34.9278 29.7446 34.9169C29.7975 34.906 29.8136 34.8607 29.8136 34.8404V34.5339C29.8145 34.5212 29.8037 34.5127 29.7923 34.516V34.516ZM34.9618 32.7442L34.7238 32.5416C34.7148 32.5341 34.7011 32.5364 34.6959 32.5473L34.6855 32.5714C34.6661 32.5435 34.6288 32.4967 34.5585 32.4368C34.4475 32.3423 34.1916 32.2224 34.1486 32.2134C34.1056 32.204 34.0697 32.203 34.048 32.2498C34.0315 32.2857 33.954 32.6021 33.8383 32.7484C33.6239 33.02 33.2792 32.9458 33.2792 32.9458L33.207 33.3368C33.1753 33.5106 33.1616 33.7326 33.1371 33.8837C33.1163 34.0126 33.0582 34.1306 32.985 34.2416C32.9123 34.3531 32.8386 34.4305 32.8198 34.4569C32.8013 34.4829 32.6039 34.6652 32.7985 34.8442L32.8462 34.8824L32.8202 34.8942C32.8202 34.8942 32.8674 34.9646 32.8778 34.9764C32.8882 34.9882 32.8896 35.0014 32.9269 34.9896C32.9643 34.9778 33.1092 34.906 33.2674 34.7932C33.4261 34.6798 33.6773 34.4924 33.8303 34.3124C33.9838 34.1325 34.0778 33.9488 34.1325 33.8421C34.1873 33.7354 34.3087 33.5101 34.3328 33.4988C34.3568 33.4875 34.4385 33.5158 34.4758 33.5111C34.5127 33.5064 34.9485 32.8962 34.975 32.8486C35.0014 32.8009 34.9773 32.7574 34.9618 32.7442V32.7442Z" fill="#292F33"/>
<path d="M30.401 23.7814C30.8388 24.2347 31.847 25.1461 31.8692 25.2552C31.9877 25.8327 32.1591 26.4858 32.1147 26.8863C32.0826 27.1767 32.2923 27.4992 32.3749 27.6338C32.4779 27.801 32.7437 28.0579 32.9137 28.0399C33.0195 28.0291 33.1815 27.8369 33.095 27.7396C32.9265 27.5507 32.9543 27.2631 32.8485 27.0034C32.6365 26.4816 32.8273 25.4951 32.5364 24.8486C32.4155 24.5809 32.1903 24.0492 31.2028 23.1364C30.9615 23.3545 30.401 23.7814 30.401 23.7814V23.7814Z" fill="#CC9B7A"/>
<path d="M30.2617 18.6536C29.5095 18.3575 28.3365 18.7395 28.2005 19.6183C28.065 20.491 28.3133 21.8599 29.0802 21.7773C29.884 21.6904 30.7085 21.5157 31.0343 20.6879C31.3601 19.8601 31.014 18.9496 30.2617 18.6536V18.6536Z" fill="#D4AB88"/>
<path d="M30.8208 20.9009C31.9154 19.615 29.2785 19.7401 29.2785 19.7401C28.7794 19.7581 29.1232 20.5897 28.888 21.0439C28.727 21.358 29.4051 21.5247 29.4051 21.5247C29.4051 21.5247 29.7163 21.5199 29.7328 21.8977V21.901C29.7366 21.9974 29.7267 22.1112 29.6818 22.2642C29.4585 23.0202 30.4737 23.4834 30.6966 22.726C30.7849 22.4261 30.7505 22.1626 30.7061 21.9194L30.7018 21.8977C30.6338 21.536 30.5498 21.2191 30.8208 20.9009V20.9009Z" fill="#D4AB88"/>
<path d="M31.1212 18.9567C30.6202 18.3702 29.9312 18.127 28.7511 18.5832C27.7202 18.9818 28.0517 19.8011 28.2921 19.6608C28.9542 19.275 29.3933 19.6046 29.7305 20.1429C29.8287 19.8785 30.2603 19.7161 30.3477 20.1028C30.4459 20.5377 30.0422 20.7271 30.096 20.8456C30.1139 20.8853 30.0757 20.8097 30.096 20.8456C30.3543 21.2989 30.7746 21.4416 30.7746 21.4416C30.7746 21.4416 30.9337 21.5039 31.2052 20.9689C31.4768 20.4338 31.6189 19.539 31.1212 18.9567V18.9567Z" fill="#963B22"/>
<path d="M30.8501 19.5734C31.8715 19.794 31.4522 21.3863 31.5523 21.9723C31.6755 22.6939 32.3839 22.7194 32.3839 22.7194C32.3839 22.7194 32.2672 22.2169 32.3291 21.6914C32.4155 20.9627 32.8906 20.3743 32.3891 19.6627C31.7492 18.7541 30.215 19.4365 30.8501 19.5734V19.5734Z" fill="#963B22"/>
<path d="M28.872 34.1514C28.2741 34.2029 27.9969 34.0414 28.0593 33.955C28.1372 33.8473 28.1197 33.7675 28.1207 33.7019C28.1339 32.5492 27.8983 30.8728 27.8983 30.8728C27.8983 30.7084 27.8997 30.4889 28.0456 30.1352C28.413 29.246 29.9113 26.5038 29.9113 26.5038C30.1701 26.0514 30.7476 25.8932 31.2 26.1524C31.6529 26.4112 31.7299 26.8159 31.5514 27.4411C31.2137 28.6255 30.1512 30.0865 29.7083 30.9719C29.8141 31.9735 29.6261 32.7914 29.7248 33.7378C29.739 33.8738 29.4698 34.0999 28.872 34.1514V34.1514Z" fill="#2A6797"/>
<path d="M33.9413 33.0785C33.7694 33.3397 33.4832 33.5234 33.1867 33.4742C32.5874 32.5657 30.8468 30.9615 30.8468 30.9615C30.733 30.8435 30.5814 30.6844 30.4407 30.3283C30.0875 29.4334 29.2611 26.4197 29.2611 26.4197C29.1326 25.9144 29.4386 25.3997 29.9439 25.2722C30.4492 25.1438 30.7859 25.3818 31.0914 25.9551C31.6708 27.0416 31.9211 28.8309 32.2172 29.7753C33.1002 30.5158 33.3425 31.4767 34.2359 32.2077C34.2052 32.6124 34.1132 32.8174 33.9413 33.0785Z" fill="#4289C1"/>
<path d="M32.1483 27.4444C32.1483 27.4444 32.1483 27.9167 31.2038 27.9167H28.8909C28.6949 26.9722 29.1525 26.1137 28.8427 24.8472C28.4423 23.2133 29.9789 21.6012 30.6456 21.8156C31.5174 22.0961 31.9173 23.0627 32.0302 24.5818C32.1431 26.101 32.1483 27.4444 32.1483 27.4444Z" fill="#9268CA"/>
<path d="M29.6691 23.5684C29.5902 24.2291 29.517 25.6618 29.4429 25.7525C29.0495 26.2346 28.6297 26.8102 28.2722 27.0412C28.013 27.2083 27.8893 27.5956 27.8345 27.7528C27.7665 27.9483 27.7339 28.3374 27.8614 28.4644C27.9412 28.5438 28.2061 28.548 28.2279 28.4125C28.2704 28.1485 28.5235 27.9795 28.6656 27.7197C28.9508 27.1984 29.8854 26.6964 30.2202 26.0273C30.359 25.7496 30.6433 25.2108 30.7316 23.7942C30.3916 23.7422 29.6691 23.5684 29.6691 23.5684V23.5684Z" fill="#D4AB88"/>
</g>
<defs>
<clipPath id="clip0">
<rect width="36" height="36" fill="white"/>
</clipPath>
</defs>
</svg>
