<svg viewBox="0 0 36 36" fill="none" xmlns="http://www.w3.org/2000/svg">
<g clip-path="url(#clip0)">
<path d="M19.5789 16.6307H33.4072V23.5448H19.5789V16.6307Z" fill="#C1694F"/>
<path d="M18.7146 14.9021C17.7639 14.9021 16.9861 15.68 16.9861 16.6307L16.9432 32.1186H20.2719L20.4431 16.6307C20.4431 15.68 19.6653 14.9021 18.7146 14.9021ZM34.2715 14.9021C33.3208 14.9021 32.5429 15.68 32.5429 16.6307L32.6713 29.3724H36L36 16.6307C36 15.68 35.2222 14.9021 34.2715 14.9021Z" fill="#C1694F"/>
<path d="M20.4431 16.6307H21.3074V23.5448H20.4431V16.6307ZM32.5429 23.5448H31.6786V16.6307H32.5429V23.5448Z" fill="#A4523A"/>
<path d="M34.4718 26.1457H9.1129C8.83608 26.1457 8.56421 26.2214 8.32711 26.363L0.935928 30.138C0.935928 30.138 29.1476 33.1397 31.6303 33.1397L35.3905 30.3279C35.774 30.0399 36 29.5868 36 29.1052V27.6739C36 26.8297 35.316 26.1457 34.4718 26.1457Z" fill="#D99E82"/>
<path d="M30.3393 33.594H1.93655C0.866484 33.594 0 32.7598 0 31.7319C0 30.7041 0.866484 29.8698 1.93655 29.8698H30.3393C31.4094 29.8698 32.2759 30.7041 32.2759 31.7319C32.2759 32.7598 31.4094 33.594 30.3393 33.594Z" fill="#C1694F"/>
<path d="M33.8307 26.1457V23.9702C33.8307 21.9102 31.5401 20.5515 29.4796 20.5515H22.0206C19.9613 20.5515 17.6695 21.9102 17.6695 23.9702V26.1457H33.8307Z" fill="#9266CC"/>
<path d="M25.7153 6.91952C28.2675 6.91952 32.5204 8.19563 32.5204 13.7246C32.5204 19.2536 32.5204 20.5297 31.2443 20.5297C29.9675 20.5297 28.2669 19.2536 25.7147 19.2536C23.1631 19.2536 21.4979 20.5297 20.1857 20.5297C18.7641 20.5297 18.9096 15.4259 18.9096 13.7246C18.9108 8.19563 23.1637 6.91952 25.7153 6.91952" fill="#963B22"/>
<path d="M22.6422 20.5515H28.7803C28.7803 20.5515 27.9996 22.727 25.7109 22.727C23.4223 22.727 22.6422 20.5515 22.6422 20.5515Z" fill="#292F33"/>
<path d="M23.4676 20.5639C23.4676 21.4838 24.8177 22.1054 25.7501 22.1054C26.6825 22.1054 28.0251 21.4838 28.0251 20.5639V18.5717H23.4676V20.5639V20.5639Z" fill="#D5AB88"/>
<path d="M23.4633 19.4196C24.0992 20.1375 24.8873 20.332 25.7439 20.332C26.601 20.332 27.3892 20.1381 28.0251 19.4196V17.5946H23.4633V19.4196V19.4196Z" fill="#CC9B7A"/>
<path d="M20.6121 13.5381C20.6121 9.91183 22.897 6.97236 25.7153 6.97236C28.5335 6.97236 30.8191 9.91183 30.8191 13.5381C30.8191 17.1638 28.5335 19.9317 25.7153 19.9317C22.897 19.9317 20.6121 17.1645 20.6121 13.5381" fill="#D5AB88"/>
<path d="M25.7153 18.4026C24.7176 18.4026 24.1949 17.9091 24.1389 17.8525C23.9724 17.6866 23.9724 17.4174 24.1389 17.2515C24.3043 17.0868 24.5691 17.0855 24.7357 17.2471C24.7574 17.267 25.0794 17.5523 25.7153 17.5523C26.3611 17.5523 26.6831 17.2583 26.6955 17.2465C26.8652 17.0874 27.1325 17.0923 27.2941 17.2589C27.4557 17.4261 27.4557 17.6884 27.2916 17.8525C27.2363 17.9091 26.7142 18.4026 25.7153 18.4026" fill="#DF1F32"/>
<path d="M19.3633 15.5788C19.3503 14.9572 19.336 15.4396 19.336 15.2898C19.336 13.1627 20.6121 15.5968 20.6121 14.082C20.6121 12.566 21.4624 12.4143 22.3127 11.564C22.7385 11.1382 23.5889 10.3047 23.5889 10.3047C23.5889 10.3047 25.7153 11.5895 27.4166 11.5895C29.1172 11.5895 30.8191 12.4441 30.8191 14.1454C30.8191 15.8467 32.0952 13.1608 32.0952 15.2873C32.0952 15.4389 32.0815 14.9572 32.0704 15.5788H32.5167C32.521 14.3356 32.521 14.3829 32.521 13.5885C32.521 8.0595 28.2675 6.00082 25.7159 6.00082C23.1643 6.00082 18.9114 8.02531 18.9114 13.5543C18.9114 14.0472 18.899 14.3356 18.9164 15.5788H19.3633V15.5788Z" fill="#963B22"/>
<path d="M23.6417 14.8863C23.3526 14.8863 23.1158 14.6495 23.1158 14.3605V13.8352C23.1158 13.5462 23.3526 13.3094 23.6417 13.3094C23.9307 13.3094 24.1682 13.5462 24.1682 13.8352V14.3605C24.1682 14.6495 23.9307 14.8863 23.6417 14.8863ZM27.8467 14.8863C27.5576 14.8863 27.3208 14.6495 27.3208 14.3605V13.8352C27.3208 13.5462 27.5576 13.3094 27.8467 13.3094C28.1357 13.3094 28.3725 13.5462 28.3725 13.8352V14.3605C28.3725 14.6495 28.1357 14.8863 27.8467 14.8863Z" fill="#662113"/>
<path d="M26.2704 16.5112H25.2193C25.0744 16.5112 24.9563 16.3931 24.9563 16.2482V16.1531C24.9563 16.0083 25.0738 15.8896 25.2193 15.8896H26.2704C26.4146 15.8896 26.5333 16.0077 26.5333 16.1531V16.2482C26.5333 16.3931 26.4146 16.5112 26.2704 16.5112Z" fill="#C1694F"/>
<path d="M21.675 13.6743C21.675 14.5743 21.2187 15.3041 20.6562 15.3041C20.0937 15.3041 19.6374 14.5743 19.6374 13.6743C19.6374 12.7742 20.0937 12.0439 20.6562 12.0439C21.2187 12.0432 21.675 12.7736 21.675 13.6743ZM31.8621 13.6743C31.8621 14.5743 31.4065 15.3041 30.8433 15.3041C30.2808 15.3041 29.8246 14.5743 29.8246 13.6743C29.8246 12.7742 30.2802 12.0439 30.8433 12.0439C31.4065 12.0432 31.8621 12.7736 31.8621 13.6743Z" fill="#D5AB88"/>
<path d="M25.7501 22.5542C25.7501 22.5542 27.8517 24.1044 28.2948 24.2803C28.3918 24.3189 28.0667 22.0078 28.0667 22.0078H23.4341C23.4341 22.0078 23.109 24.358 23.2886 24.2611C23.6864 24.0485 25.7501 22.5542 25.7501 22.5542" fill="#744EAA"/>
<path d="M22.8231 19.8783C23.1736 20.2301 25.7501 21.9811 25.7501 21.9811C25.7501 21.9811 24.4292 22.7531 23.2103 24.1784C23.0891 24.3214 22.2512 21.3036 22.2257 20.6298C22.2183 20.4414 22.6546 19.7098 22.8231 19.8783ZM28.6902 19.8783C28.3384 20.2301 25.7631 21.9811 25.7631 21.9811C25.7631 21.9811 27.084 22.7531 28.3017 24.1784C28.4229 24.3214 29.2595 21.3036 29.285 20.6298C29.2925 20.4414 28.858 19.7098 28.6902 19.8783Z" fill="#CBB7EA"/>
<path d="M25.1285 22.4162H26.3717V26.1457H25.1285V22.4162Z" fill="#744EAA"/>
<path d="M25.7501 25.8349C26.0934 25.8349 26.3717 25.5566 26.3717 25.2133C26.3717 24.87 26.0934 24.5918 25.7501 24.5918C25.4068 24.5918 25.1285 24.87 25.1285 25.2133C25.1285 25.5566 25.4068 25.8349 25.7501 25.8349Z" fill="#CBB7EA"/>
<path d="M25.7501 23.9702C26.0934 23.9702 26.3717 23.6919 26.3717 23.3486C26.3717 23.0053 26.0934 22.727 25.7501 22.727C25.4068 22.727 25.1285 23.0053 25.1285 23.3486C25.1285 23.6919 25.4068 23.9702 25.7501 23.9702Z" fill="#CBB7EA"/>
<path d="M21.5 31.2778C25.0899 31.2778 28 29.661 28 27.6667C28 25.6723 25.0899 24.0556 21.5 24.0556C17.9101 24.0556 15 25.6723 15 27.6667C15 29.661 17.9101 31.2778 21.5 31.2778Z" fill="#939598"/>
<path d="M21.5 30.5556C25.0899 30.5556 28 28.9388 28 26.9444C28 24.9501 25.0899 23.3333 21.5 23.3333C17.9101 23.3333 15 24.9501 15 26.9444C15 28.9388 17.9101 30.5556 21.5 30.5556Z" fill="#F1F2F2"/>
<path d="M21.5 29.5524C24.4516 29.5524 26.8444 28.3219 26.8444 26.804C26.8444 25.2861 24.4516 24.0556 21.5 24.0556C18.5483 24.0556 16.1555 25.2861 16.1555 26.804C16.1555 28.3219 18.5483 29.5524 21.5 29.5524Z" fill="#FFCC4D"/>
<path d="M18.9722 28.75C18.7729 28.75 18.6111 28.5886 18.6111 28.3889C18.6111 28.1892 18.7729 28.0278 18.9722 28.0278C19.6576 28.0278 20.0852 27.636 20.1184 27.3651C20.1513 27.0994 19.7717 26.9748 19.6067 26.9336C19.2795 26.8524 19.0361 26.9455 18.7552 27.0546C18.3695 27.2041 17.8412 27.4078 17.2725 26.8386C17.0237 26.5902 16.959 26.2594 17.0948 25.9312C17.3595 25.2924 18.3385 24.7778 18.9722 24.7778C19.1716 24.7778 19.3333 24.9396 19.3333 25.1389C19.3333 25.3382 19.1716 25.5 18.9722 25.5C18.5696 25.5 17.8907 25.8969 17.7621 26.2078C17.7354 26.2721 17.7463 26.2908 17.7831 26.328C18.0102 26.5548 18.1182 26.5259 18.4948 26.3811C18.8061 26.2605 19.2322 26.0958 19.7818 26.2334C20.6427 26.4486 20.8905 27.0048 20.8352 27.4536C20.7568 28.0906 20.0386 28.75 18.9722 28.75ZM21.1389 29.1111C20.9396 29.1111 20.7778 28.9497 20.7778 28.75C20.7778 28.5503 20.9396 28.3889 21.1389 28.3889C23.1961 28.3889 24.6897 27.9386 25.578 27.0503C25.7192 26.9091 25.9475 26.9091 26.0886 27.0503C26.2298 27.1914 26.2298 27.4197 26.0886 27.5609C25.0598 28.5897 23.3948 29.1111 21.1389 29.1111Z" fill="#FFE8B6"/>
<path d="M22.7094 27.7244C22.5154 27.7244 22.3233 27.7028 22.1348 27.6555C21.9388 27.6067 21.3426 27.4576 21.3238 26.9755C21.3101 26.6144 21.5625 26.1912 23.4681 25.5466C23.2604 25.3772 22.761 25.1389 22.2222 25.1389C21.3148 25.1389 20.8511 25.2151 20.672 25.3942C20.5308 25.5354 20.3026 25.5354 20.1614 25.3942C20.0202 25.253 20.0202 25.0248 20.1614 24.8836C20.5062 24.5387 21.0454 24.4167 22.2222 24.4167C23.0874 24.4167 24.1708 24.898 24.2719 25.5191C24.3105 25.7582 24.2022 26.063 23.7811 26.2034C22.8484 26.5144 22.3652 26.7628 22.1558 26.9101C22.1962 26.9242 22.2471 26.9394 22.31 26.9553C23.4767 27.2456 24.954 26.1009 25.1151 25.8069C25.1411 25.6332 25.2913 25.5 25.4722 25.5C25.6719 25.5 25.8333 25.6618 25.8333 25.8611C25.8333 26.1161 25.604 26.4244 25.1519 26.7772C24.5225 27.2687 23.6031 27.7241 22.7094 27.7244Z" fill="#FFE8B6"/>
<path d="M24.75 26.4028C24.75 27.3001 24.0173 28.3889 22.2222 28.3889C20.4271 28.3889 20.7778 27.6667 17.8889 26.5833C16.6698 26.1262 19.7049 24.7778 21.5 24.7778C23.2951 24.7778 24.75 25.5054 24.75 26.4028Z" fill="#DD2E44"/>
<path d="M20.7778 27.6667C20.6853 27.6667 20.5929 27.6313 20.5225 27.5609C20.3813 27.4197 20.3813 27.1914 20.5225 27.0503C20.6239 26.9401 20.5629 26.8791 20.5225 26.8386C20.321 26.6371 19.7143 26.6162 19.1336 26.9065C18.9549 26.9957 18.7382 26.9235 18.649 26.7451C18.5598 26.5667 18.6321 26.3497 18.8104 26.2605C19.5244 25.9037 20.5171 25.812 21.0327 26.3284C21.4848 26.7805 21.2804 27.3135 21.0327 27.5612C20.9627 27.6313 20.8702 27.6667 20.7778 27.6667ZM22.2222 26.2222C21.3505 26.2222 20.8915 25.7633 20.5225 25.3942C20.3813 25.253 20.3813 25.0248 20.5225 24.8836C20.6637 24.7424 20.8919 24.7424 21.0331 24.8836C21.3776 25.2281 21.6495 25.5 22.2222 25.5C22.5014 25.5 23.1561 25.5 23.4114 25.2447C23.5526 25.1035 23.7808 25.1035 23.922 25.2447C24.0632 25.3859 24.0632 25.6141 23.922 25.7553C23.4551 26.2222 22.6223 26.2222 22.2222 26.2222ZM22.2222 27.6667C22.0225 27.6667 21.8611 27.5053 21.8611 27.3056C21.8611 27.1059 22.0225 26.9444 22.2222 26.9444C22.8892 26.9444 23.8646 26.5971 24.1336 26.328C24.2748 26.1868 24.503 26.1868 24.6442 26.328C24.7854 26.4692 24.7854 26.6974 24.6442 26.8386C24.178 27.3048 22.9593 27.6667 22.2222 27.6667Z" fill="#EA596E"/>
<g clip-path="url(#clip1)">
<path d="M13.2236 24.5556H11.5V30C12.6667 30 13.4444 29.8056 13.7153 28.636C13.8658 27.9861 14.0387 26.2375 14.0387 25.1669C14.0387 24.8043 13.76 24.5556 13.2236 24.5556ZM9.729 24.5556H11.5V30C10.3333 30 9.55556 29.8056 9.26097 28.636C9.09803 27.9891 8.92575 26.2375 8.92575 25.1669C8.92575 24.8043 9.19233 24.5556 9.729 24.5556Z" fill="#8899A6"/>
<path d="M14.0379 25.0417C14.0379 25.4444 13.4293 25.7708 11.499 25.7708C9.56898 25.7708 8.96017 25.4444 8.96017 25.0417C8.96017 24.6388 9.56898 24.3125 11.499 24.3125C13.4293 24.3125 14.0379 24.6388 14.0379 25.0417Z" fill="#CCD6DD"/>
<path d="M11.5049 25.5272L9.26701 25.3333C9.26701 26.6944 9.48168 28.1298 9.59387 28.5557C9.7226 29.0435 10.1389 29.0241 11.5 29.0274V29.0278V29.0274C12.8611 29.0239 13.2823 29.0435 13.4108 28.5557C13.5232 28.1298 13.74 26.6944 13.74 25.3333L11.5049 25.5272Z" fill="#CCD6DD"/>
<path d="M11.5 27.0833V29.6111C12.8611 29.6111 13.25 29.4167 13.4166 28.5557C13.4635 28.314 13.5736 27.7633 13.6449 27.0833H11.5ZM9.36481 27.0833C9.43597 27.7633 9.54272 28.3136 9.58822 28.5557C9.75 29.4167 10.1389 29.6111 11.5 29.6111V27.0833H9.36481Z" fill="#55ACEE"/>
<path d="M11.5 28.8644C10.6141 28.8644 9.89603 29.0385 9.89603 29.2533C9.89603 29.2551 9.897 29.2568 9.89719 29.2588C10.1688 29.5329 10.6402 29.6111 11.5 29.6111C12.3581 29.6111 12.8292 29.5333 13.1024 29.2605C13.1026 29.2582 13.104 29.2559 13.104 29.2533C13.104 29.0385 12.3859 28.8644 11.5 28.8644Z" fill="#3B88C3"/>
<path d="M11.499 27.4722C12.682 27.4722 13.641 27.2981 13.641 27.0833C13.641 26.8686 12.682 26.6944 11.499 26.6944C10.316 26.6944 9.35703 26.8686 9.35703 27.0833C9.35703 27.2981 10.316 27.4722 11.499 27.4722Z" fill="#88C9F9"/>
<path d="M14.6029 23.182L13.2761 23.512C13.13 23.5483 12.9718 23.6242 12.8016 23.7529C12.4821 23.9946 12.417 24.3226 12.3649 24.5036L11.5661 27.2778H12.1732L12.9253 24.6652C12.9766 24.4871 13.0276 24.3343 13.1448 24.2279C13.2486 24.1338 13.4203 24.0784 13.5811 24.0368L14.7433 23.7484C14.8991 23.7097 14.9948 23.5509 14.9563 23.3951C14.9176 23.2392 14.7587 23.1433 14.6029 23.182Z" fill="#E1E8ED"/>
<path d="M11.5661 27.2778L11.0468 29.0816C11.0024 29.2358 11.0923 29.3982 11.2463 29.4427C11.4005 29.4871 11.5628 29.3972 11.6071 29.2432L12.1732 27.2778H11.5661Z" fill="#88C9F9"/>
<path d="M11.6246 27.4094L11.5103 27.472L11.4572 27.6562L11.8589 28.3696L12.0098 27.8454L11.7646 27.4096L11.6246 27.4094Z" fill="#744EAA"/>
<path d="M13.4262 23.4746L13.2068 24.1838C13.3101 24.1163 13.4483 24.071 13.5815 24.0366L13.6659 24.0156L13.8672 23.365L13.4262 23.4746Z" fill="#DD2E44"/>
<path d="M11.3143 28.1526L11.1632 28.677L11.5447 29.3546C11.5727 29.3231 11.5949 29.286 11.6073 29.243L11.7158 28.866L11.3143 28.1526Z" fill="#744EAA"/>
<path d="M11.8982 26.1243L11.7471 26.6489L12.0157 27.1257L12.1075 27.1461L12.2292 27.0833L12.3 26.8379L11.8982 26.1243ZM14.7074 23.1764C14.6733 23.1723 14.6381 23.1732 14.603 23.182L14.2732 23.2641L14.0717 23.9149L14.5125 23.8054L14.7074 23.1764ZM12.0427 25.6227L12.4444 26.3359L12.5953 25.8117L12.1938 25.0982L12.0427 25.6227ZM12.7936 23.7601C12.6385 23.8801 12.5438 24.0202 12.4823 24.1532L12.739 25.3137L12.9257 24.6652C12.9385 24.6205 12.9515 24.5773 12.9653 24.5361L12.7936 23.7601Z" fill="#DD2E44"/>
<path d="M11.6289 27.0602L11.5103 27.4722C11.723 27.472 11.9284 27.4662 12.1222 27.4555L12.236 27.0604C12.0536 27.1543 11.6732 27.0956 11.6289 27.0602Z" fill="#55ACEE"/>
<path d="M13.7585 25.199C13.7114 25.0728 13.573 25.0094 13.4505 25.0582C12.7493 25.3335 12.0808 25.4294 11.499 25.4348V25.9194C12.1471 25.9128 12.8774 25.8072 13.621 25.5149C13.7441 25.4667 13.8057 25.3252 13.7585 25.199ZM9.23959 25.199C9.28664 25.0728 9.42509 25.0094 9.54759 25.0582C10.2488 25.3335 10.9173 25.4294 11.499 25.4348V25.9194C10.8509 25.9128 10.1206 25.8072 9.37706 25.5149C9.25417 25.4667 9.19234 25.3252 9.23959 25.199Z" fill="white"/>
</g>
<g clip-path="url(#clip2)">
<path d="M12.5935 1.09786H2.48235C1.68465 1.09786 1.0379 1.74461 1.0379 2.54231V12.6534H14.0379V2.54231C14.0379 1.74461 13.3912 1.09786 12.5935 1.09786Z" fill="#FFCC4D"/>
<path d="M12.6346 7.14141C13.2077 6.97855 13.2077 6.72722 12.635 6.564L12.4331 6.50839L12.2323 6.44952V6.45133L11.1707 6.12958L12.0095 5.43119H12.0045L12.1825 5.31491L12.362 5.18527C12.8282 4.81586 12.726 4.57644 12.1348 4.64433L11.9052 4.67647L11.677 4.70897H11.6762L10.6005 4.83139L11.2397 3.68305L11.3512 3.48155C11.6408 2.96155 11.4527 2.77269 10.9331 3.06158L10.7316 3.16341L10.5308 3.26452H10.5301L9.58179 3.80222L9.70457 2.73802V2.73694L9.73346 2.50872L9.76126 2.27833C9.82915 1.68827 9.5836 1.5868 9.21382 2.05336L9.07154 2.23355L8.25651 3.26308L7.96076 2.22272L7.96004 2.22091L7.83438 1.77855C7.67151 1.20547 7.40465 1.20547 7.24143 1.77855L7.1786 1.99955L7.11576 2.22091L6.81929 3.26308L6.14726 2.41447L6.1469 2.41411L6.00426 2.23391L5.8609 2.053C5.49149 1.58716 5.24557 1.68936 5.31382 2.28014L5.34054 2.50908L5.3669 2.7373V2.73766L5.49185 3.81341L4.3446 3.17425L4.14346 3.06194C3.6231 2.77233 3.4346 2.96083 3.72421 3.48119L3.83615 3.68197L4.47532 4.82922L3.39957 4.70427H3.39921L3.17099 4.67791L2.94168 4.65119C2.3509 4.58294 2.24907 4.82886 2.71454 5.19827L2.89546 5.34164L3.07565 5.48427L3.07601 5.48464L3.92463 6.15666L2.88318 6.4535L2.66218 6.51633L2.44118 6.57916C1.8681 6.74239 1.8681 7.00889 2.44118 7.17211L2.88354 7.29777L2.88499 7.2985L3.92535 7.59425L2.89582 8.40964L2.71562 8.55264C2.24907 8.92205 2.35054 9.16833 2.9406 9.10044L3.17099 9.07155L3.39921 9.0423H3.39993L4.46449 8.91952L3.92679 9.8678V9.86852L3.82568 10.0693L3.71879 10.2712C3.4299 10.7912 3.62093 10.9789 4.14093 10.6893L4.34315 10.5777L5.49329 9.93858L5.37124 11.014V11.0147L5.34235 11.2429L5.31454 11.4722C5.24629 12.0634 5.49185 12.1648 5.86126 11.6986L6.00426 11.5181L6.1469 11.3375L6.81929 10.4882L7.1154 11.53V11.5304L7.17824 11.7514L7.24143 11.9727C7.40465 12.5454 7.64046 12.5454 7.80368 11.9724L7.89901 11.5304V11.5289L8.22582 10.4882L8.91374 11.3375L9.06396 11.5181L9.21093 11.6986C9.57999 12.1645 9.82843 12.0634 9.76018 11.4729L9.73202 11.2429L9.70457 11.0143V11.0132L9.58179 9.94905L10.5293 10.4867H10.5301L10.7312 10.5879L10.9327 10.6944C11.4527 10.9844 11.6416 10.793 11.3516 10.273L11.2505 10.0707L11.149 9.86925V9.86852L10.6113 8.91952L11.6755 9.0423H11.6766L11.9052 9.07119L12.1352 9.099C12.7256 9.16689 12.8267 8.92133 12.3609 8.55191L12.1803 8.40927L11.9998 8.26664L11.1505 7.56355L12.1912 7.23675H12.1926L12.6346 7.14141Z" fill="#F4900C"/>
<path d="M7.53791 10.3531C9.45848 10.3531 11.0154 8.79621 11.0154 6.87564C11.0154 4.95507 9.45848 3.39814 7.53791 3.39814C5.61734 3.39814 4.06041 4.95507 4.06041 6.87564C4.06041 8.79621 5.61734 10.3531 7.53791 10.3531Z" fill="#FFE8B6"/>
<path d="M4.64902 14.0979V6.51453L6.09346 5.07008H6.81568L8.26013 6.51453V14.0979H4.64902ZM12.9546 7.95897C12.9546 7.59786 12.5935 7.59786 12.5935 7.59786H10.0657C10.0657 7.59786 9.70457 7.59786 9.70457 7.95897V14.0979H12.9546V7.95897Z" fill="#485359"/>
<path d="M11.149 10.1256C11.149 9.76453 10.7879 9.76453 10.7879 9.76453H7.89901C7.5379 9.76453 7.5379 10.1256 7.5379 10.1256V14.0979H11.149V10.1256ZM5.01012 10.8479H3.20457V9.04231C3.20457 9.04231 3.20457 8.6812 2.84346 8.6812H1.0379V12.6534C1.0379 13.4511 1.68465 14.0979 2.48235 14.0979H5.37124V11.209C5.37124 11.209 5.37124 10.8479 5.01012 10.8479ZM12.5935 12.2923C12.2323 12.2923 12.2323 12.6534 12.2323 12.6534V14.0979H12.5935C13.3912 14.0979 14.0379 13.4511 14.0379 12.6534V12.2923H12.5935Z" fill="#292F33"/>
<path d="M3.9268 11.5701H4.64902V12.2923H3.9268V11.5701ZM3.20457 13.0145H3.9268V13.7367H3.20457V13.0145ZM6.81569 7.23675H7.53791V7.95897H6.81569V7.23675ZM6.81569 8.68119H7.53791V9.40341H6.81569V8.68119ZM6.09346 10.1256H6.81569V10.8479H6.09346V10.1256ZM9.70457 10.4867H10.4268V11.209H9.70457V10.4867ZM8.98235 11.9312H9.70457V12.6534H8.98235V11.9312ZM11.5101 8.32008H12.2324V9.0423H11.5101V8.32008ZM11.5101 9.76453H12.2324V10.4867H11.5101V9.76453Z" fill="#FFCC4D"/>
</g>
</g>
<defs>
<clipPath id="clip0">
<rect width="36" height="36" fill="white"/>
</clipPath>
<clipPath id="clip1">
<rect x="8" y="23" width="7" height="7" fill="white"/>
</clipPath>
<clipPath id="clip2">
<rect x="1.0379" y="1.09786" width="13" height="13" fill="white"/>
</clipPath>
</defs>
</svg>
