<svg viewBox="0 0 36 36" fill="none" xmlns="http://www.w3.org/2000/svg">
<g clip-path="url(#clip0)">
<path d="M36 23.6526C36 24.3964 35.3964 25 34.6526 25H13.0944C12.3506 25 11.747 24.3964 11.747 23.6526V10.8524C11.747 10.1087 12.3506 9.50504 13.0944 9.50504H34.6526C35.3964 9.50504 36 10.1087 36 10.8524V23.6526Z" fill="#FFCC4D"/>
<path d="M34.6526 9.50504H13.0944C12.3506 9.50504 11.747 10.1087 11.747 10.8524H36C36 10.1087 35.3964 9.50504 34.6526 9.50504Z" fill="#6D6E71"/>
<path d="M13.0944 16.9157H34.6526V19.6104H13.0944V16.9157ZM13.0944 12.8735H34.6526V15.5683H13.0944V12.8735ZM13.0944 20.9578H34.6526V23.6526H13.0944V20.9578Z" fill="#3B88C3"/>
<path d="M30.6104 12.1998H31.9578V24.3263H30.6104V12.1998Z" fill="#FFCC4D"/>
<path d="M26.5683 0.747017H15.7892C15.0454 0.747017 14.4418 1.35065 14.4418 2.0944V25H27.9157V2.0944C27.9157 1.35065 27.3121 0.747017 26.5683 0.747017Z" fill="#FFE8B6"/>
<path d="M26.5683 0.747017H15.7892C15.0454 0.747017 14.4418 1.35065 14.4418 2.0944H27.9157C27.9157 1.35065 27.3121 0.747017 26.5683 0.747017Z" fill="#808285"/>
<path d="M15.7892 12.8735H26.5683V15.5683H15.7892V12.8735ZM15.7892 16.9157H26.5683V19.6104H15.7892V16.9157ZM15.7892 20.9578H26.5683V23.6526H15.7892V20.9578Z" fill="#55ACEE"/>
<path d="M18.4839 5.46288H19.8313V25H18.4839V5.46288ZM22.5261 5.46288H23.8735V25H22.5261V5.46288Z" fill="#FFE8B6"/>
<path d="M19.8314 20.9578H22.5261V25H19.8314V20.9578Z" fill="#226699"/>
<path d="M21.1787 10.8524C23.4112 10.8524 25.2209 9.04269 25.2209 6.81026C25.2209 4.57784 23.4112 2.7681 21.1787 2.7681C18.9463 2.7681 17.1366 4.57784 17.1366 6.81026C17.1366 9.04269 18.9463 10.8524 21.1787 10.8524Z" fill="#A7A9AC"/>
<path d="M21.1787 9.50504C22.667 9.50504 23.8735 8.29855 23.8735 6.81026C23.8735 5.32198 22.667 4.11549 21.1787 4.11549C19.6904 4.11549 18.4839 5.32198 18.4839 6.81026C18.4839 8.29855 19.6904 9.50504 21.1787 9.50504Z" fill="#E6E7E8"/>
<path d="M23.1998 7.48396H21.1787C20.8069 7.48396 20.505 7.18214 20.505 6.81026V3.44179C20.505 3.06992 20.8069 2.7681 21.1787 2.7681C21.5506 2.7681 21.8524 3.06992 21.8524 3.44179V6.13657H23.1998C23.5717 6.13657 23.8735 6.43839 23.8735 6.81026C23.8735 7.18214 23.5717 7.48396 23.1998 7.48396Z" fill="#A0041E"/>
<path d="M6.49481 34.516L6.51936 34.5235C6.51086 34.4914 6.49953 34.4338 6.49953 34.3427C6.49953 34.1996 6.5732 33.9323 6.5935 33.8941C6.61381 33.8558 6.636 33.8284 6.68511 33.8421C6.72242 33.8525 7.00859 33.9961 7.19134 34.0031C7.53086 34.0159 7.69472 33.7113 7.69472 33.7113C7.69472 33.7113 7.88314 33.819 8.03284 33.9063C8.183 33.9937 8.35725 34.1245 8.4857 34.2024C8.59525 34.269 8.72039 34.3006 8.84978 34.3172C8.97917 34.3337 9.08447 34.328 9.11564 34.3309C9.14681 34.3337 9.40889 34.3021 9.41834 34.5613L9.41692 34.6213L9.44242 34.609C9.44242 34.609 9.46509 34.6893 9.46698 34.7044C9.46886 34.72 9.47831 34.7289 9.44525 34.7497C9.4122 34.7705 9.26675 34.8328 9.08164 34.8791C8.89653 34.9254 8.5962 34.9939 8.36434 34.9939C8.13247 34.9939 7.93509 34.9476 7.82081 34.9202C7.70606 34.8928 7.4605 34.8404 7.43689 34.8513C7.41328 34.8621 7.38211 34.9414 7.3552 34.966C7.32781 34.9906 6.59492 34.9278 6.5425 34.9169C6.48961 34.906 6.47356 34.8607 6.47356 34.8404V34.5339C6.47261 34.5212 6.48347 34.5127 6.49481 34.516V34.516ZM1.32539 32.7442L1.56339 32.5416C1.57236 32.5341 1.58605 32.5364 1.59125 32.5473L1.60164 32.5714C1.621 32.5435 1.6583 32.4967 1.72867 32.4368C1.83964 32.3423 2.09558 32.2224 2.13855 32.2134C2.18153 32.204 2.21742 32.203 2.23914 32.2498C2.25567 32.2857 2.33311 32.6021 2.4488 32.7484C2.66319 33.02 3.00792 32.9458 3.00792 32.9458L3.08017 33.3368C3.1118 33.5106 3.1255 33.7326 3.15006 33.8837C3.17083 34.0126 3.22892 34.1306 3.30211 34.2416C3.37483 34.3531 3.4485 34.4305 3.46739 34.4569C3.4858 34.4829 3.68319 34.6652 3.48864 34.8442L3.44094 34.8824L3.46692 34.8942C3.46692 34.8942 3.41969 34.9646 3.40931 34.9764C3.39892 34.9882 3.3975 35.0014 3.36019 34.9896C3.32289 34.9778 3.17792 34.906 3.01972 34.7932C2.86105 34.6798 2.60983 34.4924 2.45683 34.3124C2.30336 34.1325 2.20939 33.9488 2.15461 33.8421C2.09983 33.7354 1.97847 33.5101 1.95439 33.4988C1.9303 33.4875 1.84861 33.5158 1.8113 33.5111C1.77447 33.5064 1.33861 32.8962 1.31217 32.8486C1.28572 32.8009 1.3098 32.7574 1.32539 32.7442V32.7442Z" fill="#292F33"/>
<path d="M5.88614 23.7814C5.44839 24.2347 4.44019 25.1461 4.418 25.2552C4.29947 25.8327 4.12805 26.4858 4.17244 26.8863C4.20455 27.1767 3.99489 27.4992 3.91225 27.6338C3.80931 27.801 3.54344 28.0579 3.37344 28.0399C3.26767 28.0291 3.10569 27.8369 3.19211 27.7396C3.36069 27.5507 3.33283 27.2631 3.43861 27.0034C3.65064 26.4816 3.45986 25.4951 3.75075 24.8486C3.87164 24.5809 4.09689 24.0492 5.08431 23.1364C5.32561 23.3545 5.88614 23.7814 5.88614 23.7814V23.7814Z" fill="#CC9B7A"/>
<path d="M6.0254 18.6536C6.77765 18.3575 7.95065 18.7395 8.08665 19.6183C8.22218 20.491 7.97379 21.8599 7.2069 21.7773C6.40318 21.6904 5.57868 21.5157 5.25285 20.6879C4.92702 19.8601 5.27315 18.9496 6.0254 18.6536V18.6536Z" fill="#D4AB88"/>
<path d="M5.46633 20.9009C4.37172 19.615 7.0086 19.7401 7.0086 19.7401C7.50774 19.7581 7.16396 20.5897 7.39913 21.0439C7.56016 21.358 6.88205 21.5247 6.88205 21.5247C6.88205 21.5247 6.57085 21.5199 6.55433 21.8977V21.901C6.55055 21.9974 6.56046 22.1112 6.60533 22.2642C6.82869 23.0202 5.81341 23.4834 5.59052 22.726C5.50221 22.4261 5.53669 22.1626 5.58108 21.9194L5.58533 21.8977C5.65333 21.536 5.73738 21.2191 5.46633 20.9009V20.9009Z" fill="#D4AB88"/>
<path d="M5.16595 18.9567C5.66698 18.3702 6.35595 18.127 7.53604 18.5832C8.5669 18.9818 8.2354 19.8011 7.99504 19.6608C7.33298 19.275 6.89382 19.6046 6.55665 20.1429C6.45843 19.8785 6.02682 19.7161 5.93945 20.1028C5.84123 20.5377 6.24498 20.7271 6.19115 20.8456C6.1732 20.8853 6.21145 20.8097 6.19115 20.8456C5.93284 21.2989 5.51257 21.4416 5.51257 21.4416C5.51257 21.4416 5.35343 21.5039 5.0819 20.9689C4.81037 20.4338 4.66823 19.539 5.16595 18.9567V18.9567Z" fill="#963B22"/>
<path d="M5.43704 19.5734C4.41562 19.794 4.83495 21.3863 4.73484 21.9723C4.61159 22.6939 3.90326 22.7194 3.90326 22.7194C3.90326 22.7194 4.0199 22.2169 3.95804 21.6914C3.87162 20.9627 3.39657 20.3743 3.89807 19.6627C4.53793 18.7541 6.07218 19.4365 5.43704 19.5734V19.5734Z" fill="#963B22"/>
<path d="M7.41516 34.1514C8.013 34.2029 8.29019 34.0414 8.22786 33.955C8.14994 33.8473 8.16741 33.7675 8.16647 33.7019C8.15325 32.5492 8.38889 30.8728 8.38889 30.8728C8.38889 30.7084 8.38747 30.4889 8.24155 30.1352C7.87416 29.246 6.3758 26.5038 6.3758 26.5038C6.11702 26.0514 5.5395 25.8932 5.08711 26.1524C4.63425 26.4112 4.55728 26.8159 4.73578 27.4411C5.07341 28.6255 6.13591 30.0865 6.57886 30.9719C6.47308 31.9735 6.66102 32.7914 6.56233 33.7378C6.54816 33.8738 6.81733 34.0999 7.41516 34.1514V34.1514Z" fill="#2A6797"/>
<path d="M2.34587 33.0785C2.51776 33.3397 2.80393 33.5234 3.10049 33.4742C3.69974 32.5657 5.44035 30.9615 5.44035 30.9615C5.55415 30.8435 5.70573 30.6844 5.84646 30.3283C6.19968 29.4334 7.02607 26.4197 7.02607 26.4197C7.15451 25.9144 6.84851 25.3997 6.34323 25.2722C5.83796 25.1438 5.50126 25.3818 5.19574 25.9551C4.61632 27.0416 4.36604 28.8309 4.06996 29.7753C3.1869 30.5158 2.94465 31.4767 2.05121 32.2077C2.0819 32.6124 2.17398 32.8174 2.34587 33.0785Z" fill="#4289C1"/>
<path d="M4.13889 27.4444C4.13889 27.4444 4.13889 27.9167 5.08333 27.9167H7.39628C7.59225 26.9722 7.13466 26.1137 7.44444 24.8472C7.84489 23.2133 6.30828 21.6012 5.6415 21.8156C4.76978 22.0961 4.3698 23.0627 4.25694 24.5818C4.14408 26.101 4.13889 27.4444 4.13889 27.4444Z" fill="#9268CA"/>
<path d="M6.61806 23.5684C6.69692 24.2291 6.77012 25.6618 6.84425 25.7525C7.23762 26.2346 7.65742 26.8102 8.01489 27.0412C8.27414 27.2083 8.39786 27.5956 8.45264 27.7528C8.52064 27.9483 8.55323 28.3374 8.42573 28.4644C8.34592 28.5438 8.081 28.548 8.05928 28.4125C8.01678 28.1485 7.76367 27.9795 7.62153 27.7197C7.33631 27.1984 6.40178 26.6964 6.06698 26.0273C5.92814 25.7496 5.64387 25.2108 5.55556 23.7942C5.89556 23.7422 6.61806 23.5684 6.61806 23.5684V23.5684Z" fill="#D4AB88"/>
</g>
<defs>
<clipPath id="clip0">
<rect width="36" height="36" fill="white"/>
</clipPath>
</defs>
</svg>
