<svg viewBox="0 0 36 36" fill="none" xmlns="http://www.w3.org/2000/svg">
<path d="M27.2619 18.7777C27.2619 26.3058 21.159 32.4086 13.631 32.4086C6.10364 32.4086 0 26.3058 0 18.7777C0 11.2504 6.10364 5.14674 13.631 5.14674C21.159 5.14674 27.2619 11.2504 27.2619 18.7777Z" fill="#FFCC4D"/>
<path d="M9.08731 18.0204C10.1329 18.0204 10.9805 16.8338 10.9805 15.37C10.9805 13.9062 10.1329 12.7195 9.08731 12.7195C8.04173 12.7195 7.19412 13.9062 7.19412 15.37C7.19412 16.8338 8.04173 18.0204 9.08731 18.0204Z" fill="#664500"/>
<path d="M18.1746 18.0204C19.2202 18.0204 20.0678 16.8338 20.0678 15.37C20.0678 13.9062 19.2202 12.7195 18.1746 12.7195C17.129 12.7195 16.2814 13.9062 16.2814 15.37C16.2814 16.8338 17.129 18.0204 18.1746 18.0204Z" fill="#664500"/>
<path d="M18.9319 21.0495C20.6047 21.0495 21.961 22.4058 21.961 24.0786C21.961 25.7514 20.6047 27.1077 18.9319 27.1077H8.33003C6.65721 27.1077 5.30093 25.7514 5.30093 24.0786C5.30093 22.4058 6.65721 21.0495 8.33003 21.0495H18.9319Z" fill="white"/>
<path d="M18.9319 20.2923H8.33002C6.24221 20.2923 4.54364 21.9908 4.54364 24.0786C4.54364 26.1664 6.24221 27.865 8.33002 27.865H18.9319C21.0197 27.865 22.7182 26.1664 22.7182 24.0786C22.7182 21.9908 21.0197 20.2923 18.9319 20.2923ZM18.9319 21.8068C20.0549 21.8068 20.9841 22.6277 21.1651 23.7H18.5532V21.8068H18.9319ZM17.796 21.8068V23.7H15.5241V21.8068H17.796ZM14.7669 21.8068V23.7H12.495V21.8068H14.7669ZM11.7378 21.8068V23.7H9.46593V21.8068H11.7378ZM8.33002 21.8068H8.70865V23.7H6.09681C6.2778 22.6277 7.20698 21.8068 8.33002 21.8068ZM8.33002 26.3505C7.20698 26.3505 6.2778 25.5296 6.09681 24.4573H8.70865V26.3505H8.33002ZM9.46593 26.3505V24.4573H11.7378V26.3505H9.46593ZM12.495 26.3505V24.4573H14.7669V26.3505H12.495ZM15.5241 26.3505V24.4573H17.796V26.3505H15.5241ZM18.9319 26.3505H18.5532V24.4573H21.1651C20.9841 25.5296 20.0549 26.3505 18.9319 26.3505Z" fill="#664500"/>
<path d="M19.0622 25.6397C18.6174 25.5968 18.2912 25.201 18.3336 24.7555C18.3772 24.3102 18.773 23.984 19.2178 24.027L34.9383 25.5444C35.3832 25.5873 35.7093 25.9832 35.6664 26.428C35.6235 26.8728 35.2283 27.1984 34.7828 27.156L19.0622 25.6397Z" fill="#BE1931"/>
<path d="M13.4227 25.5287C12.7403 25.4628 12.2406 24.8563 12.307 24.1746C12.3722 23.4928 12.9787 22.993 13.661 23.0589L20.2471 23.6944C20.9295 23.7602 21.4292 24.3667 21.3629 25.0484C21.2977 25.7303 20.6912 26.23 20.0088 26.1642L13.4227 25.5287Z" fill="#BE1931"/>
</svg>
