<svg viewBox="0 0 36 36" fill="none" xmlns="http://www.w3.org/2000/svg">
<g clip-path="url(#clip0)">
<path d="M19.5789 16.6307H33.4072V23.5448H19.5789V16.6307Z" fill="#C1694F"/>
<path d="M18.7146 14.9021C17.7639 14.9021 16.9861 15.68 16.9861 16.6307L16.9432 32.1186H20.2719L20.4431 16.6307C20.4431 15.68 19.6653 14.9021 18.7146 14.9021ZM34.2715 14.9021C33.3208 14.9021 32.5429 15.68 32.5429 16.6307L32.6713 29.3724H36L36 16.6307C36 15.68 35.2222 14.9021 34.2715 14.9021Z" fill="#C1694F"/>
<path d="M20.4431 16.6307H21.3074V23.5448H20.4431V16.6307ZM32.5429 23.5448H31.6786V16.6307H32.5429V23.5448Z" fill="#A4523A"/>
<path d="M34.4718 26.1457H9.1129C8.83608 26.1457 8.56421 26.2214 8.32711 26.3629L0.935928 30.138C0.935928 30.138 29.1476 33.1396 31.6303 33.1396L35.3905 30.3279C35.774 30.0399 36 29.5868 36 29.1052V27.6738C36 26.8297 35.316 26.1457 34.4718 26.1457V26.1457Z" fill="#D99E82"/>
<path d="M30.3394 33.594H1.93655C0.866484 33.594 0 32.7598 0 31.7319C0 30.704 0.866484 29.8698 1.93655 29.8698H30.3394C31.4094 29.8698 32.2759 30.704 32.2759 31.7319C32.2759 32.7598 31.4094 33.594 30.3394 33.594V33.594Z" fill="#C1694F"/>
<path d="M33.8307 26.1457V23.9702C33.8307 21.9102 31.5401 20.5515 29.4796 20.5515H22.0206C19.9613 20.5515 17.6695 21.9102 17.6695 23.9702V26.1457H33.8307Z" fill="#9266CC"/>
<path d="M25.7153 6.91952C28.2675 6.91952 32.5204 8.19563 32.5204 13.7246C32.5204 19.2536 32.5204 20.5297 31.2443 20.5297C29.9675 20.5297 28.2669 19.2536 25.7147 19.2536C23.1631 19.2536 21.4979 20.5297 20.1857 20.5297C18.7641 20.5297 18.9096 15.4259 18.9096 13.7246C18.9108 8.19563 23.1637 6.91952 25.7153 6.91952" fill="#963B22"/>
<path d="M22.6422 20.5515H28.7803C28.7803 20.5515 27.9996 22.727 25.7109 22.727C23.4223 22.727 22.6422 20.5515 22.6422 20.5515Z" fill="#292F33"/>
<path d="M23.4676 20.5639C23.4676 21.4838 24.8177 22.1054 25.7501 22.1054C26.6825 22.1054 28.0251 21.4838 28.0251 20.5639V18.5717H23.4676V20.5639V20.5639Z" fill="#D5AB88"/>
<path d="M23.4633 19.4196C24.0992 20.1375 24.8873 20.332 25.7439 20.332C26.601 20.332 27.3892 20.1381 28.0251 19.4196V17.5946H23.4633V19.4196V19.4196Z" fill="#CC9B7A"/>
<path d="M20.6121 13.5381C20.6121 9.91182 22.897 6.97235 25.7153 6.97235C28.5335 6.97235 30.8191 9.91182 30.8191 13.5381C30.8191 17.1638 28.5335 19.9317 25.7153 19.9317C22.897 19.9317 20.6121 17.1645 20.6121 13.5381" fill="#D5AB88"/>
<path d="M25.7153 18.4026C24.7176 18.4026 24.1949 17.9091 24.1389 17.8525C23.9724 17.6866 23.9724 17.4174 24.1389 17.2515C24.3043 17.0868 24.5691 17.0855 24.7357 17.2471C24.7574 17.267 25.0794 17.5523 25.7153 17.5523C26.3611 17.5523 26.6831 17.2583 26.6955 17.2465C26.8652 17.0874 27.1325 17.0923 27.2941 17.2589C27.4557 17.4261 27.4557 17.6884 27.2916 17.8525C27.2363 17.9091 26.7142 18.4026 25.7153 18.4026" fill="#DF1F32"/>
<path d="M19.3633 15.5788C19.3503 14.9572 19.336 15.4396 19.336 15.2898C19.336 13.1627 20.6121 15.5968 20.6121 14.082C20.6121 12.566 21.4624 12.4143 22.3127 11.564C22.7385 11.1382 23.5889 10.3047 23.5889 10.3047C23.5889 10.3047 25.7153 11.5895 27.4166 11.5895C29.1172 11.5895 30.8191 12.4442 30.8191 14.1454C30.8191 15.8467 32.0952 13.1608 32.0952 15.2873C32.0952 15.4389 32.0815 14.9572 32.0704 15.5788H32.5167C32.521 14.3356 32.521 14.3829 32.521 13.5885C32.521 8.0595 28.2675 6.00082 25.7159 6.00082C23.1643 6.00082 18.9114 8.02531 18.9114 13.5543C18.9114 14.0472 18.899 14.3356 18.9164 15.5788H19.3633V15.5788Z" fill="#963B22"/>
<path d="M23.6417 14.8863C23.3526 14.8863 23.1158 14.6495 23.1158 14.3605V13.8353C23.1158 13.5462 23.3526 13.3094 23.6417 13.3094C23.9307 13.3094 24.1682 13.5462 24.1682 13.8353V14.3605C24.1682 14.6495 23.9307 14.8863 23.6417 14.8863ZM27.8467 14.8863C27.5576 14.8863 27.3208 14.6495 27.3208 14.3605V13.8353C27.3208 13.5462 27.5576 13.3094 27.8467 13.3094C28.1357 13.3094 28.3725 13.5462 28.3725 13.8353V14.3605C28.3725 14.6495 28.1357 14.8863 27.8467 14.8863Z" fill="#662113"/>
<path d="M26.2704 16.5112H25.2193C25.0744 16.5112 24.9563 16.3931 24.9563 16.2482V16.1531C24.9563 16.0083 25.0738 15.8896 25.2193 15.8896H26.2704C26.4146 15.8896 26.5333 16.0077 26.5333 16.1531V16.2482C26.5333 16.3931 26.4146 16.5112 26.2704 16.5112Z" fill="#C1694F"/>
<path d="M21.675 13.6743C21.675 14.5743 21.2187 15.3041 20.6562 15.3041C20.0937 15.3041 19.6374 14.5743 19.6374 13.6743C19.6374 12.7742 20.0937 12.0439 20.6562 12.0439C21.2187 12.0432 21.675 12.7736 21.675 13.6743ZM31.8621 13.6743C31.8621 14.5743 31.4065 15.3041 30.8433 15.3041C30.2808 15.3041 29.8246 14.5743 29.8246 13.6743C29.8246 12.7742 30.2802 12.0439 30.8433 12.0439C31.4065 12.0432 31.8621 12.7736 31.8621 13.6743Z" fill="#D5AB88"/>
<path d="M25.7501 22.5542C25.7501 22.5542 27.8517 24.1044 28.2948 24.2803C28.3918 24.3189 28.0667 22.0078 28.0667 22.0078H23.4341C23.4341 22.0078 23.109 24.358 23.2886 24.2611C23.6864 24.0485 25.7501 22.5542 25.7501 22.5542" fill="#744EAA"/>
<path d="M22.8231 19.8783C23.1736 20.2301 25.7501 21.9811 25.7501 21.9811C25.7501 21.9811 24.4292 22.7531 23.2103 24.1784C23.0891 24.3214 22.2512 21.3036 22.2257 20.6298C22.2183 20.4414 22.6546 19.7098 22.8231 19.8783ZM28.6902 19.8783C28.3384 20.2301 25.7631 21.9811 25.7631 21.9811C25.7631 21.9811 27.084 22.7531 28.3017 24.1784C28.4229 24.3214 29.2595 21.3036 29.285 20.6298C29.2925 20.4414 28.858 19.7098 28.6902 19.8783Z" fill="#CBB7EA"/>
<path d="M25.1285 22.4162H26.3717V26.1457H25.1285V22.4162Z" fill="#744EAA"/>
<path d="M25.7501 25.8349C26.0934 25.8349 26.3717 25.5566 26.3717 25.2133C26.3717 24.87 26.0934 24.5917 25.7501 24.5917C25.4068 24.5917 25.1285 24.87 25.1285 25.2133C25.1285 25.5566 25.4068 25.8349 25.7501 25.8349Z" fill="#CBB7EA"/>
<path d="M25.7501 23.9702C26.0934 23.9702 26.3717 23.6919 26.3717 23.3486C26.3717 23.0053 26.0934 22.727 25.7501 22.727C25.4068 22.727 25.1285 23.0053 25.1285 23.3486C25.1285 23.6919 25.4068 23.9702 25.7501 23.9702Z" fill="#CBB7EA"/>
<g clip-path="url(#clip1)">
<path d="M13.2236 24.5556H11.5V30C12.6667 30 13.4444 29.8056 13.7153 28.636C13.8658 27.9861 14.0387 26.2375 14.0387 25.1669C14.0387 24.8043 13.76 24.5556 13.2236 24.5556ZM9.729 24.5556H11.5V30C10.3333 30 9.55556 29.8056 9.26097 28.636C9.09803 27.9891 8.92575 26.2375 8.92575 25.1669C8.92575 24.8043 9.19233 24.5556 9.729 24.5556Z" fill="#8899A6"/>
<path d="M14.0379 25.0417C14.0379 25.4444 13.4293 25.7708 11.499 25.7708C9.56898 25.7708 8.96017 25.4444 8.96017 25.0417C8.96017 24.6388 9.56898 24.3125 11.499 24.3125C13.4293 24.3125 14.0379 24.6388 14.0379 25.0417Z" fill="#CCD6DD"/>
<path d="M11.5049 25.5272L9.26701 25.3333C9.26701 26.6944 9.48168 28.1298 9.59387 28.5557C9.7226 29.0435 10.1389 29.0241 11.5 29.0274V29.0278V29.0274C12.8611 29.0239 13.2823 29.0435 13.4108 28.5557C13.5232 28.1298 13.74 26.6944 13.74 25.3333L11.5049 25.5272Z" fill="#CCD6DD"/>
<path d="M11.5 27.0833V29.6111C12.8611 29.6111 13.25 29.4167 13.4166 28.5557C13.4635 28.314 13.5736 27.7633 13.6449 27.0833H11.5ZM9.36481 27.0833C9.43597 27.7633 9.54272 28.3136 9.58822 28.5557C9.75 29.4167 10.1389 29.6111 11.5 29.6111V27.0833H9.36481Z" fill="#55ACEE"/>
<path d="M11.5 28.8644C10.6141 28.8644 9.89603 29.0385 9.89603 29.2533C9.89603 29.2551 9.897 29.2568 9.89719 29.2588C10.1688 29.5329 10.6402 29.6111 11.5 29.6111C12.3581 29.6111 12.8292 29.5333 13.1024 29.2605C13.1026 29.2582 13.104 29.2559 13.104 29.2533C13.104 29.0385 12.3859 28.8644 11.5 28.8644V28.8644Z" fill="#3B88C3"/>
<path d="M11.499 27.4722C12.682 27.4722 13.641 27.2981 13.641 27.0833C13.641 26.8686 12.682 26.6944 11.499 26.6944C10.316 26.6944 9.35703 26.8686 9.35703 27.0833C9.35703 27.2981 10.316 27.4722 11.499 27.4722Z" fill="#88C9F9"/>
<path d="M14.6029 23.182L13.2761 23.512C13.13 23.5483 12.9718 23.6242 12.8016 23.7529C12.4821 23.9946 12.417 24.3226 12.3649 24.5036L11.5661 27.2778H12.1732L12.9253 24.6652C12.9766 24.4871 13.0276 24.3343 13.1448 24.2279C13.2486 24.1338 13.4203 24.0784 13.5811 24.0368L14.7433 23.7484C14.8991 23.7097 14.9948 23.5509 14.9563 23.3951C14.9176 23.2392 14.7587 23.1433 14.6029 23.182V23.182Z" fill="#E1E8ED"/>
<path d="M11.5661 27.2778L11.0468 29.0816C11.0024 29.2358 11.0923 29.3982 11.2463 29.4427C11.4005 29.4871 11.5628 29.3972 11.6071 29.2432L12.1732 27.2778H11.5661Z" fill="#88C9F9"/>
<path d="M11.6246 27.4094L11.5103 27.472L11.4572 27.6562L11.8589 28.3696L12.0098 27.8454L11.7646 27.4096L11.6246 27.4094Z" fill="#744EAA"/>
<path d="M13.4262 23.4746L13.2068 24.1838C13.3101 24.1163 13.4483 24.071 13.5815 24.0366L13.6659 24.0156L13.8672 23.365L13.4262 23.4746Z" fill="#DD2E44"/>
<path d="M11.3143 28.1526L11.1632 28.677L11.5447 29.3546C11.5727 29.3231 11.5949 29.286 11.6073 29.243L11.7158 28.866L11.3143 28.1526V28.1526Z" fill="#744EAA"/>
<path d="M11.8982 26.1243L11.7471 26.6489L12.0157 27.1257L12.1075 27.1461L12.2292 27.0833L12.3 26.8379L11.8982 26.1243ZM14.7074 23.1764C14.6733 23.1723 14.6381 23.1732 14.603 23.182L14.2732 23.2641L14.0717 23.9149L14.5125 23.8054L14.7074 23.1764ZM12.0427 25.6227L12.4444 26.3359L12.5953 25.8117L12.1938 25.0982L12.0427 25.6227ZM12.7936 23.7601C12.6385 23.8801 12.5438 24.0202 12.4823 24.1532L12.739 25.3137L12.9257 24.6652C12.9385 24.6205 12.9515 24.5773 12.9653 24.5361L12.7936 23.7601V23.7601Z" fill="#DD2E44"/>
<path d="M11.6289 27.0602L11.5103 27.4722C11.723 27.472 11.9284 27.4662 12.1222 27.4555L12.236 27.0604C12.0536 27.1543 11.6732 27.0956 11.6289 27.0602Z" fill="#55ACEE"/>
<path d="M13.7585 25.199C13.7114 25.0728 13.573 25.0094 13.4505 25.0582C12.7493 25.3335 12.0808 25.4294 11.499 25.4348V25.9194C12.1471 25.9128 12.8774 25.8072 13.621 25.5149C13.7441 25.4667 13.8057 25.3252 13.7585 25.199ZM9.23959 25.199C9.28664 25.0728 9.42509 25.0094 9.54759 25.0582C10.2488 25.3335 10.9173 25.4294 11.499 25.4348V25.9194C10.8509 25.9128 10.1206 25.8072 9.37706 25.5149C9.25417 25.4667 9.19234 25.3252 9.23959 25.199V25.199Z" fill="white"/>
</g>
<path d="M22.6024 31.0545C25.7892 31.0545 28.3725 29.6193 28.3725 27.8489C28.3725 26.0785 25.7892 24.6432 22.6024 24.6432C19.4156 24.6432 16.8322 26.0785 16.8322 27.8489C16.8322 29.6193 19.4156 31.0545 22.6024 31.0545Z" fill="#939598"/>
<path d="M22.6024 30.4134C25.7892 30.4134 28.3725 28.9782 28.3725 27.2078C28.3725 25.4373 25.7892 24.0021 22.6024 24.0021C19.4156 24.0021 16.8322 25.4373 16.8322 27.2078C16.8322 28.9782 19.4156 30.4134 22.6024 30.4134Z" fill="#F1F2F2"/>
<g clip-path="url(#clip2)">
<path d="M26.7913 27.1835L18.2913 27.0545L18.2955 27.7108C18.2998 27.859 18.3843 28.0078 18.5655 28.1188L20.2923 29.1758L22.0193 30.2325C22.4008 30.4663 23.0555 30.4445 23.4005 30.2325C23.7463 30.0213 23.5735 29.9158 23.9188 29.704C24.264 29.493 24.4365 29.5985 24.7823 29.3875C25.128 29.1755 26.5095 28.3308 26.5095 28.3308C26.6998 28.2143 26.7948 28.0615 26.7953 27.9085L26.7913 27.1835V27.1835Z" fill="#F4900C"/>
<path d="M26.5095 26.7348C26.5095 26.7348 18.911 26.3123 18.5655 26.5235C18.22 26.7348 18.184 27.1353 18.5655 27.369L20.2923 28.426L22.0193 29.483C22.4008 29.7168 23.0555 29.695 23.4005 29.483C23.7463 29.2718 23.5735 29.1663 23.9188 28.9545C24.264 28.7435 24.4365 28.849 24.7823 28.638C25.128 28.426 26.5093 27.581 26.5093 27.581C26.8908 27.3473 26.891 26.9683 26.5095 26.7348V26.7348Z" fill="#FFAC33"/>
<path d="M20.5968 28.215L22.3645 29.272C22.3645 29.272 22.718 29.483 23.0715 29.272C23.3708 29.0928 23.6018 28.7435 23.6018 28.7435L20.5968 28.215V28.215Z" fill="#FFD983"/>
<path d="M26.476 26.6958C25.9908 26.0485 19.8025 25.5928 18.8318 26.504C18.6358 26.6883 18.2655 27.059 18.6598 27.6138C18.8318 27.9043 19.1888 28.0935 19.2363 28.0038C19.347 27.7933 19.568 27.6093 19.8995 27.627C19.8808 27.6715 20.0598 28.4288 20.0395 28.4458C19.8083 28.6423 20.2888 29.3253 20.8518 28.9615C20.992 29.2385 21.8408 29.9223 22.4265 28.987C22.543 29.198 23.7665 29.519 24.1063 28.5455C24.1035 28.5623 24.1043 28.5765 24.0998 28.5945C24.0775 28.682 24.2803 28.7578 24.4868 28.6853C24.834 28.5638 25.3355 28.262 25.4243 27.9308C25.672 27.8875 25.8578 27.9563 26.0008 28.1453C26.0715 28.2388 26.3143 28.2613 26.418 28.139C26.601 27.9243 26.9013 27.2633 26.476 26.6958Z" fill="#77B255"/>
<path d="M25.7913 28.3148C25.7913 28.447 25.5673 28.5545 25.2913 28.5545H19.7913C19.5153 28.5545 19.2913 28.447 19.2913 28.3148V26.677H25.7913V28.3148V28.3148Z" fill="#FFCC4D"/>
<path d="M26.369 27.0513C26.369 27.7433 25.2225 28.3045 23.8085 28.3045C22.394 28.3045 21.2478 27.7433 21.2478 27.0513C21.2478 26.359 22.394 25.798 23.8085 25.798C25.2225 25.798 26.369 26.3593 26.369 27.0513V27.0513Z" fill="#BE1931"/>
<path d="M26.7913 25.6835L18.2913 25.5545V26.2108H18.2955C18.2998 26.359 18.3843 26.5078 18.5655 26.6188L20.2923 27.6758L22.0193 28.7325C22.4008 28.9663 23.0555 28.9445 23.4005 28.7325C23.7463 28.5213 23.5735 28.4158 23.9188 28.204C24.264 27.993 24.4365 28.0985 24.7823 27.8875C25.128 27.6755 26.5095 26.8308 26.5095 26.8308C26.6998 26.7143 26.7948 26.5615 26.7953 26.4085V26.4073L26.7913 25.6835Z" fill="#F4900C"/>
<path d="M26.5095 25.2348L23.0558 23.1213C22.6743 22.8878 22.0558 22.8878 21.674 23.1213L19.947 24.1783C19.6018 24.3895 19.7743 24.4953 19.429 24.7065C19.0838 24.9178 18.911 24.812 18.5655 25.0235C18.22 25.2348 18.184 25.6353 18.5655 25.869L22.0193 27.9828C22.4008 28.2165 23.0555 28.1948 23.4005 27.9828C23.7463 27.7715 23.5735 27.666 23.9188 27.4543C24.264 27.2433 24.4365 27.3488 24.7823 27.1378C25.128 26.9258 26.5093 26.0808 26.5093 26.0808C26.8908 25.8473 26.891 25.4683 26.5095 25.2348V25.2348Z" fill="#FFAC33"/>
<path d="M26.2538 25.4465L22.718 23.3328C22.718 23.3328 22.3413 23.135 22.0108 23.3328L20.2703 24.3733C19.971 24.552 20.012 24.739 19.7128 24.9178C19.4138 25.0968 19.128 25.056 18.8288 25.2348C18.4753 25.4465 18.8288 25.658 18.8288 25.658L22.3643 27.7718C22.3643 27.7718 22.7178 27.9828 23.0713 27.7718C23.3705 27.5925 23.3028 27.4225 23.6015 27.2433C23.9008 27.064 24.2133 27.0885 24.5125 26.9098C24.8118 26.7313 26.2533 25.869 26.2533 25.869C26.2533 25.869 26.584 25.6438 26.2538 25.4465Z" fill="#FFD983"/>
</g>
<g clip-path="url(#clip3)">
<path d="M12.5935 1.09787H2.48235C1.68465 1.09787 1.0379 1.74462 1.0379 2.54231V10.4868H14.0379V2.54231C14.0379 1.74462 13.3912 1.09787 12.5935 1.09787Z" fill="#88C9F9"/>
<path d="M4.64902 14.0979V3.62565L6.09346 2.1812H6.81568L8.26013 3.62565V14.0979H4.64902ZM12.9546 5.07009C12.9546 4.70898 12.5935 4.70898 12.5935 4.70898H10.0657C10.0657 4.70898 9.70457 4.70898 9.70457 5.07009V14.0979H12.9546V5.07009Z" fill="#66757F"/>
<path d="M11.149 7.23676C11.149 6.87565 10.7879 6.87565 10.7879 6.87565H7.89901C7.5379 6.87565 7.5379 7.23676 7.5379 7.23676V14.0979H11.149V7.23676ZM5.01012 7.95898H3.20457V6.15343C3.20457 6.15343 3.20457 5.79231 2.84346 5.79231H1.0379V12.6534C1.0379 13.4511 1.68465 14.0979 2.48235 14.0979H5.37124V8.32009C5.37124 8.32009 5.37124 7.95898 5.01012 7.95898ZM12.5935 10.1256C12.2323 10.1256 12.2323 10.4868 12.2323 10.4868V14.0979H12.5935C13.3912 14.0979 14.0379 13.4511 14.0379 12.6534V10.1256H12.5935Z" fill="#292F33"/>
<path d="M3.9268 11.5701H4.64902V12.2923H3.9268V11.5701ZM3.9268 8.6812H4.64902V9.40343H3.9268V8.6812ZM3.20457 10.1256H3.9268V10.8479H3.20457V10.1256ZM6.81569 4.34787H7.53791V5.07009H6.81569V4.34787ZM6.81569 5.79231H7.53791V6.51454H6.81569V5.79231ZM6.09346 7.23676H6.81569V7.95898H6.09346V7.23676ZM9.70457 7.59787H10.4268V8.32009H9.70457V7.59787ZM8.98235 9.04231H9.70457V9.76454H8.98235V9.04231ZM8.26013 11.209H8.98235V11.9312H8.26013V11.209ZM11.5101 5.4312H12.2324V6.15343H11.5101V5.4312ZM11.5101 6.87565H12.2324V7.59787H11.5101V6.87565Z" fill="#FFCC4D"/>
</g>
</g>
<defs>
<clipPath id="clip0">
<rect width="36" height="36" fill="white"/>
</clipPath>
<clipPath id="clip1">
<rect x="8" y="23" width="7" height="7" fill="white"/>
</clipPath>
<clipPath id="clip2">
<rect x="18.0413" y="22.0545" width="9" height="9" fill="white"/>
</clipPath>
<clipPath id="clip3">
<rect x="1.0379" y="1.09787" width="13" height="13" fill="white"/>
</clipPath>
</defs>
</svg>
