<?xml version="1.0" encoding="UTF-8" standalone="no"?>
<!-- Generator: imaengine 6.0   -->

<svg width="150px" height="150px" 
   xmlns:dc="http://purl.org/dc/elements/1.1/"
   xmlns:cc="http://creativecommons.org/ns#"
   xmlns:rdf="http://www.w3.org/1999/02/22-rdf-syntax-ns#"
   xmlns:svg="http://www.w3.org/2000/svg"
   xmlns="http://www.w3.org/2000/svg"
   xmlns:sodipodi="http://sodipodi.sourceforge.net/DTD/sodipodi-0.dtd"
   xmlns:inkscape="http://www.inkscape.org/namespaces/inkscape"
   viewBox="0,0,2151,1440"
   width="2151"
   height="1440"
   version="1.1"
   id="svg2"
   inkscape:version="0.91 r13725"
   sodipodi:docname="fastfood-burgerfries.svg">
  <metadata
     id="metadata11">
    <rdf:RDF>
      <cc:Work
         rdf:about="">
        <dc:format>image/svg+xml</dc:format>
        <dc:type
           rdf:resource="http://purl.org/dc/dcmitype/StillImage" />
        <dc:title></dc:title>
        <cc:license
           rdf:resource="http://creativecommons.org/publicdomain/zero/1.0/" />
        <dc:creator>
          <cc:Agent>
            <dc:title>j4p4n</dc:title>
          </cc:Agent>
        </dc:creator>
      </cc:Work>
      <cc:License
         rdf:about="http://creativecommons.org/publicdomain/zero/1.0/">
        <cc:permits
           rdf:resource="http://creativecommons.org/ns#Reproduction" />
        <cc:permits
           rdf:resource="http://creativecommons.org/ns#Distribution" />
        <cc:permits
           rdf:resource="http://creativecommons.org/ns#DerivativeWorks" />
      </cc:License>
    </rdf:RDF>
  </metadata>
  <sodipodi:namedview
     pagecolor="#ffffff"
     bordercolor="#666666"
     borderopacity="1"
     objecttolerance="10"
     gridtolerance="10"
     guidetolerance="10"
     inkscape:pageopacity="0"
     inkscape:pageshadow="2"
     inkscape:window-width="1916"
     inkscape:window-height="1035"
     id="namedview9"
     showgrid="false"
     inkscape:zoom="0.15794602"
     inkscape:cx="894.77625"
     inkscape:cy="657.51274"
     inkscape:window-x="4"
     inkscape:window-y="1"
     inkscape:window-maximized="1"
     inkscape:current-layer="layer0" />
  <defs
     id="defs4" />
  <g
     id="layer0">
    <g
       id="g4237">
      <path
         inkscape:connector-curvature="0"
         id="path4154"
         d="m 1243.2572,551.61889 -57.1612,-173.86548 80.9784,-41.68008 -25.008,-69.06984 116.7042,-42.87094 23.8172,5.9543 25.008,63.11555 66.6881,-27.38977 -28.5806,-96.45961 108.3682,-44.0618 25.0081,27.38977 23.8172,51.20695 50.0161,-16.67203 25.008,55.97039 50.0161,128.61282 203.637,608.52915 -89.3145,55.97043 -23.8172,-47.63441 -63.1155,28.58061 -4.7635,36.9167 -76.215,25.008 -53.5887,-123.84938 -55.9703,9.52688 29.7714,117.8951 -86.9327,1.1908 -109.5591,-175.05629 z"
         style="fill:#ebc946;fill-rule:evenodd;stroke:none;stroke-width:1px;stroke-linecap:butt;stroke-linejoin:miter;stroke-opacity:1;fill-opacity:1" />
      <path
         inkscape:connector-curvature="0"
         id="path4212"
         d="m 1559.2611,123.69353 -30.8226,10.87857 47.1405,67.08449 52.5797,141.42135 38.075,59.83211 79.7761,-41.70116 -39.8881,-38.07499 -39.888,-108.78565 -12.6917,-32.6357 -59.8321,21.75713 -12.6917,-43.51426 z"
         style="fill:#e2c03e;fill-rule:evenodd;stroke:none;stroke-width:1px;stroke-linecap:butt;stroke-linejoin:miter;stroke-opacity:1;fill-opacity:1" />
      <path
         inkscape:connector-curvature="0"
         id="path4150"
         d="m 1354.0071,514.70224 -142.9031,50.0161 82.1693,255.43934 132.1854,337.60862 223.2861,-32.1532 309.0281,-78.5967 96.4596,-39.2984 17.8629,-107.17731 -23.2218,-50.01609 -121.4677,-330.46349 -101.8184,-151.83457 -39.2984,-50.0161 -50.0161,25.00805 -3.5726,32.1532 -103.6047,46.44352 69.6652,167.91118 -21.4354,66.09269 -46.4435,28.58063 -64.3065,3.57258 -139.3305,-50.0161 -42.8709,-42.87094 -19.6492,-37.51207 z"
         style="fill:#da3030;fill-rule:evenodd;stroke:#000000;stroke-width:1px;stroke-linecap:butt;stroke-linejoin:miter;stroke-opacity:1;fill-opacity:1" />
      <path
         inkscape:connector-curvature="0"
         id="path4152"
         d="m 1797.0068,325.3556 -44.0618,7.14516 47.6344,86.93273 83.3602,202.4461 57.1612,135.75797 101.2231,257.22564 15.4811,-23.81719 9.5269,-88.1236 -3.5726,-20.24461 -71.4515,-189.34665 -116.7042,-244.12617 -59.543,-100.03219 z"
         style="fill:#cc2525;fill-rule:evenodd;stroke:none;stroke-width:1px;stroke-linecap:butt;stroke-linejoin:miter;stroke-opacity:1;fill-opacity:1" />
      <path
         d="m 1420,1166 c 24.9,2.4 43.8,-1.2 62,-5 19.3,-3.6 42.4,-2.9 62,-5 23.5,0.2 43.1,-2.6 61,-7 19.1,-3.6 36.8,-8.4 52,-15 19.3,-3.8 35,-10.5 53,-15 17.2,-5.3 35.8,-9.1 52,-15 17.9,-5 37.3,-8.1 55,-13 18.5,-3.2 39.5,-6.1 55,-11 20.9,-1.5 36.6,-8.3 54,-14 16.2,-5.6 34.1,-10.2 49,-18 16.8,-5.4 35.8,-8.9 53,-14 17.1,-5.5 32.5,-12.5 38,-30 1.4,-20.6 3.4,-41.1 6,-61 1.2,-17.8 12.9,-39.5 1,-56 -6.6,-14.2 -2.1,-41.2 -11,-55 -6.6,-15.1 -12.2,-33.3 -20,-47 -5.8,-15.5 -11.3,-32.4 -18,-49 -5,-16.7 -12.1,-32 -18,-50 -6.1,-15 -12.4,-31.2 -21,-46 -5.9,-15.6 -12.3,-31.7 -21,-47 -6,-14.9 -9.6,-33.8 -18,-49 -6,-15.3 -15.3,-28.5 -24,-43 -9.7,-12 -18.9,-25.2 -28,-40 -7.1,-13.5 -19.2,-25.2 -27,-39 -7.9,-13.3 -15.2,-28.5 -24,-43 -7.8,-13.8 -15,-29 -21,-46 8.9,-29.2 -17,-31.5 -36,-26 -18.4,3.7 -29.8,16.1 -48,18 -28,11.5 -24.9,-18.6 -34,-31 -5.5,-16.4 -13.3,-31 -18,-50 -5,-16.3 -9.8,-33.9 -16,-51 0,-18.3 -26.9,-25.3 -41,-15 -16.3,9.5 -33.6,20.8 -35,-9 -3.6,-17.9 -9.4,-34.5 -21,-46 -9,-18 -35.6,-4 -48,1 -16.5,5.8 -28.9,16 -47,21 -13.4,8.4 -34.5,9.7 -46,20 1.4,17.9 13.9,30.6 17,48 2,15.9 17.5,40 2,50 -12.7,0 -36.2,26.5 -40,7 -5,-16 -10.2,-33.3 -19,-48 -8.1,-13.5 -32.5,-14.5 -50,-7 -14.8,7 -29.3,15 -44,23 -15.6,6.7 -30.2,14.5 -52,16 -27,-1.3 -19.9,23.4 -9,35 3.8,16.9 15.6,34.9 9,53 -13,8.8 -29.4,14.9 -45,22 -14.6,3.1 -45.9,7.4 -30,28 8.8,15.1 14,32.4 20,48 5.4,17.9 11,34.8 16,51 5.1,15.3 20.5,36.9 0,46 -7.1,10.7 -23.2,31.4 -10,47 12.3,11.3 11.9,34.2 17,51 6.5,16.6 12.5,33 16,51 4.3,19.1 11.7,34.2 18,50 4.1,18.2 10.8,35.4 15,50 7.7,16.2 13.8,32.6 20,48 8.3,15 13.4,32.5 19,48 6.9,16.8 14,32.2 20,48 6.7,15.9 13.3,33.2 20,45 7.8,16.5 14.5,32.2 21,47 6.9,16.7 12,34.1 17,51 6.7,16.4 12.9,32.6 19,48 12.8,10.1 1.5,45.3 21,45 z m 40,-31 c -22.3,4.5 -28.6,-8.2 -33,-23 -4.8,-13.5 -11.3,-27.6 -16,-41 -6.2,-10.9 -9.4,-28.2 -16,-40 -3.1,-13.7 -8.6,-28.7 -15,-40 -3.6,-13.9 -10.9,-27.2 -17,-39 -5.7,-11.6 -11.1,-26.7 -17,-39 -4.8,-12.1 -10.8,-26.7 -17,-39 -4.4,-12.3 -9.1,-28.2 -14,-41 -5.5,-11.9 -12.4,-25.6 -17,-39 -5.6,-11.6 -10.6,-27.1 -15,-40 -5,-12.9 -9.7,-28.7 -15,-42 -4.2,-12.4 -9,-28.2 -14,-41 -2.7,-14.7 -7.4,-30.5 -12,-44 -4,-13.1 -8.8,-28.9 -10,-46 -0.9,-14.5 22.6,-14.6 31,-22 11.2,-7 30,-8.7 39,-16 12.1,-4.8 27.9,-15.4 42,-11 5.5,13.7 5.2,34.6 13,43 6.9,12.1 15.7,23.8 23,32 6.3,13.4 19.7,20.6 27,29 10.4,9.1 22.5,17.5 33,23 11.4,7.8 23.6,16.1 37,18 13.7,6.2 26.6,13.8 40,16 13.5,6.1 34.2,6 48,8 19.1,0.2 40.8,1.3 52,-4 17.7,-1 30.5,-8.7 40,-16 12.3,-6.1 21.8,-17.2 29,-27 7.5,-10.6 16.2,-22.5 21,-35 7.1,-12.3 5.5,-33.1 0,-45 -3.9,-14.3 -11.7,-27.1 -16,-40 -6.1,-11.8 -9.2,-29.3 -16,-41 -4.4,-12.3 -9.5,-27.7 -15,-40 -0.9,-11.3 -23,-29 -3,-34 16.4,-1.8 32.5,-6.2 40,-15 11.8,-7.1 27.8,-11.7 39,-17 9.7,-6.7 35,-16.3 34,4 4.4,15 11,28.9 16,40 6.8,12.3 14.3,25.4 20,35 6.9,13 16.2,24.2 21,35 8,11.6 11.8,28.4 14,42 3.8,15.5 9.4,30.4 15,41 7.2,11.8 13.2,26.4 18,38 4.4,14.3 10,29.4 15,40 4.5,15 10.8,29.2 13,43 5.4,13.9 11.6,28.2 17,38 7.1,12.9 10.4,30.1 14,42 8.2,11.5 13.9,26.3 17,39 5.4,14 12.4,27.6 18,37 7,13.8 12.8,27 18,39 6.2,14 12.7,28 17,39 6,14 13.5,27 16,40 12.4,16.8 2.3,32.2 -17,29 -11.2,7.1 -22.9,15.9 -36,19 -13.4,5.6 -28.4,11.2 -42,15 -13.4,4.3 -28.5,9.8 -43,13 -15.1,2.4 -31.7,6.3 -47,7 -14.3,4.9 -32.9,6.9 -46,11 -15,3 -31.4,7.1 -45,10 -14.5,4.2 -28.6,10.6 -43,13 -12.7,5.7 -29.2,9.7 -43,13 -12.6,5.6 -29.6,9.1 -44,12 -14.5,3.4 -33.6,4.9 -49,6 -18.3,0.3 -36,3.2 -55,1 -16.9,1.5 -34.2,4.7 -49,7 z m 35,-83 c 20.8,4 35.1,-15.8 21,-30 -8.2,-10.6 -14.7,-23.9 -21,-39 -2.6,-10.5 -21.7,-26.6 -9,-40 9.9,-10.1 25.7,-14.1 33,-27 5.3,-18.4 -26.5,-19.2 -34,-8 -9.8,17.1 -26,12.8 -30,-6 -2.2,-14.3 -18.4,-25.3 -13,-42 10.5,-9.4 24.3,-15.4 39,-21 22.1,-5.3 2.2,-30.6 -14,-23 -12.8,7.4 -25.8,14.3 -38,22 -11.9,7.9 -24,15.7 -34,26 -15.7,18.9 13.9,20.3 20,30 8.2,12.3 14.5,25.9 21,39 -3.1,23.3 11.2,28.9 19,40 7.3,13.5 14.1,26.6 19,40 6.5,14.9 5.8,35.5 21,39 z m 83,-47 c 29.1,0.4 10.8,-26.1 5,-37 -4.3,-16.2 -7.5,-34.6 -16,-48 -18.1,-27 1.2,-5.7 12,2 12.8,10.6 26.2,18.8 38,28 10.7,11.5 24.8,19 34,31 0,14.6 31.4,29.9 35,6 -9.1,-11.6 -19.3,-23 -30,-35 -10,-10.5 -22.4,-19.7 -35,-30 -9.9,-9 -34.9,-16.9 -18,-35 9.8,-16 0.3,-37.9 -9,-48 -11.5,-9 -19,-23.1 -37,-28 -17.2,-6 -32.3,7.8 -46,13 -0.5,13.2 -15.2,47.2 8,46 12.3,10.3 15.7,28.6 20,45 6.8,15.7 11.7,32.4 17,48 6.9,15.3 8.3,35.6 22,42 z m 471,-10 c -4.6,-14.7 -7.4,-31.7 -15,-45 -6,-12.8 -11.9,-26.9 -18,-42 -6.6,-12 -12.5,-25.9 -18,-41 -6.2,-12.3 -14.7,-25.2 -19,-39 -5.9,-13.5 -11.4,-27.9 -15,-46 -3.5,-14 -13.6,-25.3 -19,-39 -4.9,-13.5 -12.4,-25.9 -17,-42 -4.9,-13.6 -9.4,-30.4 -15,-43 -4.6,-14.8 -10.7,-28.6 -16,-44 -4.4,-14 -10.7,-29.1 -18,-40 -5.4,-13.9 -10.1,-29.1 -14,-46 -1.7,-16.6 -8.4,-31.4 -16,-42 -7.7,-11.6 -15.6,-23.5 -23,-37 -5.7,-12.6 -12.8,-26.9 -20,-39 -4.3,-13.9 -10.2,-27.8 -13,-46 4.3,-15 -36.6,-24.3 -4,-24 20,1.7 21.4,20.2 28,33 5.4,14.9 12.7,27.5 19,40 6.4,14.5 13.4,27.5 21,39 8.1,11.9 18.2,23.2 23,35 9.2,11.7 15.4,25.3 22,37 8.8,12.2 15.8,26.5 21,38 7.6,13.2 13.3,27.4 18,41 3.9,17 12.1,30.2 18,41 6.7,14.1 11.8,28.9 18,41 5.7,15.2 14,28.2 17,42 6.5,14.2 13.3,27.4 17,42 6.8,14 11.9,30.3 17,42 6.3,14.4 12.1,28.5 17,43 3.9,14.7 15.3,27.7 18,37 -3.8,16.4 -5.4,34.6 -8,52 -4.2,15 -1.1,39.5 -6,52 z m -362,-20 c 26.9,-2.1 6,-29.6 3,-44 -4,-18.3 -9.6,-36 -16,-54 -4.2,-18.1 -12.5,-33.1 -19,-51 -8,-14.3 -13.5,-32.1 -30,-40 -26.1,4.2 -6.1,32.2 0,42 8.8,15.1 16,31.3 22,48 6.8,17.1 12.4,34.8 17,53 4.7,19.2 7.2,40.1 23,46 z m 42,-32 c 21.8,2.4 33,-6.2 49,-10 10.8,-7.5 33.6,-9 28,-29 -4.3,-21.7 -23.2,-7.2 -32,1 -12.8,8.3 -35.9,11.8 -38,-7 -12.6,-18.8 18,-17.6 26,-26 14,-6.3 27.9,-12.3 35,-25 1.7,-24.3 -27.1,-9.9 -36,-5 -12.1,4.6 -27.3,18.2 -42,12 -4,-10.2 -19.4,-30.4 -5,-39 12.1,-8.3 29.6,-10.6 40,-20 -0.8879,-11.08381 4.7928,-13.60158 -7,-15 -20.6,-1.2 -34.5,6.2 -46,13 -12.6,5.1 -38,3.9 -28,28 7.4,13.5 14.3,26.5 19,40 6.6,15 12.4,29.1 17,43 8,12.6 9.1,32.8 20,39 z m 127,-15 c 14.7,-1.7 29.1,-3.8 40,-10 12.2,-2.8 15.9,-17.2 18,-29 3.6,-12.3 4.6,-32.8 -3,-41 -4.8,-9.3 -11.3,-20.8 -20,-27 -8.9,-6.1 -21.6,-11.5 -33,-15 -10.1,-4.8 -26.9,-6.2 -27,-21 3.1,-12.6 20.3,-13.5 32,-16 17.5,-0.6 11.8,-25.8 -5,-22 -11.2,0.8 -27.1,4.6 -37,9 -8.9,7.8 -16.6,18.2 -16,33 1.4,15.3 10.2,24.5 18,30 10.4,6.2 23.9,10.8 34,14 12.2,4.4 23.3,11.4 30,18 7,9.4 9.8,27.4 4,36 -6.5,10.1 -27.8,6.8 -35,13 -8.3,3.1 -18.7,30.8 0,28 z m -286,-42 c -19.1,-0.3 -31,-44 -20,-52 15.8,6.7 43.1,35.3 20,52 z m 32,-207 c -17.7,-8 -46.9,-4.8 -65,-13 -19.9,-5.6 -37.3,-14.1 -57,-21 -10.1,-15.1 -11.1,-40 -20,-58 -7.8,-17.3 -21,-43.5 11,-44 18.6,-7.3 32.5,-19.4 55,-22 16.2,10.6 19.9,32.8 28,50 4.1,22.4 15,37.5 16,61 0.5,26.8 17.8,35.5 32,47 z m 24,-8 c -22.3,-3 -23,-30.3 -34,-45 -4.4,-20.9 -11.5,-41.9 -18,-61 -5.8,-19.6 -13.8,-39.6 -19,-60 -4.4,-27.4 -36.2,-11.2 -52,-17 -11.6,-13.6 -19.3,-33.8 -26,-53 -7.8,-17.5 -14.5,-38.8 -22,-57 -8.2,-17.1 -18.9,-34.4 -27,-52 -18,-24.6 7.3,-33 26,-39 19.1,-2.6 37.3,-23.4 55,-15 9.6,17.9 16,39.6 21,58 5.6,21.9 18.5,37.1 21,58 3.3,24.3 10,45.7 17,63 8.1,18.5 16.6,38.1 22,57 8.8,18 16.3,38.4 22,57 9.2,17.6 17.4,37.4 21,58 2.7,18.3 25.3,46.6 -7,48 z m 35,-16 c 2.2,-12.7 -1.2,-31 -8,-40 -2.3,-12.6 -7.7,-23.7 -13,-36 -4.9,-10.5 -9.8,-24.5 -14,-36 -4.1,-11.6 -7.6,-24.5 -13,-37 -4.3,-10.9 -11,-23.1 -15,-35 -5.3,-10.2 -10.8,-21.2 -15,-35 -5.3,-9.7 -8.5,-25.4 -11,-39 -3.5,-11.8 -4.6,-27.1 -11,-38 -4.2,-11.6 -9.7,-25 -13,-38 -3.5,-11.6 -5.8,-25.8 -11,-38 -1,-12.3 8.1,-30.3 -5,-37 -9.1,-5.7 -29.9,-7.3 -39,0 -16.4,10.9 -14.8,-18.1 -20,-26 -4,-11.4 -7.5,-24.3 -13,-36 -0.6,-12.6 20.3,-15 29,-20 11.3,-4.7 23.3,-9.2 35,-14 12.9,-2.1 24.4,-14 39,-9 7.1,9.7 9.4,23.8 14,35 4.5,12.8 8.2,28 13,37 3.9,13.7 9.1,25 13,37 5,12.1 11.2,24.8 15,35 6.2,11.3 12.2,21.7 16,33 5.9,12 12,24.9 14,37 5.9,11.3 8,25.7 9,40 -5,11.2 -24.8,10.3 -36,14 -16.3,4.1 -4.8,24.7 3,29 7.7,9.1 11.9,23.8 16,33 4.9,13.3 8.1,26.4 13,37 5.8,11.8 8.9,27.6 13,37 4.3,13.6 12.9,21.4 15,35 5,13.3 3.1,35.5 -4,42 -5.9,10.5 -9.3,23.5 -16,33 z m -216,-24 c -8.4,-15.4 -21.4,-26.6 -34,-39 -11.2,-12.2 -21,-26.5 -30,-43 -5.8,-17.1 0.3,-47.5 -21,-52 -20.5,3 -36.7,12.3 -53,18 -20.3,3.9 -31.7,16.7 -52,21 -11.8,-10.3 -15.4,-32.3 -23,-48 -6.7,-16.2 -12.4,-34.7 -19,-53 1.2,-17.6 -22.6,-38.4 -7,-52 18.3,-5.9 33.9,-14.5 51,-22 20.5,-3.3 32.2,-15.8 49,-23 15.4,9.5 23.3,25.9 31,41 9.6,15.4 18,32.5 26,46 8.1,16.8 18.1,30.9 25,48 7.9,16 15.5,33.9 22,49 7.4,17.3 13.5,35.4 19,53 3.5,21.3 13.1,37.2 16,56 z m -4,-105 c -13.9,-7.5 -14.5,-30.8 -24,-43 -5.8,-14.4 -12.3,-29.5 -20,-44 -9,-12.3 -14.4,-30.7 -24,-43 -7.4,-12.7 -12.1,-29.6 -22,-43 -8.4,-11.8 -17.7,-26.4 -28,-37 -17.4,-11.5 -32.2,8 -47,8 -6.5,-14.7 -12.8,-32.3 -17,-50 15.7,-6 32.6,-10.7 46,-19 15.9,-5.9 31.6,-14 45,-21 23.3,-11.1 30.2,11.7 34,26 6,16.7 10.4,36.2 15,51 6.5,16 11.7,32.4 20,45 7,15.6 16.5,30 21,45 6.7,15.7 12.6,31.4 18,47 6.7,15.8 14.2,32.2 16,49 3.5,19.6 -22.4,19.5 -33,29 z m 250,-142 c -20.5,-1.8 -19.1,-28.7 -27,-44 -6.6,-15.6 -14.3,-31.2 -22,-48 -7.6,-14.6 -15.1,-30.5 -22,-48 -12.9,-16 -7.9,-37.7 14,-40 26.7,-11.1 22.4,25.3 31,35 4.4,20.2 11.3,36.7 18,52 8.9,15.8 13.7,34.3 20,51 9.6,17 12.1,41.4 -12,42 z"
         id="path4139"
         inkscape:connector-curvature="0"
         style="fill:#260000"
         sodipodi:nodetypes="ccccccccccccccccccccccccccccccccccccccccccccccccccccccccccccccccccccccccccccccccccccccccccccccccccccccccccccccccccccccccccccccccccccccccccccccccccccccccccccccccccccccccccccccccccccccccccccccccccccccccccccccccccccccccccccccccccccccccccccccccccccccccccccccccccccccccccccccccccccccccccccccccccccccccccccccccccccccccccccccccccccccccccccccccccccccccc" />
    </g>
    <g
       id="g4224">
      <path
         inkscape:connector-curvature="0"
         id="path4156"
         d="m 207.20954,1237.5539 86.93273,-16.672 55.97039,10.7177 91.69618,-25.008 226.26328,-26.1989 352.49438,-58.3522 94.0779,-46.4435 101.2231,-10.7177 -2.3818,86.9327 -88.1236,77.4059 -657.35435,110.7499 -121.46766,4.7634 -80.97844,-27.3897 -52.39782,-36.9167 z"
         style="fill:#d3a15f;fill-rule:evenodd;stroke:none;stroke-width:1px;stroke-linecap:butt;stroke-linejoin:miter;stroke-opacity:1;fill-opacity:1" />
      <path
         inkscape:connector-curvature="0"
         id="path4158"
         d="m 576.37595,613.54357 -196.4918,95.26876 -92.88703,98.84133 -17.86289,52.39781 48.82523,22.62633 148.85743,33.34406 269.13422,11.9086 271.51599,-83.36016 82.1693,-53.58867 5.9543,-61.92469 -41.6801,-61.92469 L 894.33541,598.0624 726.42424,586.15381 Z"
         style="fill:#d3a15f;fill-rule:evenodd;stroke:none;stroke-width:1px;stroke-linecap:butt;stroke-linejoin:miter;stroke-opacity:1;fill-opacity:1" />
      <path
         sodipodi:nodetypes="cccccccccccccccccccccccccccc"
         inkscape:connector-curvature="0"
         id="path4160"
         d="m 342.96751,888.6321 -78.59672,67.87898 53.58867,44.06182 42.87094,9.5269 20.24461,2.3817 55.97039,-23.81721 20.24461,22.62631 47.63438,0 34.53492,-3.5726 7.14516,13.0995 60.73383,9.5269 26.1989,16.672 61.92469,-11.9086 36.91664,-16.672 59.54297,2.3817 77.40586,3.5726 41.68008,-35.72581 45.25266,-2.38172 27.38977,-21.43547 20.24463,-22.62633 65.4972,-16.67203 17.8629,-44.0618 -4.7634,-40.48922 -53.5887,-7.14516 -130.99451,55.9704 -204.82782,40.48922 -189.34664,-8.33602 C 403.11972,881.32917 410.48214,913.16342 342.96751,888.6321 Z"
         style="fill:#87b089;fill-opacity:1;fill-rule:evenodd;stroke:none;stroke-width:1px;stroke-linecap:butt;stroke-linejoin:miter;stroke-opacity:1" />
      <path
         inkscape:connector-curvature="0"
         id="path4164"
         d="m 331.05891,1060.1159 -32.1532,21.4354 -39.29836,47.6344 -8.33602,55.9704 84.55102,48.8252 102.41391,-27.3897 91.69617,0 290.5697,-44.0618 217.92727,-40.4893 22.6263,-35.7257 8.336,-70.2607 -26.1989,-9.5269 -53.58864,3.5726 -45.25265,33.344 -185.77407,32.1532 -61.92469,3.5726 -32.1532,-16.672 -64.30641,-1.1909 -42.87094,7.1452 -60.73383,-10.7178 -82.1693,25.0081 -52.39781,-4.7635 z"
         style="fill:#856652;fill-rule:evenodd;stroke:none;stroke-width:1px;stroke-linecap:butt;stroke-linejoin:miter;stroke-opacity:1;fill-opacity:1" />
      <path
         inkscape:connector-curvature="0"
         id="path4162"
         d="m 308.43259,998.19116 -59.54297,59.54294 0,17.8629 83.36015,-13.0994 44.0618,11.9086 72.64242,8.336 67.87899,-23.8172 65.49727,14.2903 52.39781,-10.7177 11.9086,-4.7635 40.48922,17.8629 41.68007,9.5269 69.06985,-21.4355 102.41391,-16.672 46.44352,-9.5269 40.48921,-29.7715 71.45156,-7.1451 50.0161,-22.62635 -32.1532,-67.87898 -36.9166,22.62632 -39.2984,13.09946 -42.87094,40.48922 -47.63438,5.95429 -48.82523,35.72574 -135.75797,-3.5725 -76.21501,14.2903 -79.78758,-13.0995 -60.73382,-16.672 -57.16126,0 -25.00804,-21.43547 -47.63438,26.19887 -39.29836,-3.5725 z"
         style="fill:#ebaf4e;fill-rule:evenodd;stroke:none;stroke-width:1px;stroke-linecap:butt;stroke-linejoin:miter;stroke-opacity:1;fill-opacity:1" />
      <path
         sodipodi:nodetypes="ccccccccccc"
         inkscape:connector-curvature="0"
         id="path4166"
         d="m 693.08017,592.1081 117.89508,60.73383 140.52141,34.53493 60.73384,79.78758 -63.11556,98.84133 133.37626,-71.45157 16.672,-55.97039 -46.4435,-67.87898 -115.51335,-50.0161 -122.65852,-20.24461 z"
         style="fill:#ca9551;fill-opacity:1;fill-rule:evenodd;stroke:none;stroke-width:1px;stroke-linecap:butt;stroke-linejoin:miter;stroke-opacity:1" />
      <path
         sodipodi:nodetypes="cccccccccccc"
         inkscape:connector-curvature="0"
         id="path4204"
         d="m 1200.3863,1064.8793 -110.7499,25.008 -11.9086,5.9543 -17.8629,10.7178 -47.6344,20.2446 44.0618,41.6801 19.0537,38.1075 -23.8171,39.2983 84.551,-22.6263 54.7795,-46.4435 19.0538,-63.1156 z"
         style="fill:#ca9551;fill-rule:evenodd;stroke:none;stroke-width:1px;stroke-linecap:butt;stroke-linejoin:miter;stroke-opacity:1;fill-opacity:1" />
      <path
         inkscape:connector-curvature="0"
         id="path4206"
         d="m 993.17674,1006.5272 -23.81719,27.3897 23.81719,29.7715 3.57258,34.535 17.86288,25.008 45.2527,-38.1075 10.7177,-42.8709 -10.7177,-32.1532 z"
         style="fill:#7b5e4b;fill-rule:evenodd;stroke:none;stroke-width:1px;stroke-linecap:butt;stroke-linejoin:miter;stroke-opacity:1;fill-opacity:1" />
      <path
         sodipodi:nodetypes="cccccccc"
         inkscape:connector-curvature="0"
         id="path4208"
         d="m 978.88643,849.33374 -14.29031,45.25265 16.67203,17.86289 3.57258,40.48922 75.02417,-27.38977 42.8709,-53.58867 -36.9166,-36.91664 z"
         style="fill:#829e84;fill-rule:evenodd;stroke:none;stroke-width:1px;stroke-linecap:butt;stroke-linejoin:miter;stroke-opacity:1;fill-opacity:1" />
      <path
         inkscape:connector-curvature="0"
         id="path4210"
         d="m 991.98588,956.51108 -8.33601,46.44352 88.12363,-2.3817 39.2983,-25.00807 -25.008,-52.39781 -15.4812,-7.14516 -32.1532,20.24461 z"
         style="fill:#e0a23f;fill-rule:evenodd;stroke:none;stroke-width:1px;stroke-linecap:butt;stroke-linejoin:miter;stroke-opacity:1;fill-opacity:1" />
      <path
         sodipodi:nodetypes="ccccccccccccccccccccccccccccccccccccccccccccccccccccccccccccccccccccccccccccccccccccccccccccccccccccccccccccccccccccccccccccccccccccccccccccccccccccccccccccccccccccccccccccccccccccccccccccccccccccccccccccccccccccccccccccccccccccccc"
         style="fill:#260000"
         inkscape:connector-curvature="0"
         id="path7"
         d="m 373,1359 c 24.6,1.7 46.1,-0.2 66,-4 22.3,-0.6 43.4,-2.9 63,-6 21.2,-2.7 41.6,-5.7 60,-11 19.4,-3 40.5,-6.6 58,-10 18.2,-5.4 40.9,-6.1 61,-9 21,-2.1 44.9,-2.9 61,-8 21,-2.3 40.3,-6.4 60,-10 20,-2.8 40.6,-6.9 59,-9 19.3,-4.7 38.6,-8.8 59,-12 17.9,-4.5 39.3,-7.8 57,-12 18.6,-4.1 41.8,-4.2 58,-11 19.5,-3.6 41.5,-6.3 58,-11 24.1,0.8 35.1,-11.6 52,-18 20.8,-2.1 30.2,-17.4 42,-27 10.1,-13 21.9,-24.5 30,-40 9.8,-12.8 18.1,-29.1 18,-51 -4.3,-18 -0.2,-45.5 -12,-58 -19.3,-6.4 -41,3.9 -58,5 -20.7,3 -37.3,9.8 -56,14 -14.6,-3 -48.7,26.8 -30,6 6.5,-19.3 0.9,-44.3 -2,-63 9.7,-12.3 32,-14.7 40,-28 7.8,-20.7 -4.7,-38.8 -13,-52 -17.2,-17.9 -2.3,-30.3 8,-43 -1.6,-16.6 -11,-33.3 -11,-57 -0.2,-21.7 -46.3,0.5 -45,-10 18.9,-4.4 34,-12.7 45,-25 9.1,-13.7 9.8,-37.7 12,-57 -0.9,-21.4 -11.6,-34 -22,-48 -10.8,-10.9 -23.8,-22.6 -34,-35 -11.8,-10.2 -24.5,-20.8 -40,-30 -15,-6.4 -33.8,-12.3 -49,-19 -18.6,-4.1 -25.3,-20.6 -50,-21 -18.5,-3.1 -40.5,-4.5 -60,-9 -21.6,-1 -42.5,-3.4 -65,-5 -19.1,-1.4 -48.1,-1.6 -66,0 -22,1.7 -41.6,5.4 -63,8 -18.8,3.3 -39.1,7.7 -55,13 -18.6,4.8 -35.7,11 -55,15 -16.5,6.4 -34,13.5 -50,18 -16.2,7.8 -32.7,14.7 -48,22 -16,7.5 -31.8,16.4 -46,24 -13.8,8.9 -27.9,18.2 -42,27 -11.9,11.4 -27,20.9 -38,31 -11,12.4 -23.6,23.1 -34,36 -8.8,14.1 -19.8,27.8 -28,41 -7.6,15.6 -19.2,27.2 -21,49 0.2,23.5 18.8,29.6 34,35 5.2,15.8 56.9,0.4 37,9 -14.9,7.5 -27,20 -39,30 -6.1,10.7 -33.8,23.7 -18,39 17.7,1.8 38.1,21 20,33 -11.4,12.5 -23.1,24.1 -35,35 -8.9,8.1 -30.5,32.1 -11,40 5.3,15.8 51.6,8.4 39,11 -17.3,5.1 -25.1,22 -31,37 -6.6,13.4 -9.4,45.6 -1,59 7,13.8 31.6,20.7 37,26 -24,-1.4 -42,3.9 -60,9 -18.9,2.1 -34.2,17.5 -25,39 2.6,21.3 10.5,36.7 23,46 15.2,9.2 23.9,25.1 38,31 16.5,8.1 31.7,16.2 56,15 22.9,0.1 44,3.7 62,6 z m 53,-30 c -27.1,2 -50.1,-3 -73,-6 -22.4,-2.3 -48.7,-1.9 -67,-11 -17.8,-6.7 -30.8,-19.7 -48,-29 -16,-4.1 -30.2,-39.7 -1,-41 19.9,-4.2 45.1,-7.5 62,-12 15.3,10.1 41.1,12.7 66,9 26.2,-0.1 43.2,-9 61,-17 22.6,-7.2 48.2,4.6 70,-3 23.1,-2.6 42.2,-9.5 70,-8 23.9,-1.6 43.1,-8.3 65,-13 20.4,-4.8 46.2,-4.9 67,-10 23.5,-2.5 45.4,-6.5 69,-9 24,-1.7 47.9,-3.8 67,-10 22.8,-3.8 44.9,-7.5 66,-12 21,-5.3 42.2,-10 65,-13 21.4,-4.7 48.3,-3.7 64,-14 17.9,-8.3 30.3,-23.9 54,-25 20.6,-5.3 39.6,-12.3 60,-18 16.9,0.1 50.6,-20.8 55,4 2.8,28.1 -0.7,50.6 -10,67 -8.5,17.6 -20.3,31.7 -36,42 -14.9,11 -33.6,18.2 -56,22 -20.2,5.5 -42.3,9.3 -65,13 -21.5,3.9 -44.1,7.3 -67,10 -19.8,6.4 -42.5,9.6 -64,14 -22.4,3.5 -43.3,8.5 -66,12 -22.4,3.3 -44,7.7 -67,10 -21.5,5 -44.8,7.6 -68,11 -22.1,3.2 -43.6,7.6 -67,10 -21.3,4.7 -42.4,9.5 -65,13 -21.8,4 -45,6.7 -68,9 -25,1.6 -48.4,4 -73,5 z m -69,-115 c -23,2.3 -41,-3.6 -54,-12 -14.3,-6.5 -28.5,-16.2 -39,-27 -9.8,-16.4 1.6,-40.2 8,-50 7.4,-14.3 21.8,-21.5 35,-30 -0.8,-22.1 25.1,-26 37,-13 15.1,7.9 40.3,6.6 57,9 21.7,4.6 43.7,-1.2 59,-5 17.5,-4.1 29.1,-14 49,-16 27.6,-4.7 37.2,9.6 56,10 21.5,5.7 42.1,-1.8 55,-7 16.2,-7.8 45.2,-3.2 55,4 12.4,9.6 27.4,16.2 48,16 20.4,-0.8 36.5,-8.6 54,-11 19.9,-2.4 39.1,-7.1 56,-11 20.5,-0.9 41.4,-3.9 58,-7 16.9,-5.4 40.1,-3.7 55,-11 17,-4.4 29.6,-15.6 40,-26 10.1,-11.4 35.6,-9.7 54,-11 20.9,1 18.9,30.9 15,46 -3.5,18.9 -14.4,29.6 -28,38 -11.1,10.4 -34.1,11.3 -50,15 -16.7,5.9 -39.2,7.3 -55,12 -16.6,5.1 -36.5,9.1 -53,13 -18.2,3.3 -35.2,7.9 -54,10 -19,3.6 -41.4,5.1 -60,7 -18.6,3.2 -39.6,6 -57,9 -19.3,2.5 -39.7,6 -60,6 -16.7,4.9 -32.9,10.3 -53,12 -17.8,4 -41.3,4.3 -59,7 -16.9,5.1 -40.1,6.6 -59,2 -23.2,-1.5 -41.3,4.3 -57,9 -12.6,8.9 -32.5,10.6 -53,12 z m 374,-144 c -32.4,6.7 -36.6,-17.1 -60,-19 -29.6,-5.5 37.2,-4.4 39,-15 15,-2.1 76.3,-6.8 33,4 -45.2,0.9 16.3,18.6 25,4 18.1,-6.3 44.9,-13.7 66,-8 23.9,12.2 48.3,-1.3 55,-16 14,-12.4 31.9,-22.5 59,-20 24.1,-1.9 38.1,-13.9 46,-32 7.9,-18.3 39.4,-14.8 51,-28 20.9,-20.2 39.2,1.2 42,20 8.4,25.1 -22.6,29.1 -40,34 -23,2.8 -57.2,-5.5 -72,6 -8.4,17.5 -26,28 -45,34 -22.6,3.4 -47.6,6.4 -66,13 -25.1,1 -50.4,3.7 -70,9 -23.1,2.6 -43.5,8.2 -63,14 z m -296,-1 c -19.3,0 -40.4,-1.1 -58,-3 -15.6,-3.4 -24.6,-14.3 -44,-15 -18.4,1.5 -32.5,7.3 -48,11 -23.8,11.9 -30.8,-7.3 -12,-17 11.6,-8.1 19.8,-22.1 32,-28 20.8,0.4 36,5.1 50,10 18.8,5.1 32.6,-5.4 44,-13 9.1,-6.3 29.9,-21.6 36,-2 7.6,13.3 31.3,11.8 48,13 16.2,1.8 38.5,-13.2 48,1 4.4,15.4 22.9,20.3 40,17 18.5,-7.2 30.2,7.5 45,9 16.7,6 -30.9,3.9 -38,6 -18.6,-0.2 -28.6,-10.1 -47,-13 -16.5,3.9 -41.3,-0.9 -52,8 -13.7,6.4 -28.7,11.3 -44,16 z m 223,-38 c -26.2,4.8 -34.8,-9 -53,-14 -19.2,-1.2 -43,7.3 -48,-14 -12.3,-11.1 -39.8,-5.2 -56,-2 -23.3,2.8 -41.6,-2.6 -47,-19 -12.7,-13.6 -35.4,0.5 -48,6 -10.8,8.9 -28,22.9 -47,12 -21.8,0 -37.7,-6.6 -43,-25 -2,-13.8 -38.2,-16.2 -35,-20 13.6,-8.8 23.5,-21.5 35,-33 9,-13.4 34,-12.8 50,-6 20.4,3.3 38.1,8 57,10 18.7,4.8 38.5,8.8 55,12 20.1,3.1 39.3,6.3 61,6 22,1.6 41.9,4.1 63,4 l 68,0 c 20.3,-1 43.9,-1.2 62,-4 19,-2.9 36.3,-8.1 54,-13 18.9,-3.4 37.5,-7.2 55,-13 18.7,-3 36.6,-7.6 53,-14 17.2,-4.4 33.4,-12 49,-17 16.6,-5.6 32.3,-12.4 47,-20 16.9,-5.7 29.4,-15.7 45,-22 21.2,-3.3 49.4,-4.8 40,24 7.2,20.7 0.3,37 -15,43 -11.7,11 -26.1,19.1 -50,18 -16.3,5.8 -28.8,15.8 -38,29 -5.8,16.7 -23.7,21.3 -47,20 -17.6,4.8 -32.2,14 -44,22 -8.6,12.7 -31.4,18.1 -52,11 -23.9,2.1 -39.8,0.6 -63,-2 -21.2,0.2 -43.5,-5.9 -58,6 -13.4,7.7 -32,12.9 -50,15 z m 9,-115 c -22.7,-0.1 -49.9,1.6 -70,-1 -21.1,-1.7 -43.3,-2.8 -65,-6 -21.8,0.1 -43.1,-2 -62,-7 -19,-3.7 -38,-8 -58,-12 -19.8,-3.3 -41.6,-7 -60,-12 -19.4,-2.6 -38.1,-7.3 -58,-11 -23.5,-2.4 -23.8,-24.3 -9,-38 11.1,-11.8 18.6,-27.7 31,-39 10.2,-13.1 20.9,-27.9 33,-37 13.6,-10.6 27.2,-20.4 39,-32 14.7,-8.5 29.7,-16.9 44,-25 15.9,-8.3 31.6,-16 47,-24 16.5,-7.1 34.1,-15 51,-21 18,-4.5 33.6,-12.2 51,-18 18.8,-4.7 36.4,-10.4 55,-15 20.5,-3 39.4,-7.4 61,-9 20.4,-3.4 43.7,-5.6 66,-6 22.9,1.8 45.2,2.9 65,6 21.4,2.3 42.5,4.6 61,9 20.3,3.4 33,14.1 54,15 18.5,6.6 36.5,14.1 52,20 17.5,6.5 30.3,17 43,27 11.3,12.7 22.3,25 32,38 11,11.4 20.3,29.6 14,53 -6.1,16.9 -23.8,24.8 -36,35 -14.3,8.7 -28.8,17.5 -45,24 -16.3,7.7 -31,16.3 -50,21 -14.9,8.1 -32.4,13.9 -50,19 -17.5,6.8 -36.8,13 -56,16 -16.9,6.3 -37.4,9.2 -56,14 -18.4,4.8 -37.6,9 -59,11 -19.5,3.7 -42.7,3.8 -65,5 z" />
    </g>
  </g>
</svg>
