<?xml version="1.0" encoding="UTF-8" standalone="no"?>
<svg width="150px" height="150px"  id="svg2" xmlns:rdf="http://www.w3.org/1999/02/22-rdf-syntax-ns#" xmlns="http://www.w3.org/2000/svg" height="1144pt" width="1073pt" version="1.1" xmlns:cc="http://creativecommons.org/ns#" xmlns:dc="http://purl.org/dc/elements/1.1/" viewBox="0 0 1073 1144">
<g>
<path id="path4" d="m603.99 0h32.09c7.1 1.2 5.7 12.57 2.9 15.8 5.39-21.83-22.52-7.6-33.8-8.53 2.27 15.04 4.92 31.82 10.07 45.38 4.32-9.41-0.72-23.96-2.1-34.88-5.64-9.05 19.27-4.04 8.41-3.33-12.12-1.85-2.92 12.39-3.52 18.51 5.78-3.46 0.27-17.18 8.92-15.45-2.7 26.76 4.36 53.09 14.24 77.43-3.27-26.46-4.92-55.8 1.44-80.5 26.27 45.78 31.66 102.38 20.8 154.06-5.22 16.49 3.68 34.71-0.5 50.24-13.36-3.52-6.36 12.23-14.65 16.63-8.23 8.98-25.37 4.08-27.79-7.91 0.5-7.37-7.27-4.91-11.35-4.57 2.35-28.26-4.04-56.42-3.19-84.73 0.4-17.67-9.82-36.31-6.47-52.75 5.84 5.95 4.36 18.42 8.48 25.76 6.64-35.01-10.99-68.51-10.59-103.35-0.13-3.97 3.14-6.65 6.61-7.81m23.91 64.88c-1.53 29.77 9.26 58.55 13.25 86.96 5.07-27.47-5.76-59.66-13.25-86.96m-15.96 35.3c1.17 40.31 4.05 83.04 8.05 121.71 1.94-40.32 0.51-83.53-8.05-121.71z"/>
<path id="path6" d="m408.14 14.65c10.84-0.53 32.66-3.87 25.85 14.08 0.9-17.21-23.03-7.09-34.57-7.15-0.26 15.73 5.49 31.05 8.79 46.35 10.13-13.05-14.56-44.92 10.16-39.18-12.56-2.12-8.83 9.26-7.45 17.26 5.17-2.42 1.49-15.49 8.97-13.81-1.65 27.09 5.31 54.49 15.13 78.82-2.68-27.18-6.29-55.22 1-82 25.61 45.24 31.41 100.56 21.58 151.55-5.1 17.53 1.03 35.43-0.81 53.23-13.54-4.43-7.2 12.66-16.08 17.06-10.54 9.42-29.04-0.1-27.7-13.98 2.52-40.98 1.01-82.46-7.31-122.75-0.98 39.1 5.44 82.11 6.19 122.7-2.91-1.07-12.79 3.48-8.93-4.9 1.38-23.43-3.45-46.61-2.95-70.01 1.85-21.22-9.99-42.47-7.32-63.1 5.21 7.38 4.53 17.94 8.4 25.29 7.13-34.36-10.58-68.07-10.54-102.39 1.92-7.99 11.12-7.02 17.59-7.07m13.8 66.62c-2.11 30.12 9.88 60.13 13.01 88.62 4.67-29.96-5.89-61.87-13.01-88.62z"/>
<path id="path8" d="m803.25 16.36c11.18 2.87 20.61 11.12 30.56 16.9 7.66 2.92-1.13 15.12-3.35 14.27 11.17-12.89-8.63-14.47-16.41-19.58-3.44-0.79-7.48-5.79-10.92-2.82-5.25 13.61-9.84 27.52-13.23 41.73 11.1-7.27 11.26-22.03 16.83-33.11 3.22-2.72 15.34 8.45 8.44 5.19-9.83-8.23-9.41 7.62-12.79 13.51 2.18 1.42 12.92-16.82 14.23-6.98-14.26 20.98-21.07 44.93-25.6 69.63 12.77-22.19 22.33-49.87 42.96-66.04-1.4 55.48-28.38 106.36-66.27 145.68-8.65 9.03-9.9 37.85-25.41 28.3-8.19 20.32-41.08 8.42-33.57-12.14 22.02-33.18 41.87-68.18 55.47-105.74-20.03 30.98-34.25 65.66-51.92 98.1-1.89 5.08-7.63 1.02-10.3-1.22 15.88-23.11 24.98-50.1 40.87-73.24 5.85-15.53 8.73-33.05 18.54-46.74 1.42 9-4.58 19.21-6.56 28.75 20.98-20.95 23.28-52.38 35.79-78.22 2.82-6.13 4.47-15.25 12.64-16.23m-8.7 69.24c-17.11 23.88-19.78 53.97-33.38 79.63 20.08-21.44 25.98-54.53 33.38-79.63z"/>
<path id="path10" d="m234.2 43.29c6.82-0.03 13.45 3.28 15.58 10.14-17.22-17.78-40.38 9.11-54.32 15.07 11.42-10.07 23.82-21.07 38.74-25.21z"/>
<path id="path12" d="m208.74 66.74c10.96-5.57 29.99-22.55 37.61-4.03 15.89 50.99 62.07 81.85 85.52 128.45-11.79-11.09-20.63-25.57-32.99-36.06 15.14 28.53 44.65 47.33 54.92 78.79-4.6 5.91-8.43-0.04-11.84-3.96 1.81 5.72 8.49 13.18 3.21 18.44-9.62 3.75-11.67-8.44-17.12-13.53 0.37-4.72-4.67-0.72 0 0 0.36 1.45-0.1 1.94-1.38 1.46-53.27-32.93-105.47-74.48-129.71-134.15-8.51-12.5-2.79-30.58 11.78-35.41m20.77 12.73c-3.87 1.2-8.12 2.3-11.33 4.79 2.16 7.84 7.54 14.69 11.27 21.93 3.67-6.63-0.16-12.55-3.52-18.11 7.54 4.27 12.24 11.65 19.13 16.84-5.68-7.53-5.31-24.82-15.55-25.45m14.51 39.53c17.59 32.72 41.73 62.29 66.8 89.18-3.11-6.58-8.8-11.56-11.89-18.11 18.25 15.39 24.53 40.13 41.62 56.37 6.83 0.65 1.2-8.84-0.8-11.21-24.26-44.71-64.55-76.84-95.73-116.23z"/>
<path id="path14" d="m258.83 78.15c15.33 14.04 28.01 31.39 36.43 50.44 1.5 2.35-1.45 3.26-2.58 0.71-13.61-15.34-23.53-33.53-33.85-51.15z"/>
<path id="path16" d="m993.77 80.32c16.03-2.78 17.63 20.41 25.23 29.72 6.9 6.42-5.4 13.28-8.5 12.39 15.2-5.15 0-16.6-4.3-24.58-3.4-2.32-5.3-14.02-10.57-9.25-11.39 11.57-25.24 21.01-34.49 34.54 14.67-4.41 23.12-17.44 34.88-26.16 6.88 5.9 9.18 19.23 0.28 3.57-5.1 2.81-11.77 9.26-16.23 14.53 6.41-0.93 17.88-10.26 20.83-2.19-25.37 13.13-46.64 31.42-63.7 54.32 23.14-16.96 47.03-33.68 74.7-42.32-28.57 48.36-76.69 81.3-129.29 98.75-13.29 4.68-23.21 15.77-35.59 22.31-3.06-14.01-14.13-0.24-22.09-4.73-12.93-2.84-17.09-21.01-7.26-29.6 34.9-19.08 70.12-39.71 99.56-66.45-32.17 18.97-62.04 41.51-93.31 61.84-4.16 3.27-6.28-3.18-7.81-5.96 25.4-13.49 47.23-32.79 72.72-46.18 13.97-11.53 25.17-27.29 42.1-34.93-5.35 10.34-15.9 16.28-22.91 25.15 34.44-12.64 54.97-46.23 85.75-64.77m-39.24 62.19c-26.97 13.23-44.96 38.2-69.48 54.58 28.29-9.9 51.63-34.92 69.48-54.58z"/>
<path id="path18" d="m46.66 135.41c4.29-0.71 11.01-0.56 13.43 3.64-25.09-7.94-28.54 24.44-40.14 37.96 7.93-13.81 9.17-36.41 26.71-41.6z"/>
<path id="path20" d="m48.73 145.36c13.1-1.43 21.53 12.15 32.26 17.66 35.98 29.26 85.09 33.18 121.88 61.18-14.65-5.34-29.19-11.11-43.93-16.25 26.13 18.92 62.57 20.86 86.03 44.18-0.03 7.38-6.86 3.34-10.95 1.87 4.31 3.84 16.44 10.81 8.12 17.36-9.1 0.69-17.06-6.77-25.41-10.25 0.33 3.34 5.21 3.36 7.3 5.41-69.87-2.76-144.37-18.22-197.11-67.54-8.81-14.29 3.72-27.15 9.82-39.23 3.57-4.92 5.54-12.59 11.99-14.39m8.88 23.81c-4.54 3.84-8.68 8.44-11.44 13.75 6.52 4.09 12.68 9.01 19.75 12.04 0.12-6.38-4.96-9.42-8.81-13.08 4.28 1.78 5.5 0.46 3.77-3.8 4.16 8.6 14.82 8.75 23.03 11.04-7.86-7.52-17.36-13.64-26.3-19.95m37.12 35.01c30.07 18.98 64.69 32.34 98.12 45.05-3.8-5.23-11.78-5.39-15.83-10.22 21.93 6.17 38.97 22.8 60.55 29.49 2.83 1.62 5.62-1.07 4.17-3.97-44.69-29.62-97.63-41.25-147.01-60.35z"/>
<path id="path22" d="m81.21 156.78c20.73 5.92 40.84 15.07 58.12 28.01 2.13 3.32-2.46 1.75-4.18 1.15-19.04-7.31-37.14-18.22-53.94-29.16z"/>
<path id="path24" d="m325.77 238.17c3.78 2.34 11.22 12.3 2.35 12.61-1.15-4.12-1.7-8.39-2.35-12.61z"/>
<path id="path26" d="m620.81 258.51c63.04-3.76 125.76-17.78 189.12-12.4 5.93 1.14 15.03 0.41 15.95 8.37 1.79 32.25 2.81 64.62 1.84 96.93-3.57 1.01-8.7 2.62-11.64 0.91 11.35 2.02 11.97-6.87 9.51-15.21-3.14 8.26-14.91 12.14-21.44 7.25 5.9 0.49 13.37-2.63 12.94-9.55-3.08-21.5-4.82-43.2-6.45-64.87-0.91-4.32-6.49-5.78-10.25-4.39-24.22 2.71-48.47 5.35-72.52 9.38-5.07 0.2-12.83 0.44-1.8 1.87-14.36 2.13-29.18 3.48-43.23 6.14 39.85 4.42 79.54-2.5 118.82-7.58 1.36 12.99 2.84 29.01-1.57 40.42-5.2-8.83-11.77-25.76-25.35-17.11-42.53 22.82-88.66 1.89-133.08 0.52-3.73 11.29-5.53 25.1-3.6 35.55 19.5 3.17 0.82-3.32-1.01 4.43 54.2-0.85 107.55-16.69 161.96-10.44 6.36 2.64 2.34-18 5.43-4.69 4.76 15.03-21.45 5.36-26.12 10.81 11.2-2.21 34.27 8.89 33.12-9.32 1.14 4.25 1.31 8.68 1.32 13.08-23.5 5.42-47.8 6.28-71.67 9.28-12.98-0.14 3.55-1.56 6.39-2.41-39.75-2.35-77.44 14.37-116.97 14.55-6.87 1.35-11.01-8.65-18.13-3.46 3.06 6.57 10.36 11.36 17.68 8.58 40.79-3.57 81.37-8.58 121.91-14.29-5.49 4.13-14.49 3.14-21.18 5.79 27.22-0.07 55.6-1.49 82.27-0.94-56.13 11.58-114.42 20.69-169.9 30.35 70.95-2.02 142.19-2.31 212.92 4.75 7.8-0.74 10.38 7.99 14.04 13.12 29.24 49.79 57.53 100.18 82.97 152.04 0.66 3.74 3.99 0.49 6.04 0.18-4.11 3.7-2.78 8.58-0.2 12.93 2.63-4.98 7.29-9.22 13.5-8.01 29.37 1.35 58.57-3.15 87.57-6.85 14-2.03 11.9 16.94 13 25.18v18.21c-0.2 9.27-0.5 21.33-11.9 23.67 2-3.12 7.1-5.04 6.7-9.31-1.6-15.47-3.3-31.05-8.1-45.91-24.5 5.74-47.3 20.16-73.63 13.23-0.77 26.55 6.3 52.64 15.13 77.45 1.5 3.89 3.6 9.72 9.1 7.91 17.1-14.35 30.3-34.97 52.8-41.51-8.5 19.76-22 36.89-35.3 53.68-5.2 7.75-14 12.94-23.4 13.24-0.2 26.81 14.4 52.65 7.7 79-1.1-12.07-1.7-24.19-3.3-36.19-1.2 32.39 3.1 65.89 3.3 98.75 0.1 15.02 21.2 0.26 28.9 7.69 1.4 13.7 1.8 27.71 2.1 41.52-3-11.78-0.5-28.03-4.6-40.92-8.8 0.18-17.7 0.3-26.4 1.41 11-0.52 26.5 3.47 25.7 17.5-0.6 14.22 7.9 45.77-16.6 42.26 18.2-0.02 13.8-20.73 12.5-32.78-0.1-7.03-1-20.83-11.7-18.02-51.67 2.17-103.24 7.14-154.78 11.61 4.24 7.41-3.67-2.77-7.36 1.67 3.54 2.45 6.37 6.63 10.45 8.19 49.1-3.16 98.4-5.57 147.59-6.45 1.7 7.95-1.3 9.04-2.1 1.81-45.59 6.16-91.06 13.1-136.67 18.94-0.49 2.99 1.15 7.91 5.7 4.73 36.97-1.77 73.95-3.7 110.96-3.87 6.61-11.5 20.31-8.84 31.51-9.11 1.1-10.8 2.8-2.96 1.2 1.82-8.1 2.37-22.5-3.15-26.6 7.04 6.6-1.66 16.3 2.63 20.7-3.68-0.4 7.96-13 2.53-17.7 4.95-5.73-1.76-5.76 8.94-1 9.15-5.44 2.75-1 10.17-2.1 14.82-11.69 5.41-37.77-5.23-42.78 12 2.17 43.71 6.52 87.4 9.48 131-43.53 2.7-86.98 6.6-130.47 9.8-2.08-25.8-3.81-51.7-6.07-77.53-10.95-1.66-12.11 9.36-8.08 17.53 0.33 23.1 1.82 47.5 5.6 70.4 50.08-2.7 100.12-7 150.16-10.6-0.8-45.4-5.86-90.75-6.27-136.13 12.73-0.73 25.51-0.72 38.23-1.42 17-1.21-6.2-34.13 12.5-31.05 4.9 0.38-2.8 1.15-5 1.2-4.2 8.8 7.9 25.08-3 32.25-12 2.79-24.65 2.77-36.89 4.72 4.73 43.04 9.68 86.03 14.38 129.13 0.71 8.9-7.24 16.9-16.19 16.4-47.9 5.3-95.86 10.1-143.81 15-11.44 2.2-22.86-6.1-25.09-17.3-3.48-23.5-4.33-47.3-7.81-70.9-23.37-3.3-44.83-16.91-57.1-37.21-108.18 10.57-216.63 19.23-325.07 26.83-9.72 20.58-27.08 37.68-49.02 44.68 0.22 22.9 2.54 45.8 3.29 68.8-0.57 13.9-12.91 26.2-26.87 26.5-48.36 3-96.83 4.4-145.15 8h-6.36c-12.71-1.3-23.02-13-22.75-25.8-1.81-38.6-3.42-77.2-4.48-115.9-15.91 1.1-39.91 5.3-44-15.47-8.52-9.63-27.84-13.75-30.24-29.91-0.91-17.26-3.49-34.69-2.16-51.93 2.74-13.19 18.44-13.11 28.94-13.1-1.45-45.14-7.66-89.91-4.92-135.12 3.34-6.35-3.45-4.9-6.91-5.56 0.48 45.23 5.34 90.4 4.88 135.66-22.27-1.09 5.49 2.72-1.31-10.35-3.07-41.98-7.8-84.05-6.8-126.16-22.45-13.24-39.65-33.64-59.38-50.48-16.56-10.68-3.79-32.03-7.75-47.52 1.35-7.25-5.66-22.03 5.14-24.04 30.43-3.95 61.35-11.15 92.05-6.24 6.53 4.98-3.71 19.91-0.09 4.36-26.92 2.06-55.41 5.2-78.39 20.62 7.79 12.95-6.81 29.67 6.02 39.81 14.31 14.04 28.09 29.01 44.8 40.25 6.92-26.46 12.66-53.64 22.07-79.45 4.45 0.39-2.23-6.39 2.94-3.01 2.08-6.72 6.92-16.98 9.15-4.92 21.06-63.3 46.13-127.23 71.75-189.74 2.15-4.53 3.51-10.92 9.3-11.84 46.19-10.77 92.71-20.64 139.83-26.32-48.86-4.32-99.33 10.68-147.05 23.04-13.23 19.6-18.08 45.44-29.09 66.17 9.25-22.43 13.87-47.75 27.26-67.94 25.9-10.03 53.77-14.97 80.84-21.36-18.95-6.17-50.99 10.38-63.51-12.37-8.98-14.65 8.76-41.49-14.01-45.02 4.05-0.99 12.36 2.24 11.61-4.29-6.24 0.42-28.99 1.17-10.94 2.64-59.77 31.07-127.8 56.84-196.03 41.31-17.67-8.01-11.57-30.36-12.05-45.6-1.27-7.42 4.06-15.38 11.92-15.2 22.79 2.35 45.92 5.73 68.81 2.67 28.85-6.85 58.76-12.06 88.35-9.22-14.88 2.52-29.75 5.14-44.59 7.88 31.61 3.3 61.97-13.42 93.61-5.82 1.55-14.51-8.64-43.15 13.61-45.24 51.51 0.89 102.16-10.67 153.59-12.02 61.02-7.11 122.36-17.19 183.8-15.81-47.02 8.76-96.24 11.06-143.04 14.88 4.65 1.15 8.84 3.52 13.31 5.19 51.93-3.3 103.78-7.92 155.63-12.35 5.91-0.46 10.84-4.12 16.68-4.87m193-4.48c3.82 6.54 8.25 0.85 0 0m-162.22 18.19c1.89 3.73 4.33-2.57 0 0m-7.98 1.32c-11.58 2.18-24.53 2.51-35.25 5.75-6.55 11.24 11.32 9.46 13.63 1.49 27.57-0.42 57.79 2.06 83.94-3.85-21.83-0.09-45.09 0.87-65.98-1.75 4.96-0.47 16.12-3.29 3.66-1.64m-212.15 0.86c-13.83 2.23-29.96 1.89-42.33 4.63 18.02-0.98 36.1-1.77 54.13-2.87-2.72-2.92-8.21-1.83-11.8-1.76m280.06 1.92c4.62 3.28 6.42-2.6 0 0m-118.1 4.07c-45.53 7.12-91.4 11.81-137.29 15.89 0.11 2.35-2.26 7.77 1.65 6.51 46.43-4 92.8-8.97 139.06-14.49-1.22-3.23 2.18-10.21-3.42-7.91m22 10.97c-15.98 2.45-3.37 26.84-6.4 39.57-3.91 8.23 6.05 3.89 8.92 5.04 0.42-15-0.73-30.05 1.09-44.98-1.22 0.08-2.42 0.2-3.61 0.37m-24.87 3.19c-44.39 5.31-88.8 10.62-133.31 14.76-0.64 11.5 1.31 22.98 0.66 34.51 47.26-3.43 94.57-6.2 141.95-6.85-0.7-14.28-2.47-28.56-2.96-42.87-1.58 0.11-4.75 0.34-6.34 0.45m-158.95 3.03c-60.88 2.91-121.47 7.72-182.48 5.47-0.49 6.31-0.15 12.64-0.16 18.97 3.28-3.87-2.15-16.64 7.44-16.09 58.44 4.56 117.52 6.32 175.38-4.85 5.24 12.34 20.14-11.28-0.18-3.5m5.96 13.79c-9.08 4.7-0.32 23.29-6.41 31.67-4.89-7-6.6-18.81-16.15-20.95-19.8 5.16-38.76 15.67-59.86 14-27.75-1.68-54.85-10.73-82.73-10.73 0.61 10.02-4.36 23.29 3.17 31.47 15.98-2.81 34.38-11.22 49.7-5.96-16.27 7.07-36.22 5.85-52.2 9.2 57.94-3.73 115.61-11.08 173.53-15.24-3.2-9.81 3.68-33.91-9.05-33.46m-214.14 23.92c-12.63 2.87 12.54 2.3 0 0m389.94 2.99c-3.4-0.85-5.08 5.13-1.4 4.67 7.57 4.39 7.38-7.66 1.4-4.67m-23.76 2.25c-42.17 3.46-84.32 7.27-126.52 10.32-5.17-4.25-9.22 8.02-3.17 6.13 46.99-4.51 94.11-8.14 141.04-13.2 1.93-6.95-7.64-2.72-11.35-3.25m-370.18 0.89c-48.69-0.88-96.28 15.42-143.25 22.79 34.23 0.91 72.38-4.17 107.51-11.48-3.63-2.2-15.94 2.64-20.66-0.55 19.44-3.79 39.21-2.16 58.74-3.39 9.35 1.89 5.95-12.95-2.34-7.37m-187.3 10.78c-3.23 4.54-3.36 11.91-3.96 17.72 8.73-0.15 17.42 1.24 26.15 0.8-4.29-5.48-10.54-7.52-17.22-7.37 3.54-0.54 6.22-1.22 2.6-4.34 6.94 3.99 16.09-0.39 22.32-3.09-10-0.92-19.95-2.33-29.89-3.72m413.93 0.13c-13.38-3.64-7.29 8.92-19.48 6.18-11 1.48-23.46 1.81-33.51 4.58 17.71-1.38 35.38-3.29 53.06-4.96 3.5 0.7 2.98-6.72-0.07-5.8m-17.5 1.95c3.28 3.47 5.38-2.61 0 0m168.04 3.19c-70.76 6.13-141.45 13.49-212.1 20.01-9.47 3.14-22.21 3.82-30.32 7.64 85.43-2.19 170.66-9.75 255.72-17.88-2.97-4.93-5.7-13.35-13.3-9.77m-211.07 5.85c4.62 3.28 6.42-2.6 0 0m-136.68 15.05c-2.12 8.47 3.26 12.53 11.3 8.68-5.19-0.98-8.49-5.88-11.3-8.68m109.7 0.21c-31.54-0.22-64.45 4.26-94.57 8.43 35.89 2.08 73.65-3.18 107.92-9.04-4.46-0.24-8.92 0.29-13.35 0.61m350.07 21.05c-154.67 6.24-309.55 21.61-461.12 53.8-6.08-0.67-8.32 4.94-9.23 9.7 5.04-0.68 7.77-6.3 12.88-7.05 111.98-27.53 227.19-38.28 341.9-47.06 78.59-4.91 157.44-10.01 236.14-5.2 7.16-0.62 12.5 4.01 17.79 8.03-0.57-5.38-3.17-8.61-9.42-10.51-42.87-3.26-86.01-2.78-128.94-1.71m135.07 2.38c2 4.29 22.93 23.16 7.47 14.99 4.36 9.74 12.69 17.56 18.83 26.33 2.6-0.8 4.32 3.14 0.89 2.12 44.79 50.79 65.48 117.92 96.27 176.34-2.21-15.98-5.37-32.73-15.1-45.86 0.31 1.62 0.73 3.22 1.04 4.86-25.39-59.97-61.68-117.6-95.15-174.57-2.37-5.41-9.63-3.9-14.25-4.21m-129.11 13.59c-94.57 2.59-188.72 12.77-282.92 21.03-37.14 2.91-76.5 8.63-111.47 16.44 65.56-7.19 131.38-11.7 197.22-15.66 100.61-5.78 201.32-14.49 302.13-10.87 3.95 0.5 8.78-0.34 11.09 3.81 15.41 19.75 30.55 39.74 44.4 60.63 26.14 36.57 41.79 79.04 58.8 120.29-16.08-26.35-30.99-54.81-47.97-81.13-20.84-28.92-44.1-56.19-67.42-83-103.27 1.55-206.24 12.4-309.45 16.86-81.19 4.76-162.76 7.05-243.29 19.34-35.47 59.15-70.94 120.07-87.44 187.51 3.65-0.37 10.39 1.29 9.59-4.88 11.59-44.61 28.13-88.18 53.1-127.06-20.45 42.51-39.19 85.99-52.77 131.25 113.04-10.27 226.07-20.71 339.12-30.87 139.49-12.63 279.61-22.74 419.67-17.06 0.33 7.07-3.28-3.15-3.53 2.28 3.31 4.62-1.6 1.95-2.1-1.29-97.51 2.63-195.09 8.32-292.26 17.83-158.57 17.83-316.7 39.91-475.97 50.91-6.75-2.55-7 4.83-6.91 9.06 176.82-15.83 352.97-39.2 530.11-51.8 0.9 0.41 13.64-1.72 9.65 0.7-176.14 18.65-352.24 37.95-527.98 60.08-4.66 2.11-15.05-2.6-15.41 4.62-3.42 18.14-8.39 36.93-5.49 55.39 40.76-3.65 81.3-10.98 122.28-11.3 12.99 6.62 25.62-3.44 39.44-0.74 135.46-8.21 272.8-28.41 407.11-26.07-142.47 9.67-284.38 26.07-426.71 37.13 1.06 3.97 2.77 7.76 4.05 11.68 115.41-1.91 231.21-0.6 346.09-14.4 55.96-6.04 112.04-12.49 168.42-11.48 0.78 5.37-1.47 12.99-2.97 4.19-31.53 6.26-65.82 12.12-95.58 18.99 33.51-1.64 67.07-2.32 100.65-2.1 0.07-10.05 1.93-8.51 1.05 1.78-53.32 4.93-109.1 8.44-160.79 16.31 48.41 0.23 98.78-5.39 145.83-5.13-48.26 3.44-96.39 8.91-144.65 12.24 4.91-3.44 16.98-1.08 22.61-4.25-41.75 4.02-83.81 5.66-125.34 11.71-82.61 13.72-166.39 15.28-249.72 21.12-5.4-2.28-11.91 5.97-4.13 6.69 30.44-1 61.22-1.91 91.51-6.16 90.02-11.31 180.43-18.92 270.76-27.21 52.5-5.45 105.08-10.41 157.84-12.2-0.13-16.61-4.22-33.24-2.03-49.9-158.4 9.45-315.8 35.68-474.75 34.22 92.01-14.16 188.55-21.74 282.45-30.65 65.8-5.47 131.91-14.93 197.76-14.2 6.52-6.89 15.87-9.72 25.14-9.85 45.69-2.32 90.88-12.31 136.69-11.63-1.65-12.77-3.28-25.9-9.92-37.14-7.4-27.84-17.33-55.63-31.31-80.53 3.91 12.03 9.37 23.92 10.8 36.56-1.27 12.5-19.88 12.54-26.39 8.28 9.28 1.2 27.19 1.5 23.11-13.23-13.72-33.82-31.41-65.93-47.36-98.73-21.11-35.92-46.82-68.83-71.97-101.95-2.27-5.47-8.66-5.26-13.47-5.7-36.28-2.03-72.71-1.79-109-0.76m-400.02 37.68c3.28 3.47 5.38-2.61 0 0m-46.96 1.94c1.9 3.73 4.33-2.57 0 0m-6.01 1.22c-4.26 1.57-11.24 0.01-13.7 4.67 4.31-2.08 25.02-4.85 13.7-4.67m-27.1 7.81c-8.17 10.56-12.5 24.25-19.35 35.87-24.68 61.55-48.67 123.59-66.47 187.52-3.42 4.23 7.04 16.56 7.91 7.83 3.06-6.52-5.83-11.69-1.9-18.49 9.75-35.05 21.5-69.67 36.4-102.91 18.44-31.72 28.38-67.31 42.74-100.91-7.79-2.04 8.52-8.93 0.67-8.91m11.99 4.06c-7.03 4.22-7.46 15.62-11.34 22.95 2.4-2.94 15.59-20.95 11.34-22.95m-122.29 198.79c-4.32 19.67-11.54 42.07-12.61 60.71 9.39-17.48 11.36-42.22 12.61-60.71m864.58 18.15c4.28 9.42-1.24 25.04 11.64 27.6-3.07-9.52 1.9-25.37-11.64-27.6m-844.63 18.96c-3.16 22.23-11.02 43.91-9.09 66.69 2.71 0.01 8.14 0.02 10.86 0.03-0.93-21.13 3.05-41.97 6.97-62.58-2.83-1.4-5.5-4.06-8.74-4.14m721.5 24.47c-10.26 0.88-22.44-0.58-29.7 8.45 5.63 17.51 5.66 39.33-1.9 55.71 2.89 3.39 5.88 7.03 9.09 10.21-2.15-17.91 0.64-36.27 1.34-54.32-0.31-4.52 4.36-7.46 8.48-6.69 42.16 3.02 84.59 8.05 126.71 1.95 5.11 22.47 9.79 46.27 4.41 69.25-7.6-14.83-13.03-32.68-27.18-42.9-29.87 10.14-59.4-9.12-89.61-9.22-6.07 23.24-5.12 48.68-2.21 71.74 38.2-4.36 76.4-12.45 115.04-7.93 7.82 3.7 4.52-6.58 6.72-8.94 0.95 3.82 1.46 7.74 1.03 11.69-37.41 3.8-75.09 9.73-110.96 20.35 15.64-2.01 31.51-1.45 47.08-4.1 19.65-5.01 42.08-8.59 60.93-6.1-17.4 1.84-36.73 3.62-52.77 6.2 22.13-2.9 47.23 3.36 67.25-7.66-3.01-33.93-3.14-69.37-9.89-103.09-40.37 2.72-84.34 12.07-122.56 3.89 40.25-7.12 80.73-14.82 121.59-16.51 4.7 2.01 3.34-6.86-0.63-5.73-40.96 2.4-81.46 9.64-122.26 13.75m127.02-12.31c-1 5.42 4.1 9.06 8.55 10.28 1.6-6.4-3-9.49-8.55-10.28m-721.11 49.02c-38.28 3.57-76.35 9.11-114.47 13.82-0.13 2.94 0.47 5.75 0.91 8.68 40.8-8.52 82.85-14.54 123.97-17.84 8.09-6.15-6.66-5.39-10.41-4.66m21.79 7.88c-4.86 2.17 0.6 6.87 1.51 9.93 3.56 10.4 2.46 23.11 5.24 32.73-4.58-13.56 6.51-34.21-6.75-42.66m-154.78 6.98c-5.65 1.66-1.88 10.46-1.89 14.84 3.14-2.31 6.4-3.56 10.47-2.49 0.54-6.9 1.38-16.34-8.58-12.35m131.02 3.28c-35.17 6.52-70.91 8.09-106.56 5.36-5.44-4.56-7.15 5.58-2.33 4.48 36.9 3.36 74.21 5.81 111.07 0.77 3.49 22.48 10.69 46.88 3.3 68.96-6.37-15.07-12.76-31.2-25.65-41.97-30.34 8.63-59.8-9.04-90.2-9.98 1.35 19.52 1.03 39.38 9.28 57.54 4.53 0.97 9.55-0.73 13.8 0.94-5.21 5.98-23.22 1.12-17.99 12.25 37.33-4.44 74.63-11.06 112.36-6.92 1.2-12.14 3.33-7.76 3.23 2.95-25.16 3.18-52.36 4.85-75.82 12.17 26.24-2.2 52.47-4.76 78.77-6.22 0.34-16.29-4.86-33.02 0.92-48.91-8.26-14.21-5.57-31.26-6.76-46.96 3.92-7.78-4.89-4.03-7.42-4.46m417.95 12.79c4.62 3.28 6.42-2.6 0 0m-367.48 3.68c-0.1 1.31-0.1 2.63-0.01 3.96 35.36 0.12 72.95 0.26 106.96-2.93-35.65-0.29-71.27-1.67-106.95-1.03m499.5 2.52c-94.41 8.09-188.83 16.03-283.07 25.94-49.21 5.79-100.5 5.24-148.45 12.53 71.32-0.45 142.69-1.91 213.8-8.17 73.3-5.8 146.25-18.83 220.03-15.62 1.2 6.84-0.69 11.49-3.06 2.89-30.36 6.97-64.08 11.97-92.54 18.9 32.5-1.2 65.08-0.97 97.64-1.1-0.38-10.42 1.95-9.74 2 1.16-52.78 5.02-107.2 8.19-158.88 16.03 41.01-2.54 82.13-3.71 123.13-6.57 13.35-4.91 27.97-6.37 41.98-3.65-2.59-12.52-3.54-25.31-5.01-37.99 3.44-7.49-5.08-3.93-7.57-4.35m15.45 5.41c1.92 11.85 0.69 25.64 4.02 36.14-1.93-11.85-0.7-25.66-4.02-36.14m173.71 27.54c-2 2.29-4.2 4.32-6.7 5.89 5 4.29 10.1-4.04 6.7-5.89m-164.48 1.7c-2.81 6.9-2.57 12.3 5.63 13.01-2.36-4.17-5.7-7.96-5.63-13.01m79.75 6.76c5.15 3.53 7.2-1.73 0 0m-621.79 3.21c2.04 10.19-4.83 29.82 1.73 35.2 0.36-8.87 1.11-27.37-1.73-35.2m524.53 3.28c1.34 3.95 13.53-2.91 0 0m-56.11 3.06c-33.8 2.92-67.57 6.5-101.43 8.61 1.68-3.85 12.2-0.05 14.73-3.17-62.01 3.98-125.39 10.41-185.8 20.16 93.03-7.61 186.12-15.03 279.06-23.66 7.62-2.88-3.64-3.02-6.56-1.94m-445.16 7.33c-1.03 1.57-1.96 3.42-1.32 5.35 34.13-1.37 68.34-0.71 102.44-2.72-33.45-3.08-67.46-1.35-101.12-2.63m493.72 7.6c-6.49 2.25-17.63 0.9-19.99 8.83 3.4 2.28 9.87-7.51 6.56-0.44 7.62-1.78 16.17-0.47 23.32-2.52-2.98-2.19-5.9-6.31-9.89-5.87m7.57-0.1c-0.72 3.44 8.88 8.17 13.42 5.27-1.75-5.82-8.32-6.85-13.42-5.27m-52.84 1.05c-3.78 1.6-6.75 6.03-7.61 9.87 5.37 6.22 22.73-15.35 7.61-9.87m-15.4 1.04c-126.07 10.45-252.13 21.48-378.15 32.55-1.34 2.55 2.64 5.17 4.99 5.17 123.59-5.38 246.97-15.36 370.09-27.27 0.92-2.29 8.87-11.65 3.07-10.45m38.07 4.97c-9.01 2.36 1.34 3.86 0 0m-308.04 3.98c5.85 3.17 7.43-2.61 0 0m-47 4c5.85 3.17 7.43-2.61 0 0m-15.91 1.26c-19.06 1.69-38.23 0.86-57.29 2.52-1.46 1.27 2.77 2.53 4.05 2.84 19.61-1.19 39.13-4.05 58.8-4.76 12.25-1.16-2.73-1.76-5.56-0.6m-79.87 2.76c0.02 1.45 10.52 6 13.14 3.69-1.09-5.24-9.04-4.76-13.14-3.69m12.21-0.52c1.48 3.31 5.55 4.09 8.79 4.33-1.16-2.76-5.95-3.19-8.79-4.33m506.26 1.49c-11.16 1.58 7.22 5.52 0 0m-554.42 1.15c-2.84 0.92-7.05 1.21-8.68 3.63 2.85 9.82 25.57-8.84 8.68-3.63m678.75 0.04c-35.76 2.84-71.54 5.68-107.31 8.36 0.11 2.44 0.17 4.88 0.13 7.32 38.13-2.76 76.27-5.75 114.47-7.38 0.98-5.58 0.64-12.02-7.29-8.3m-713 2.98c-36.35 3.59-72.36 6.7-108.84 9.06-2.5 0.05-1.67 2.63-1.7 4.3 20.56-2.5 41-6.38 61.66-8.04-13.41 5.36-32.39 6.52-46.7 11.23 33.24-4.12 66.87-5.86 99.93-10.8 11.05-4.16 2.38-7.62-4.35-5.75m561.8 5.85c-10.73 4.91-22.41 10.88-34.33 5.77-17.01 7.34-19.36 35.19-4.01 45.92 10.42 6.27 22.88 2.51 34.09 5.65 19.23-6.08 23.84-28.61 26.04-46.09-11.74 4.23-10.47-14.04-21.79-11.25m26.24 1.01c-6.01-1.78-6.24 3.79-6.57 7.67 4.81-0.69 9.69-1.07 14.56-0.89 0.58-4.45-2.46-10.06-7.99-6.78m121.02 0.19c-34.19 2.72-68.51 5.23-102.59 8.29-3.05 5.57-3.53 15.24-7.92 18.78-0.15-10.04 1.4-24.69-13.86-17.56 3.42 19.51 0.87 42.39-14.65 55.6 2.68 17.05 14.36 2.02 20.48-4.58-2.82 7.3-9.52 12.14-14.82 17.42-1.22 16.92 3.66 35.89 0.88 51.39-0.67-16.6-3.02-33.18-2.68-49.85-1.79 0.56-4.89 0.75-4.51 3.35 1.17 22.8 4.33 45.5 4.98 68.4 34.95-3.6 70.11-4.8 105.08-8-1.74-40.3-5.27-80.67-4.93-121.07 4.86-20.9 32.74-12.18 45.94-15.79 3.25-9.19-5.26-7.52-11.4-6.38m-842.56 3.41c-3.18 9.09 8.72 3.58 12.92 5.06 3.18-9.09-8.73-3.63-12.92-5.06m709.17 1.56c-0.21 5.07 5.11-0.08 0 0m-567.33 2.73c-3.51 0.3-6.39 9.42 0.5 5.34 6.62 0.21 8.88-9.95-0.5-5.34m45.82 0.15c-12.46 1.77-1.8 6.65 6.75 3.21 11.87-0.11-3.49-6.27-6.75-3.21m-78.22 1.07c-27.43 1.36-54.88 2.18-82.32 3.42-5.17-2.95-5.77 2.41-6.07 5.42 35.67-2.56 71.49-2 107.16-4.6 6.87-10.25-14.13-2.65-18.77-4.24m516.96 0.95c-5.62 0.41-14.85 1.67-2.25 2.3 4.78 3.98 8.93-4.12 2.25-2.3m-644.84 3.1c-3.83 0.16-7.66 0.37-11.48 0.62 0.84 12.59 0.48 25.32 1.79 37.91 15.72-2.03-7.71-32.94 11.72-32.66 8.32-3.22 24.74 5.51 27.49-5.42-9.7 2.65-19.58-3.7-29.52-0.45m633.72 2.58c-2.59 7.67 7.79 5.06 12.41 5.58 2.22-6.77-8.65-5.92-12.41-5.58m-17.76 1.43c-75.9 4.64-152.95 13.55-227.52 22.55 78.26-5.86 156.48-12.26 234.72-18.41 4.31-8.12-4.85-3.11-7.2-4.14m21.57 15.81c-9.15 0.35 1.97 8.97-1.85 12.83 7.49 30.76 43.24 45.51 71.51 36.46 1.21-3.84-2.65-9.23-6.72-6.54-20.51 9.17-47.26-1.76-53.55-23.75-3.95-5.63 0.72-19.32-9.39-19m-410.4 1.4c0.59 6.49 11.97 29.07 17.04 14.36-8.37-2.74-5.86-17.68-17.04-14.36m41.98 28.65c-1.19 0.35-3.45 0.4-3.47 2.07-1.19 22.41-15.67 43.13-35.12 53.63 22.98-4.1 41.38-23.94 43.74-47.28 116.59-7.53 233.07-17.16 349.56-26.14 1.01-4.91 0.8-14.29-7.18-10.53-115.85 9.27-231.74 18.09-347.53 28.25m-50.04-26.12c-4.9 2.26-10.15 3.49-15.27 5.08-3.03 13.19-10.96 27.92-25.48 29.61-3.29 11.68 13.04 27.76 24.38 17.11 15.12-1.79 37.51-5.92 36.56-25.75-10.06-5.87-15.03-16.04-20.19-26.05m-28.96 3.18c-7.89 3.57-10.01 13.47-12 21.18 7.32 2.92 6.91-13.04 10.13-5.69 1.97-4.36 9.8-17.25 1.87-15.49m188.32-0.46c6.29 3.48 10.58-1.67 0 0m288.72 8.15c6.03 11.96 20.88 13.17 32.52 11.29 7.14 1.44 4.81-2.27 1.45-2.13-11.81 1.43-25.45 0.02-33.97-9.16m-410.18 2.3c-3.82-0.03-8.41 2.39-6.52 7.26 4.75 1.69 18.77-11.01 6.52-7.26m-110.38 4.64c-5.58 9.44 11.03 14.17 11.67 4.52 3.23-8.61-7.84-3.25-11.67-4.52m-29.59 1.51c-13.18 0.65-26.8 0.38-39.66 1.91 12.63 19.16 38.72 3.62 57.72 6.41 6.99-13.75-10.39-8.3-18.06-8.32m-83.42 2.77c-8.39-1.64-8.84 6.2-6.45 12.58 16.01-2.01 32.54-2.2 48.47-3.46-10.38-14.41-36.79 5.1-42.02-9.12m-14.13 0.9c-0.04 4.25-1.7 14.3 5.5 11.53-0.01-4.24 1.91-14.47-5.5-11.53m231.22 4.98c-0.66 3.89-1.04 7.83-1.27 11.78 2.54-1.27 4.56-12.33 1.27-11.78m468.04 2.07c-5.01 1.45 1.64 7.03 1.84 10.43 7.1-0.12 1.6-10.75-1.84-10.43m-571.01 6.68c1.68 19.05 14.56 37.6 33.14 43.6 4.19 1.8 4.82-6.7 0.86-7-15.05-5.6-22.97-21.35-24.98-36.46-2.26-0.04-6.77-0.11-9.02-0.14m-15.86 1.57c-14.09 0.89-28.15 2.65-42.28 2.44 2.78 37.29 5.59 74.69 8.71 111.99 29.92-3.7 60.1-5.1 90.08-8.2-0.68-18.4-3.21-36.7-4-55.1-18.03-7-36.52-17.9-43.17-37.48-3.76-4.04-0.92-16.51-9.34-13.65m-58.32 3.51c2.69 42.32 7.59 84.42 10.74 126.72 39.67-4.2 79.49-7.2 119.19-11-1.15-22.9-4.26-45.7-5.26-68.7-1.43 0-4.27-0.1-5.69-0.1 0.98 21 3.3 41.9 4.85 62.9-35.39 3.8-71.06 7-106.65 9.1-4.26-39.3-6.85-79-9.74-118.46-2.35-0.92-4.83-1.07-7.44-0.46m-10.08 0.78c3.84 46.84 3.87 94.04 8.42 140.74 49.72-2.4 99.93-5.2 149.62-8.1 6.14-9-0.97-22.6 0.63-33.2-1.83-10.7 1.73-28.1-5.29-33.5 6.39-4.3 6.51-28.8-5.16-21.2 1.03 27 4.28 54 4.8 81-46.3 5-93.36 6.2-139.97 9.3-3.36-44.9-5.17-89.8-7.3-134.76-1.43-0.07-4.31-0.21-5.75-0.28m185.19 22.44c-10.81 7.5-23.81 10.4-36.67 12.1-2.19 1.5-2.46 7.8 2.56 3.9 12.29-2.2 25.58-6.9 34.11-16m-57.28 10.8c-1.45 17.2 14.26-0.1 0 0z"/>
<path id="path28" d="m1054.2 260.38c17.2 1.12 7.4 25.06 9.9 35.56 3.5 10.15-8.3 11.42-15 9.05 19 1.84 8.6-23.96 7.5-35.92-15.5 1.43-30.7 6.18-45.7 10.18 13.5 5.98 26.7-2.52 40.2-3.07 0.5 2.3 0.1 21.58-1.5 9.3 1.9-12.43-12.5-3.02-19.3-3.38 3 4.21 17.5 1.06 16.6 8.73-26.3-1.96-50.48 4.88-74.84 13.5 25.06 1.08 54.04-5.81 78.84 3.56-45 24.12-97.9 30.86-147.71 19.93-16.08-5.26-32.53 0.72-48.9-0.9 1.66-13.21-15.22-7.38-19.32-17.99-7.61-10.76 2.26-27.24 15.22-25.93 38.41 2.54 77.16 1.02 115.02-6.29-37.16-1.43-75.34 4.62-112.9 5.3-4.32-0.14-2.12-6.01-2.2-9 23.77 1.06 47.39-1.91 71.09-2.99 21.71 3.04 43.02-10.65 63.92-7.3-8.99 5.37-21.96 5.77-29.77 9.21 33.48 6.02 65.65-9.36 98.85-11.55m-72.64 33.19c-23.97-0.29-47.2 11.59-70.68 11.28 29.51 6.71 57.52-5.2 85.94-11.12-2.37-3.09-11.2 0.65-15.26-0.16z"/>
<path id="path30" d="m221.72 268.19c6.15 1.61 11.14 7.95 17.86 6.5 25.08-2.13 50.25-1.81 75.41-1.67-24.79 3.44-53.44 2.41-79.55 5.37-15.85 3.8-16.91 22.57-14.31 35.6-2.35-10.39-5.12-26.4 5.71-34.26 5.31-3.96-3.42-7.62-5.12-11.54z"/>
<path id="path32" d="m727.87 274.93c6.67 4.87 7.02-3.09 0 0z"/>
<path id="path34" d="m648.2 304.24c14.49-0.36 0.26 0.75-0.61 10.94-0.55-2.85-1.99-8.74 0.61-10.94z"/>
<path id="path36" d="m679.66 323.53c4.01 0.79 12.11-3.11 14.4 1.41-16.66 5.75-34.56 6.79-51.99 7.75-2.64-5.85 0.64-6.55 2.43-2.76 11.82-1.49 23.21-5.55 35.16-6.4z"/>
<path id="path38" d="m78.51 324.41c9.26 0.45 23.12-3.14 29.81 2.52-20.64 4.64-42.07 4.2-63.1 3.98 8.66-3.87 22.44-5.23 33.29-6.5z"/>
<path id="path40" d="m0 337.82c2.59-8.22 10.49-13.31 19.04-12.95-24.8 6.73-13.33 37.67-16.86 54.15-0.83-6.53-1.32-13.11-2.18-19.63v-21.57z"/>
<path id="path42" d="m279.12 330.07c14.73 0.75 2.85 0.31 1.13 8.23-3.33 7.01-2.88-5.66-1.13-8.23z"/>
<path id="path44" d="m868.56 438.23c5.24 1.27-0.49 5.92 0 0z"/>
<path id="path46" d="m1018.6 546.53c6 0.65 15.5-3.32 19.8 1.23-19.1 6.2-39.39 6.39-59.18 8.41 10.59-6.1 26.58-7.74 39.38-9.64z"/>
<path id="path48" d="m1052.8 572.92c4.7 8.44 7.1 20.3 5 30.15-2.1-9.58-3.1-20.18-5-30.15z"/>
<path id="path50" d="m1046.3 578.38c4.6-0.93 4.9 9.4 0.1 2.94-11.2 2.94-23.1 9.43-31.9 17.35-0.7 6.98 8.4 11.75 14.6 11.9-3.8 3.28-6.7 7.76-11 10.25-6-10.97-17.9-19.85-16.6-33.6 15.9 3.22 29.8-5.45 44.8-8.84z"/>
<path id="path52" d="m992.18 596.9c8.82 10.35 16.82 21.37 23.92 32.92 9.6-8.77 16.7-23.55 32.1-23.15 4.1-6.09 7-4.45 6.6 1.89-14.4 14.03-29.2 27.79-43.8 41.51-11.72-15.28-16.83-34.28-18.82-53.17z"/>
<path id="path54" d="m35.79 617.42c3.11-2.32 8.68 0.19 4.03 2.37-17.94 8.35-5.03 32.26-8.51 44.97-2.84-14.28-15.86-39.97 4.48-47.34z"/>
<path id="path56" d="m468.52 632.53c6.3 0.63 16.69-2.88 21.41 0.31-83.3 11.91-167.29 18.08-250.92 27.25 75.13-13.22 152.75-22.69 229.51-27.56z"/>
<path id="path58" d="m871.62 633.63c12.86-0.47 29.26-2.03 40.32 0.38-82.37 1.65-164.63 8.04-246.85 13.05 67.14-7.53 137.86-11.59 206.53-13.43z"/>
<path id="path60" d="m101.67 636.43c4.5 0.59 13.33-2.69 16.17 0.45-11.73 0.66-23.3 2.93-34.8 5.23 4.13-4.51 12.81-3.75 18.63-5.68z"/>
<path id="path62" d="m112.6 640.17c4.81-1.35 8.1-0.33 5.85 5.2-4.55 24.05-7.58 48.38-11.6 72.48-12.75-5.26-23.32-16.11-32.78-26.01 8.01 1.9 15.85 4.51 23.94 6.1 4.15-15.97-1.45-35.4 11.61-48.32 3.21-2.37 0.19-7.99 2.98-9.45z"/>
<path id="path64" d="m87.46 645.28c1.81 2.83-16.93 7.39-17.13 14.39 4.62 6.35 8.5 18.07 18.18 17.12 2.74-3.4 4.6-7.67 8.52-9.94-1.09 6.93-1.49 13.94-2.36 20.91-11.39 0.64-21.51-6.66-29.41-14.09 1.03-6.89 0.7-13.75-1.27-20.45 7.1-4.31 15.51-5.89 23.47-7.94z"/>
<path id="path66" d="m655.52 647.35c7.42-2.61 5.84 3.17 0 0z"/>
<path id="path68" d="m709.03 648c10.58-1.67 6.29 3.48 0 0z"/>
<path id="path70" d="m27.78 688.22c3.65 12.96 17.71 18.18 26.14 27.9-11.07-6.01-27.48-12.62-26.14-27.9z"/>
<path id="path72" d="m729.55 730.28c5.38-2.61 3.28 3.47 0 0z"/>
<path id="path74" d="m873.5 767.2c12.14-2.41-0.15 3.26 2.08 10.03-3.75 12.99-4.26-6.42-2.08-10.03z"/>
<path id="path76" d="m809.55 787.28c5.38-2.61 3.28 3.47 0 0z"/>
<path id="path78" d="m867.81 795.09c4.53 6.36 6.01 15.84 8.92 23.35 4.18 1.32 9.85-2.06 13.48 1.45-5.66 3.36-12.44 4.46-18.92 4.9-1.87-9.8-2.26-19.82-3.48-29.7z"/>
<path id="path80" d="m653.52 801.32c6.42-2.6 4.62 3.28 0 0z"/>
<path id="path82" d="m165.4 817c13.71-1.96-2.97 7.46 0.21 15.68-4.25-1.31-1.63-11.13-0.21-15.68z"/>
<path id="path84" d="m661.52 862.35c7.42-2.61 5.84 3.17 0 0z"/>
<path id="path86" d="m1043.3 883.02c3.4 9.92-5.4 12.11 0 0z"/>
<path id="path88" d="m759.52 917.32c6.42-2.6 4.62 3.28 0 0z"/>
<path id="path90" d="m797.41 916.72c1.08 5.83 1.42 12.58-0.48 18.45-3.95-4.22-2.15-13.11 0.48-18.45z"/>
<path id="path92" d="m870.35 922.82c2.13 15.65-3.75 34.05-17.2 43.37 11.32-11.63 15.22-27.78 17.2-43.37z"/>
<path id="path94" d="m795.76 944.96c8.31 2.6 19.66-1.83 26.51 3.98-8.15 4.96-20.75 4.14-26.51-3.98z"/>
<path id="path96" d="m397.86 970.82c2.79-8.74-8.72 2.87 0 0z"/>
<path id="path98" d="m308.77 979.73c8.67 1.93 17.77-0.06 26.34 2.23-5.57 7.48-21.33 5.6-26.34-2.23z"/>
<path id="path100" d="m853.01 1031c3.62 10.5-1.8 15.4 0 0z"/>
</g>
</svg>
