<?xml version="1.0" encoding="UTF-8" standalone="no"?>
<svg width="150px" height="150px"  id="svg2" xmlns:rdf="http://www.w3.org/1999/02/22-rdf-syntax-ns#" xmlns="http://www.w3.org/2000/svg" height="1261pt" width="1118pt" version="1.1" xmlns:cc="http://creativecommons.org/ns#" xmlns:dc="http://purl.org/dc/elements/1.1/" viewBox="0 0 1118 1261">
<g>
<path id="path4" d="m958.39 0h6.06c8.71 6.73 38.35 15.92 21.76 28.43 9.31-13.04-15.9-15.99-23.99-20.33-6.3 8.41-7.98 20.77-12.34 30.8 13.26-1.92 9.87-32.9 23.24-16.98-3.87-1.85-9.25-3.16-9.52 2.81-4.2 7.82 11.56-4.46 7.02 2.87-11.58 13.62-13.85 31.41-17.61 48.26 10.18-15.58 19.75-37.17 37.4-46.45 0.89 43.3-21.9 83.23-53.99 110.98-11.1 8-13.86 22.32-22.61 32.33-9.35-8.04-15.15 6.19-25.23 6.37 0.83 2.73 8.31 9.76 3.9 11.63-9.2-12.79-32.1-12.46-42.81-3.71 3.53 9.64 27.06-6.71 32.71 5.89 8.95 26.62 20.64 53.11 21.64 81.58-0.74 5.11-6.86 4.6-10.79 4.78 1.09-2.51 7.37-1.21 6.34-5.15-6.95-23.57-15.09-48.14-32.88-65.97-9.14 2.27-18.49 1.94-27.5-0.89-13.42 23.72-22.14 52.6-22.34 77.96 25.47 1.81 50.68-12.39 76.26-4.66 4.68 6.07 19.15-1.46 28.28 1.69 23.84 7.15 45.76 27.28 49.97 52.53 29.14-2.8 58.04-8.22 87.24-9.31 13.6 0.79 19.2 18.36 15.6 28.37-3.8-6.75-3.3-22.48-15.9-22.57-16.3 0.35-32.6 2.38-48.7 4.25 11.1 10.35 26.8 2.86 40.1 3.02 4.7-1.56 12.2-0.81 12.5 5.51 8.2 82.51 18.7 165.17 15.6 248.28-1.6 16.51-17.7 25.4-27.6 36.9-18.6 20.41-33 44.38-51.7 64.82 1.6 46.69 5.4 93.48 7.7 140.21 10.6 18.12 5.1 40.66 6.9 60.63-3.5-13.16-2.6-31.23-5.4-46.13-0.2 37.41 4.1 75.25 4.7 112.82 4.7 0.65 14.5-3.28 15.2 4.28-0.3 17.3 4.2 36.95 0.8 52.55 1.5-17-1.8-34-2.4-51.05 0.1-9.94-18.2 3.21-16-8.37-0.4-1.34 0.3-7.02-1.7-2.27-3.9 8.34-14.09 9.15-21.95 7.33 2.71-2.66 12.88-0.8 13.27-7.72-1.3-32.99-4.94-65.91-9.06-98.66 0.78-10.27-11.26-7.56-17.4-6.6-32.46 5.84-65.7 6.23-98.42 3.2 38.34-7.79 77.29-14.57 116.38-16.5 2.55-8.39-6.6-4.98-10.86-5.62-40.52 3.47-80.63 10.72-121.17 13.76-4.81 1.04-10.16 3.07-12.87 7.38 2.45 16.83 8.12 38.6-1.64 54.56-2.14 5.57 4.46 9 7.16 13.2 0.46-19.15 0.36-38.85 2.77-58.08 0.7-4.22 5.88-5.53 9.51-4.72 38.18 1.91 76.61 7.94 114.77 2.88 3.68 24.28 11.16 49.31 5.1 73.82-8.38-14.12-13.95-33.68-27.74-45.34-27.11 2.29-52.21-10.78-79.07-12.53-5.63 25.14-5.4 51.42-2 76.86 35.81-4.14 71.68-11.58 107.9-7.13 4.34 0.84 1.22-7.42 3.35-9.11 0.77 4 1.43 8.1 1.18 12.21-40.73 1.6-79.87 13.83-119.65 21.04-10.27 2.95-11.57-9.35-13.85-15.69-0.63 7.27-2.42 15.52-1.17 17.16 52.38-0.72 105.17-8.88 157.76-6.05 20 5.27 11.6 30.15 13.8 45.14 2.3 8.8-6.4 18.8-15.5 15 15.4 1.1 12.1-17.7 10.9-27.26-1.8-7.91 1.7-24.04-10.4-24.76-44.72 2.47-89.41 6.77-134.06 10.47 2.66 3.76 11.33 5.49 15.6 8.83 37.6-1.49 75.26-4.53 112.96-3.57 1.8 8.51-1.7 10.89-2.3 2.18-33.67 4.47-67.22 10.21-100.82 15.31-5.98 0.2 0.06 5.2 2.03 7.3 31.56-2.1 63.33-0.9 94.82-3 4.57-4.2 9.77-7.4 15.87-8.7 0.5-10.36 2.7-1.6 1 2.3-11.1-3.4-2.6 10-12.5 8.7-2.46 7.6 0.9 17.1 0.5 25.7-9.84 0.6-31.34-2.8-29.31 13.2 2.4 39.6 5.75 79.2 8.81 118.8-39.95 3-79.9 6.1-119.86 9-1.97-21.9-3.28-43.9-5.16-65.8-4.04 0.6-12.05 0.2-9.88 6.7 2.97 23.2 1.88 47.1 6.32 70.1 46.74-3.2 93.69-5.5 140.33-9.5-0.11-42.5-4.9-85-5.5-127.4 9.44-0.7 19.45 0.7 28.55-2.1 5.7-6.3-0.3-16.7 1.4-24.2-0.4 8.5 6.4 19.8-1 26.6-8 2.7-16.8 1.8-25.1 3.7 4.17 39.7 8.7 79.4 12.8 119.2 1.7 7.1-2.9 15.5-10.57 16.2-44.88 5.3-89.93 9.1-134.85 14.1-10.89 2.7-22.91-4.2-24.7-15.5-2.61-20.3-3.91-40.9-6.37-61.2-0.3-3.3-4.26-2.9-6.51-3.9-18.69-5.4-31.69-21.2-40.27-37.9-96.93 9.8-193.96 19.2-291.09 27-5.71 15.7-14.03 31.5-28.63 40.7-3.14 2.8-10.16 4.1-7.53 10.1 1.1 17.7 2.73 35.3 3.52 53 0.24 15.7-12.89 30.5-28.76 31.3-42.5 3.8-85.25 4.7-127.73 8.8h-18.71c-12.54-3.1-23.16-13.5-24.08-26.8-2.7-34.5-3.63-69.1-5.54-103.7-17.43 2.4-32.52-13.1-31.85-30.4-25.09-10.3-20.59-40.7-21.2-62.6 2.99-13.6 1.7-30.9 17.54-36.9-6.32-89.79-7.18-180.62-13.19-270.63-32.36-18.28-64.36-37.33-95.23-58.07-4.44-3.18-7.25-8.11-8.91-13.21-17.43-81.33-21.49-165.1-16.74-248 1.54-10.34 11.25-18.46 21.59-18.73 27.59 0.49 55.16-1.01 82.73 0.04 3.31-13.26-17.62-1.74-22.91-6.89 7.7-0.84 15.48-0.78 23.16-1.76 3.87-16.27 13.85-29.87 25.75-41.32-4.57-8.81-6.16-18.61-2.82-28.13-2.92 1.46-34.49 0.36-14.82 2.77-51.6 28.7-110.4 54.52-170.8 42.03-14.68-3.54-19.27-21.2-16.13-34.35 1.77-9.74-3.57-27.02 9.45-29.85 25.85 1.12 52.37 8.62 77.91 1.06 21.74-5.3 44.38-7.72 66.72-6.06-11.85 2.53-23.81 4.44-35.64 7.03 25.51 4.49 52.18-12.59 76.83-2.92 10.43 11.24-14.62 2.92-1.34 8.12 3.74-2.25 10.3 6.79 11.38 0.64 6.41-22.9 14.78-45.25 23.05-67.51 10.11-10.41 25.99-1.59 38.72-4.61 7.55 1.14 20.29-5.55 24.67 3.95 9.8 26.87 21.29 56.32 22.1 83.68 16.35 0.98-1.07-8.23-0.68-17.38 3.1-44.69-1.86-89.9-0.03-134.78 0.67-5.81 6.12-10.35 11.86-10.6 21.86-1.15 43.87-1.95 65.7-1.47 11.91 5.22 5.29 23.16 6.68 32.88 101.37-2.98 202.43-12.84 303.3-22.76 0.89-10.31-5.9-23.51 2.43-31.85 20.95-4.16 42.55-3.58 63.79-5.44 7.1-2.05 13.89 4.47 13.06 11.57 2.32 35.98 2.94 72.07 2.88 108.13 10.35 3.15-9.04 11.18-11.85 7.06 3.43-1.05 9.54 1.67 10-3.23-15.76 3.93-33.03 5.03-48.28 7.02 10.49 0.28 21.01-0.65 31.48 0.45-7.7 2.56-17.82 1.77-24.19 4.71 15.6-0.27 30.89-5.75 46.53-3.26 7.31-20.86 14.24-42.12 22.28-62.83 1.07-6.21 8.25-6.01 12.85-8.04-3.13-9.18-12.11-15.64-11.98-26.03-4.22-47.23-18.38-92.68-26.82-139.15-2.93-13.67 15.24-12.81 23.73-12 8.43-0.38 26.45-2.03 20.71 12.11-2.27-15.15-24.49-1.73-34.97-3.55 0.05 9.63 4.98 19.84 10.73 27.72 3.99 0.3 4.49-4.42 5.7-7.19-2.08 4.27 3.72 3.16 0 0 1.08-3.56-1.34-12.38 4.98-10.86 1.78 27.22 3.69 54.45 4.37 81.72-5.53-2.63-2.7-13.33-5.3-18.92 2.28 21.67 0.84 46.56 8.91 66.05 12.79-41.55-7.07-90.4 7.95-132.01 12.99 49.93 16.31 102.63 15.12 154.05 8.07-1.25 15.95-3.62 24.07-4.67-6.76-6.09-9.31-17.01-3.18-24.38-2.22-2.27-6.81-3.29-7.66-5.88 13.18-17.28 20.71-38.27 34.8-54.99 10.38-11.6 9.36-31.65 21.87-41.06-1.16 8.05-4.58 15.48-6.76 23.26 4.39-3.02 6.36-8.41 10.63-11.52-17.73 29.7-36.1 59.06-52.67 89.47 31.48-34.26 50-77.48 66.83-120.28 5.17-10.02 7.1-22.83 16.42-29.95m-0.8 47.61c-16.33 21.05-20.94 47.1-32.44 70.57 19.26-18.99 23.62-47.04 33.71-71.37-0.32 0.2-0.95 0.6-1.27 0.8m-138.61 0.52c0.1 9.6 0.7 21.53 2.04 29.74-0.12-9.6-0.7-21.53-2.04-29.74m2.02 32.87c-1.73 14.27 3.46 8.93 0 0m-101.9 60.22c0.51 11.15 3.22 22.14 2.81 33.36-17.04 3.85-35.84 4.27-52.04 8.45 7.05-0.34 16.47-2.61 22.03-0.14-55.37 2.57-111.98 12.45-165.76 18.19 67.72-4.52 135.62-14.24 203.2-16.65 8.94-8.2 2.5-21.15 2.79-31.41 6.57-1.57 10.05-0.62 1.82 1.23 0.62 10.67 4.76 22.08-1.78 31.72 17.65 8.75 9.88 32.32 13.84 46.86 10.56 0.67 30.68 11.75 29.14-5.81 1.57 3.39 2.24 9.43 1.24 13.59-13.65 0.87-27.24 3.36-40.93 3.31-3.49-13.8-1.78-28.49-4.71-42.41-4.04-7.45-13.85-3.47-20.55-3.4-100.41 8.52-200.93 17.29-301.05 27.92-19.59 7.27-4.01 32.57-8.84 46.98-15.5 2.91-32.14-0.09-48 0.91-1.44 2.2 10.64 3.27 4.67 4.24-3.21 1.66-13.62-4.54-11.88 1.8 17.36 4.63 33.99-6.55 49.87-4.17-6.23 4.72 1.76 3.53 7.84 3.15 2.37-15.06-4.35-33.92 4.43-46.86 104.79-2.21 208.91-17.58 313.44-24.18 2.74 15.56 1.04 31.57 3.03 47.24 0.76 3.94 6.26 2.85 9.25 1.88 17.99-7.34 37.84-8.62 56.93-11.26-2.48-36.88-5.68-73.82-9.06-110.67-20.61 1.32-41.24 3.48-61.73 6.13m-375.03 33.82c0.2 32.93-1.05 65.92 1.16 98.8 11.51-2.41-1.6-28.02 4.64-36.8 1.31 10.95 2.79 21.89 4.12 32.84 12.24-2.42 24.91-3.38 37-5.85-1.96-13.48-4.23-27.22-3.14-40.84-1.65-1.54-3.8-2.37-5.91-3.05-3.11 12.68 2.37 26.02 1.42 38.5-7.44 1.35-14.97 2.19-22.46 3.22-2.41-25.52-4.24-51.13-4.84-76.73 7.58-0.48 15.21-0.2 22.81 0.11 0.45 6.98-0.65 14.62 3.05 20.93 14.2-4.1 1.47-20.89 5-31.03-14.27-0.42-28.58-0.08-42.85-0.1m22.83 20.04c-0.05 18.95 0.28 37.99 2.29 56.83 2.02 0.38 4.06-0.13 5.83-1.14-1.08-12.22-3.7-24.77 0.67-36.53-5.7-4.81-3.91-16.2-8.79-19.16m147.1 5.92c8.92 3.47 14.27-1.72 0 0m-12.01 0.99c9.01 3.92 16.53-2.25 0 0m-12.37 1.57c-32.43 2.75-65.2 3.64-97.51 5.34-8.4 2.26-0.14 8.72 4.66 4.93 34.36-5.05 69.34-7.51 104.07-9.92-1-2.98-8.46 0.3-11.22-0.35m213.77 20.79c-11.26 2.54-23.94 3.57-34.34 6.74 11 0.17 25.71-4.38 35.04-2 0.78 14.35-1.67 12.92-2.09 1.09-32.03 5.03-66.01 4.82-96.96 11.91 30.4-4.32 61.3-5.57 91.64-0.22 3.99-7.67 6 5.15-0.15 4.79-53.19 4.51-106.25 10.55-159.29 16.5 9.17 2.17 24.01-2.24 35.15-0.92 8.6 3.6-11.79 3.49-13.31 5.79 47.88 2.43 95.12-13.46 143.08-5.21 3.86 3.67 13.51-5.63 2.81-2.84-15.38-2.31 17.47 2.1 7.7-8.61-4.55-7.16 0.31-26.34-9.28-27.02m-303 1.98c-5.96 7.2 7.07-1.22 0 0m263.14 4.9c2.04 3.62 4.46-2.51 0 0m-6 1c2.04 3.62 4.46-2.51 0 0m-59.04 10.06c3.43 3.38 5.5-2.55 0 0m-340.96 6.91c-12.27 22.55-19.87 47.43-24.4 72.63 0.24 2.37 2.31 5.5 5.02 5.23 23.94-1.24 47.32-11.49 71.43-5.79 8.25-1.84 2.88 1.72 2.51 4.06 11.21-2.59 26.41-0.08 34.83-4.26-11.97-6.06-28.08 0.14-41.67-0.98 1.84-3.66 16.66 2.22 12.48-7.48-7.45-22.52-15.09-47.22-32.78-63.53-8.87 3.84-18.27 0.53-27.42 0.12m243.98 4.35c-22.84 1.24-45.72 2.11-68.59 1.88-5.72 12.95 16.74 10.09 3.66 3.7 24.62 4.11 48.76-3.41 73.14-5.3 0.22-2.76-7.39 1.17-8.21-0.28m231.45 3.47c6.38 3.41 8.25-1.86 0 0m-19.66 2.27c-5.77 2.81 2.23 6.89 5.12 6.07 4.03-2.4-3.33-5.93-5.12-6.07m-184.7 5.26c-31.73 4.09-63.93 6.86-95.34 3.39-0.17 5.91 12.34 0.62 14.75 3.95-2.72-0.6-21.13 1.75-7.94 2.18 31.06 4.54 60.68-4.61 91.1-8.89 11.02-0.36-0.09-2.32-2.57-0.63m259.62-0.13c-17.25 2.79-34.64 5.94-51.11 11.92 13.32 7.37-9.52-4.35-5.89 7.24 17.94-3.05 39.89 1.14 53.33-14.15 3.9-0.14 11.59-4.8 3.67-5.01m-79.09 4.78c-0.19 5.07-1.37 10.2-0.85 15.27 9 3.29 10.99-19.31 0.85-15.27m-13.56 1.38c-2.93 1.01-7.6-1.1-9.58 1.27 6.25 0.98 12.36 1.94 17.29 6.2 5.76-2.86-0.76-12.47-7.71-7.47m-193.08 2.71c3.43 3.38 5.5-2.55 0 0m-13.5 0.7c9.01 3.92 16.53-2.25 0 0m207.59 5.56c-34.4 5.02-70.39 4.31-103.57 13.53 37.26-3.3 74.6-5.84 111.93-8.28 3.35-7.82-4.25-5.81-8.36-5.25m12.79 9.6c-3.55 5.41 10.79-1.85 0 0m-10.77 1.39c-7.94 1.52-17.7 0.48-24.58 2.38 8.62 2.46 21.96-1.66 28.18 2.89-14.15 2.02 10.75 5.58 4.74-2.85-7.23-1.6 3.77-4.43-8.34-2.42m-373.62 0.47c-5.27 12.03 8.28 32.38 20.95 22.99-12.09-0.97-15.44-14.49-20.95-22.99m383.99 1.27c0.47 12.46 11.44-1.57 0 0m202.41 4.16c-20.48 2.29-41.05 3.79-61.48 6.4-15.32 3.46-31.73 11.28-47.24 4.29-68.27 6.36-136.61 12.68-204.94 18.53-30.5 5.73-61.58 7.55-92.57 7.31-85.74 6.27-171.58 11.61-257.44 16.62-16.06 0.27-28.11 14.01-34.63 27.24 14.42 1.43 18.1-17.91 31.81-18.99 220.06-14.31 439.86-32.44 659.56-51.5 23.06-4.23 37.53 19.84 53.58 30.3-4.64-20.86-25.02-39.7-46.65-40.2m-297.89 0.91c5.92 3.14 7.49-2.58 0 0m-9 1.03c-18.02 3.92 21.9-1.71 0 0m-161.29-0.13c8.23 15.53 34.07 0.39 49.71 3.71-14.55-2.75-33.71-0.56-49.71-3.71m-48.49 4.14c-3.09 0.95-5.96 2.45-8.88 3.79 6.82 6.3 23.35-1.34 8.88-3.79m6.55-0.41c-3.02 17.27 15.75-0.4 0 0m26.27 0.25c2.63 4.7 6.1-1.37 0 0m109.06 1.33c-11.8 1.62-26.19 0.72-36.47 3.47 14.9-0.37 29.73-2.12 44.6-3.19 0.19-2.77-7.28 1.09-8.13-0.28m-345.95 2.03c-38.46-0.84-74.93 13.82-112.52 19.58 28.05 1.67 58.87-3.49 87.66-8.3-3.55-3.22-14.72 1.51-18.87-1.75 15.84-2.73 31.97-2.71 47.96-1.48 5.04-1.8 14.65 0.41 10.99-8.46-5.09-0.46-10.16-0.33-15.22 0.41m16.36-0.33c-2.65 10.77 8.17 1 0 0m697.67 6.28c-220.25 19.93-440.71 37.93-661.12 55.66-3.01 2.39-6.09 5.08-7.86 8.53 103.89-6.18 207.3-19.84 311.31-24.82 9.4-0.85 19.29 2.34 25.15 10.02 6.19-5.74 13.36-11.44 22.27-11.58 113.39-3.84 225.9-21.52 339.29-25.27-3.66-9.22-18.6-15.82-29.04-12.54m-872.24 2.47c-2.8 5.52-3.28 11.87-4.47 17.85 9.17 2.84 19.28 0.64 28.73 2.4-2.1-8.25-15.43-7.8-22.72-7.72 8.2-4.47 17.86-4.7 26.15-8.52-9.07-2.1-18.39-3.44-27.69-4.01m309.84 2.98c2.11 4.77 8.12-1.18 0 0m583.38 13.57c-111.11 8.05-221.72 21.89-332.89 29.08-8.46 1.23-16.51 9.83-13.18 18.7 3.08 82.1 6.06 164.31 14.94 246.07 1.32 9 10.3 15.96 19.41 14.71 63.86-5.85 129.16-14.97 192.07-18.29-62.68 8.83-125.48 16.86-188.39 23.93-25.99 4.55-34.13-25.63-31.61-45.48-4.99 8.56 3.53 34.09-14.16 35.81-22.85-1.85 6.52 2.38 5.88-9.5-6.52-81.98-13.25-163.99-21.16-245.85-1.66-8.51-13.43-3.21-19.43-3.68-92.5 10.21-187.41 17.96-279.06 16.09 97.75-11.66 195.67-22.25 293.81-29.89 6.34 0.61 12.5 3.62 15.37 9.62 7.42-8.24-7.37-14.37-13.62-14.84-108.47 7.59-217.92 20.44-325.52 28.85-1.62 3.76-1.76 8.35 0.11 12.05 105.98-0.85 212.15-1.13 317.75-11.86 6.82 71.01 18.19 143.34 13.24 214.07-11.31-62.54-25.92-124.62-37.08-187.08-96.75 15.04-194.7 2.67-292.05 5.04 2 70.02 10.91 139.47 19.95 208.85 12.98-1.68 28.38-3.08 39.79-1.25-13.96 4.93-30.64 5.01-45.75 7.56-0.02 1.65-0.05 4.93-0.07 6.58 106.18-8.44 212.16-23.12 318.93-19.96-0.85-16.04 2.07-9.42 1.98 1.07-106.83 7.39-213.04 21.42-318.86 37.34-0.02 1.63-0.08 4.87-0.1 6.49 56.8-5.14 115.41-13.7 170.95-15.97-56.67 7.9-113.39 15.5-170.29 21.61 3.26 69.08 8.4 139.02 12.56 208.41 32.78-1.11 65.25-7.49 98.02-9.66 10.01-1.76 20.59-1.4 29.84 2.8 15.93-5.81 33.22-3.11 49.77-5.18 108.84-8.99 220.45-23.44 328.11-20.9-123.08 8.43-245.77 22.73-368.56 33.35-3 2.32 3.49 7.51 3.66 11.45 65.26-2.38 130.89 1.52 196.13-2.66 77.2-1.96 153.35-19.79 230.76-17.02 0 7.74-0.52 14.38-4.21 4.97-28.69 5.72-57.14 12.82-85.89 18.29 28.02 0.26 57.46-0.76 86.04-0.24 7.59 4.57 3.94-6.72 7.17-6.78-0.31 3.69 2.53 11.3-4.8 8.86-47.88 3.47-95.56 9.08-143.19 14.96 44.92 2.85 94.91-5.94 140.04-5.23-89.72 10.02-180.1 12.54-269.47 25.74-49.83 5.15-99.91 7.7-149.8 12.02-2.58 0.17-9.01 3.26-3.24 3.94 26.89 1.04 53.88-1.79 80.76-3.22 84.8-11.49 170.15-17.99 255.24-26.78 30.14-3.09 60.33-6.39 90.64-6.95 2.71-2.55 9.29 0.19 8.85-4.7-0.96-16.37-4.54-32.75-2.31-49.17-132.22 8.45-264.96 32.36-396.74 28.52 80.25-12.34 161.18-19.74 242-27.24 50.57-4.65 101.02-11.62 151.85-12.51 9.83 4.99 15.13-7.76 24.67-8.11 45.25-2.36 89.98-11.46 135.32-12.33-3.46-42.27-6.22-84.65-9.91-126.87-22.06-10.81-17.47-40.6-16.81-61.03-2.11-8.36 5.54-11.08 11.69-13.28-3.4-30.66-4.39-63.48-7.78-92.85-1.95 19.95 3.28 47.53-1.28 61.76 2.49 11.43-11.3 19.01-20.46 14.42 6.44 0.73 15.52-2.45 14.83-10.24-6.68-81.24-13.23-162.53-21.01-243.67 0.26-8.52-10.66-4.37-15.45-4.73-93.73 10.1-189.58 18.41-282.63 16.56 96.81-11.92 193.86-21.89 291.06-29.93 3.75-0.3 7.23 1.24 10.85 1.87-0.08-9.11-11.21-7.8-17.28-6.51m21.24 3.71c0.54 7.35 5.03 13.5 6.25 20.68 6.89 89.33 17.25 178.49 23.68 267.92 1.59-0.83 4.79-2.49 6.39-3.32-5.32-71.5-12.41-142.89-18.36-214.35-2.26 12.45 2.53 31.69 0.35 44.73-2.98-32.64-5.14-65.38-8.05-98.02-0.54-6.95-3.91-14.25-10.26-17.64m32.71 3.25c-4.13 0.61-10.64-0.85-7.73 6.38 9.35-1.31 18.88-0.4 28.23-2.03-1.69-3.29-17.73 2.21-11.23-3.16 4.42-4.03-7.71-0.79-9.27-1.19m60 21.04c-4.8 0.52-9.4 1.23-14.1 1.98-4.1 10.37 7.8 4.81 12.3 4.63 5.3 38 12.2 77.33 13.4 114.91-5.8-34.86-13.3-69.46-17.7-104.54 3.1-8.3-5.3-2.38-7.6-3.12-0.4 62.74 7.3 125.03 13.4 187.37 8.7-0.35 17.2 0.4 25.1 3.97-2.7-34.29-8.3-70.66-8.6-103.64 5.2 34.49 8.7 69.26 9.4 104.14 3.2 3.64 6.2 7.61 9.9 10.76-5.7-72.86-16.2-145.23-30.3-216.93-1.3 0.12-3.9 0.35-5.2 0.47m-33.5 3.52c-6.13 9.82 14.2 9.95 8.8-0.03-2.9-0.24-6-0.11-8.8 0.03m-30.42 9.06c-2.89 7.1 1.62 21.88 1.43 31.04 3.81-3.05-1.9-13.43 1.78-16.12 3.1 38.31 0.92 79.19 6.1 115.86 1.02-43.16 2.27-86.34 1.91-129.55-2.19-3.56-7.98-0.51-11.22-1.23m34.92 4.34c-1.6 0.12-3.1 0.36-4.6 0.73 0.1 72.28-2.6 144.64 0.8 216.83 2.9 10.9 17.8 1.28 25.2 4.48-12.7 13.5-25.2 27.13-37.76 40.81 0.43 5.14 0.09 21.19 5.01 10.75 5.55-28.14 29.65-46.82 51.85-62.08-11.8-2.68-24.5 3.11-36.7 1.85-4.2-45.01-5.3-91.92-3.5-135.91 5.8 40.63 11.3 81.39 16.2 122.08 10.7-0.35 22.6-4.83 32.1 2.05 3.7-14.77-19-7.85-27.1-8.19-6.7-64.44-15.9-128.79-16-193.71-1.4 0.08-4.2 0.23-5.5 0.31m-799.05 10.97c-5.02 0.24 3.67 10.15 6.41 11.37-2.24-4.68 3.8-15.85-6.41-11.37m-2.54 6.92c-1.93 13.56 7.05 1.49 0 0m-100.92 19.67c-2.04 81.5 2.78 163.54 14.61 244.02 29.35 20.6 55.59 45.57 82.52 68.76-2.61-7.46 2.85-21.59-7.39-23.42-1.43 12.11 0.99-1.66-3.65-3.68-20.32-15.27-40.41-30.85-60.77-46.06-2.86-2.13-1.86-6.61-2.6-9.51-5.57-75.04-20.06-149.57-16.76-225.1 7.52-3 26.46 5.97 25.94-5.01-10.63-0.19-21.27-0.1-31.9 0m42.44-0.06c-3.92 6.3-3.08 18.33 7.21 13.86 0.73-8.7 5.39-17.01-7.21-13.86m-14.14 6.36c-5.7 1.27-11.5 2.02-17.28 2.79 10.77 71.93 16.49 144.52 24.89 216.75 1.49 0.22 2.84-0.43 4.05-1.21-5.92-68.09-12.57-136.14-20.64-204.02-3.47-8.44 8.5-3.72 12.47-5.91 0.03-3.47 2.15-10.58-3.49-8.4m43.64 9.66c-0.73 41.27 1.68 85.25 5.98 124.88-1.86-41.38-3.67-85.01-5.98-124.88m2.02 0.08c5.05 81.38 11.2 162.76 14.32 244.27-0.89 4.77 3.25 6.89 6.08 9.57 1.2-69.17-14.26-139.54-16.54-209.64 3.85 5.19 1.6 16.46 5.08 23.07-2.34-20.76-3.21-41.64-4.93-62.44 3.18-6-1.43-4.76-4.01-4.83m-32.26 7.06c2.63 67.71 14.05 134.63 21.02 201.95-6.86 0.82-13.8 0.9-20.63 1.98-1.26 5.38 7.64 3.31 9.83 4.83-2.39 2.65-11.81-2.03-11.82 2.7 9.16 10.23 23.21 0.66 34.74 1.25-10.65-70.13-25.9-140.2-24.82-211.54-2.76-0.6-5.51-1.06-8.32-1.17m-13.74 0.82c7.28 66.69 15.76 133.57 13.54 200.77 5.61-1.48 12.31-0.77 17.27-2.99-9.54-65.51-18.99-131.25-25.36-197.24-1.36-0.13-4.09-0.41-5.45-0.54m830.18 84.57c-2.51 4.46 3.62 2.04 0 0m-780.23 34.47c-1.72 14.27 3.47 8.92 0 0m875.8 16.43c-0.9 8.74 7.7 16.79 2.2 25.48-10.1 14.23-23.8 25.69-34.9 39.17 12.4-9.42 22.9-21.91 35.6-31.36 2.3-1.18 8.5-9.6 2.4-6.49 7.7-7.4 3.4-22.42-5.3-26.8m-914.72 67.86c-9.71 4.29 8.98 6.04 0 0m838.14 8.69c-3.11 7.97 2.71 19.16 1.87 28.15 1.83-7.88-0.77-20.28-1.87-28.15m25.28 4.39c-11.43-1.9-19.7 6.48-13.73 17.34 2.72-3.22 19.33-16.75 13.73-17.34m-787.68 4.02c-3.46 8.73 8.35 11.44 12.79 7.82 1.78-8.61-7.79-5.54-12.79-7.82m-29.67 1.09c-4.81 2.04-9.88 2.93-15.03 3.44 3.92 5.85 11.5 9.53 17.21 13.82-2.31-5.21 0.06-14.07-2.18-17.26m30.79 12.7c2.36 69 7.43 137.87 10.02 206.84-4.47 8.34 9.49 4.67 5.34-0.41-0.14-17.65-3.75-37.22-1.4-53.55 1.3 18.98 2.82 38.08 4.93 56.9 2.23-1.73 9.16 1.53 7.7-2.58-5.82-68.6-9.42-137.37-14.84-205.99-3.92-0.49-7.82-1.08-11.75-1.21m-39.09 7.97c2.36 5.12 7.63 8.24 10.75 12.89 2.16-7.17-6.5-9.62-10.75-12.89m11.93 9.37c0.07 5.02 3.08 10.98 7.47 13.25 0.24-5.21-1.65-12.57-7.47-13.25m792.56 8.92c-1.58 0.18-4.74 0.53-6.32 0.71 3.64 42.63 6.41 85.35 9.42 128.03 2.43 1.24 4.99 2.33 7.76 2.68-4.09-43.45-6.58-89.53-10.86-131.42m3.8 136.89c-1.84 5.55 4.89 7.55 7.26 11.62 3.3-4.54-1.64-12.99-7.26-11.62m-622.74 41.1c-36.85 3.14-73.32 9.83-110.17 12.75 0.72 4.76-2.17 14.7 5.11 14.64 33.83 1.87 67.86 6.59 101.6 1.34 3.98 24.31 11.05 49.32 5 73.9-8.32-15.33-14.61-33.81-28.39-45.94-26.4 5.38-51.5-11.75-78.11-11.2-5.21 24.68 3.36 50.48 2.26 75.68 33.24-4.31 66.6-10.67 100.24-6.54 8.23 3.94 3.93-7.66 7.09-9.02 0.53 3.84 0.9 7.76 0.84 11.67-28.47 4.3-59.43 6.21-85.76 15.29 30.24-3.1 60.7-4.7 90.91-7.7-1.61-17.46-6.03-36.38 0.67-53.16-10.93-15.43-6.34-36.22-7.49-53.9-36.62 5.96-75.3 8.75-111.11 3.97 38.2-7.66 77.1-13.9 115.75-16.96 6.46-4.88-5.46-5.47-8.44-4.82m18.85 7.77c-5.72 4.76 4.55 10.18 2.57 16.08 2.91 11.34 0.61 26.83 6.11 35.91-6.52-16.2 6.03-41.01-8.68-51.99m-142.74 6.25c-6.65-0.84-1.58 11.3-1.73 13.23 9.76 3.95 10.31-16.22 1.73-13.23m-6.98 2.8c-1.98 0.32-3.54 1.79-4.59 3.42 2.74 37.99 3.71 76.09 6.33 114.13 1.51 0 4.64 1.2 3.49-1.5-9.44-37.83-0.18-79.55-5.23-116.05m177.88 17.75c-5.87 14.02 18.58-0.9 23.95 6.49 27.54-0.92 59.15-0.11 85.56-3.45-36.52-0.9-72.97-3.47-109.51-3.04m408.17 12.48c-77.89 7-155.81 13.73-233.51 22.59-45.36 5.42-93.19 2.69-137.02 9.93 64.29 0.01 128.69 0.99 192.78-5.19 60.98-4.38 121.65-17.08 182.99-13.56 1.63 8.43-0.26 14.13-3.22 4.75-29 5.27-57.63 12.88-86.65 18.2 27.58 0.35 58.21-1.53 86.98-0.17 9.58 4.39 1.97-7.86 5.95-8.97 0.27 3.44 1.72 7.24 0.59 10.59-49.65 4.09-101.23 8.19-149.36 16.42 52.86-3.64 105.9-5.11 158.8-7.92-4.26-15.33-4.43-31.45-7.17-47.07-3.74-0.21-7.46-0.08-11.16 0.4m-427.56 35.56c1.45 13.7 0.93 27.43-0.74 41.1l4.58 0.04c-3.69-12.94 3.74-33.38-3.84-41.14m444.45 12.35c-79.19 6.91-158.52 12.28-237.67 19.41-68.47 12.6-138.2 11.3-207.26 17.3 0.11 3.5 7.28 6.2 11.34 5.8 140.5-14.47 281.46-24.63 422-37.88 3.29-1.77 16.45-2.52 11.59-4.63m-420.05 4.51c-1.3 1.76-1.81 3.95-1.29 6.11 36.61-0.89 75.68 0.83 110.79-2.93-36.5-1.61-72.95-3.35-109.5-3.18m423.18 13.52c-10.23 1.53-20.29 4.98-28.82 10.91 15.31 1.97 30.03-9.18 45.86-6.28 6.71-0.56 16.06 4.86 21.35 0.18-11.83-5.98-25.46-6.29-38.39-4.81m-36.95 2.11c-122.96 9.31-245.75 22.97-368.68 30.87 8.17 8.4 21.1 3.8 31.39 4 110.91-3.9 221.68-13.3 332.08-24.6 4.13-4.39 20.2-13.51 5.21-10.27m196.85 17.47c-7.71 4.2 2.8 5.8 0 0m-630.92 1.5c-35.27 2-70.1 7.2-104.33 15.7-1.05 2.2-1.64 4.6-2.01 7 28.51-0.8 56.97-2.2 85.51-2.3 5.24-0.3 11.53-0.4 14.68-5.4-28.33-0.7-59.25 3.1-86.35 1.7 35.26-3.6 70.46-7.7 105.73-11.1-0.81-6.3-8.09-7.4-13.23-5.6m501.83 1.8c-4.67 2.5 8.21 8.5 8.63 3.1-2.33-2.1-5.28-4.1-8.63-3.1m-19.9 3.2c-17.32 4.1-42.27-0.5-48.22 21.7 5.24 4.3 8.62-6.2 11.95-9 12.64-10.5 29.89-10.6 45.44-10.2 0.91-2.9-7.09-3.9-9.17-2.5m137.07 0.1c-29.16 1.8-58.2 5.2-87.39 6.4 0.11 2.7 0.2 5.9 2.01 8 25.91-2.5 54.09-5.1 78.72-4.1-26.25 2-52.57 3.7-78.75 6.5 0.09 8.9-1.7 19.8-7.13 26.6-2.66-8-0.76-17.6-4.58-25.6-7.84-2.1-15.79 1.1-13.09 10.7-6.21-5.9-17.53-12.6-24.22-3.9-5.92 7.8-14.84 2.6-21.69 1.2-13.9 8.7-14.82 33.2 0.36 41.6 3.04 1.3-4.61 1.4-0.11 2.3 26.32 8.6 47.62-15.6 48.41-40.6 6.01 19.3-0.5 43.8-19.92 53.3 2.15 18.6 20.47-1.7 26.9-7.9-3.94 10.1-13.79 16.6-23.02 21.5 1.16 18.8 2.68 37.6 4.12 56.3 31.73-1.4 63.48-4.6 95.22-5.3-0.85-37.8-4.77-76.7-2.89-114.8 3.63-14 20.44-11.8 31.25-11.9-3.17-5.7 5.02-21.5-4.2-20.3m-716.01 2.9c-25.18 5.5 30.93-2.5 0 0m-22.37 1.6c-0.63 9.3 15.15-4.1 0 0m-24.58 2.3c-7.98-1.9-6.26 17.2 1.17 11.2-2.17-9.5 9.28-3.8 13.33-7.4-4.31-2.9-9.13-5.7-14.5-3.8m194.95 1.2c-16.06 3.7-34.85-5-48.91 6 20.39-0.3 40.75-8.1 61.35-1.5 13.33 0.5-9.4-8.3-12.44-4.5m455.96 0.4c-1.98 7.7 8.17 9 13.8 6.7-1.24-7.4-7.3-8.5-13.8-6.7m-627.6 4.2c-1.1 1.5-6.02 6.5-1.9 6 7.78 3 12.85-10.9 1.9-6m544.47 4c-5.49 4.5 2 8.2 6.8 6.6 0.6-5-0.32-9.3-6.8-6.6m-17.82 2.4c-22.91 2.7-47.77 4.7-69.5 8.5 25.45-1.5 50.93-2.9 76.37-4.5 2.95-5.1-3.02-5.8-6.87-4m15.8 6.4c-1.24 6.3 10.35 2.2 13.7 6 1.77-8.5-7.28-4.3-13.7-6m-32.3 0.9c5.85 2.7 7.65 2.1-1.52 1.5-81.5 3.6-164.68 12.8-244.46 22.7 89.46-7.1 179.01-13.8 268.42-21.5-1.16-4.8-15.57-0.6-22.44-2.7m-427.45 10.7c-22.45 1-44.97 0.2-67.45 0.3-1.25 2.4 0.79 4.9 3.18 5.2 25.01-1.5 50.13-1.5 75.12-2.5 3.28-6.6-7.64-2.8-10.85-3m20.83-0.8c-5.17 9.1 16.75-2.2 0 0m-112.77 2.2c-6.26 8.2 13.15 3.1 16.62 3.5-4.31-4.6-10.9-4-16.62-3.5m551.59 3.2c-2.51 29.6 26.88 64.3 59.6 53.5 0.8-3.3-1.46-8.3-5.5-6.3-22.99 7.3-47.16-14.5-44.4-38 1.95-5.8-4.45-10.7-9.7-9.2m-335.01 26.9c-7.69 11.5-3.78 28-14.44 38.4 1.29 11.4-19.59 14.8-19.92 23.6 24.73-4.2 40.67-27.8 41.14-52 105.54-8.3 211.23-17.1 316.84-25.3 0.08-2.7 0.24-8 0.33-10.7-107.91 9.3-216.17 16.1-323.95 26m45.75-18.1c6.31 3.4 10.6-1.6 0 0m-82.17 1.1c2.25 3.5 9.01 10.9 12.05 6.1-3.09-3.4-7.87-4.5-12.05-6.1m71.62 0.2c4.74 3.3 6.52-2.5 0 0m-48.66 4c-2.82 0.4-5.35 3.8-4.55 6.6 5.88 1.6 18.47-10.5 4.55-6.6m-53.37 1c-3.44 1.2-6.15 4.4-7.31 7.8 3-0.7 10.33-8 7.31-7.8m21.03-0.1c-4.82 4.9-13.14 2.2-16.36 8.9-6.47 3.6-9.13 25.7-9.34 7.6-16.68 4-3.54 33.4 11.28 28.5 7.24-7.3 18.65-5.1 26.84-10.3 8.36-13.5 5.79-33-12.42-34.7m411.33 1.1c0.9 4.4 3.75 9.3 8.31 10.6-2.72-3.5-4.81-7.9-8.31-10.6m-474.59 2.8c-5.88 10.3 13.52 12.2 13.74 2.8 3.59-7.5-10.28-1.1-13.74-2.8m-34.69 1.5c-7.04 1.1-15.18-0.8-21.57 0.9 9.94 15.6 30.46 5 45.76 6.4 6.98-15.7-16.73-5.3-24.19-7.3m-56.39 1.6c-0.04 3.5-2.07 11.4 3.56 9.4 9.68-2.9 20.01 0.5 29.39-1.2-8.94-10-23.58-3.9-32.95-8.2m-16.93 0.8c0.79 4.4-1.58 14.2 6.33 10.6 0.02-4 1.71-14.4-6.33-10.6m109.28 13.2c-4.51 20.6 13.52 48 36.38 49.6 0.06-2.8 1.19-6.9-2.57-7-18.12-4.8-27.77-25.4-24.54-42.9-2.32 0.1-6.95 0.2-9.27 0.3m-23.86 2.3c-7.15 0.8-14.32 1.2-21.48 1.7 1.86 34.3 5.26 68.6 7.75 102.8 25.49-3.1 51.25-4.7 76.92-6.2-0.41-14.7-0.8-30-3.18-44.5-26.08-2.5-46.08-26.1-48.39-51.5 0.12-5.8-8.31-1.6-11.62-2.3m-36.46 2.4c4 38.6 6.33 77.5 10.02 116.2 34.87-2.2 69.66-6.3 104.56-7.9-2.06-19-3.16-38-4.59-57-1.72 0.2-3.43 0.6-5.07 1.2 0.1 16.8 3.38 33.5 2.82 50.4-30.91 2.1-61.77 5.3-92.68 7.1-2.67-36.6-5.98-73.2-8.45-109.8-1.65-0.1-4.96-0.2-6.61-0.2m-48.26 3.9c4.06 11.4 23.72-0.6 31.16 4.3 2.54 41.4 4.58 82.8 7.37 124.1 0 2.8 1.66 6.4 4.88 5.9 45.98-2.2 91.9-5.8 137.85-8.6 4.4-0.2 6.84-5.4 5.41-9.3-1.48-14.8-1.85-29.7-3.34-44.4 0.16-3-2.88-1-4.55-1 8.17-6.9 0.96-17.7 3.23-26.7-3.55-0.5-8.12-1.8-10.88 1.3 2.34 23.4 3.73 47 5.92 70.6-40.28 4-80.73 6.6-121.09 9.9-3.17-1-9.9 2.9-10.62-2.3-3.51-42.1-4.42-84.6-9.42-126.5-11.94 1.2-24.08 1.1-35.92 2.7m199.67 23.7c-6.45 10.1-22.94 6.7-28.53 14.6 8.44 0.5 25.25-7.7 28.53-14.6m-47.54 11.5c-3.88 17.5 16.63-2.1 0 0z"/>
<path id="path6" d="m809.26 25.08c2.64-0.71 18.44-0.47 9.09 1.33-8.64-1.84-5.93 5.21-4.34 9.51-2.57-1.77-5.7-6.92-4.75-10.84z"/>
<path id="path8" d="m129.75 46.41c6.63-1.79 15.06 0.25 18.26 6.78-18.34-12.52-35.31 9.38-50.9 16.91 8.82-10.01 20.84-17.64 32.64-23.69z"/>
<path id="path10" d="m263.63 49.27c11.99 1.07 45.22-8.42 37.16 14.67 2.37-18.44-23.34-6.26-34.58-6.69 1.13 9.65 4.21 20.26 11 27.66 8.69-0.77 1.99-17.3 9.61-17.79 2.85 27.13 4.59 54.59 4.28 81.84-4.98-6.23-1.76-19.53-5.21-25.75 1.72 23.08 2.4 46.54 7.67 69.16 0.41 1.15 1.24 5.28 2.78 3.05 10.07-43.14-6.92-89.76 7.65-131.78 7.54 29.43 10.22 59.79 13.08 89.94 13.22-13.97 38.29-7.28 56.44-10.05 12.94-0.14 33.21-5.44 39.59 10.34-11.41-15.94-33.08-5.52-49.11-6.88-14.98 2.74-35.19-3.63-45.37 11-3.3 23.86 8.92 52.95-7.55 73.43-9.33 3.7-13.31-5.17-19.8-8.71 3.1 4.25-0.85 4.16-2.75 0.66-8.13-1.2-18.57 3.5-25.41 0.92 8.99-2.83 18.22-5.31 27.65-6.11-8.87-11.84-7.04-27.18-9.92-41.04-5.47-39.4-17.44-77.5-24.11-116.67-1.11-4.75 2.18-10.04 6.9-11.2m19.35 29.82c0.54 13.78 1.28 29.51 3.01 41.82-0.4-13.78-1.05-29.51-3.01-41.82z"/>
<path id="path12" d="m132.6 56.39c8.79-2.8 13.55 7.23 16.41 13.62 15.24 39.01 58.25 56.29 75.81 94.17-12.89-12.12-25.13-25.78-38.96-37.04 14.89 26.17 45.6 40.11 55.99 68.98-0.39 6.8-7.71 2.38-9.94-1.08 1.48 2.92 2.03 10.22 6.3 6.14-3.56 3.23 0.95 9.08-4.2 11.17-6.56 3.85-9.15-4.27-11.89-8.6 3.61 3.49 8.48 2.96 8.12 7.07 6.42-1.65 1.79-4.18 1.46-5.97-22.92-43.3-72.38-68.74-97.41-108.29 12.77 32.02 39.69 58.13 65.57 80.59-1.91-4.2-6.29-6.72-7.95-11.03 11.82 9.62 23.34 25.53 29.28 37.53-51.47-20.3-104.57-54.65-125.28-108.73-4.51-22.74 21.26-29.89 36.69-38.53m0.33 23.77c-19.55-0.59-7.07 14.29-1.7 23.04 4.46-4.25 0.83-11.44-1.39-16.22 3.9 2.4 6.72 6.33 10.96 8.18-2.01-5.25-3.74-11.01-7.87-15z"/>
<path id="path14" d="m273.19 62.8c3-0.33 21.96-0.08 8.52 1.89-7.55-0.65-4.57 4.8-2.89 9.45-3.85-1.53-4.91-7.42-5.63-11.34z"/>
<path id="path16" d="m155.91 73.14c13.92 10.02 27.88 23.87 33.22 40.5-14.82-9.17-23.08-26.67-33.22-40.5z"/>
<path id="path18" d="m1065.8 74.32c13.3-3.73 15.1 14.25 21.2 21.72 5.6 6.28 5.2 16.32-5.1 17.04 14.5-8.6-7-21.49-11-31.92-10.7 7.74-20.1 18.11-28.7 27.98 11.6-1.49 17.7-12.15 26.8-18.16 1.3 1.9 7.4 14.25 2.3 7.69-2.4-7.42-9.3-0.22-11.8 3.66 1.7 2.47 11-3.76 11.4 1.6-20.1 10.4-34.2 28.12-46.8 46.17 17.4-14.59 36.5-28.38 58.7-34.25-21 43.9-61.9 75.08-107.38 90.59-13.36 3.88-22.38 16.97-35.11 21.4-4.31-12.63-13.58 1.2-21.68-3.19-13.91-2.59-18.15-22.67-6.66-30.76 35.22-18.45 68.8-41.01 97.13-68.78-32.38 19.21-61.29 43.56-92.22 64.93-3.91 3.26-6.94-2.83-7.78-5.85 23.65-13.51 43.58-32.57 67.72-45.34 11-10.1 20.4-23.14 34.28-29.71-3.5 8.53-11.72 13.72-17.01 20.93 29.91-9.73 45.61-40.04 71.71-55.75m-24.1 49.36c-25.9 13.12-41.6 37.72-63.62 55.41 27.22-10.27 43.02-35.46 63.82-54.21 0.7-1.1 1.6-2.66-0.2-1.2z"/>
<path id="path20" d="m801.31 117.41c10.32 14.81 8.94 41.17 17.19 58.67-5.75 1.79-9.37-3.82-10.08-8.59-3.18-16.52-7.23-33.25-7.11-50.08z"/>
<path id="path22" d="m33.62 135.43c4.23-0.71 11.13-0.63 13.4 3.64-24.26-7.64-28 22.36-39.12 35.94 7.1-13.66 8.93-34.53 25.72-39.58z"/>
<path id="path24" d="m769.52 142.59c1.37-0.11 4.12-0.32 5.49-0.42 0.37 24.95 4.13 49.76 3.98 74.72-3.48-22.22-3.56-48.3-7.32-71.88-14.57 0.81-29.29 1.71-43.65 4.29-0.18 6.23 1.02 12.38 1.04 18.6-1.58-5.75-2.15-13.89-2.91-20.81 14.49-1.16 28.89-3.23 43.37-4.5z"/>
<path id="path26" d="m35.76 145.4c2.33-0.06 5.16-1.02 7.43 0.18 18.85 12.21 34.59 30.6 57.16 36.07 26.31 8.65 52.23 20.21 74.44 36.56-17.22-6.76-34.36-14-51.78-20.28 26.25 19.94 63.11 22.15 86.71 46.39 0.41 7.14-7.11 3.42-10.89 1.81 2.59 5.27 11.59 6.57 10.99 13.47-2.28 7.72-12.41 4.07-15.03-1.5 3.64 0.55 11.24 6.07 12.16 0.03-45.12-36.31-107.05-41.22-154.91-73.14 30.73 26.73 68.97 42.84 107.11 55.93-3.37-3.52-9.18-4.28-12.09-7.94 16.84 5.71 31.89 16.21 46.79 24.94-2.36 2.61-9.93-5.71-5.1 1.63-61.72-3.5-128.06-16.39-172.75-62.55-6.61-10.58-2.06-23.13 4.68-32.33 4.96-6.22 6.38-17.1 15.08-19.27m7.66 23.89c-16.57 8.78-0.9 16.95 8.43 22.86-1.1-5.45-2.44-11.35-8.48-13.35 4.35-3.12 10.58 4.2 17.64 4.26-4.79-5.43-11.48-11.15-17.59-13.77z"/>
<path id="path28" d="m266.06 155.3c10.81 15.49 8.07 41.26 17.53 59.03-5.52 0.83-10.76-3.91-10.62-9.45-3.17-16.35-7.27-32.83-6.91-49.58z"/>
<path id="path30" d="m66.22 155.79c17.85 6.11 39.32 12.82 50.84 28.02-18.23-6.08-36.08-16.43-50.84-28.02z"/>
<path id="path32" d="m579.51 163.53c7.9-0.01 16.32-2.05 24.04 0.2-53.15 10.36-107.64 11.29-161.45 16.36 44.12-7.86 91.6-13.91 137.41-16.56z"/>
<path id="path34" d="m729.29 170.49c3.38 3.44-2.56 5.5 0 0z"/>
<path id="path36" d="m818.41 182.32c-2.96 3.75-10.08 17.12-11.77 26.61-1.96-9.08 0.77-23.56 11.77-26.61z"/>
<path id="path38" d="m822.79 183.04c8.57 2.2 2.31 8.51 0 0z"/>
<path id="path40" d="m215.89 204.04c2.13 5.64 13.54 7.3 5.5 10.27-5.92 4.34-3.95-6.39-5.5-10.27z"/>
<path id="path42" d="m562.61 213.58c4.71 0.99 15.47-3.98 17.44 1.26-31.74 7.41-64.6 8.06-96.93 11.31 24.56-7.47 53.04-10.6 79.49-12.57z"/>
<path id="path44" d="m860.33 215.4c6.43 5.23 10.51 15.44 13.68 23.65-6.01-5.53-10.3-14.92-17.67-17.7-0.83 9.33-5.69 20.93 0.63 31.66-3.88-0.25-13.92 5.68-11.02-2.91-2.26-13.62-5.95-37.31 14.38-34.7z"/>
<path id="path46" d="m1087.6 220.63c9.3-1.08 27-9.65 30.4 4.23v34.2c0.1 8.99-19.8 3.68-4.6 2.33 0.1-11.45-1.6-23.76-3.6-35.34-14.6 1.73-28.4 7.09-42.5 11.11 10.9 6.44 24.8-3.54 36.6-3.99 0.9 4.01 0.9 12.04-0.4 13.32 2.5-15.72-12.1-7.81-21.3-6.43 3.3 5.02 19.9 0.33 17.6 9.9-23-3.19-47 3.41-66.6 13.3 23.5-2.03 49.6-4.87 71.6 2.68-40.3 27.99-94.1 29.09-140.97 17.47-11.6-4.49-32.9 9.13-35.05-7.34-13.66-0.15-25.62-13.84-18.32-27.24 2.84-10.4 21.08-5.17 16.82-18.47 24.11-0.2 48.13-3.3 72.29-2.39 17.23-2.56 33.83-11.64 51.73-9.55-10.4 6.52-22.9 7.6-34.5 10.75 23.8 7.11 47.3-5.13 70.8-8.54m-78 13.96c-26.98 0.34-56.08 3.67-81.59 5.37 30.49 0.23 61.23 1.09 91.39-4.65 12.8-1.63-7.3-1.8-9.8-0.72m31 16.99c-22.2 1-43.69 11.15-65.74 10.32 27.44 7.6 52.94-3.54 78.94-10.07-2.4-2.63-9.5 0.27-13.2-0.25z"/>
<path id="path48" d="m779.35 220.49c3.13 5.92-2.58 7.49 0 0z"/>
<path id="path50" d="m238.01 223.14c-4.22 4.82-11.51 17.29-12.32 26.77-2.57-9.5 0.77-23.71 12.32-26.77z"/>
<path id="path52" d="m835.26 227.82c1.99 10.85 3.21 22.07 4.95 33.07 9.64 0.06 18.84-8.15 28.42-3.56 6.47 4.39 16.59-2.87 15.27 8.58-19.83 1.79-39.26 6.83-59.03 8.74-0.64-16.14 3.29-32.42 10.39-46.83z"/>
<path id="path54" d="m876 232.03c7.11 8.67 10.18 20.75 12.07 31.87-5.02-9.57-7.84-21.38-12.07-31.87z"/>
<path id="path56" d="m277.33 257.33c9.26 0.9 11.48 15.27 15.48 22.88-6.33-5.29-10.04-14.59-17.84-17.83-2.47 2.33 2.79 6.05-1.14 8.47-9.49 8.64 12.91 27.7-7.77 24.97-2.41-11.17-9.94-41.56 11.27-38.49z"/>
<path id="path58" d="m188.11 260.88c4.23 2.31 14.8 4.5 7.62 9.81-3.16-1.54-5.5-6.38-7.62-9.81z"/>
<path id="path60" d="m253.37 269.38c3.63 7.99 3.05 22.64 5.84 32.59 10.21-0.16 20.37-8.86 30.33-2.55 5.4 4.35 13.98-2.73 13.35 7.51-19.83 2.72-39.61 5.84-59.23 9.77-1.34-16.44 3.72-32.28 9.71-47.32z"/>
<path id="path62" d="m294.9 273.2c5.89 7.62 11.34 21.01 10.5 29.47-3.42-9.85-7.27-19.6-10.5-29.47z"/>
<path id="path64" d="m62.59 286.52c10.09 1.08 27.51-4.61 34.46 2.42-18.93 4.46-38.61 2.81-57.89 3.04 5.37-3.6 16.04-3.78 23.43-5.46z"/>
<path id="path66" d="m0 299.75c2.1-6 8.66-14.04 14.61-12.27-18.68 9.58-8.64 35.59-12.46 50.71-0.59-7.91-1.28-15.8-2.15-23.67v-14.77z"/>
<path id="path68" d="m196.4 317.93c2.58 0.08 7.73 0.25 10.3 0.33 3.95 8.82-10.2 2.24-10.3-0.33z"/>
<path id="path70" d="m953.14 354.95c4.31-8.58-2.73-6.9 0 0z"/>
<path id="path72" d="m925.31 359.37c1.2-0.19 3.63-1.01 3.42 1.15 6.19 70.86 17.41 143.46 13.42 213.43-12.07-62.69-26.28-124.99-37.33-187.86-97.11 14.11-195.14 3.19-292.77 4.97-0.92 74.08 0.99 148.27 8.27 222 108.38-8.23 216.58-22.18 325.44-21.19-1.03-15.8 6.05 6.99-3.57 2.34-106.3 6.91-211.75 21.88-317.13 36.93-8.35 1.61-22.66 2.98-23.82-8.75-8.93-80.39-10.72-161.29-11.31-242.08-1.61-4.18 2.03-8.33 5.87-9.08 109.91-1.64 220.04-0.42 329.51-11.86z"/>
<path id="path74" d="m619.44 396.14c6.2 0.35 14.42-1.63 19.58 0.74-5.99 0.8-12.23 0.49-18.05 2.21 1.22 19.44 2.42 41.81 0.12 59.96-0.85-20.49-4.76-43.75-1.65-62.91z"/>
<path id="path76" d="m236.09 423.05c6.49 0.84 15.72-1.99 21.08 0.88-6.03 0.96-12.27 0.67-18.16 2.34 1.27 20.54 1.61 41.17-0.07 61.7-2.22-20.19-3.17-43.54-2.85-64.92z"/>
<path id="path78" d="m1054.3 453.47c3.3 4.74-2.5 6.52 0 0z"/>
<path id="path80" d="m618.96 507.17c6.02 29.05 10.3 61.83 13.03 92.66 13.17-0.23 29.02-4.18 41.13-0.93-15.08 3.97-30.8 4.24-46.08 7.12-4.01-32.78-5.9-65.9-8.08-98.85z"/>
<path id="path82" d="m922.53 604.56c3.22 0.6 10.82-2.5 12.29 0.38-53.33 3.21-106.5 9.3-159.8 13.17 47.73-7.5 98.42-10.89 147.51-13.55z"/>
<path id="path84" d="m767.49 618.35c7.49-2.58 5.92 3.14 0 0z"/>
<path id="path86" d="m541.47 631.44c2.78 0.92 10.42-2.52 11.37 0.46-53.33 3.38-106.47 9.39-159.76 13.19 47.77-7.58 99.11-10.66 148.39-13.65z"/>
<path id="path88" d="m161.49 643.35c7.49-2.58 5.92 3.14 0 0z"/>
<path id="path90" d="m385.49 645.35c7.49-2.58 5.92 3.14 0 0z"/>
<path id="path92" d="m418.47 647.33c6.52-2.57 4.74 3.22 0 0z"/>
<path id="path94" d="m236 813c3.47 8.92-1.72 14.27 0 0z"/>
<path id="path96" d="m883.35 883.11c-0.44-0.36 8.14-0.85 6.37 1.62-7.17-0.61-1.15 13.42-7.78 12.95-0.02-4.9-0.15-9.89 1.41-14.57z"/>
<path id="path98" d="m877.89 912.22c7.9 7.16 3.54 28.22 16.03 28.73-1.83 3.49-8.22 3.33-11.98 4.94-2.2-11.1-3.16-22.41-4.05-33.67z"/>
<path id="path100" d="m272.18 926.13c12.04 0.14-0.82 2.5 1.25 11.19-2.87 12.02-5.19-8.38-1.25-11.19z"/>
<path id="path102" d="m265.87 955.15c5.26 7.07 6.78 18.44 9.61 27.42 13.37 0.91 0.26 6.28-5.27 6.32-2.77-11.03-3-22.5-4.34-33.74z"/>
<path id="path104" d="m963.47 959.41c7.12-0.53 14.29-0.65 21.46-0.43-18.63 3.17-40.79 4.65-60.81 7.1 11.37-3.83 26.4-4.92 39.35-6.67z"/>
<path id="path106" d="m835.22 1050c3.11 2.9 1.38 12-1.31 15-1.56-5-1.08-10.4 1.31-15z"/>
<path id="path108" d="m896.18 1055.1c3.08 13.1-2.38 31.5-15.04 39 9.92-10.5 13.93-24.9 15.04-39z"/>
<path id="path110" d="m833.45 1072.9c6.84 0.2 13.99-0.9 20.68 1.1-3.37 7.2-19.35 5.7-20.68-1.1z"/>
<path id="path112" d="m840.53 1083.2c4.46-2.5 2.04 3.6 0 0z"/>
<path id="path114" d="m468.05 1093.1c2.18-9-8.96 2 0 0z"/>
<path id="path116" d="m388.76 1104.2c6.99 2.4 16.14-3.4 21.72 2.8-6.22 4.2-18 4.8-21.72-2.8z"/>
</g>
</svg>
