<?xml version="1.0" encoding="UTF-8" standalone="no"?>
<!-- Created with Inkscape (http://www.inkscape.org/) -->

<svg width="150px" height="150px" 
   xmlns:dc="http://purl.org/dc/elements/1.1/"
   xmlns:cc="http://creativecommons.org/ns#"
   xmlns:rdf="http://www.w3.org/1999/02/22-rdf-syntax-ns#"
   xmlns:svg="http://www.w3.org/2000/svg"
   xmlns="http://www.w3.org/2000/svg"
   xmlns:sodipodi="http://sodipodi.sourceforge.net/DTD/sodipodi-0.dtd"
   xmlns:inkscape="http://www.inkscape.org/namespaces/inkscape"
   width="27.060642mm"
   height="32.000519mm"
   viewBox="0 0 95.884165 113.38766"
   id="svg2"
   version="1.1"
   inkscape:version="0.91 r13725"
   sodipodi:docname="Besen-lineart.svg">
  <title
     id="title4421">broom - line art</title>
  <defs
     id="defs4" />
  <sodipodi:namedview
     id="base"
     pagecolor="#ffffff"
     bordercolor="#666666"
     borderopacity="1.0"
     inkscape:pageopacity="0.0"
     inkscape:pageshadow="2"
     inkscape:zoom="1.979899"
     inkscape:cx="47.411687"
     inkscape:cy="22.754704"
     inkscape:document-units="mm"
     inkscape:current-layer="layer1"
     showgrid="false"
     inkscape:snap-global="false"
     inkscape:window-width="1377"
     inkscape:window-height="1046"
     inkscape:window-x="885"
     inkscape:window-y="49"
     inkscape:window-maximized="0"
     fit-margin-top="1"
     fit-margin-left="1"
     fit-margin-bottom="1"
     fit-margin-right="1">
    <inkscape:grid
       type="xygrid"
       id="grid4331"
       originx="-98.920023"
       originy="-822.48044" />
  </sodipodi:namedview>
  <metadata
     id="metadata7">
    <rdf:RDF>
      <cc:Work
         rdf:about="">
        <dc:format>image/svg+xml</dc:format>
        <dc:type
           rdf:resource="http://purl.org/dc/dcmitype/StillImage" />
        <dc:title>broom - line art</dc:title>
        <cc:license
           rdf:resource="http://creativecommons.org/publicdomain/zero/1.0/" />
        <dc:description>Brooms, household, tool, cleaning, line art, outline, Besen, zeichnung, haushalt, werkzeug, reinigung,</dc:description>
        <dc:contributor>
          <cc:Agent>
            <dc:title>line art broom</dc:title>
          </cc:Agent>
        </dc:contributor>
        <dc:date>2015-02-06</dc:date>
        <dc:creator>
          <cc:Agent>
            <dc:title>Frank Tremmel</dc:title>
          </cc:Agent>
        </dc:creator>
      </cc:Work>
      <cc:License
         rdf:about="http://creativecommons.org/publicdomain/zero/1.0/">
        <cc:permits
           rdf:resource="http://creativecommons.org/ns#Reproduction" />
        <cc:permits
           rdf:resource="http://creativecommons.org/ns#Distribution" />
        <cc:permits
           rdf:resource="http://creativecommons.org/ns#DerivativeWorks" />
      </cc:License>
    </rdf:RDF>
  </metadata>
  <g
     inkscape:label="Ebene 1"
     inkscape:groupmode="layer"
     id="layer1"
     transform="translate(-98.92002,-116.49407)">
    <path
       style="fill:#ffffff;fill-rule:evenodd;stroke:#ff0000;stroke-width:0.35433072;stroke-linecap:butt;stroke-linejoin:miter;stroke-miterlimit:4;stroke-dasharray:none;stroke-opacity:1"
       d="m 115.28366,187.29282 c -3.69694,2.96366 -8.01663,4.37045 -12.37437,5.68211 l 2.65165,1.51522 0.12627,2.02031 1.51523,-0.12627 1.51523,0.75761 -0.25254,1.13643 1.76777,1.13642 c 0.88388,0.6159 1.95717,0.29031 2.84105,0.25253 -0.85277,2.66903 -0.0235,2.21422 0.1894,2.90419 1.24803,0.72122 2.68856,0.21501 4.10374,-0.5682 -0.34751,1.88184 -0.17756,2.93574 0.31568,3.47239 1.48608,0.33865 2.38292,0.20591 3.03046,-0.12627 -0.0918,1.26214 0.0593,2.35074 1.13642,2.77792 0.90647,0.47993 0.8995,0.3537 1.32582,0.25254 l 2.46225,-2.2097 c -0.42054,1.02771 0.86829,-0.26444 -1.64149,3.59866 0.34894,0.2023 0.13185,0.78195 1.38895,0.37881 l 3.40927,-2.77792 c -0.85304,1.57375 -1.38976,3.37307 -1.07329,5.11389 1.09434,-1.30333 2.18867,-2.66854 3.283,-3.15672 -0.65239,1.23421 -1.30478,3.06744 -1.95717,4.60882 0.26979,0.35121 1.59399,-0.98466 2.65165,-1.89404 -0.20211,1.62471 -0.3241,3.20363 0.63134,4.16688 0.70263,-0.055 0.7076,-0.80762 0.75762,-1.51522 0.19205,0.99436 0.53545,2.16139 1.19955,2.84104 0.65726,-3.90138 2.46225,-7.1342 3.85121,-10.66973 -1.18206,3.87314 -2.76359,7.84615 -2.0203,11.23795 l 0.88388,-0.75761 c -0.99194,2.96498 0.48691,2.47908 1.51523,2.08344 1.2789,1.27096 2.4235,1.60176 3.53553,1.70463 l 0.88389,-2.77792 c 0.0842,2.35702 0.67343,3.61971 1.76776,3.78807 0.24328,1.38806 0.59896,1.7646 1.01015,1.6415 0.65206,-0.0918 0.68462,-1.42645 0.88389,-2.27285 1.07393,2.6976 1.62417,2.25307 2.39911,3.15673 0.36105,0.48534 0.62444,1.55666 1.13642,1.13642 l 1.07329,-1.8309 c 0.64036,1.44004 1.40177,1.30663 2.20971,0.56821 -0.70106,-1.43457 -1.86147,-4.00814 -2.26056,-5.73293 -0.52783,-2.28121 -0.8441,-3.80309 -0.64363,-6.26263 z"
       id="path4392"
       inkscape:connector-curvature="0"
       sodipodi:nodetypes="cccccccccccccccccccccccccccccccccccccccscc" />
    <path
       style="fill:#ffffff;fill-rule:evenodd;stroke:#00ff00;stroke-width:0.35433072;stroke-linecap:butt;stroke-linejoin:miter;stroke-miterlimit:4;stroke-dasharray:none;stroke-opacity:1"
       d="m 150.51273,212.6729 c 3.00941,-0.17864 6.01883,-1.12678 9.02824,-2.65165 2.0289,3.35391 3.81818,6.85758 7.1342,9.40704 l -1.51523,0.75762 -1.45209,-0.31567 c -0.0295,0.87966 0.4828,2.25593 -1.4521,1.38896 l -1.57836,-0.50508 -0.69448,1.8309 -1.76777,0.25254 c 0.33321,0.7962 0.008,0.93431 -0.31567,1.07329 -0.75451,0.5394 -1.21924,0.35435 -1.6415,0.0631 -0.27664,0.83873 -1.443,0.78775 -2.71478,0.63135 -0.92388,-1.72634 -2.0279,-4.07584 -2.57126,-6.28559 -0.42876,-1.7437 -0.38931,-3.18599 -0.4592,-5.64681 z"
       id="path4417"
       inkscape:connector-curvature="0"
       sodipodi:nodetypes="ccccccccccccsc" />
    <path
       style="color:#000000;font-style:normal;font-variant:normal;font-weight:normal;font-stretch:normal;font-size:medium;line-height:normal;font-family:sans-serif;text-indent:0;text-align:start;text-decoration:none;text-decoration-line:none;text-decoration-style:solid;text-decoration-color:#000000;letter-spacing:normal;word-spacing:normal;text-transform:none;direction:ltr;block-progression:tb;writing-mode:lr-tb;baseline-shift:baseline;text-anchor:start;white-space:normal;clip-rule:nonzero;display:inline;overflow:visible;visibility:visible;opacity:1;isolation:auto;mix-blend-mode:normal;color-interpolation:sRGB;color-interpolation-filters:linearRGB;solid-color:#000000;solid-opacity:1;fill:#000000;fill-opacity:1;fill-rule:evenodd;stroke:none;stroke-width:1.0629921;stroke-linecap:butt;stroke-linejoin:round;stroke-miterlimit:4;stroke-dasharray:none;stroke-dashoffset:0;stroke-opacity:1;color-rendering:auto;image-rendering:auto;shape-rendering:auto;text-rendering:auto;enable-background:accumulate"
       d="m 115.96412,186.63684 c -0.11233,0.004 -0.22054,0.0434 -0.3089,0.11314 -4.03594,3.2099 -8.63805,4.80059 -12.5559,5.63507 -0.46182,0.0983 -0.5736,0.70875 -0.17678,0.96551 l 2.24968,1.459 0.15736,1.79644 c 0.0293,0.33487 0.3572,0.55847 0.67802,0.46227 0.30875,-0.0921 0.62,-0.20449 0.93251,-0.32575 0.10517,0.21222 0.25063,0.41963 0.48568,0.55201 0.19187,0.10807 0.48947,0.1 0.74018,0.13654 -0.0681,0.2778 -0.21367,0.53966 -0.12434,0.84068 0.15773,0.53148 0.65555,0.921 1.35409,1.12545 0.0751,0.0217 0.15407,0.0263 0.23119,0.0137 0.36835,0.46262 0.91085,0.73651 1.48814,0.83287 0.40854,0.0682 0.86134,-0.0496 1.30163,-0.10337 -0.0968,0.22472 -0.20449,0.39194 -0.26616,0.65538 -0.13797,0.58942 -0.0908,1.32174 0.39632,1.94272 0.0268,0.0335 0.0574,0.0636 0.0913,0.0897 0.13919,0.10879 0.299,0.16278 0.46237,0.19505 0.28533,0.33925 0.73602,0.46973 1.17536,0.47593 0.5197,0.007 1.10065,-0.12029 1.71543,-0.34915 0.28668,-0.10671 0.57871,-0.3112 0.87228,-0.46227 -0.27618,1.06791 -0.0319,2.22598 0.41964,3.16181 0.10347,0.21396 0.33605,0.33273 0.56922,0.29062 l 0.002,0 c 0.87494,0.19135 1.31233,0.2624 1.74457,0.20286 0.2447,-0.0337 0.54236,-0.14176 0.78874,-0.22236 -0.009,0.38294 -0.13083,0.74543 0.006,1.13521 0.24562,0.70119 1.28452,1.99576 1.56974,1.32124 0.1442,0.59281 0.50864,0.52346 0.68969,0.6 0.33118,-0.0135 0.57382,-0.16908 0.85091,-0.38036 0.45607,-0.34775 1.15067,-1.10565 1.95051,-1.98563 -0.62024,1.46653 -1.05747,1.57529 -1.95681,2.9668 -0.16576,0.25943 0.2053,0.60558 0.47491,0.7529 0.74274,0.40485 1.38752,0.0631 2.17366,-0.36275 0.44207,-0.23945 1.52941,-1.54257 1.98014,-1.93341 -0.0206,0.0509 -0.75674,1.32676 -0.77624,1.37773 -0.45691,1.19531 -0.56473,2.02675 -0.0829,3.14209 0.15651,0.36322 0.63961,0.43297 0.89171,0.12872 0.24876,-0.30015 1.49899,-2.08998 2.0033,-2.40038 -0.57246,0.67147 -1.53785,2.52027 -1.62447,3.05967 -0.0573,0.27409 0.0837,0.55664 0.11837,0.75093 0.15836,0.37763 0.48168,0.2598 0.75572,0.36082 0.2391,-0.0466 0.37504,-0.15382 0.51677,-0.26527 0.42343,-0.36533 0.84597,-0.80178 1.19672,-1.14106 -0.0374,0.52386 -0.22599,1.0882 -0.11655,1.54481 0.21569,0.9 0.68956,1.67069 1.4687,1.94663 0.18542,0.066 0.39198,0.0232 0.53619,-0.11118 0.0578,0.18874 0.10859,0.40074 0.1768,0.55591 0.12257,0.27881 0.25071,0.5271 0.54007,0.70218 0.14469,0.0876 0.34437,0.13782 0.53037,0.11119 0.37594,0.0213 0.45789,-0.33731 0.6333,-0.47984 0.16016,-0.57588 1.05584,-4.94751 1.46105,-5.5772 -0.24797,0.67994 -0.94982,4.89933 -0.89766,5.35874 0.0711,0.62591 0.074,1.94537 0.83859,1.12883 -0.072,0.18579 -0.0858,0.81449 -0.0692,0.96994 0.19972,0.33382 0.44362,0.58824 0.76156,0.70805 0.31792,0.11981 0.65462,0.063 0.90531,-0.0487 0.21064,-0.0939 0.32072,-0.2342 0.48374,-0.36475 0.15749,0.41422 0.38141,0.76804 0.69744,0.98697 0.32626,0.22602 0.67998,0.34999 1.03548,0.44667 0.006,0.0568 0.006,0.11506 0.0136,0.17165 0.0195,0.15152 0.10301,0.28727 0.22926,0.37255 1.13295,0.76403 2.18815,0.49841 2.48764,-2.11376 -0.0375,1.09267 0.0431,1.85039 0.30406,2.17032 0.29966,0.36742 0.73414,0.6536 1.29192,0.84263 0.0492,0.42076 0.11006,0.83269 0.19427,1.22494 0.0212,0.0997 0.0703,0.19102 0.14183,0.26332 0.15091,0.15178 0.31401,0.27629 0.53036,0.33744 0.21635,0.0611 0.48274,0.0192 0.66053,-0.0898 0.35556,-0.21778 0.45931,-0.52146 0.57506,-0.81532 0.10539,-0.26762 0.10419,-0.88725 0.19364,-1.14581 0.24113,0.38379 0.44718,1.31767 0.77965,1.59833 0.28003,0.23637 0.585,0.42728 0.90144,0.57346 0.10574,0.47969 0.39586,0.8023 0.61779,1.143 0.3385,0.19009 0.67696,0.73002 1.01216,0.67543 0.3352,-0.0546 0.59927,-0.71283 0.76156,-0.93484 0.13636,-0.18657 0.16207,-0.36323 0.23895,-0.55786 0.0349,0.0286 0.0734,0.0434 0.1088,0.0702 0.0567,0.12247 0.10666,0.25087 0.16901,0.36865 0.0476,0.0894 0.11979,0.16311 0.20788,0.21261 0.3385,0.19008 0.67695,0.28866 1.01216,0.23405 0.3352,-0.0546 0.59927,-0.27147 0.76155,-0.49348 0.19501,0.0682 0.34598,-0.0571 0.44134,-0.0728 0.0338,-0.011 0.22325,-0.15147 0.25419,-0.16905 0.20291,0.10405 0.43744,0.13304 0.63527,0.1932 0.63882,0.054 1.22607,-0.14274 1.76594,-0.31598 0.18071,-0.0583 0.3164,-0.20948 0.35552,-0.39597 0.57375,0.0103 1.10696,-0.16007 1.59887,-0.31793 0.31328,-0.1005 0.46013,-0.4607 0.30696,-0.7529 0.59249,0.0218 1.14158,-0.15561 1.64744,-0.31794 0.31838,-0.10349 0.4621,-0.47418 0.29723,-0.76656 0.0389,-0.0496 0.0908,-0.0956 0.12045,-0.14628 0.11631,-0.19882 0.12206,-0.37658 0.17874,-0.57736 0.3682,0.24425 0.75668,0.40092 1.14038,0.394 0.1082,-0.002 0.21073,-0.0205 0.31473,-0.0351 l 0.0117,0.0117 c 0.075,0.0685 0.16811,0.11384 0.2681,0.13069 0.38256,0.0642 0.73441,0.0421 1.03159,-0.12288 0.29718,-0.165 0.47169,-0.45967 0.54979,-0.72364 0.0655,-0.22148 0.03,-0.39572 0.037,-0.60467 0.4158,0.14844 0.82977,0.20641 1.20061,0.10728 0.61951,-0.1656 1.10618,-0.55121 1.55613,-0.89725 0.27491,-0.21187 0.27587,-0.62752 0.002,-0.84067 -3.12054,-2.42336 -4.93618,-5.41412 -7.22115,-10.1447 -0.0596,-0.12276 -0.16391,-0.21776 -0.29141,-0.26527 -2.53339,-1.35237 -8.68983,0.0933 -9.44557,2.82052 -5.77744,-4.83482 -12.38718,-9.1868 -18.04018,-13.1661 l 0.006,-0.01 -3.60379,-2.65857 -0.23118,0.0878 c -0.008,-0.009 -0.0165,-0.0172 -0.0253,-0.0254 l -1.70378,-1.51751 c -0.0936,-0.0829 -0.21329,-0.12986 -0.33802,-0.13265 l -0.008,0 -2.15061,-1.5019 c -0.0353,-0.11053 -0.10546,-0.20645 -0.2001,-0.27307 l -2.05736,-1.44534 0,-0.002 c -0.0331,-0.0428 -0.0723,-0.0803 -0.11656,-0.11118 l -3.39008,-2.41085 c -0.0228,-0.0162 -0.0468,-0.0306 -0.0719,-0.0429 -0.0312,-0.0482 -0.0698,-0.091 -0.11463,-0.12678 l -1.70378,-1.34002 c -0.0986,-0.0769 -0.22107,-0.11626 -0.34579,-0.11118 z m -0.41208,1.05982 1.63364,1.29142 c -1.13086,0.98426 -2.79656,1.83748 -4.10715,2.86506 -1.33592,0.89741 -4.47184,1.91035 -5.85072,2.42378 -0.20648,-0.28419 3.32072,-1.79073 4.36704,-2.56529 0.4658,-0.26917 0.84615,-0.85731 0.30874,-0.86477 -0.10084,-0.001 -0.28559,0.08 -0.28559,0.08 -1.7957,1.07967 -3.22249,2.03629 -3.71624,2.26963 -0.49376,0.23334 -0.68271,0.61745 -2.06874,0.94722 l -0.63188,-0.28177 -1.50908,-0.84943 c 3.66496,-0.88545 8.1084,-2.43423 11.85998,-5.31583 z m 2.3451,1.64947 2.78478,2.02065 c -1.01255,0.85827 -2.03964,1.56344 -2.80137,2.34911 -2.587,2.05924 -4.12772,3.83122 -8.11964,4.83731 -0.3001,-0.11973 -0.67914,-0.42846 -0.7071,-0.52269 -0.0246,-0.0829 0.009,-0.32351 0.0777,-0.53703 2.00268,-0.17344 3.31882,-1.20224 5.7266,-3.14457 0.40233,-0.31383 2.21423,-1.52868 1.70487,-1.83261 -0.4021,-0.0603 -2.05571,1.37013 -2.14754,1.44694 -2.49351,2.01148 -3.77033,2.41833 -5.62585,2.50037 -0.0385,-3e-4 -0.077,0.004 -0.11463,0.0117 -0.41715,-0.001 -0.65393,-0.063 -0.7324,-0.10729 -0.0325,-0.0183 -0.0444,-0.0283 -0.0563,-0.0409 2.24598,-1.05091 4.52564,-2.70684 6.6053,-4.4043 1.0754,-0.75759 2.18635,-1.60943 3.40562,-2.57664 z m 3.21138,2.37901 1.18114,0.75938 0.20813,0.23044 c -1.51032,1.33126 -3.35807,2.8621 -4.96752,4.10033 -1.56496,1.204 -2.9636,2.10727 -4.17949,2.42808 -0.0355,0.002 -0.51015,0.10146 -0.8899,0.11018 -0.6649,0.17977 -0.78066,0.14463 -1.26713,0.0634 -0.16506,-0.0276 -0.63729,-0.33773 -0.76014,-0.39006 2.49124,-0.76734 5.03796,-2.30204 6.14829,-3.06459 0.56465,-0.51237 1.0996,-1.0529 1.64355,-1.60333 1.09724,-0.87478 1.93627,-1.81052 2.88307,-2.63384 z m 2.32735,1.69954 1.95886,1.2883 c -0.19835,0.179 -0.45678,0.58939 -0.65339,0.77462 -2.12512,1.91557 -4.08199,3.79366 -5.36773,5.90694 -0.55669,0.89297 -1.1282,2.10971 -1.57618,3.08274 -0.30661,-0.60048 -0.22583,-1.24795 -0.13757,-1.67124 0.0612,-0.29323 0.33817,-0.90486 0.67643,-1.27692 0.16912,-0.18602 0.46586,-0.57901 0.60739,-0.74731 0.45745,-0.54397 0.70727,-0.90003 0.933,-1.27446 0.33579,-0.55696 0.89613,-1.06203 0.66265,-1.32116 -0.17808,-0.13433 -1.18017,1.06568 -1.56083,1.56996 -0.69353,0.91878 -1.83549,2.01896 -2.8043,2.44227 -0.1097,0.0479 -0.44324,-0.083 -0.55007,-0.0431 -0.0428,0.016 -1.13412,0.54494 -1.30198,0.2756 -0.0471,-0.41552 0.95884,-0.74771 1.56945,-1.17819 0.79371,-0.65509 1.25342,-0.97224 2.30928,-1.95067 1.49012,-1.38083 2.81146,-3.26368 4.33356,-4.99957 0.32325,-0.33845 0.61121,-0.60552 0.90143,-0.87774 z m -16.85711,1.2659 c -0.0517,0.79507 3.41069,-0.48762 3.47725,-0.4575 0.0704,0.13999 -2.79851,1.47284 -2.78384,1.65992 -0.12888,0.0521 -1.14018,0.21565 -1.26773,0.26233 l 0.22463,-1.38283 c 0.13411,-0.0314 0.23362,-0.0547 0.34969,-0.0819 z m 19.53614,0.5559 0.9267,0.82701 c -0.19779,0.18012 -0.38142,0.37027 -0.57117,0.5559 -2.21787,1.6611 -3.21447,4.30897 -3.98754,6.43353 -0.17369,0.47731 -0.2576,1.26194 -0.28716,1.76777 -0.159,0.80103 -0.16416,1.98554 -0.22992,2.90977 -0.0989,-0.14187 -0.54403,-0.40358 -0.57564,-0.83568 -0.1685,-0.48105 -0.14031,-1.04154 -0.0466,-1.24444 0.18848,-0.40903 -0.18445,-0.85292 -0.61779,-0.73535 -0.74468,0.20134 -1.04647,0.33583 -1.27056,0.3667 -0.11094,0.0153 -0.48,-0.0667 -0.68772,-0.0936 1.10296,-2.98277 3.70641,-6.94341 7.34742,-9.95159 z m 1.44428,1.12524 c -0.2009,0.26714 1.1062,0.88174 1.09541,0.89798 -1.66045,2.53586 -3.4752,3.93869 -4.94727,4.77354 0.69258,-1.40364 1.60421,-3.63581 2.67903,-4.7174 0.43613,-0.36479 0.65171,-0.71905 1.17283,-0.95412 z m -5.46205,-2.70206 c -0.14519,0.72059 -4.24867,5.07145 -4.79127,5.67146 -1.00231,1.10836 -2.07587,1.45378 -2.82793,2.04757 -0.37604,0.29689 -0.70765,0.49266 -0.92475,0.56955 -0.15853,0.0561 -0.16618,0.0343 -0.19428,0.0234 -0.20838,-0.31377 -0.26178,-0.58929 -0.17873,-0.94405 0.0746,-0.31884 0.24447,-0.66879 0.41186,-1.02014 1.44966,-0.41447 2.26399,-1.31415 3.8277,-2.51717 0.22993,-0.17691 4.35317,-3.89792 4.6774,-3.83063 z m 7.03485,3.68534 1.54252,1.13715 c -0.0622,0.13274 0.15543,0.41559 0.0922,0.54579 l -2.17747,3.50337 c -0.17767,0.28585 -1.75132,3.1979 -1.95857,3.45759 -0.15358,0.19244 -0.8242,1.89954 -0.93142,2.00475 -0.0645,0.0633 0.32597,-1.59288 0.31301,-1.99878 0.12016,-0.72528 0.76938,-1.90244 0.54958,-2.24921 -0.48808,0.29374 -0.9139,1.81524 -1.42994,2.3395 -1.15073,1.16908 -1.55183,1.57466 -2.04185,1.96881 -0.82308,0.13889 -0.31666,-2.45465 -0.28196,-2.94948 1.1217,-0.29322 2.36351,-0.7064 3.03849,-1.34384 0.74898,-0.71326 1.01657,-1.07612 1.96597,-1.99789 0.34663,-0.33656 1.38202,-1.5161 1.08853,-1.75397 -0.13755,-0.004 -0.7117,0.57858 -1.37778,1.24187 -0.80011,0.79675 -1.69601,1.6028 -2.43471,2.14937 -0.47584,0.35207 -0.87709,0.43551 -1.93826,0.72669 0.11293,-0.47063 0.24327,-0.91568 0.39047,-1.34002 0.14432,0.0441 0.30055,0.0243 0.42935,-0.0546 2.04281,-1.24734 3.16636,-2.33373 5.12882,-5.3308 0.0122,-0.0182 0.0232,-0.037 0.0331,-0.0565 z m 2.33905,1.81398 0.80624,0.56566 -0.002,0.002 c -1.69854,1.98233 -3.85491,5.84332 -5.4404,7.35178 1.46903,-2.6249 3.26583,-5.80988 4.63616,-7.91944 z m 1.6688,1.17227 2.39698,1.72976 c -0.57531,1.30835 -1.45559,2.31577 -2.23961,3.39623 -0.4163,0.53531 -1.20612,1.60674 -1.62793,2.14511 -1.33154,1.58015 -2.3668,2.43404 -3.57471,3.7806 -0.0213,-0.55685 0.0527,-1.15006 0.305,-1.81009 0.40048,-1.04767 1.10232,-2.1701 1.87475,-3.21643 0.7724,-1.04632 1.61197,-2.01804 2.28465,-2.79706 0.62665,-0.91228 0.39491,-1.15184 -0.36958,-0.62895 -1.83017,2.18021 -2.81467,2.87247 -4.39793,4.50843 -0.60249,0.62256 -1.70904,1.86134 -1.96889,1.39953 2.18078,-2.14275 4.63774,-5.3671 7.25313,-8.41948 0.0243,-0.027 0.0457,-0.0564 0.064,-0.0878 z m 4.36135,3.12176 c -0.51671,0.955 -1.26619,2.42226 -1.75099,3.52286 -1.33595,3.16192 -2.72513,5.8401 -3.18125,8.65972 -0.10651,-0.18255 -0.46879,-0.83444 -0.53258,-1.10059 -0.16199,-0.67594 -0.13474,-1.55717 0.19233,-2.4167 0.18107,-0.47039 -0.33182,-0.90542 -0.76349,-0.64758 -0.62917,0.37208 -1.15358,1.03517 -1.62025,1.54092 1.30427,-2.85839 2.88083,-5.2801 4.3781,-7.61369 0.57378,-0.79633 1.27559,-2.17514 1.73062,-3.01537 0.58683,0.24492 1.05146,0.68208 1.54751,1.07043 z m 4.10509,3.02045 c -0.42587,1.01555 -1.07584,2.19202 -1.76399,3.44073 -0.47617,0.81019 -0.96116,1.62259 -1.41432,2.45962 -0.80402,1.48511 -1.60865,3.37679 -2.01556,4.88403 -0.21591,-1.08291 0.0452,-2.09813 0.14349,-3.17363 0.28285,-3.0962 0.80436,-3.93842 1.50839,-6.20285 0.0845,-0.2717 0.80512,-1.65161 0.41245,-1.79355 -0.44699,-0.16158 -1.10255,1.93739 -1.10494,1.94251 -1.54868,3.32932 -2.31434,5.28337 -3.25681,8.53886 -0.14233,-0.37279 -0.54358,-1.00881 -0.67666,-1.7987 0.78928,-2.80503 2.14613,-5.81079 3.35958,-8.47669 0.41747,-0.76253 0.63627,-1.74979 1.09155,-2.52034 1.03327,1.11881 2.4582,1.84895 3.71682,2.70001 z m 1.74069,1.17618 c -2.31081,3.72345 -4.27458,7.23561 -4.78495,10.60887 -0.35717,0.84023 -1.06158,1.07984 -1.2144,1.00483 -0.0676,-0.10077 -0.0681,-0.64163 -0.0135,-1.10625 0.85025,-3.65485 2.57569,-7.10882 4.05691,-9.97269 1.05585,-1.27697 0.71735,-1.3182 1.95587,-0.53476 z m 2.50225,1.78278 c -0.0935,0.43174 -0.18891,0.92362 -0.28558,1.38682 -0.86172,3.44959 -1.44687,6.44072 -1.24529,9.36059 -0.003,0.36599 0.0185,0.71606 0.0331,1.07084 -0.57398,-0.21136 -0.61845,-0.75085 -0.74214,-1.20738 -0.0774,-0.82207 -0.16052,-1.68261 -0.21041,-2.61798 -0.15179,-2.84588 0.64155,-4.12853 1.29219,-5.8105 0.14588,-0.35788 0.47048,-1.18861 0.0857,-1.48806 -0.21285,0.009 -0.49392,1.46887 -0.56822,1.66932 -1.30158,3.33681 -1.29523,3.90469 -1.61931,5.64185 -0.22854,1.22507 -0.68756,2.15086 -1.18703,3.2919 -1.26117,-0.0592 0.003,-4.36062 0.53823,-6.21369 0.61163,-1.7338 1.23812,-3.50855 1.83915,-5.16368 0.96149,-0.54455 1.40326,-0.23656 2.06974,0.08 z m 12.95617,0.0209 c 1.12367,3.40081 2.12933,8.14959 4.35934,11.21406 0.17163,0.29063 -0.50149,0.56341 -0.78985,0.2262 -1.21391,-1.326 -2.10806,-3.05778 -3.0993,-5.24492 -0.20479,-0.45185 -1.05538,-2.85321 -1.58131,-4.25232 -0.23746,-0.6317 0.52064,-1.46084 1.11112,-1.94302 z m -33.14522,0.0896 c 0.24934,0.4375 -0.15773,0.17803 -0.12262,0.1983 -0.0473,-0.003 -0.93999,0.0823 -0.99349,0.0926 0.0154,-0.0228 0.19013,-0.93014 0.58234,-1.23663 0.16064,0.28004 0.44744,0.59107 0.53377,0.94575 z m 30.53217,1.08135 c 0.0991,0.9052 0.19546,1.37144 0.31846,2.18858 0.059,0.67491 0.12295,1.71438 0.20025,2.39126 0.3042,2.66404 1.59023,4.83333 2.79782,6.69579 -0.0386,0.1584 -1.04409,0.53165 -1.06487,0.53015 -0.34355,-0.0291 -0.30513,-0.0394 -0.60719,-0.5764 -0.027,-0.0472 -0.48276,-1.11984 -0.66621,-1.56118 -1.19938,-2.8856 -1.72531,-4.55042 -2.18547,-8.84194 -0.0144,-0.13491 0.18712,-0.35372 0.0843,-0.44176 l -0.0816,-0.0683 c -0.0594,-1.72663 -0.0986,-1.42402 1.20449,-0.31619 z m -13.26111,-0.70024 c -0.59285,1.44245 -1.13863,2.85258 -1.55225,4.21119 -0.5896,1.95446 -1.24792,4.02721 -1.3094,5.81258 -0.15555,-0.0429 -0.30278,-0.0887 -0.39437,-0.15214 -0.26685,-0.18487 -0.4202,-0.39479 -0.43517,-0.93041 0.19481,-0.0614 0.11717,-0.60829 0.14543,-0.81132 0.50246,-3.5851 1.82447,-5.90894 3.54576,-8.1299 z m 3.30474,0.0232 1.29954,0.75707 c 0.0245,0.49586 0.0913,1.0172 0.0389,1.56822 -0.21264,2.23525 -0.19992,4.33112 -0.0389,6.33337 0.11907,1.48051 0.77301,4.00084 1.33427,5.42039 -0.95237,-0.29318 -1.61276,-1.68237 -1.72912,-2.16389 -0.10564,-0.43723 -0.18456,-0.52089 -0.60864,-1.01082 -0.37178,0.50585 -0.4471,2.14926 -0.91981,2.1001 -0.34473,-0.0359 -0.26904,-0.97844 -0.31535,-1.17602 -0.12138,-0.5178 -0.17838,-2.67283 -0.18166,-2.95973 -0.0442,-3.87837 0.39866,-5.44575 1.12077,-8.86869 z m 8.4894,1.69312 c -0.0206,1.47869 -0.0436,2.88913 -0.25266,4.54768 -0.0228,0.18045 -0.31438,2.25056 -0.31031,2.4318 -1.01037,-1.11204 -1.29264,-4.42263 -1.47512,-6.12456 1.47257,-1.02768 0.80032,-1.88801 2.03809,-0.85492 z m -3.64631,-0.25918 0.94224,0.80167 c -0.0162,1.57559 -0.0727,3.28799 -0.0524,4.9953 0.009,0.7758 0.43645,3.47955 0.49156,4.23264 -0.93235,-0.84575 -1.56991,-5.0164 -1.7248,-6.86975 -0.091,-1.08855 0.36314,-2.21061 0.3434,-3.1599 z m 8.496,-0.51075 c 1.75935,3.34959 3.84095,6.37238 6.2921,8.43573 -0.23308,0.15342 -0.4888,0.35851 -0.67996,0.40961 -0.33314,0.0891 -0.59782,0.0754 -1.06268,-0.32769 -0.30729,-0.26416 -0.78419,-0.0981 -0.86256,0.30038 -1.59795,-2.32892 -2.86935,-5.43779 -3.6869,-8.81803 z m -10.88556,0.77016 1.45873,0.99735 c 0.0793,0.72463 -0.0803,1.34102 -0.0517,2.01426 0.045,1.06413 0.0775,2.65202 0.0907,3.74423 0.0235,1.94456 0.13386,3.24526 0.58461,4.9072 0.0203,-0.0346 0.1393,0.71488 -0.10753,0.98435 -0.0967,0.25836 -0.51157,0.8294 -0.59003,1.0332 -0.0696,0.0639 -0.47415,-0.53901 -0.58251,-0.82966 -0.58544,-1.57033 -1.18173,-5.19186 -1.34699,-6.92189 -0.21914,-2.29422 -0.0352,-3.57828 -0.0171,-5.50114 0.002,-0.26136 0.2632,-0.67907 0.56189,-0.4279 z m 8.76368,0.13674 c 0.38343,1.14122 0.7743,2.50395 1.20838,3.67459 0.63624,1.71584 1.3506,3.37449 2.25163,4.74173 -0.30157,-0.17987 -0.69078,-0.0205 -0.78098,0.31988 -0.0641,0.2444 -0.11828,0.48344 -0.17096,0.68464 -1.49005,-2.21572 -3.23368,-5.47733 -3.11968,-8.91772 -0.15088,-0.38299 0.32047,-0.44264 0.61161,-0.50312 z m -2.46743,2.89181 c 0.50313,-0.17612 1.0875,5.42657 1.95465,6.99299 0.73244,1.32308 1.9813,1.99098 0.1883,2.14413 -0.48654,0.13283 -0.92752,-0.98157 -1.01215,-0.97547 -2.20023,-1.71746 -1.3725,-5.9236 -1.1308,-8.16165 z m -1.95423,2.63773 c 0.42393,2.00097 1.68632,4.93428 2.87804,6.4763 -0.29858,0.87355 -1.58884,0.52615 -1.80388,0.40303 -0.78943,-0.45196 -1.63354,-6.13412 -1.63936,-6.43793 -0.15263,-1.81686 0.25734,-2.07105 0.5652,-0.4414 z m -1.88057,2.53763 c 0.42396,1.37397 0.96071,2.65631 1.64937,3.90106 -0.064,0.17779 -0.12561,0.34099 -0.18066,0.48373 -0.14832,0.0371 -0.28794,0.0636 -0.39439,0.0546 -0.0616,-0.005 -0.11685,-0.0172 -0.17289,-0.0293 -0.51407,-1.20376 -0.78302,-2.73422 -0.90143,-4.41016 z"
       id="path4153-2-20-6"
       inkscape:connector-curvature="0"
       sodipodi:nodetypes="ccccccccccscccccccccscccccccccscccccccccccccccccscccccccccccccccccccccccscccccccccccccccccccccccccccccccccccccccccccccccccccccccccccscccccccccccccccccccccccccccccccccccsssscsccccscccccccccccscccccccccccccccsccccccccccccccccsscccscccccccccccccccccccccccsccccccscccccscccccccccssssccccccccccccccccccsscccccccccssccccccccccccscccccccccccccsscscssscccccccccscccccccccccscccssccccccccccccccccccsccccccccc" />
    <g
       id="g4333"
       transform="matrix(0.99468047,0,0,0.99867037,0.54620933,0.30094609)"
       style="fill:#ffffff">
      <path
         sodipodi:nodetypes="csscsccc"
         inkscape:connector-curvature="0"
         id="path4151"
         d="m 114.98468,183.48331 c 1.80535,-1.63275 3.83832,-1.55885 7.58929,-1.875 3.09437,-0.26081 3.78627,0.0208 5.51325,1.23147 8.37921,5.87391 29.57532,20.61395 31.54031,22.16138 1.46355,1.35488 2.33462,3.85354 -0.71428,5.26786 -4.05919,1.88297 -6.24003,2.69836 -7.32143,2.41071 l -35.89285,-25.26785 c -1.34213,-0.89551 -1.62287,-2.50154 -0.71429,-3.92857 z"
         style="fill:#ffffff;fill-rule:evenodd;stroke:#000000;stroke-width:1.77756667;stroke-linecap:butt;stroke-linejoin:miter;stroke-miterlimit:4;stroke-dasharray:none;stroke-opacity:1" />
      <path
         sodipodi:nodetypes="ccccc"
         inkscape:connector-curvature="0"
         id="path4147"
         d="m 116.14539,187.67974 34.46429,24.28571 c 3.60433,2.75667 5.36979,-2.05865 2.67857,-3.57143 l -34.46428,-24.46429 c -3.26311,-2.43513 -6.33894,1.03024 -2.67858,3.75001 z"
         style="fill:#ffffff;fill-rule:evenodd;stroke:#000000;stroke-width:1.77756667;stroke-linecap:butt;stroke-linejoin:miter;stroke-miterlimit:4;stroke-dasharray:none;stroke-opacity:1" />
      <path
         sodipodi:nodetypes="ccccc"
         inkscape:connector-curvature="0"
         id="path4149"
         d="m 137.38008,192.19632 50,-70.71429 c 1.94101,-1.96517 4.53351,0.6386 3.03572,2.67857 l -50,70.17858 c -0.97672,1.12545 -4.09985,-0.9268 -3.03572,-2.14286 z"
         style="fill:#ffffff;fill-rule:evenodd;stroke:#000000;stroke-width:1.77756667;stroke-linecap:butt;stroke-linejoin:miter;stroke-miterlimit:4;stroke-dasharray:none;stroke-opacity:1" />
    </g>
  </g>
</svg>
