<?xml version="1.0" encoding="utf-8"?>
<svg width="150px" height="150px"  version="1.1" id="Layer_1" xmlns:serif="http://www.serif.com/"
	 xmlns="http://www.w3.org/2000/svg" xmlns:xlink="http://www.w3.org/1999/xlink" x="0px" y="0px" viewBox="0 0 1751.87 1661.74"
	 enable-background="new 0 0 1751.87 1661.74" xml:space="preserve">
<path d="M1635.223,622.434c-96.627-201.16-372.277-340.11-672.486-263.262c-5.211-0.854-10.299-1.617-15.443-2.415
	c-40.399-20.037-94.837-64.176-74.295-152.521c15.746-67.601,66.22-132.35,66.22-132.35s-1.774-28.011-18.925-31.504
	c-15.746-3.212-47.284-9.49-47.284-9.49V30.87l-22.092,12.635c0,0-77.844,114.537-97.712,223.784
	c-6.784,37.322-19.037,62.671-28.921,78.226c-42.522,3.179-87.02,9.715-136.236,20.104
	C439.981,306.392,172.116,468.524,80.056,715.643c-167.745,450.346,150.361,875.261,308.592,758.844
	c0,0,19.846,27.494,54.011,54.079c53.641,42.656,143.233,53.585,198.12,39.029c52.237,46.217,126.599,60.346,216.147,63.008
	c81.809,2.808,152.207-16.589,189.135-54.023c122.19,51.953,250.758-10.446,293.924-84.909
	C1501.176,1564.88,1889.532,1151.849,1635.223,622.434z M1241.471,605.215c0,0,114.542-52.863,207.052-13.215
	c92.51,39.642,110.132,255.499,110.132,255.499l-224.662-123.347v0l-142.653-19.448l-19.813-2.698l0.003-0.002l-31.379-4.278
	L1241.471,605.215z M748.095,636.044h233.477c0,0-32.936,44.106-61.978,66.869c-0.037,0.029-0.074,0.058-0.112,0.087
	c-0.375,0.294-0.751,0.585-1.125,0.872c-0.334,0.257-0.667,0.508-1,0.759c-0.13,0.098-0.262,0.198-0.392,0.295
	c-6.8,5.076-13.321,8.849-19.078,10.436c-19.757,5.443-53.984,2.736-76.03,0.088c-12.366-1.48-20.9-2.943-20.9-2.943
	L748.095,636.044L748.095,636.044z M259.114,622.833c35.241-44.052,154.184-74.889,154.184-74.889l127.753,30.837l56.853,91.596
	c0.037,0.038,0.075,0.076,0.112,0.114l22.337,36.048l-142.478,9.285l-60.178,3.924l-198.228,61.673v0h-0.002
	C219.466,781.423,223.873,666.885,259.114,622.833z M1492.584,1208.736l-167.399,136.562l-1.772-38.985
	c-0.014,0.008-0.028,0.016-0.043,0.024l-7.018-154.906l-96.893-184.978l-39.647,251.096l-57.269,185.02l-48.458,17.62l3.011-114.43
	l1.373-52.938l-110.111,167.367l-70.484-158.59l-44.052,145.373l-42.93-85.862l-0.009,0.015l-1.121-2.243l-13.413,23.167
	l-1.021,1.763v0l-34.016,58.754l-13.095-174.61l-0.005,0.005l-0.063-0.905l-0.052-0.699l-50.527,91.867l-16.016,29.127
	c0-0.001-0.001-0.003-0.001-0.004l-30.37,55.219l-34.147-123.786l-0.005,0.004l-0.2-0.748l-0.883-3.201l-26.601,65.272l-0.006-0.018
	l-21.864,53.65l-88.089-211.454l-30.828-149.737l-0.111,0.551l-0.029,0.004l-5.082,23.146l-34.421,156.89l1.618,21.314l7.18,93.193
	l-180.618-211.436l-70.497-176.215l66.096-30.821l0,0c0,0,162.994-83.699,220.26-83.699c57.269,0,92.51-4.404,92.51-4.404
	l-8.797,63.778c0.001,0,0.003,0,0.004,0l-8.816,63.963l15.435,50.217l19.788,64.311l4.594-12.492l0.003,0.017l74.704-203.361
	l40.564,56.165l14.058,19.422l0.014,0.062l2.633,3.646l35.241-88.106c0,0,57.219,78.41,89.344,119.112
	c12.776,16.165,21.58,26.363,21.233,23.302c-0.005-0.038-0.012-0.077-0.019-0.118c-0.007-0.039-0.016-0.081-0.025-0.123
	c-0.072-0.312-0.203-0.71-0.401-1.205c-8.811-22.026,39.647-136.562,39.647-136.562l14.603,25.557l0.006-0.039l0,0l0.016-0.074
	l19.767,34.704l0.016,0.07l0.832,1.455l44.052-70.484l61.674,233.486l1.079-3.597l0.042-0.322l38.524-128.317l5.616-45.15
	l0.04,0.001l7.563-60.497l224.662,26.432l281.933,158.59L1492.584,1208.736z"/>
</svg>
