<?xml version="1.0" encoding="UTF-8" standalone="no"?>
<svg width="150px" height="150px"  id="svg2" xmlns:rdf="http://www.w3.org/1999/02/22-rdf-syntax-ns#" xmlns="http://www.w3.org/2000/svg" height="1264pt" width="961pt" version="1.1" xmlns:cc="http://creativecommons.org/ns#" xmlns:dc="http://purl.org/dc/elements/1.1/" viewBox="0 0 961 1264">
<g>
<path id="path4" d="m565.32 0h8.68c43.08 17.25 81.56 43.97 124.56 61.43 67.59 25.97 113.78 92.12 128.64 161.35 10.6 61.31 16.89 123.62 16.51 185.86-2.6 28.37-6.5 60.68 5.34 86 2.58-24.47 0.37-52.77 12.16-76.3 10.41-19.24 27.54 1.38 29.23 15.2 16.73 50.89 19.16 105.23 18.55 158.38 2.98 113.42 13.69 227.66-2.48 340.6-4.45 32.68-13.96 65.02-13.31 98.18 15.79 7.1 23.75-13.4 29.12-24.3 43.6-107.16 35.53-225.93 19.24-337.97-12.3-94.87-35.05-187.95-50.43-282.27 7.04 1.91 4.99 13.9 7.88 19.82 27.21 135.04 53.3 270.96 61.99 408.67v31.81c-2.56 63.5-15.74 126.42-40.99 184.74 2.88 24.3-18.79 36.7-31.82 53-9.53 22.9-3.59 50.7-16.96 72.2-14.31-0.3-17.1-21.5-24.16-31.3-18.94 15.1-36.86 33-60.45 40.5-24.57 8.3-53.33 9.3-73.4 27.6 10.46-0.9 19.48-8.6 30.08-7.8 5.23 3.5-4.9 5.3-7.77 7.2-131.46 47.7-273.73 56.7-411.97 57.2 50.25 5.8 100.88 8 151.43 9.3 57.59-1.1 114.86-8.1 171.98-15.1 38.53-5.5 77.77-9.9 114.46-23.6 26.77-9.4 50.67-25.2 76.53-36.5 5.19-2.9 1.75 4.1-0.71 5.4-46.75 28.2-98.45 49.3-152.96 56-72.19 10.6-145.14 15.2-217.95 18.7h-46.74c-54.71-2.4-110.87-5.8-162.31-26.3-48.29-16.9-100.57-33.9-133.89-75 6.52-1.9 14.63 7.7 20.64 11.3 50.32 42.5 117.01 57.6 180.85 65.1 66.93 9 134.39 0.2 201.15-6 62.36-7.9 128.08-15.3 181.9-50.3-76.71 12.7-153.9 23-231.46 28.8-76.77 1.7-155.49 5.1-230.27-15.6-8.82-2.4-7.38-16.9-18.41-15.9-36.83-5-74.26-18.9-98.87-48-26.11-32.5-36.85-73.5-48.3-112.7-30.35-111.49-37.27-227.42-44.87-342.15-3.11-62.15-8.54-124.8-2.39-186.84 0.56-3.55 3.6-15.61 7.34-8.99-10.72 112.6 3.47 225.54 14.24 337.63 9.28 83.1 17.38 167.44 46.5 246.45 9.56 26.2 21.86 52.2 42.32 71.7 25.79 23.2 60.46 34.8 94.82 35.4 3.82-0.2 10.98-0.9 10.5-6.4-18-10-38.87-13.4-57.08-23.2-37.93-20.5-72.47-52.2-85.89-94.2-14.63-49.69-20.43-101.4-27.32-152.61-13.91-124.96-24.77-250.3-31.63-375.84 8.5-0.99 17.02-2.39 25.59-2.29 15.86 149.56 28.43 299.5 46.32 448.86 4.06 42.28 16.67 84.88 43.6 118.38 1.89 2.2 7.73 2.1 4.29-3.2-5.71-32.5-19.48-63-25.47-95.58-34.03-159.23-45.85-322.88-43.46-485.41-13.49-4.49-47.66 13-50.82-11.5-0.15-18.95 22.69-19.08 36.23-20.05-5.78-75.01-18.22-153.12 5.68-226.42 10.75-36.39 33.78-67.16 52.57-99.24-36.34 21.3-64.96 56.02-87.14 91.67-33.89 61.32-46.15 132.22-48.02 201.59 1.12 8.28-7.01 15.04-6.54 2.01v-25.53c6.43-93.17 36.45-190.6 108.44-254.21 52.14-40.4 87.77-96.98 131.87-145.15 1.57-2.53 10.47-8.54 6.53-1.54-23.31 36.36-57.26 65.33-79.52 102.45 14.33-1.42 25.81-10.89 38.9-15.96 127.82-60.9 272.64-83.84 413.03-70.03-14.47-15.29-40.7-13.92-53.93-29.2m-46.9 29.44c-77.72 1.95-155.98 18.01-228.24 44.77 114.67-25.86 233.46-41.99 350.8-27.1-37.16-18.3-81.81-16.84-122.56-17.67m36.19 44.19c-61.16 2.21-122.34 7.2-183.07 14.89-43.64 11.48-87.53 22.86-129.59 39.44-41.77 16.87-82.6 42.99-103.85 84.15-19.5 34.73-13.97 76.59-12.9 114.69 3.26 35.23 6.77 76.57 37.53 99.55 2.42 3 0.79 6.91-3.93 4.05-14.14-6.47-23.57-21.04-29.13-35.12-9.67-43.41-12.18-88.58-13.37-132.5-15.87 62.62-17.02 128.8-3 191.86 1.35 10 14.11 8.84 21.5 9.12 19.89-2.36 41.28-1.17 59.95-9.14 4.2-50.27-9.82-102.56 4.85-152.04 13.91-42.37 49.59-72.44 87.34-93.65 46.63-26.39 96.53-46.61 147.19-63.86 69.48-16.85 148.34-25.06 212.29 13.51 35.96 20.7 66.74 58.75 66.51 101.77-4.28-0.14-7.21-10.42-7.71-14.74-2.32-25.57-19.78-46.23-38.06-62.77-26.37-24.85-62.13-40.01-98.16-41.45 32.82 16.47 70.97 25.36 98.05 51.56 41.9 50.29 56.48 117.08 60.89 180.92 12.74-5.85 25.13-12.68 36.93-20.2-10.44-2.76-23.1 12.23-32.55 10.52 9.34-14.07 28.78-19.49 42.74-28.59-7.93-60.42-15.52-122.37-43.08-177.59-12.28-23.27-23.59-49.9-46.04-65.01-41.6-15.85-87.02-21.39-131.33-19.37m149.6 24.22c27.08 40.68 49.76 84.79 61.43 132.5 8.08 28.11 10.32 57.76 20.95 85.13 3.37 10.36-3.29 19.78-7.46 28.69 15.15-10.64 27.03-27.46 27.27-44.44-11.87-56.94-30.71-112.65-58.05-164.09-8.42-18.17-25.97-30.55-44.14-37.79m-524.74 21.5c-9.32 5.49-19.26 11.77-25.42 20.72 8.61-6.23 17.75-11.69 26.07-18.34 7.05-2.03 1.2-3.17-0.65-2.38m330.97 22.02c-3.84-0.16-7.41 0.34-10.69 1.5 15.8 4.25 32.53 2.91 48.5 0.27-10.85-5.33-25.74-0.79-37.81-1.77m-20.9 37.2c-33.45-0.5-65.07 11.06-97.14 18.76-22.32 6.92-43.46 18.32-59.7 35.37-29.01 31-55.09 66.38-67.52 107.47-9.31 25.55 0.74 52.26 2.4 78.25 2.28 8.19 0.95 23.83 12.52 23.6 29.24-1.41 58.18-6.35 87.08-10.84 91.74-13.08 184.03-21.81 276.25-30.77 18.88-1.06 38.06-4.73 56.62 0.5-2.21-55.77-25.8-107.21-49.06-156.91-9.16-18.22-17.66-39.29-37.02-49-38.4-18.67-82.82-18.04-124.43-16.43m293.27 14.6c3.89 12.73 8.7 25.55 15.1 37.19-2.96-13-7.42-26.41-15.1-37.19m-451.97 25.99c-46.86 17.99-79.41 59.8-99.18 104.48-13.87 41-6.23 85.17-3.53 127.34 13.53-1.03 26.96-3.37 40.54-3.94-12.91-38.41-18.43-81.83-7.08-121.43 15.16-40.07 46.65-70.96 69.25-106.45m318.9 4.15c10.75 23.3 21.12 47.23 33.34 69.61-6.17-24.8-15.04-51.37-33.34-69.61m159.45 94.22c-2.96 10.9-4 23.67-13.02 31.68-6.45 7.33-25.9 13.96-20.47 26.15 25.43-3.98 46.92-31.94 33.49-57.83m1.44 47.88c-12.57 7.02-28.46 14.48-36.28 25.38 14.44 2.06 37.61-6.04 41.28-23.05 0.92-3.01-2.77-3.22-5-2.33m-47.07 5.14c-11.33 3.49-23.2 6.49-33.45 12.67-2.17 1.46-1.01 4.91 1.54 5.13 12.07 4.47 30.99 4.3 35.19-10.68 0.49-3.05 3.61-10.62-3.28-7.12m26.13 51.87c-10.08 3.86-18.29 11.86-28.42 15.96-0.23 10.01 13.89 6.58 16.54-0.7 7.56-11.24 18.54 3.58 27.57 1.58 1.04-7.83-5.86-20.66-15.69-16.84m-133.1 10.16c-145.18 11.76-287.64 44.41-432.18 60.97-37.34-3.11-75.33 0.05-112.47 6.23-3.52 1.07-8.95 1.93-8.85 6.59-0.22 49.66-0.73 99.35 2.62 148.94 8.17 138.62 21.82 278.25 63.62 411.39 5.06 13.1 8.99 27.7 18.61 38.4 45.48 27.6 100.12 34.8 152.19 38.9 106.54-2.7 212.64-15.2 318.93-22.6 17.25-29.3 34.46-59 48.08-90.2 38.42-87.28 43.98-185 40.63-278.95-5.69-81.06-13.28-162.06-24.45-242.57-3.76-23.22-6.08-47.81-18.72-68.23-10.75-15.71-32.3-8.01-48.01-8.87m84.88-0.36c-5.7 4.13-1 13.04-0.44 18.75 19.64 70.67 24.44 144.03 33.52 216.46 1.94 5.29 0.36 14.49 5.28 17.52 23.82-15.38 45.93-33.24 69.2-49.45-1.76-13.7 1.25-30.54-4.08-42.46-20.6 15.46-41.31 33.91-65.72 44.16 16.84-23.59 51.07-32.85 62.8-59.87-19.79 4.38-38.55 12.78-58.29 17.46-2.76 0.78-8.64 2.26-9.73-1.82 16.57-23.35 47.8-33.22 63.8-56.03-15.43-0.82-28.62 15.8-45.22 16.64-6.75 1.42-23.76 5.36-21.02-5.75 14.67-13.35 33.81-20.49 48.72-33.47 6.6-5.6 4.27-14.64 4.01-22.09-18.75 6.19-36.14 17.92-56.12 19.73-10.12 2.56-14.9-12.76-6.91-17.81 9.5-4.44 18.85-11.41 21.88-21.92-8.21 2.95-20.41 6.95-24.38-4.35 0.03-12.51-2.9-33.3-17.3-35.7m146.49 13.9c2.16 45.94 8.63 91.56 16.21 136.89-0.41-44.24-6.05-93.96-16.21-136.89m-81.27 6.26c-13.25 2.52-27.19 0.68-40.02 5.16-2.64 2.27-8.47 8.18-3.12 10.29 16.56 2.32 31.13-6.97 45.42-13.62 4.37-1.41 3.06-4.34-2.28-1.83m22.64 2.98c-13.96 0.31-9.78 17.65-3 24.47 13.27 5.79 11.77-25.18 3-24.47m-20.9 6.91c-13.13 14.79-30.31 26.71-43.3 40.9 17.23 1.6 37.33-6.59 51.73-17.51 3.04-7.42-0.78-21.3-8.43-23.39m45.91 20.22c-1.55 12.74-1.69 26.78 5.59 37.9-1.21 11.53-11.72 21.17-7.38 34.02 6.7 51.6 19.19 103.01 28.46 153.71-6.54-67.74-10.14-135.83-19.9-203.22-1.42-7.07-4.32-18.11-6.77-22.41m-25.95 35.8c-12.92 10.38-28.11 18.38-39.34 30.68 14.13-3.37 27.59-10.14 38.94-19.18 1.99-2.46 5.69-11.61 0.4-11.5m6.8 34c-14.56 9.68-31.06 19.17-41.63 33.08 16.49-4.22 33.6-9.61 47.82-19.1 0.13-4.32-0.15-14.67-6.19-13.98m25 87.82c-5.11 21.46-0.44 45.7 2.87 67.81-1.08 9.25 13.18 14.32 7.22 23.2-7.93 9.43-12.21 28.79 2.61 34-18 18.22 0.62 42.33-7.54 63.35-3.24 47.3-1.88 95.98 0.32 142.56 30.74-96.66 13.69-198.65 2.4-297.09-2.47-10.68-1.84-25.89-7.88-33.83m-9.28 5.27c-24.49 14.48-48.89 30.27-69.68 49.88-4.4 4.72-6.64 19.09 0.51 20.68 22.63-13.1 44.7-27.72 65.52-43.6 9.31-5.93 7.21-20.02 3.65-26.96m-0.65 35.2c-23.24 14.74-48.11 27.49-68.83 45.82-5.58 5.95-8.04 20.34-0.42 24.59 24.35-12.23 48.38-25.81 72.35-38.87 1.92-9.31-0.24-23.84-3.1-31.54m1.27 39.88c-23.15 10.93-45.27 24.01-66.71 37.99 14.59-0.74 27.11-12.34 40.12-18.51 8.51-5.22 24.76-13.6 26.59-19.48m2.86 7.84c-22.15 13.37-42.82 29.52-67.38 38.59-6.14 0.56-5.4 6.97-5.73 11.39-1.49 31.71-3.75 63.45-2.95 95.19 0.65 5.5 6.9 0.7 9.51-0.67 22.37-14.47 44.63-29.65 64.46-47.48 5.7-3.29 4.43-14.57-3.87-11.23-18.79 3.75-34.7 16.13-53.45 19.98-9.68 1.66-5.35-10.13-0.72-12.87 16.38-20.69 47.08-25.39 60.55-48.37-20.53 1.73-39.34 13.57-60.15 12.68-1.59-2.35 0.26-5.24 2.09-6.79 18.08-15.73 42.44-22.68 59.2-40.13 1.42-2.65 2.81-10.77-1.56-10.29m-0.89 23.15c-10.64 6.46-22.6 11.86-30.65 21.66 9.8-3.17 20.41-3.4 29.96-7.26 2.48-2.95 7.29-15.1 0.69-14.4m0.92 35.9c-19.23 10.73-40.27 21.9-55.08 37.67 19.58-5.14 39.15-12.89 55.4-25.23 3.33-2.79 5.15-12.94-0.32-12.44m0.85 49c-17.71 9.55-34.31 22.27-49.13 35.78 15.87-4.55 31.58-9.98 47-15.88 7.48-2.54 7.88-17.62 2.13-19.9m-10.62 31.15c-18.48 3.5-34.75 15.41-53.85 16.29-22.09-5.19-18.11 25.17-16.73 36.98 24.36-10.35 46.91-26.6 68.94-41.68 4.72-2.01 13.58-15.82 1.64-11.59m8.09 12.82c-22.81 22.28-53.67 32.89-79.66 50.74-1.71 1.06-3.45 2.48-3.08 4.73 25.61-5.27 47.67-21.07 73.62-25.33 3.95-0.97 13.21-1.63 9.47 4.58-18.88 29.04-54.67 41.25-76.88 67.03 24.41-5.6 47.67-16.35 72.75-19.09 6.66-2.65 6.95 4.11 4.69 7.63-21.05 32.49-63.5 41.79-89.57 67.29 27.05-5.7 51.12-21.7 78.83-24.9 6.32-2.5 8.11 4.1 10.09 6.7 6.75-45.34 8.21-91.39 5.41-137.09-0.07-3.04-2.82-3.56-5.67-2.29m-16.07 37.16c-21.64 7.34-41.45 20.7-64.59 23.37-11.13 8.93-8.71 25.62-13.15 38.01 26.26-17.91 54.02-33.96 78.34-54.52 3.85-1.93 8.03-10.22-0.6-6.86m8.83 48.95c-26.22 9.14-52.44 20.73-80.66 21.18-7.71 0.76-9.08 9.69-11.9 15.29-10.04 26.6-19.55 53.5-33.85 78.2-5.23 11.2-13.64 21.7-15.92 33.9 32.45-1.8 64.9-7.1 95.92-16.9 4.07-3.1 14.69-3.3 13.62-10-26.11-0.1-49.04 16.9-75.08 17.7-3.15-0.8-2.91-3.3-0.82-5.2 27.16-8.7 49.72-27.1 73.38-42.4 13.46-10.4 31.26-21 34.6-38.9-35.23 4.8-67.46 29.5-103.87 24.1 23.97-17.4 48.64-33.9 75.03-47.45 12.63-7.2 26.95-15.44 31.81-30.08-0.56 0.14-1.69 0.42-2.26 0.56m-6.09 79.97c-18.11 14-37.06 27-57.39 37.8 11.08-0.3 25.7-3.2 37.48-6.5 9.87-7.3 16.77-22.1 19.91-31.3m4.09 15.9c-5.82 3.7-8.42 10.4-10.49 16.6 6.02-0.8 20-13.2 10.49-16.6m29.55 38.8c-21.8 7.9-19.04 35.3-4.35 46.7 5.82-13.3 10.46-35.4 4.35-46.7m-32.66 12.3c-14.94 8.6-31.67 13.7-46.34 22.6 5.8 2.3 4.46 11.1 8.95 12.9 15-5.3 26.82-17.1 37.73-28.3 2.27-1.4 3.78-8-0.34-7.2m-523.11 61.1c-3.09 0.4-6.33 0.2-9.3 1.2 28.31 3.7 58.49 8 86.37 1.2-24.65-4.6-51.67-0.2-77.07-2.4z"/>
<path id="path6" d="m566.54 454.54c7.89-4.39 8.18 6.37 0.4 4.52-139.9 26.37-280.67 48.39-421.94 66.07 58.55-13.69 120.44-22.07 180.66-31.47 80.16-13.87 160.57-26.24 240.88-39.12z"/>
<path id="path8" d="m507.35 494.37c3.47-1.85 6.96 4.52 2.6 5.56-20.19 7.27-41.68 9.99-62.61 14.42-88.91 15.76-178.09 30.36-267.88 40.17-11.06-0.16-23.13 3.2-33.53 0.73 120.32-20.93 242.72-30.92 361.42-60.88z"/>
<path id="path10" d="m434.72 537.42c26.25-0.47 52.75 2.61 78.61 7.22 29.26 10.88 38.19 45.94 36.44 74.01-6.19 44.15-28.32 83.76-48.36 122.83-4.63 7.19 1.5 14.24 4.48 20.64 34.72 64.59 76.3 126.05 101.84 195.17 2.21 8.86 8.66 25.03-5.2 27.37-77.03 16.54-156.2 20.54-233.53 35.34-11.76-1.2-15.85 13.2-27.07 12-10.08 2.8-10.14-10.7-18.08-12.9-8.87-4.7-21.93-5.3-26.58-15.5-0.32-7.51 3.44-14.48 6.04-21.31 22.19-49.72 39.31-101.48 57.1-152.88 6.57-22.34 15.17-44.64 15.56-68.2-1.17-9.76-9.73-16.14-17.91-20.26-12.93-6.33-21.62-18.46-28.11-30.9-7.29-14.9-24.32-24.93-23.53-43.41 0.23-38.48 25.31-71.73 51.97-97.25 22.85-16 50.85-21.53 76.33-31.97m45.95 34.09c-43.78 19.63-82.89 55.71-101.52 100.63-8.76 20.71 4.17 49.11 27.32 52.43 13.86 1.41 29.24 7.17 34.92 21.03 5.98 16.08 1.26 33.56-2.06 49.74-15.94 64.49-41.52 125.97-65.16 187.87 66.77-6.62 133.61-13.32 199.67-25.21-17.02-45.18-42.11-86.99-65.89-128.94-13.17-20.68-23.83-45.37-46.99-56.21-4.39-19.68-14.55-61.85 17.39-60.26 20.81-25.47 30.25-58.95 39.12-90.12 7.33-23.12-7.98-58.97-36.8-50.96m-140.18 26.95c-18.52 18.78-31.52 46.68-27.68 73.58 1.7 3.51 2.48 12.29 7.63 10.36 4.82-21.74 5.51-44.64 14.64-65.31 2.1-5.92 6.67-13.66 5.41-18.63m46.96 155.67c-7.11 22.14-11.36 46.77-17.57 69.86 10.15-17.88 16.89-38.22 22.04-58.16 1.29-3.61 2.05-13.44-4.47-11.7z"/>
</g>
</svg>
