<?xml version="1.0"?>
<svg width="150px" height="150px"  xmlns:rdf="http://www.w3.org/1999/02/22-rdf-syntax-ns#" xmlns="http://www.w3.org/2000/svg" xmlns:cc="http://web.resource.org/cc/" xmlns:dc="http://purl.org/dc/elements/1.1/" xmlns:sodipodi="http://inkscape.sourceforge.net/DTD/sodipodi-0.dtd" xmlns:svg="http://www.w3.org/2000/svg" id="Layer_1" style="enable-background:new 0 0 285.784 400.604" space="preserve" sodipodi:version="0.32" viewBox="0 0 285.784 400.604" version="1.1" sodipodi:docname="poltroncinaufficio.svg" sodipodi:docbase="F:\openclip\svg da inviare\02">
  <sodipodi:namedview id="base" bordercolor="#666666" borderopacity="1.0" pagecolor="#ffffff"/>
  <path id="path5" d="m155.1 298.24c0 5.79 0.23 11.57 0.23 17.37" stroke="#000" stroke-linecap="square" stroke-miterlimit="10" stroke-width="2" fill="none"/>
  <path id="path7" d="m90.208 306.24c0.346 2.88 0.23 5.78 0.23 8.68" stroke="#000" stroke-linecap="square" stroke-miterlimit="10" stroke-width=".2" fill="none"/>
  <path id="path9" d="m213.14 400.6c3.1-0.37 10.03 0.65 10.51-3.2 0.49-4.04-4.11-3.88-6.86-3.88-9.22 0-8.34-7.06-7.77-13.94 0.69-8.21-5.14-5.91-6.05 1.37-0.96 7.74 1.75 17.48 10.17 19.65" fill="#16b5f0" fill-rule="evenodd"/>
  <path id="path11" d="m69.873 397.4c7.511 0.43 26.46-6.39 23.877-16.68-0.439-1.74 1.62-2.63 1.484-4.11-0.114-1.25-1.025-1.99-1.142-2.74-0.221-1.41-2.913-5.23-1.827-7.31 0.954-1.84 9.315-3.54 11.425-4.34-3.768-7.22-12.886-6.06-19.423-3.89-7.403 2.46-10.211 5.16-7.426 12.57 3.111 8.28 0.952 14.7-5.369 19.65-1.886 1.48-6.793 6.75-1.599 6.85" fill="#16b5f0" fill-rule="evenodd"/>
  <path id="path13" sodipodi:nodetypes="csscscscccscscccccsssccsssssssssssssssssssssssssssscsssssssscccscssssssssscssssssssscssscsssccssssssssssscsssssscsssscssccccssscsscsssssscsssscsccscssssscsssssccsccsscssccsscsscc" d="m193.26 300.53v-13.17c0-0.8-11.05-1.64-12.43-1.81-8.66-1.02-17.39-1.87-25.96-3.53 0 1.3-0.53 9.74 0.31 9.87 4.32 0.67 8.63 1.34 12.94 2.01-4.03 0.9-8.06 1.81-12.09 2.71-2.46 0.55-0.64 7.13-0.47 9.4 12.11-3.42 25.68-3.26 37.7-5.48m-0.69 36.55c0-5.86 6.26-22.82-0.06-24.03-11.37-2.17-25.59-4.87-36.95-7.04 0 1.33-0.62 9.68 0.3 9.89 4.16 0.97 8.33 1.94 12.49 2.9-6.85 0.16-13.71 0.41-20.56 0.46 0.22-3.68 4.6-4.59 7.54-3.2-0.15-6.4-0.31-12.79-0.46-19.19-13.87 2.78-7.56-6.15 0-4.8 0-4.51 0.97-12.03-4.45-13.82-2.34-0.77-5.5 2.29-6.97 0.57-2.9-3.38 5.97-4.31 6.17-6.63 0.14-1.72-2.4-2.46-3.89-3.42 3.16-2.97 15.15-2.74 9.83-8.69 7.1-2.56 12.69-7.22 19.84-9.44 8.86-2.75 17.64-6.26 25.99-10.26 9.77-4.69 17.59-11 26.37-17.08 9.13-6.33 16.45-6.25 16.45-18.94 0-7.85-0.16-16.01-2.06-23.56-1.39-5.56-5.94-14.4-5.25-20.11 0.69-5.7 15.04-12.45 20.56-13.14 3.23-0.4 17.36-0.33 15.31-5.6-1.89-4.85-22.69-4.86-27.04-4.39-10.83 1.17-21 3.44-31.44 6.54-4.59 1.36-9.14 2.8-13.68 4.31-3.18 1.06-10.39 1.88-12.38 4.28-2.92 3.54 2.07 5.81 5.94 7.54 7.62 3.41 15.04 3.29 23.1 1.94 6.14-1.02 5.61 1.52 7.11 7.21 1.23 4.67 2.08 9.6 2.69 14.39 0.39 2.98 3.95 22.31 1.83 23.76-1.33 0.91-4.17-5.47-5.07-6.89-2.31-3.63-5.8-6.83-9.55-8.88-7.86-4.27-15.94-3.33-24.22-1.37-3.32 0.79-8.23 2.59-11.66 1.83-3.24-0.71-4.42-1.57-0.43-2.9 1.32-0.44 2.41-13.45 2.03-15.38-0.52-2.64-3.09-4.61-0.46-8.56 1.73-2.59 7.16-4.04 2.4-7.2-5.12-3.41-8.13-7.59-7.25-14.64 0.91-7.3-0.82-9.55 6.61-9.67 4.81-0.07 9.56-0.03 14.32-0.71 7.55-1.08 16.62-4.35 23-8.57-0.22 3.11-1.79 6.54 1.71 7.54 2.54 0.72 5.91 0.11 8.34-0.8 6.26-2.35 12.5-5.93 16.22-11.77 2.86-4.49 3.98-11.37 3.09-16.68-0.91-5.439-3.74-9.541-4.59-14.889-1.05-6.59-0.03-21.155-7-23.089-7.26-2.018-3.28 14.692-3.06 17.391 0.78 9.912 1.57 19.827 2.35 29.737 0.51 6.44-11.36 9.48-15.69 11.65 13.35-17.8 4.69-36.759 4.8-56.899 0.1-20.023 3.14-39.583-18.28-49.126-16.66-7.419-35.89-6.235-53.83-4.484-19.34 1.886-39.69 6.744-55.804 18.025-17.688 12.383-19.756 31.37-17.864 51.236 1.751 18.378-3.738 43.038 18.738 50.378 6.92 2.27 22 4.82 28.9 2.06 3.18-1.27 9.1-1.51 11.54 0.69 1.07 0.96 0.31 2.8 1.14 3.65 1.5 1.53 3.4 1.52 5.26 2.29 1.64 0.67 4.02-1.02 3.2 1.6-0.36 1.13-3.77 1.8-4.57 2.74-5.42 6.39 8.85 1.02 9.82 5.25 0.94 4.1-17.7 4.84-2.73 7.6 12.02 2.21-6.99 2.69-8.92 4.97-2.88 3.41 0.79 3.93 3.43 5.26 2.07 1.04 3.43-0.75 3.42 2.28 0 1.25-2.98 2.83-3.2 3.88-0.74 3.7 3 3.93 6.71 4.13 1.29 0.07 9.42-0.51 9.52 1.36 0.09 1.69-10.99 2.96-12.95 3.36-1.01 0.21-1.08 1.35-0.76 2.35 0.7 2.2 8.58 1.67 10.85 1.88 2.73 0.26 6.98-0.46 8.11 2-5.08 0.63-10.17 1.26-15.26 1.89-4.4 0.54-6.15 2.79-10.56 2.34-8.33-0.83-16.31-0.1-24.67-1.26-16.895-2.33-33.421 6.65-50.272 7.32 0.088-7.04-2.19-14.09-0.915-21.14 1.221-6.75 0.594-5.79 7.904-8.67 7.071-2.78 14.108-5.56 21.279-8.07 3.919-1.37 15.474-2.93 16.744-7.37-17.558-5.01-38.515-8.71-56.322-2.78-9.972 3.33-19.79 7.49-29.407 11.72-4.48 1.98-9.067 3.78-13.665 5.46-2.166 0.79-4.354 1.57-6.558 2.25-4.971 1.53-5.561 0.76-4.167 5.88 1.585 5.82 25.515 2.66 30.146 2.38 6.183-0.38 12.163-2.06 18.28-2.06 0.652 0 5.667 23.55 4.341 26.05-2.125 4-17.02 6.67-21.399 8.48-11.429 4.71-17.915 12.02-15.956 24.74 0.814 5.28 3.273 10.27 6.322 14.63 2.854 4.08 13.33 5.53 17.846 6.66 24.57 6.15 50.695-0.38 75.569 5.35-1.1 0.54-4.09 1.54-4.34 2.98-0.35 1.99 2.99 2.74 2.74 4.11-0.75 4-8.88 2.69-0.23 6.4 8.3 3.55-0.89 4.78-5.26 5.25-4.15 0.45-8.41 0.8-12.539 1.48-1.001 0.17-5.738 0.16-5.738 1v9.4c6.851-0.78 13.797-1.57 20.677-0.8 0.02 0 6.16 6.2 6.06 6.97-0.43 3.34-10.58 2.95-13.71 3.43-3.28 0.5-6.534 1.16-9.803 1.71-5.012 0.83-3.327 4.34-3.454 9.26 7.234-1.85 14.467-3.69 21.697-5.53 3.94-1 5.59 2.5 4.35 5.3-3.43 7.74-25.449 1.95-31.302 1.37 1.98-0.46 3.961-0.91 5.942-1.37-0.942-2.24-0.457-5.94-0.457-8.68-15.375 2.88-41.596 13.76-54.838 0.91 5.513-2.81 10.65-5.97 16.793-7.08 4.679-0.85 11.336 0.68 16.084 1.48 2.833 0.47 14.13 3.66 16.248 1.26 1.854-2.11-5.625-5.07-7.77-6.4 2.24 0.27 4.934-0.63 7.54-1.14 1.783-0.35 3.615-0.45 5.371-0.8 1.403-0.28 1.35-8.04 1.35-9.68-20.065 2.23-40.283 5.3-58.861 13.48-5.844 2.57-8.711 11.72-2.926 16.08 5.523 4.15 12.774 6.39 19.448 8.06 4.907 1.22 12.528 0.7 10.941 7.13-1.12 4.54-3.986 4.64-7.998 5.49-6.006 1.26-8.464 4.73-7.54 10.96 0.609 4.1 2.219 7-3.655 6.86 1.089 8.16 1.42 10.19-2.678 17.22-1.724 2.96-0.354 8.43 1.306 11.34 4.514 7.9 16.064 8.99 23.992 6.63 9.602-2.87 10.529-10.05 7.654-18.63-1.433-4.27-2.779-7.5-6.74-8.34 4.528-4.92 11.884-5.83 18.026-7.36 7.417-1.85 14.541-4.6 21.96-6.46 14.72-3.68 29.62-9.4 43.81-1.66 13.7 7.47 28.95 11.07 43.93 15.03 10.18 2.69 23.43 4.59 32.45 9.14-7.72 8.92-6.38 21.09 5.94 25.13 5.12 1.68 20.62-0.03 21.7-6.63 0.21-1.23-1.66-4.3-1.83-5.94-0.22-2.27 0.32-4.71 0.58-6.96 0.22-2-0.17-7.94 1.71-8.57 5.71-1.93 3.76 11.66 3.66 14.16 6.12-1.52 8.86-2.03 7.65-9.37-0.66-3.97-1.34-5.64-4.57-8.22-5.23-4.19 2.09-5.24 0.36-10.96-0.64-2.1-6.35-13.32-10.76-9.15-2.55 2.42 1.86 4.59 2.29 6.4 1.03 4.32-1.21 10.84-1.83 15.31-4.9-1.95-13.86-3.8-16.91-7.31 6.73-6.22 14.46-18.64 5.26-26.28-2.85-2.36-8.9-1.66-9.83-5.48 4.85-0.66 13.18-0.78 5.49-5.94 5.82-5.51 10.32-7.17 5.48-14.86-3.02-4.79-7.96-8.27-13.02-10.73-9.9-4.82-21.58-6.66-32.45-7.54 0 3.97-1.62 12.43 1.37 13.93 0.7 0.36 6.53-0.39 7.77-0.46 9.88-0.48 21.17 1.73 29.02 9.37-9.92 9.58-27.09 5.51-38.84 3.43v19.88c0 2.05-0.95 4.11 1.33 4.11h11.46c-0.49 2.11-0.72 10.72-3.82 9.78-7.29-2.23-14.58-4.45-21.87-6.68-1.48-0.45-6.95-1.23-4.47-3.1 2.68-2.01 13.83 0 17.37 0"/>
  <path id="path15" fill-rule="evenodd" fill="#fff" d="m76.955 339.37c1.564-1.37 0.645-0.89-0.685 0.23 0.409 0.06 1.035 0.19 0.685-0.23"/>
  <path id="path17" d="m253.58 323.38c3.77-0.97 3.43-4.56 3.43-7.82 0-7.32 2.33-15.18-3.74-20.03-10.94-8.76-23.47-13.58-37.29-15.46-1.32-0.18-2 0.64-2.16 1.95-0.3 2.48 2.33 2.53 4.32 3.32 6.24 2.5 13.16 4.29 18.76 8.1 5.94 4.04 8.28 9.82 10.97 16.22 1.32 3.16 3.35 12.61 5.71 13.72" fill="#16b5f0" fill-rule="evenodd"/>
  <path id="path19" d="m186.17 264.65c15.34-5.21 33.14-6.79 48.36-13.81 7.05-3.25 16.62-7.2 20.65-14.29 3.53-6.22 3.84-15.89 4.92-22.94 1.43-9.34 5.64-44.47-4.92-49.04-7.89-3.41-5.75 10.77-5.42 15.05 0.79 10.31 3.91 20.48 2.31 30.84-1.94 12.6-11.67 16.11-21.91 21.23-9.34 4.67-19.02 8.54-28.22 13.54-5.55 3.01-14.68 7.19-18.28 12.79-2.13 3.32-1.41 6.54 2.51 6.63" fill="#16b5f0" fill-rule="evenodd"/>
  <path id="path21" d="m91.807 239.75c5.397 1.27 11.633 0.24 16.883-1.15 9.42-2.51 19.69-1.3 29.36-1.99 6.02-0.44 0.42-6.15-1-8.29-2.04-3.05-4.21-5.94-7.66-7.42-1.57-0.68-3.71-0.34-5.14-1.26-7.54-4.84 6.54-3.39 9.83-2.4 5.35 1.61 10.54 5.74 15.76 6.97 6.44 1.51 18.12-6.22 24.75-8.74 9.05-3.44 18.37-6.27 27.35-9.77 3.45-1.34 12.34-4.86 6.17-7.31-5.81-2.31-15.79 1.84-21.51 2.83-9.98 1.72-19.81 2.18-29.93 1.82-9.73-0.35-21.43 1.58-30.78-0.76-9.74-2.43-20.62 1.42-30.198 2.96-7.719 1.25-15.552 2.18-23.192 4-10.02 2.39-19.935 5.4-29.79 8.36-4.691 1.4-16.96 1.19-18.879 6.95-0.911 2.73-2.569 7.62 0.741 8.68 8.179 2.6 15.951 1.16 24.279 0.12 7.581-0.95 16.216-1.99 22.938 2.5 5.138 3.42 13.79 3.6 20.018 3.9" fill="#003cff" fill-rule="evenodd"/>
  <path id="path23" d="m264.32 237.01c5.43 1.46 6.06-1.63 6.85-6.63 1.31-8.29 1.53-16.51 0.34-24.82-1.36-9.52-5.13 5.89-5.56 7.67-1.5 6.23-3.01 12.45-4.51 18.68-0.82 3.41-1.62 5.52 2.88 5.1" fill="#16b5f0" fill-rule="evenodd"/>
  <path id="path25" fill-rule="evenodd" fill="#fff" d="m158.76 168.92c2.89 0.07 5.78 0.15 8.68 0.22-2.76 0-6.34 0.25-8.68-0.22"/>
  <path id="path27" d="m281.46 147.67c5.87 0.37 4.27-9.69 3.65-13.71-0.36-2.36-0.18-3.42-3.46-6.1-5.27-4.3-21.85-10.92-28.07-5.33-7.02 6.31 11.69 6.87 14.41 7.38 5.22 0.97 7.14 2.37 9.58 7.25 1.28 2.56 2.18 10.34 3.89 10.51" fill="#16b5f0" fill-rule="evenodd"/>
  <path id="path29" d="m76.955 134.87c6.275 0.16 3.025-6.95 1.601-10.51-2.124-5.31-1.502-9.91-2.058-15.31-0.944-9.177-2.598-17.017-2.204-26.378 0.384-9.133 0.535-18.28 0.914-27.419 0.194-4.684 0.868-9.301 1.448-13.951 0.394-3.155 2.92-7.054-1.528-5.94-6.499 1.627-8.666 11.229-9.774 16.77-1.942 9.711-5.077 20.081-5.077 29.982 0 9.412 2.072 18.476 5.484 27.166 3.037 7.73 4.838 16.68 9.325 23.73 0.944 1.48 1.744 1.87 1.869 1.86" fill="#16b5f0" fill-rule="evenodd"/>
  <path id="path31" d="m103.46 126.64c20.62-1.4 41.06-0.68 61.71-0.68 16.14 0 46.67-1.15 52.42-20.34 2.35-7.821-0.71-19.928-2.85-27.643-2.68-9.608-5.88-19.703-9.37-29.019-2.86-7.643-8.07-17.953-14.82-22.866-8.08-5.879-21.05-5.438-30.65-4.553-23.89 2.201-62.621 13.051-68.981 39.574-3.292 13.732-2.555 27.826-0.953 41.737 0.622 5.4 1.737 10.15 3.213 15.34 1.875 6.6 2.552 8.62 10.281 8.45" fill="#003cff" fill-rule="evenodd"/>
  <path id="path33" fill-rule="evenodd" d="m111.46 107.22c5.39-1.37 8.39-6.09 11.64-10.144 1.69-2.125 3.62-4.026 5.65-5.83 3.23-2.873 3.11-3.408 3.91-8.211 0.52-3.076-8.17-17.994-9.78-18.083-7.35-0.409-7.76 19.211-8.68 22.849-0.81 3.185-7.45 18.099-2.74 19.419"/>
  <path id="path35" fill-rule="evenodd" d="m179.78 99.225c2.62 0.041 11.77-5.031 11.65-6.626-0.23-3.137-11.38-4.882-13.93-5.718-5.01-1.647-5.89-14.313-7.25-19.177-0.29-1.032-2.77-1.031-3.5-0.468-2.53 1.943-0.82 12.839 0.01 15.334 2.12 6.345 5.87 14.711 13.02 16.655"/>
  <path id="path37" d="m233.93 39.132c7.93 0.175-2.39-23.883-4.32-26.539-8.36-11.49-32.23-14.858-45.15-11.162-2.51 0.717-7.74 3.031-4.23 5.483 1.71 1.192 6.81-0.831 9.23-0.973 4.81-0.282 9.49 0.646 14.16 1.745 9.2 2.166 16.74 6.73 21.27 15.028 2.25 4.116 5.56 14.802 9.04 16.418" fill="#16b5f0" fill-rule="evenodd"/>
  <path id="path39" d="m82.21 27.479c4.627-3.79 8.48-9.994 14.397-11.768 7.703-2.309 1.425-2.594-2.973-1.714-4.239 0.85-23.239 12.715-11.424 13.482" fill="#16b5f0" fill-rule="evenodd"/>
  <metadata>
    <rdf:RDF>
      <cc:Work>
        <dc:format>image/svg+xml</dc:format>
        <dc:type rdf:resource="http://purl.org/dc/dcmitype/StillImage"/>
        <cc:license rdf:resource="http://creativecommons.org/licenses/publicdomain/"/>
        <dc:publisher>
          <cc:Agent rdf:about="http://openclipart.org/">
            <dc:title>Openclipart</dc:title>
          </cc:Agent>
        </dc:publisher>
        <dc:title>Architetto -- poltrona ufficio</dc:title>
        <dc:date>2010-03-23T11:16:37</dc:date>
        <dc:description>Drawing by Francesco 'Architetto' Rollandin. From OCAL 0.18 release.</dc:description>
        <dc:source>http://openclipart.org/detail/33397/architetto----poltrona-ufficio-by-anonymous</dc:source>
        <dc:creator>
          <cc:Agent>
            <dc:title>Anonymous</dc:title>
          </cc:Agent>
        </dc:creator>
        <dc:subject>
          <rdf:Bag>
            <rdf:li>chair</rdf:li>
            <rdf:li>clip art</rdf:li>
            <rdf:li>clipart</rdf:li>
            <rdf:li>furniture</rdf:li>
            <rdf:li>indoor</rdf:li>
            <rdf:li>office</rdf:li>
          </rdf:Bag>
        </dc:subject>
      </cc:Work>
      <cc:License rdf:about="http://creativecommons.org/licenses/publicdomain/">
        <cc:permits rdf:resource="http://creativecommons.org/ns#Reproduction"/>
        <cc:permits rdf:resource="http://creativecommons.org/ns#Distribution"/>
        <cc:permits rdf:resource="http://creativecommons.org/ns#DerivativeWorks"/>
      </cc:License>
    </rdf:RDF>
  </metadata>
</svg>
