<?xml version="1.0" encoding="utf-8"?>
<!-- Uploaded to SVGRepo https://www.svgrepo.com -->
<svg width="150px" height="150px"  version="1.2" baseProfile="tiny" id="_x31_" xmlns="http://www.w3.org/2000/svg" xmlns:xlink="http://www.w3.org/1999/xlink"
	 x="0px" y="0px" viewBox="-63 65 128 128" xml:space="preserve">
<path d="M19,73.3c2.5-5.3,8.8-7.6,14.1-5.1c5.3,2.5,7.6,8.8,5.1,14.1c-2.5,5.3-8.8,7.6-14.1,5.1S16.6,78.6,19,73.3z M56.3,112.3
	H37.9l-4.8-13c-1.6-4.1-4.8-7.6-9.3-9.2l-1.8-0.9c-4.1-2-8.7-1.8-12.5-0.2l-17.5,6.3c-1.2,0.3-2.2,1.3-2.8,2.5l-9.2,19.7
	c-1,2.4-0.1,5.1,2.2,6.2c2.4,1,5.1,0.1,6.2-2.2l8.4-18l10.2-3.7l-24,51.2h-22.1c-3.7,0-6.6,2.9-6.6,6.6s2.9,6.6,6.6,6.6h26.4
	c2.6,0,4.8-1.6,6-3.8l8.4-18L18,187.7c1.2,3.5,5.1,5.2,8.4,3.9c3.5-1.2,5.2-5.1,3.9-8.4l-17-46.9L26.5,108l3.9,10.7
	c0.7,1.7,2.4,3,4.4,3h21.6c2.5,0,4.6-2.1,4.6-4.6C60.9,114.5,58.7,112.3,56.3,112.3z M-28,99.5c7.8-7.2,8.3-19.5,1.1-27.2
	c-7.2-7.8-19.4-8.3-27.2-1.1s-8.3,19.4-1.1,27.2S-35.9,106.7-28,99.5z M-52.2,73.2c6.7-6.2,17-5.6,23.2,1c6.2,6.7,5.6,17-1,23.2
	c-6.7,6.2-17,5.6-23.1-0.9C-59.3,89.8-58.8,79.3-52.2,73.2z M-40.1,71.5h-2v13.4h-8.4v2h10.4V71.5z"/>
</svg>
