<svg viewBox="0 0 36 36" fill="none" xmlns="http://www.w3.org/2000/svg">
<path d="M5 14.5C5 22.508 11.492 29 19.5 29C27.5072 29 34 22.508 34 14.5C34 6.49278 27.5072 0 19.5 0C11.492 0 5 6.49278 5 14.5Z" fill="#FFCC4D"/>
<path d="M24 15C22.8954 15 22 13.8807 22 12.5C22 11.1193 22.8954 10 24 10C25.1046 10 26 11.1193 26 12.5C26 13.8807 25.1046 15 24 15Z" fill="#664500"/>
<path d="M15 15C13.8954 15 13 13.8807 13 12.5C13 11.1193 13.8954 10 15 10C16.1046 10 17 11.1193 17 12.5C17 13.8807 16.1046 15 15 15Z" fill="#664500"/>
<path d="M17.1908 22.5005C16.0783 22.1635 15 21.5548 15 20.4553C15 18.3127 19.0933 18.0272 19.56 18.0018C19.7884 17.9797 19.9842 18.1597 19.9992 18.3847C20.0134 18.6089 19.8409 18.8027 19.6125 18.8183C19.5834 18.8199 16.6667 19.0629 16.6667 20.4553C16.6667 21.8477 19.5834 22.0906 19.6125 22.0923C19.6234 22.0931 19.6317 22.0988 19.6425 22.1005C19.6867 22.1054 19.7275 22.1152 19.7667 22.134L19.7792 22.1414C19.8192 22.1635 19.855 22.1896 19.885 22.2232C19.8967 22.2354 19.9042 22.2485 19.9142 22.2616C19.9334 22.2878 19.9509 22.314 19.9642 22.3459C19.9742 22.3696 19.9792 22.3958 19.9842 22.4212C19.9875 22.44 19.9975 22.4572 19.9992 22.476C19.9992 22.485 19.9959 22.4931 19.9959 22.5013C19.9959 22.5095 20 22.5185 19.9992 22.5267C19.9984 22.5463 19.9884 22.5635 19.9842 22.5823C19.9792 22.6077 19.975 22.6322 19.965 22.6559C19.9542 22.6805 19.9392 22.7026 19.9242 22.7247C19.91 22.7443 19.8975 22.7656 19.8809 22.7828C19.8617 22.8016 19.8392 22.8163 19.8159 22.8327C19.7959 22.8466 19.7775 22.8605 19.7542 22.8711C19.7275 22.8834 19.6992 22.8883 19.67 22.8932C19.65 22.8981 19.6334 22.9079 19.6125 22.9096C19.5834 22.9104 16.6667 23.1533 16.6667 24.5457C16.6667 25.9381 19.5834 26.1811 19.6125 26.1827C19.8409 26.1991 20.0134 26.393 19.9992 26.6163C19.985 26.8331 19.8017 27 19.5834 27L19.56 26.9992C19.0933 26.9738 15 26.6883 15 24.5457C15 23.4462 16.0783 22.8376 17.1908 22.5005Z" fill="#664500"/>
<g clip-path="url(#clip0)">
<path d="M13.4471 25.1111H10V36C12.3333 36 13.8889 35.6111 14.4306 33.2719C14.7316 31.9723 15.0773 28.475 15.0773 26.3338C15.0773 25.6085 14.5201 25.1111 13.4471 25.1111ZM6.458 25.1111H10V36C7.66667 36 6.11111 35.6111 5.52195 33.2719C5.19606 31.9781 4.8515 28.475 4.8515 26.3338C4.8515 25.6085 5.38467 25.1111 6.458 25.1111Z" fill="#8899A6"/>
<path d="M15.0758 26.0833C15.0758 26.8887 13.8586 27.5417 9.99807 27.5417C6.13796 27.5417 4.92035 26.8887 4.92035 26.0833C4.92035 25.2776 6.13796 24.625 9.99807 24.625C13.8586 24.625 15.0758 25.2776 15.0758 26.0833Z" fill="#CCD6DD"/>
<path d="M10.0097 27.0544L5.534 26.6667C5.534 29.3889 5.96333 32.2597 6.18772 33.1113C6.44516 34.0871 7.27777 34.0482 10 34.0548V34.0556V34.0548C12.7222 34.0478 13.5646 34.0871 13.8216 33.1113C14.0464 32.2597 14.48 29.3889 14.48 26.6667L10.0097 27.0544Z" fill="#CCD6DD"/>
<path d="M10 30.1667V35.2222C12.7222 35.2222 13.5 34.8333 13.8333 33.1113C13.927 32.6279 14.1471 31.5266 14.2898 30.1667H10ZM5.72961 30.1667C5.87195 31.5266 6.08545 32.6272 6.17645 33.1113C6.5 34.8333 7.27778 35.2222 10 35.2222V30.1667H5.72961Z" fill="#55ACEE"/>
<path d="M10 33.7289C8.22822 33.7289 6.79205 34.0769 6.79205 34.5067C6.79205 34.5102 6.794 34.5137 6.79439 34.5176C7.33766 35.0659 8.28033 35.2222 10 35.2222C11.7162 35.2222 12.6584 35.0667 13.2048 34.5211C13.2052 34.5164 13.2079 34.5117 13.2079 34.5067C13.2079 34.0769 11.7718 33.7289 10 33.7289Z" fill="#3B88C3"/>
<path d="M9.99805 30.9444C12.364 30.9444 14.282 30.5962 14.282 30.1667C14.282 29.7371 12.364 29.3889 9.99805 29.3889C7.63206 29.3889 5.71405 29.7371 5.71405 30.1667C5.71405 30.5962 7.63206 30.9444 9.99805 30.9444Z" fill="#88C9F9"/>
<path d="M16.2059 22.364L13.5521 23.0239C13.2601 23.0967 12.9435 23.2483 12.6032 23.5058C11.9643 23.9892 11.834 24.6452 11.7298 25.0073L10.1322 30.5556H11.3463L12.8506 25.3304C12.9532 24.9742 13.0551 24.6686 13.2896 24.4558C13.4973 24.2676 13.8407 24.1568 14.1623 24.0736L16.4867 23.4968C16.7982 23.4194 16.9895 23.1017 16.9125 22.7902C16.8351 22.4783 16.5174 22.2866 16.2059 22.364Z" fill="#E1E8ED"/>
<path d="M10.1322 30.5556L9.09351 34.1633C9.00485 34.4717 9.18451 34.7964 9.49251 34.8854C9.8009 34.9741 10.1256 34.7944 10.2143 34.4864L11.3463 30.5556H10.1322Z" fill="#88C9F9"/>
<path d="M10.2493 30.8188L10.0206 30.9441L9.91446 31.3123L10.7179 32.7392L11.0197 31.6907L10.5293 30.8192L10.2493 30.8188Z" fill="#744EAA"/>
<path d="M13.8523 22.9493L13.4137 24.3676C13.6202 24.2326 13.8967 24.142 14.1631 24.0732L14.3318 24.0312L14.7343 22.7299L13.8523 22.9493Z" fill="#DD2E44"/>
<path d="M9.62861 32.3052L9.32645 33.354L10.0894 34.7093C10.1454 34.6463 10.1898 34.572 10.2147 34.4861L10.4317 33.732L9.62861 32.3052Z" fill="#744EAA"/>
<path d="M10.7964 28.2487L10.4943 29.2979L11.0313 30.2514L11.2149 30.2923L11.4583 30.1667L11.5999 29.6759L10.7964 28.2487ZM16.4147 22.3527C16.3467 22.3446 16.2763 22.3465 16.2059 22.364L15.5463 22.5281L15.1434 23.8297L16.025 23.6108L16.4147 22.3527ZM11.0854 27.2453L11.8888 28.6718L12.1906 27.6233L11.3875 26.1965L11.0854 27.2453ZM12.5873 23.5202C12.2769 23.7601 12.0875 24.0405 11.9647 24.3065L12.478 26.6274L12.8513 25.3304C12.877 25.241 12.903 25.1547 12.9307 25.0722L12.5873 23.5202Z" fill="#DD2E44"/>
<path d="M10.2578 30.1204L10.0206 30.9444C10.446 30.9441 10.8567 30.9324 11.2444 30.911L11.4719 30.1208C11.1072 30.3086 10.3465 30.1912 10.2578 30.1204Z" fill="#55ACEE"/>
<path d="M14.5169 26.3979C14.4228 26.1456 14.1459 26.0188 13.9009 26.1164C12.4986 26.6671 11.1616 26.8588 9.99806 26.8697V27.8388C11.2942 27.8256 12.7549 27.6144 14.242 27.0299C14.4882 26.9334 14.6114 26.6503 14.5169 26.3979ZM5.47917 26.3979C5.57328 26.1456 5.85017 26.0188 6.09517 26.1164C7.4975 26.6671 8.8345 26.8588 9.99806 26.8697V27.8388C8.70189 27.8256 7.24123 27.6144 5.75412 27.0299C5.50834 26.9334 5.38467 26.6503 5.47917 26.3979Z" fill="white"/>
</g>
<defs>
<clipPath id="clip0">
<rect x="3" y="22" width="14" height="14" fill="white"/>
</clipPath>
</defs>
</svg>
