<svg viewBox="0 0 36 36" fill="none" xmlns="http://www.w3.org/2000/svg">
<g clip-path="url(#clip0)">
<path d="M16 9V18.925C16 23.3851 19.5813 27 24 27C28.4187 27 32 23.3851 32 18.925V9.27993L16 9Z" fill="#F7DECE"/>
<path d="M21 23H28C28 23 27.125 25 24.5 25C21.875 25 21 23 21 23Z" fill="#C1694F"/>
<path d="M20.9 18C20.4032 18 20 17.552 20 17V16C20 15.448 20.4032 15 20.9 15C21.3968 15 21.8 15.448 21.8 16V17C21.8 17.552 21.3968 18 20.9 18ZM28.1 18C27.6032 18 27.2 17.552 27.2 17V16C27.2 15.448 27.6032 15 28.1 15C28.5968 15 29 15.448 29 16V17C29 17.552 28.5968 18 28.1 18Z" fill="#662113"/>
<path d="M25.5 21H23.5C23.224 21 23 20.776 23 20.5C23 20.224 23.224 20 23.5 20H25.5C25.776 20 26 20.224 26 20.5C26 20.776 25.776 21 25.5 21Z" fill="#C1694F"/>
<path d="M18.1664 16C18.1664 17.6568 17.458 19 16.5832 19C15.7084 19 15 17.6568 15 16C15 14.3432 15.7092 13 16.5832 13C17.4571 13 18.1664 14.3432 18.1664 16ZM34 16C34 17.6568 33.2916 19 32.4168 19C31.542 19 30.8336 17.6568 30.8336 16C30.8336 14.3432 31.542 13 32.4168 13C33.2916 13 34 14.3432 34 16Z" fill="#F7DECE"/>
<path d="M24 4C17.7695 4 15 8.29377 15 11.8725C15 15.4504 16.1921 16.4431 16.3848 15.4504C17.0771 11.8725 19.1543 10.7743 19.1543 10.7743C23.3085 14.3531 22.6161 11.4903 22.6161 11.4903C26.7695 15.784 24.6933 11.4903 24.6933 11.4903C26.078 12.9221 30.2314 12.9221 30.2314 12.9221C30.2314 12.9221 30.9238 14.0203 31.6152 15.4513C32.3076 16.8831 33 15.4513 33 11.8734C33 8.29377 29.5381 4 24 4Z" fill="#292F33"/>
<path d="M19.4737 6.66818C18.9364 6.31455 18.2128 6.46455 17.8591 7.00182L17.2727 7.89455V5.81818C17.2727 4.81364 16.4582 4 15.4546 4H11.8182C10.8145 4 10 4.81455 10 5.81818V13.0909C10 13.0909 10 14 10.9091 14H16.3637L17.2727 13.0909V12.1427L19.8082 8.28273C20.1618 7.74455 20.0128 7.02182 19.4737 6.66818Z" fill="#F7DECE"/>
<path d="M12 4H12.75V8H12V4ZM14.25 4H15V8H14.25V4Z" fill="#E0AA94"/>
<path d="M32.4138 28.0385H16.2759L17.1724 13H10V28.0385C10 28.0385 10 36 17.1724 36H36V31.5769C36 29.6228 34.3943 28.0385 32.4138 28.0385Z" fill="#4289C1"/>
<path d="M22 25V29C22 30.657 23.1192 32 24.5 32C25.8808 32 27 30.657 27 29V25H22Z" fill="#F7DECE"/>
<path d="M3.16202 8.31251C3.13352 8.70951 3.15652 11.266 3.15902 11.359C3.16102 11.4285 3.16552 11.4985 3.17202 11.57C3.48102 14.7925 6.14052 16.741 9.26552 16.2575C12.2965 15.7885 13.7345 13.5075 15.2345 12.0075C16.7345 10.5075 20.172 10.4135 20.6795 8.65601C20.796 8.25251 20.8415 7.87501 20.8265 7.52251C20.821 7.39451 20.897 5.00701 20.809 4.43801C20.64 3.34351 3.30502 6.33551 3.16202 8.31251Z" fill="#F4900C"/>
<path d="M18.641 1.42801C16.891 0.365515 14.159 0.285015 12.391 2.05301C10.891 3.55301 10.2695 3.97451 7.7695 4.47451C5.2695 4.97451 2.9535 6.24051 3.1725 8.52151C3.4815 11.744 6.141 13.6925 9.266 13.209C12.297 12.74 13.735 10.459 15.235 8.95901C16.735 7.45901 20.1725 7.36502 20.68 5.60751C21.2345 3.68651 20.182 2.36401 18.641 1.42801Z" fill="#FFCC4D"/>
<path d="M14.7435 6.80301C14.3293 6.80301 13.9935 6.46722 13.9935 6.05301C13.9935 5.6388 14.3293 5.30301 14.7435 5.30301C15.1577 5.30301 15.4935 5.6388 15.4935 6.05301C15.4935 6.46722 15.1577 6.80301 14.7435 6.80301Z" fill="#FFAC33"/>
<path d="M6.4935 12.397C6.21736 12.397 5.9935 12.1731 5.9935 11.897C5.9935 11.6209 6.21736 11.397 6.4935 11.397C6.76964 11.397 6.9935 11.6209 6.9935 11.897C6.9935 12.1731 6.76964 12.397 6.4935 12.397Z" fill="#FFAC33"/>
<path d="M12.4935 11.553C12.2174 11.553 11.9935 11.3292 11.9935 11.053C11.9935 10.7769 12.2174 10.553 12.4935 10.553C12.7696 10.553 12.9935 10.7769 12.9935 11.053C12.9935 11.3292 12.7696 11.553 12.4935 11.553Z" fill="#FFAC33"/>
<path d="M8.7435 12.147C8.32929 12.147 7.9935 11.8112 7.9935 11.397C7.9935 10.9828 8.32929 10.647 8.7435 10.647C9.15771 10.647 9.4935 10.9828 9.4935 11.397C9.4935 11.8112 9.15771 12.147 8.7435 12.147Z" fill="#FFAC33"/>
<path d="M5.08749 10.553C4.67328 10.553 4.33749 10.2172 4.33749 9.80301C4.33749 9.3888 4.67328 9.05301 5.08749 9.05301C5.50171 9.05301 5.83749 9.3888 5.83749 9.80301C5.83749 10.2172 5.50171 10.553 5.08749 10.553Z" fill="#FFAC33"/>
<path d="M6.4935 8.7095C6.21736 8.7095 5.9935 8.48565 5.9935 8.2095C5.9935 7.93336 6.21736 7.7095 6.4935 7.7095C6.76964 7.7095 6.9935 7.93336 6.9935 8.2095C6.9935 8.48565 6.76964 8.7095 6.4935 8.7095Z" fill="#FFAC33"/>
<path d="M8.4935 9.67801C8.21736 9.67801 7.9935 9.45415 7.9935 9.17801C7.9935 8.90187 8.21736 8.67801 8.4935 8.67801C8.76964 8.67801 8.9935 8.90187 8.9935 9.17801C8.9935 9.45415 8.76964 9.67801 8.4935 9.67801Z" fill="#FFAC33"/>
<path d="M11.2435 10.178C10.9674 10.178 10.7435 9.95415 10.7435 9.67801C10.7435 9.40187 10.9674 9.17801 11.2435 9.17801C11.5196 9.17801 11.7435 9.40187 11.7435 9.67801C11.7435 9.95415 11.5196 10.178 11.2435 10.178Z" fill="#FFAC33"/>
<path d="M13.9935 9.30301C13.9935 8.88901 14.3295 8.55301 14.7435 8.55301C14.9915 8.55301 15.21 8.67501 15.3465 8.86101C15.3095 8.89451 15.269 8.92451 15.2345 8.95951C14.9355 9.25851 14.6385 9.58851 14.3315 9.92901C14.1285 9.79501 13.9935 9.56501 13.9935 9.30301Z" fill="#FFAC33"/>
<path d="M16.2125 7.7095C15.9364 7.7095 15.7125 7.48565 15.7125 7.2095C15.7125 6.93336 15.9364 6.7095 16.2125 6.7095C16.4886 6.7095 16.7125 6.93336 16.7125 7.2095C16.7125 7.48565 16.4886 7.7095 16.2125 7.7095Z" fill="#FFAC33"/>
<path d="M12.9935 8.2095C12.7174 8.2095 12.4935 7.98565 12.4935 7.7095C12.4935 7.43336 12.7174 7.2095 12.9935 7.2095C13.2696 7.2095 13.4935 7.43336 13.4935 7.7095C13.4935 7.98565 13.2696 8.2095 12.9935 8.2095Z" fill="#FFAC33"/>
<path d="M8.7435 6.55301C8.32929 6.55301 7.9935 6.21722 7.9935 5.80301C7.9935 5.3888 8.32929 5.05301 8.7435 5.05301C9.15771 5.05301 9.4935 5.3888 9.4935 5.80301C9.4935 6.21722 9.15771 6.55301 8.7435 6.55301Z" fill="#FFAC33"/>
<path d="M10.4935 8.4595C10.0793 8.4595 9.7435 8.12372 9.7435 7.7095C9.7435 7.29529 10.0793 6.9595 10.4935 6.9595C10.9077 6.9595 11.2435 7.29529 11.2435 7.7095C11.2435 8.12372 10.9077 8.4595 10.4935 8.4595Z" fill="#FFAC33"/>
<path d="M14.9935 4.55301C14.7174 4.55301 14.4935 4.32915 14.4935 4.05301C14.4935 3.77687 14.7174 3.55301 14.9935 3.55301C15.2696 3.55301 15.4935 3.77687 15.4935 4.05301C15.4935 4.32915 15.2696 4.55301 14.9935 4.55301Z" fill="#FFAC33"/>
<path d="M10.7435 5.05301C10.4674 5.05301 10.2435 4.82915 10.2435 4.55301C10.2435 4.27687 10.4674 4.05301 10.7435 4.05301C11.0196 4.05301 11.2435 4.27687 11.2435 4.55301C11.2435 4.82915 11.0196 5.05301 10.7435 5.05301Z" fill="#FFAC33"/>
<path d="M13.7435 3.42801C13.4674 3.42801 13.2435 3.20415 13.2435 2.92801C13.2435 2.65187 13.4674 2.42801 13.7435 2.42801C14.0196 2.42801 14.2435 2.65187 14.2435 2.92801C14.2435 3.20415 14.0196 3.42801 13.7435 3.42801Z" fill="#FFAC33"/>
<path d="M17.2125 5.80301C16.9364 5.80301 16.7125 5.57915 16.7125 5.30301C16.7125 5.02687 16.9364 4.80301 17.2125 4.80301C17.4886 4.80301 17.7125 5.02687 17.7125 5.30301C17.7125 5.57915 17.4886 5.80301 17.2125 5.80301Z" fill="#FFAC33"/>
<path d="M17.9935 2.92801C17.7174 2.92801 17.4935 2.70415 17.4935 2.42801C17.4935 2.15187 17.7174 1.92801 17.9935 1.92801C18.2696 1.92801 18.4935 2.15187 18.4935 2.42801C18.4935 2.70415 18.2696 2.92801 17.9935 2.92801Z" fill="#FFAC33"/>
<path d="M6.71249 6.55301C6.43635 6.55301 6.21249 6.32915 6.21249 6.05301C6.21249 5.77687 6.43635 5.55301 6.71249 5.55301C6.98864 5.55301 7.21249 5.77687 7.21249 6.05301C7.21249 6.32915 6.98864 6.55301 6.71249 6.55301Z" fill="#FFAC33"/>
<path d="M4.33749 8.2095C4.06135 8.2095 3.83749 7.98565 3.83749 7.7095C3.83749 7.43336 4.06135 7.2095 4.33749 7.2095C4.61364 7.2095 4.83749 7.43336 4.83749 7.7095C4.83749 7.98565 4.61364 8.2095 4.33749 8.2095Z" fill="#FFAC33"/>
<path d="M19.3685 5.05301C18.9543 5.05301 18.6185 4.71722 18.6185 4.30301C18.6185 3.8888 18.9543 3.55301 19.3685 3.55301C19.7827 3.55301 20.1185 3.8888 20.1185 4.30301C20.1185 4.71722 19.7827 5.05301 19.3685 5.05301Z" fill="#FFAC33"/>
<path d="M15.7125 2.67801C15.2983 2.67801 14.9625 2.34222 14.9625 1.92801C14.9625 1.5138 15.2983 1.17801 15.7125 1.17801C16.1267 1.17801 16.4625 1.5138 16.4625 1.92801C16.4625 2.34222 16.1267 2.67801 15.7125 2.67801Z" fill="#FFAC33"/>
<path d="M12.7435 5.30301C12.3293 5.30301 11.9935 4.96722 11.9935 4.55301C11.9935 4.1388 12.3293 3.80301 12.7435 3.80301C13.1577 3.80301 13.4935 4.1388 13.4935 4.55301C13.4935 4.96722 13.1577 5.30301 12.7435 5.30301Z" fill="#FFAC33"/>
<path d="M11.2435 12.053C11.4475 12.053 11.6325 12.135 11.7675 12.2675C11.3825 12.5105 10.9625 12.7215 10.502 12.889C10.4985 12.8605 10.4935 12.8325 10.4935 12.803C10.4935 12.389 10.8295 12.053 11.2435 12.053ZM18.6185 6.80301C18.6185 6.52701 18.8425 6.30301 19.1185 6.30301C19.3895 6.30301 19.6075 6.51951 19.6155 6.78851C19.37 6.93251 19.0985 7.06301 18.808 7.18601C18.6955 7.09401 18.6185 6.96001 18.6185 6.80301Z" fill="#FFAC33"/>
</g>
<defs>
<clipPath id="clip0">
<rect width="36" height="36" fill="white"/>
</clipPath>
</defs>
</svg>
