<svg viewBox="0 0 36 36" fill="none" xmlns="http://www.w3.org/2000/svg">
<path d="M26 6C20.4772 6 16 9.48222 16 13.7778C16 16.2044 17.43 18.3711 19.6689 19.7972C19.3778 21.08 18.6994 22.9828 17.1111 24.8889C20.31 24.3556 22.3556 22.7994 23.62 21.3244C24.3844 21.47 25.1783 21.5556 26 21.5556C31.5228 21.5556 36 18.0733 36 13.7778C36 9.48222 31.5228 6 26 6Z" fill="#8CCAF7"/>
<path d="M14.98 26.5435C17 28.5 17.0215 32.0105 16.5105 32.0105C15.9995 32.0105 14.453 31.0845 13.4765 30.042C12.5 29 12.6015 26.653 12.6015 26.653L13.3945 24.4935C13.3945 24.493 12.96 24.587 14.98 26.5435Z" fill="#963B22"/>
<path d="M13.48 26.5435C15.5 28.5 15.5215 32.0105 15.0105 32.0105C14.4995 32.0105 12.953 31.0845 11.9765 30.042C11 29 11.1015 26.653 11.1015 26.653L11.8945 24.4935C11.8945 24.493 11.46 24.587 13.48 26.5435ZM1.50001 32C1.00001 32 1.00001 28.5 3.00001 26.5C5.00001 24.5 4.50001 24.5 4.50001 24.5L5.50001 26.5C5.50001 26.5 5.50001 29 4.50001 30C3.50001 31 2.00001 32 1.50001 32Z" fill="#963B22"/>
<path d="M3.00001 32C2.50001 32 2.50001 28.5 4.50001 26.5C6.50001 24.5 6.00001 24.5 6.00001 24.5L7.00001 26.5C7.00001 26.5 7.00001 29 6.00001 30C5.00001 31 3.50001 32 3.00001 32Z" fill="#963B22"/>
<path d="M3.457 24.1765C3.1715 23.1095 2.399 22.389 1.732 22.568C1.065 22.747 0.756998 23.757 1.0425 24.8235C1.328 25.891 2.1005 26.6105 2.7675 26.432C3.4345 26.253 3.743 25.243 3.457 24.1765ZM16.9575 24.8235C17.243 23.7565 16.9345 22.7465 16.2675 22.5675C15.601 22.3895 14.8285 23.109 14.543 24.1765C14.257 25.2435 14.5655 26.253 15.2325 26.432C15.8995 26.611 16.672 25.8905 16.9575 24.8235Z" fill="#D5AB88"/>
<path d="M15.5 24.5C15.5 19.8055 12.59 16.5 9 16.5C5.41 16.5 2.5 19.8055 2.5 24.5C2.5 29.1945 5.41 32 9 32C12.59 32 15.5 29.1945 15.5 24.5Z" fill="#D5AB88"/>
<path d="M9.00001 28.8255C7.79001 28.8255 6.86302 28.482 6.82402 28.468C6.56552 28.371 6.43452 28.0825 6.53202 27.824C6.62902 27.5655 6.91652 27.4345 7.17502 27.5315C7.18302 27.5345 7.98002 27.8255 9.00001 27.8255C10.0205 27.8255 10.8175 27.5345 10.825 27.5315C11.083 27.4345 11.372 27.567 11.4675 27.825C11.564 28.0835 11.434 28.371 11.1755 28.468C11.137 28.4825 10.2105 28.8255 9.00001 28.8255Z" fill="#DF1F32"/>
<path d="M9.5 26.5H8.5C8.224 26.5 8 26.2765 8 26C8 25.7235 8.224 25.5 8.5 25.5H9.5C9.7765 25.5 10 25.7235 10 26C10 26.2765 9.7765 26.5 9.5 26.5Z" fill="#C1694F"/>
<path d="M6 25C5.724 25 5.5 24.7765 5.5 24.5V23.5C5.5 23.224 5.724 23 6 23C6.276 23 6.5 23.224 6.5 23.5V24.5C6.5 24.7765 6.276 25 6 25ZM12 25C11.7235 25 11.5 24.7765 11.5 24.5V23.5C11.5 23.224 11.7235 23 12 23C12.2765 23 12.5 23.224 12.5 23.5V24.5C12.5 24.7765 12.2765 25 12 25Z" fill="#662113"/>
<path d="M16 20C15 16.5 12.5 15.5 11 15.5C9.99999 15.5 8.99999 16.5 8.99999 16.5C8.99999 16.5 7.99999 15.5 6.99999 15.5C5.49999 15.5 2.99999 16.5 1.99999 20C1.17599 22.8845 2.49999 25.5 2.49999 25.5C2.49999 23.9995 3.49999 21 5.99999 21C8.49999 21 8.99999 19 8.99999 19C8.99999 19 9.39299 21 11.893 21C14.393 21 15.5 24 15.5 25.5C15.5 25.5 16.824 22.8845 16 20Z" fill="#963B22"/>
<path d="M20.9169 13.9611H20.4909C20.1444 13.9611 20 13.7174 20 13.4806C20 13.237 20.1805 13 20.4909 13H21.5161C21.8267 13 22 13.2158 22 13.4943V17.4569C22 17.8053 21.769 18 21.4583 18C21.1479 18 20.9169 17.8053 20.9169 17.4569V13.9611Z" fill="white"/>
<path d="M26.5162 15.0884C26.7891 15.0884 27 15.2265 27 15.5441C27 15.8619 26.7891 16 26.5536 16H24.4834C24.2107 16 24 15.8619 24 15.5441C24 15.3993 24.0806 15.2748 24.1425 15.1919C24.6569 14.5084 25.2148 13.8868 25.686 13.127C25.7976 12.9475 25.9029 12.7333 25.9029 12.4847C25.9029 12.2016 25.7108 11.953 25.4565 11.953C24.7437 11.953 25.0847 13.0718 24.4896 13.0718C24.1921 13.0718 24.037 12.8371 24.037 12.5676C24.037 11.6976 24.7313 11 25.4937 11C26.2563 11 26.8697 11.5595 26.8697 12.4364C26.8697 13.3961 25.9091 14.3494 25.3822 15.0882H26.5162V15.0884Z" fill="white"/>
<path d="M31.7561 10.2432C31.7561 10.6713 31.5917 11.0448 31.2562 11.2825C31.6952 11.5069 32 11.962 32 12.4985C32 13.3138 31.3294 14 30.4634 14C29.5609 14 29 13.2595 29 12.7229C29 12.458 29.2502 12.2678 29.4696 12.2678C29.8842 12.2678 29.7867 13.0627 30.4758 13.0627C30.7928 13.0627 31.0491 12.791 31.0491 12.4308C31.0491 11.4797 30.0123 12.1795 30.0123 11.3779C30.0123 10.6647 30.878 11.1469 30.878 10.3928C30.878 10.1345 30.7136 9.93751 30.439 9.93751C29.8598 9.93751 29.9391 10.6031 29.5243 10.6031C29.2744 10.6031 29.128 10.3518 29.128 10.1005C29.128 9.57075 29.7804 9 30.4573 9C31.3356 9 31.7561 9.71338 31.7561 10.2432Z" fill="white"/>
</svg>
