<svg viewBox="0 0 36 36" fill="none" xmlns="http://www.w3.org/2000/svg">
<path d="M27.875 26H15.875C12.562 26 8.75 28.186 8.75 31.5V36H34.75V31.5C34.75 28.186 31.19 26 27.875 26Z" fill="#292F33"/>
<path d="M21.75 25.917L15.562 26.518L21.75 34.563L26.979 26.518L21.75 25.917Z" fill="#F6DDCD"/>
<path d="M21.749 36H30.75C34.75 32.5 35.833 29.5 35.833 29.5C35.833 29.5 32.5 26 26.062 24.854C26.062 26.078 27.05 27.986 27.05 27.986L21.749 34.562V36Z" fill="#A88DC1"/>
<path d="M21.749 36H12.748C8.74801 32.5 7.66501 29.5 7.66501 29.5C7.66501 29.5 10.998 26 17.436 24.854C17.436 26.078 16.448 27.986 16.448 27.986L21.749 34.562V36Z" fill="#A88DC1"/>
<path d="M33 27.406C33 27.406 31.047 26.078 28.844 25.344C25.786 24.325 26.469 27.164 26.469 27.164C26.469 27.164 22.649 33.198 21.749 34.563C21.749 34.563 28.283 29.133 33 27.406ZM10.498 27.406C10.498 27.406 12.451 26.078 14.654 25.344C17.712 24.325 17.029 27.164 17.029 27.164C17.029 27.164 20.849 33.198 21.749 34.563C21.749 34.563 15.215 29.133 10.498 27.406Z" fill="#7355A2"/>
<path d="M21.75 34.563C21.75 34.563 29.083 27.084 33.875 26.209C29.792 22.792 23.75 23.167 23.75 23.167C23.75 24.391 25.238 25.035 25.238 26.549C25.238 29.034 22.648 32.752 21.749 34.116L21.75 34.563Z" fill="#522E8D"/>
<path d="M21.748 34.563C21.748 34.563 14.415 27.084 9.62299 26.209C13.706 22.792 19.748 23.167 19.748 23.167C19.748 24.391 18.26 25.035 18.26 26.549C18.26 29.034 20.85 32.752 21.749 34.116L21.748 34.563Z" fill="#522E8D"/>
<path d="M18.25 26.518C19.716 27.583 21.042 27.498 21.75 27.498C22.458 27.498 23.944 27.583 25.238 26.549L25.25 22.409H18.25V26.518Z" fill="#F6DDCD"/>
<path d="M18.25 24.155C19.225 25.257 20.435 25.555 21.749 25.555C23.064 25.555 24.275 25.257 25.25 24.155V21.354H18.25V24.155Z" fill="#ECC0AC"/>
<path d="M30.877 21.749C30.702 22.118 30.343 22.488 30.141 22.679C32.11 23.106 33.5 23.625 33.5 23.625C33.5 23.625 33.017 22.963 32.806 21.75C32.732 21.328 32.415 20.924 32.348 20.375C32.269 19.724 32.184 18.982 32.14 18.167C32.088 17.216 32.019 16.358 32.057 15.209C32.346 6.319 25.801 3.979 21.697 3.979C17.593 3.979 10.459 6.036 10.748 14.926C10.785 16.075 10.767 17.132 10.716 18.083C10.672 18.898 10.603 19.636 10.523 20.288C10.456 20.837 10.382 21.325 10.308 21.747C10.096 22.96 9.89099 23.626 9.89099 23.626C9.89099 23.626 16.797 21.034 21.696 22.668C23.93 21.923 26.577 22.059 28.801 22.426C29.148 22.328 30.238 22.018 30.877 21.749Z" fill="#F4ABBA"/>
<path d="M21.695 4.064C17.16 4.064 13.484 8.79299 13.484 14.627C13.484 15.985 13.69 17.263 14.053 18.432C14.102 18.589 14.152 18.744 14.206 18.896C14.443 19.559 14.735 20.18 15.072 20.755C15.278 21.107 15.501 21.441 15.741 21.755C17.237 23.714 19.349 24.912 21.695 24.912C26.228 24.912 29.904 20.46 29.904 14.627C29.904 8.79299 26.228 4.064 21.695 4.064Z" fill="#F6DDCD"/>
<path d="M19.766 14.133L22.347 10.443L17.985 8.668L14.052 18.432C14.101 18.589 14.151 18.744 14.205 18.896L16.151 18.098L15.071 20.755C15.277 21.107 15.5 21.441 15.74 21.755L22.562 13.519L19.766 14.133Z" fill="#DD2E44"/>
<path d="M21.695 22.452C20.089 22.452 19.248 21.658 19.158 21.567C18.89 21.3 18.89 20.867 19.158 20.6C19.424 20.335 19.85 20.333 20.119 20.593C20.154 20.625 20.67 21.084 21.695 21.084C22.733 21.084 23.25 20.611 23.271 20.592C23.544 20.336 23.974 20.344 24.234 20.611C24.494 20.88 24.494 21.302 24.23 21.566C24.141 21.658 23.301 22.452 21.695 22.452Z" fill="#DE2032"/>
<path d="M22.586 19.409H20.896C20.663 19.409 20.473 19.22 20.473 18.986V18.833C20.473 18.6 20.662 18.409 20.896 18.409H22.586C22.819 18.409 23.01 18.599 23.01 18.833V18.986C23.01 19.22 22.819 19.409 22.586 19.409Z" fill="#C1694F"/>
<path d="M25.123 16.796C24.658 16.796 24.277 16.415 24.277 15.949V15.104C24.277 14.639 24.658 14.258 25.123 14.258C25.588 14.258 25.969 14.639 25.969 15.104V15.949C25.969 16.415 25.588 16.796 25.123 16.796ZM18.358 16.796C17.893 16.796 17.512 16.415 17.512 15.949V15.104C17.512 14.639 17.893 14.258 18.358 14.258C18.824 14.258 19.205 14.639 19.205 15.104V15.949C19.205 16.415 18.824 16.796 18.358 16.796Z" fill="#662213"/>
<path d="M32.681 17.022C32.684 15.909 32.684 15.753 32.684 14.707C32.684 12.47 32.25 10.587 31.537 9.021C31.919 9.097 32.382 9.16 32.781 9.115C32.002 8.559 30.869 7.529 30.427 7.121C28.067 3.851 24.35 2.5 21.736 2.5C17.982 2.5 11.953 5.239 10.949 12.511L10.934 12.4C10.934 12.4 10.094 14.442 9.47299 15.514C9.94799 15.359 10.447 15.019 10.789 14.756C10.787 15.488 10.771 16 10.798 17.909H11.518C11.497 16.909 11.474 17.685 11.474 17.444C11.474 14.022 13.527 17.938 13.527 15.501C13.527 13.063 14.895 12.818 16.263 11.45C16.594 11.119 17.084 10.635 17.503 10.223C18.899 10.855 20.771 11.332 23.237 11.451C23.475 11.52 25.084 12.025 26.356 13.354C26.314 12.497 25.972 11.922 25.752 11.633C27.699 12.032 28.899 13.358 29.158 15.604L29.169 15.676C29.155 16.05 29.049 17.459 28.255 18.776C28.941 18.553 29.355 18.157 29.569 17.895C30.774 22.67 33.501 23.627 33.501 23.627C32.946 21.213 32.751 18.797 32.681 17.022Z" fill="#F4ABBA"/>
<path d="M15.194 14.845C15.194 16.293 14.46 17.467 13.555 17.467C12.65 17.467 11.916 16.293 11.916 14.845C11.916 13.397 12.65 12.222 13.555 12.222C14.46 12.222 15.194 13.397 15.194 14.845Z" fill="#F6DDCD"/>
<path d="M21.5 1.47223C16.2074 1.47223 11.9167 5.76301 11.9167 11.0556V16.8056H13.8333V11.0556C13.8333 6.58334 17.1996 3.26878 21.5 3.26878C25.7997 3.26878 29.1667 6.58334 29.1667 11.0556V17.4445L31.0833 16.8056V11.0556C31.0833 5.76301 26.7925 1.47223 21.5 1.47223Z" fill="#66757F"/>
<path d="M13.8333 18.7222C13.8333 19.4276 13.2609 20 12.5556 20H11.2778C10.5724 20 10 19.4276 10 18.7222V12.9722C10 12.2669 10.5724 11.6945 11.2778 11.6945H12.5556C13.2609 11.6945 13.8333 12.2669 13.8333 12.9722V18.7222ZM33 18.7222C33 19.4276 32.4276 20 31.7222 20H30.4444C29.7391 20 29.1667 19.4276 29.1667 18.7222V12.9722C29.1667 12.2669 29.7391 11.6945 30.4444 11.6945H31.7222C32.4276 11.6945 33 12.2669 33 12.9722V18.7222Z" fill="#31373D"/>
<path d="M6.94998 2.00586L4.74876 2.46198C4.59311 2.49429 4.46582 2.65096 4.46582 2.81075V8.43317C4.24515 8.35432 4.00199 8.30812 3.74396 8.30812C2.78067 8.30812 2 8.91778 2 9.67056C2 10.4226 2.78101 11 3.74396 11C4.6903 10.9993 5.4765 10.3375 5.50348 9.64277V4.22009L6.95759 3.91717C7.11289 3.88487 7.23291 3.72785 7.23291 3.5684V2.23722C7.23291 2.07812 7.10562 1.97356 6.94998 2.00586ZM9.71706 3.10047L8.23079 3.40096C8.07514 3.43327 7.92468 3.58994 7.92468 3.74939V7.71131C7.92468 7.65851 7.621 7.62794 7.44044 7.62794C6.74037 7.62794 6.18384 8.0712 6.18384 8.61868C6.18384 9.16546 6.75732 9.60907 7.45774 9.60907C8.15816 9.60907 8.72956 9.16546 8.72956 8.61868L8.72472 4.69809L9.71706 4.49036C9.87271 4.45805 10 4.30138 10 4.14193V3.33252C10 3.17308 9.87271 3.06851 9.71706 3.10047Z" fill="#55ACEE"/>
</svg>
