<svg viewBox="0 0 36 36" fill="none" xmlns="http://www.w3.org/2000/svg">
<path d="M28 25V12C28 11.448 27.553 11 27 11H3C2.448 11 2 11.448 2 12V25H28Z" fill="#8CCAF7"/>
<path d="M3 31H16V24H2V30C2 30.553 2.448 31 3 31Z" fill="#5DADEC"/>
<path d="M16 24V31H27C27.553 31 28 30.553 28 30V24H16Z" fill="#292F33"/>
<path d="M17 22C16.387 22 16.148 23.127 15.595 24C15.246 24.55 14.773 25 14 25C12 25 12 28 11 28C9.74399 28 8.48799 29.578 7.72699 31H16C16.879 29.242 17.761 27.486 20 27.087C20.307 27.032 20.638 27 21 27C24 27 24.106 25.447 25 25C26.358 24.321 27.251 24.563 28 24.789V22H17Z" fill="#67757F"/>
<path d="M22 14L18 18V22H26V18L22 14Z" fill="#E75A70"/>
<path d="M26 19C25.744 19 25.488 18.902 25.293 18.707L22 15.414L18.707 18.707C18.316 19.098 17.684 19.098 17.293 18.707C16.902 18.316 16.902 17.684 17.293 17.293L21.293 13.293C21.684 12.902 22.316 12.902 22.707 13.293L26.707 17.293C27.098 17.684 27.098 18.316 26.707 18.707C26.512 18.902 26.256 19 26 19Z" fill="#292F33"/>
<path d="M20 19H22V22H20V19Z" fill="#BB1A34"/>
<path d="M14.219 17.125C14.219 16.089 13.38 15.25 12.344 15.25C12.265 15.25 12.189 15.264 12.112 15.273C12.14 15.144 12.156 15.012 12.156 14.875C12.156 13.839 11.317 13 10.281 13C9.613 13 9.03 13.352 8.698 13.878C8.49 13.798 8.267 13.75 8.031 13.75C7.079 13.75 6.301 14.463 6.18 15.382C5.969 15.299 5.741 15.25 5.5 15.25C4.464 15.25 3.625 16.089 3.625 17.125C3.625 18.161 4.464 19 5.5 19C5.541 19 5.58 18.99 5.621 18.988L5.625 19H12.375V18.997C13.396 18.98 14.219 18.15 14.219 17.125Z" fill="white"/>
<path d="M25.24 8.81481C25.2118 9.14775 25.3559 9.24742 25.5816 9.40559C25.8047 9.56195 27.1643 8.37028 27.6088 8.189C28.0534 8.00773 32.2264 7.12409 32.0455 6.31736C31.8645 5.51064 30.6035 5.39148 29.6321 5.55614C28.6608 5.72081 26.8018 6.5752 26.2587 7.03634C25.7155 7.49711 25.24 8.81481 25.24 8.81481ZM28.3535 9.35539C28.3535 9.35539 27.069 9.77247 27.069 10.8558C27.069 11.9391 27.3817 12.5501 27.5298 12.8466C27.6782 13.1427 28.1393 13.4302 28.7774 13.1539C29.5184 12.8329 28.6001 10.9858 30.9441 11.8337C32.018 12.2219 33.132 12.7466 34.2154 12.3855C35.2431 12.0428 35.6389 10.75 35.6389 10.0278C35.6389 8.54939 34.5555 8.94445 34.1944 9.30556C33.8333 9.66667 30.9444 10.3889 30.5833 10.3889C30.2222 10.3889 28.3535 9.35539 28.3535 9.35539Z" fill="#B78B60"/>
<path d="M29.9738 11.179C29.9738 11.179 29.9304 10.7038 29.4773 10.6485C29.1049 10.6034 28.5181 10.7276 28.2134 11.3368C27.9086 11.9464 27.3669 11.8445 27.3897 12.3522C27.4121 12.86 27.5702 13.255 27.8974 13.3565C28.2249 13.4583 28.6875 13.2778 28.7438 12.7361C28.8002 12.1944 28.8681 11.6979 29.2176 11.4834C29.5679 11.2693 29.9738 11.179 29.9738 11.179Z" fill="#CC9B7A"/>
<path d="M29.5 10.3889C29.5 10.3889 29.1389 10.0278 28.4167 10.0278C27.6945 10.0278 26.0102 10.798 26.5208 12.3299C26.882 13.4132 27.909 12.9055 28.0556 11.8333C28.2025 10.7597 29.5 10.3889 29.5 10.3889Z" fill="#B78B60"/>
<path d="M29.1389 10.3889C29.1389 10.3889 28.7778 10.0278 28.0555 10.0278C27.3333 10.0278 26.2915 10.5803 26.25 12.1944C26.216 13.5147 27.7056 12.9167 27.6944 11.8333C27.6832 10.75 29.1389 10.3889 29.1389 10.3889Z" fill="#CC9B7A"/>
<path d="M24.8055 10.75C24.8055 11.9406 24.9706 12.6589 25.6823 12.5364C26.8628 12.3335 26.4147 10.8703 27.4478 10.4586C28.1978 10.16 29.2898 10.2311 30.3439 10.8569C31.0383 11.2693 30.5833 9.66669 29.8611 9.30557C29.1389 8.94446 26.9722 9.30557 26.6111 9.30557C26.25 9.30557 24.8055 10.75 24.8055 10.75Z" fill="#B78B60"/>
<path d="M24.7485 10.8128C24.174 11.7752 24.5235 12.7701 25.5278 12.5556C26.4995 12.3483 26.0127 11.0858 26.9722 10.3889C27.5099 9.99818 28.6687 9.86709 29.3909 10.2282C30.1132 10.5893 30.2222 9.66668 29.5 9.30556C28.7778 8.94445 26.4161 9.29654 26.0557 9.31893C25.3664 9.3619 24.7485 10.8128 24.7485 10.8128Z" fill="#CC9B7A"/>
<path d="M26.4009 11.5134C26.1558 11.7943 25.7293 11.8236 25.448 11.5784L25.3772 11.5166C25.0959 11.2714 25.067 10.8453 25.3122 10.564L33.4455 1.24121C33.6907 0.960265 34.1172 0.931015 34.3985 1.17621L34.4689 1.23796C34.7502 1.48315 34.7791 1.90963 34.5343 2.19057L26.4009 11.5134Z" fill="#3B88C3"/>
<path d="M26.7881 11.0699C25.9358 12.0468 23.7861 13.9621 23.5139 13.7248C23.242 13.4876 24.8475 11.0978 25.6997 10.1206C26.5519 9.14342 26.2995 9.92486 26.5999 10.1874C26.9004 10.4496 27.6403 10.0935 26.7881 11.0699Z" fill="#3B88C3"/>
<path d="M25.4093 10.0372C25.4093 10.3983 26.2836 10.7287 26.6447 10.3676C27.0058 10.0065 27.8512 9.56305 28.9627 10.0278C31.5641 11.1147 30.5833 9.66669 29.5 9.30557C28.4167 8.94446 26.6111 9.30557 26.25 9.30557C25.8889 9.30557 25.4093 10.0372 25.4093 10.0372Z" fill="#B78B60"/>
<path d="M25.2371 8.95996C25.1078 8.55805 26.0272 6.33144 26.4436 5.98658C26.9679 5.55252 28.9963 4.88049 29.7185 4.88049C30.4407 4.88049 35.6389 7.49999 35.6389 9.30555C35.6389 11.1111 34.9167 11.3368 33.8785 11.6188C33.0483 11.8445 31.3092 11.7062 30.5494 10.9981C29.8835 10.3777 29.4209 9.94869 28.7778 9.66666C27.5854 9.14377 26.7906 9.81977 26.4295 10.1809C25.7073 10.9031 24.3466 10.1235 25.4816 8.8881C26.2937 8.00374 27.0091 7.72822 27.6945 7.49999C29.8611 6.77777 31.3056 6.77777 30.5833 6.05555C30.328 5.80024 30.189 6.18049 29.8337 6.24513C29.1187 6.37513 28.5496 6.46252 27.6074 6.77669C27.2817 6.88502 25.7398 7.86833 25.2371 8.95996Z" fill="#D5AB88"/>
<path d="M27.7652 6.8771C28.1494 6.73699 29.8243 6.43221 30.6956 6.13032C31.3994 5.88621 32.0169 6.35999 30.6812 6.86265C29.392 7.34762 28.0527 7.3079 27.0759 7.69574C26.7064 7.84235 26.3861 7.37976 27.7652 6.8771Z" fill="#B78B60"/>
<path d="M31.1203 3.89719C31.1203 3.89719 28.9797 6.35094 28.0704 7.38588C28.8843 7.05149 29.6127 7.11505 30.3085 6.70555C31.0044 6.29641 31.3218 5.85983 32.3777 4.64902C32.7699 4.1998 31.1203 3.89719 31.1203 3.89719Z" fill="#3B88C3"/>
</svg>
