<?xml version="1.0" encoding="utf-8"?>

<!DOCTYPE svg PUBLIC "-//W3C//DTD SVG 1.1//EN" "http://www.w3.org/Graphics/SVG/1.1/DTD/svg11.dtd">
<svg width="150px" height="150px"  version="1.1" id="Layer_1" xmlns="http://www.w3.org/2000/svg" xmlns:xlink="http://www.w3.org/1999/xlink" x="0px" y="0px"
	 viewBox="0 0 1086.98 1626.558" enable-background="new 0 0 1086.98 1626.558" xml:space="preserve">
<path d="M1030.198,299.547c-34.93-18.217-74.081-10.187-109.507,7.049c-28.398,13.815-67.832,39.469-93.175,66.724
	c-20.081,21.596-20.648,29.401-45.898,63.709c-46.939,63.756-68.572,75.111-100.014,98.812c-2.294,1.729-7.809,1.279-7.287-2.119
	c1.477-9.601-6.528-12.462-10.889-17.863c-4.454-5.516-9.551-5.725-15.404-2.998c-36.512,17.016-13.074,8.71-41.731-5.144
	c-8.353-4.038-14.204-12.571-22.591-15.487c-16.125-5.607-19.246-11.706-43.228-47.404c-7.698-11.458,5.024-55.451,9.616-98.433
	c1.037-9.709,8.22-17.006,11.022-25.624c7.336-22.559,16.806-44.574,20.173-68.342c1.141-8.051,7.124-13.184,15.302-12.987
	c4.062,0.098,8.132,1.266,12.133,2.222c18.375,4.387,35.061,0.134,34.462-9.078c-0.362-5.567,8.159-9.762,1.891-15.855
	c-2.856-2.776,13.312-2.493,6.197-15.073c-1.673-2.957-1.699-3.914,1.554-5.382c7.357-3.32,10.615-9.627,7.315-16.276
	c-7.246-14.597,13.459-4.618,10.393-20.493c-3.382-17.519-21.961-33.151-8.746-35.932c13.938-2.933,22.214-9.833,33.765-17.119
	c9.533-6.014,19.801-11.083,24.751-21.871c3.262-7.108,2.33-11.002-5.371-10.837c-10.465,0.225-20.655-1.676-31.032-2.489
	c-34.331-2.69-4.339,0.857-62.977-39.973c-31.586-21.994-84.27-28.236-118.472,4.437c-16.197,15.473-33.193-13.292-48.495,0.508
	c-9.06,8.171-16.954,17.405-19.786,30.373c-10.008,45.81-5.859,74.161-25.903,86.009c-7.109,4.202-10.509,11.388-10.022,20.214
	c0.735,13.316-2.493,26.238-4.696,39.247c-0.924,5.456-10.637,5.57-14.604,10.324c-2.769,3.319-9.667,12.653-2.831,15.553
	c12.733,5.398-1.79,6.813-25.354,21.586c-28.913,18.126-82.331,65.886-109.156,103.164c-37.883,52.646-39.223,75.389-64.387,94.584
	c-1.96,1.495-3.942,3.932-3.558,6.271c2.203,13.408-5.386,23.323-12.644,32.581c-3.746,4.777-6.281,12.059-13.623,13.32
	c-5.39,0.926-9.555,3.304-12.905,7.603c-26.586,34.12-7.919-1.992-72.683,96.252c-9.016,13.677-15.595,29.058-27.837,40.569
	c-2.127,1.999-4.096,4.793-2.681,8.106c11.215,26.256,22.415,19.949,17.197,34.358c-21.355,58.98-18.126,42.19,26.308,67.043
	c7.101,3.972,17.801,6.419,16.855,17.497c-2.23,26.106,29.948,17.948,33.588,46.211c21.791,169.197,65.577,187.245,53.539,230.266
	c-13.993,50.01-62.546,80.283-66.812,177.097c-1.667,37.834-10.109,74.815-14.415,112.329c-1.436,12.509,0.257,26.407-9.722,36.952
	c-0.776,0.82-0.494,2.622-0.744,3.96c-2.764,14.772-3.115,30.398-13.371,42.692c-4.5,5.394-4.853,13.876-9.938,17.433
	c-24.882,17.407-32.696,73.4-38.872,79.385c-14.466,14.017-15.584,31.88,11.791,45.276c16.612,8.128,33.287,15.742,52.596,10.028
	c10.463-3.096,45.129,18.557,71.434,24.658c62.741,14.551,117.866-0.593,123.709-18.638c4.443-13.725-0.272-23.893-13.921-29.357
	c-50.812-20.342-37.226-26.466-86.374-63.666c-31.437-23.793-3.865-33.957-3.808-61.235c0.013-6.208-2.433-6.561-7.714-4.76
	c-4.73,1.613-6.47,7.422-13.162,8.045c4.567-9.708,2.471-19.466,3.124-28.807c0.531-7.597,8.53-18.155-3.235-24.779
	c-0.239-0.135,0.432-1.943,0.724-2.957c34.843-121.333,48.468-133.127,65.916-188.615c21.19-67.384,47.382-86.021,65.937-116.363
	c12.965-21.2,13.922-27.616,11.304-85.322c-0.395-8.7-2.495-102.586,1.502-108.974c15.019,21.491,32.992,39.681,43.108,63.314
	c4.649,10.86,0.665,11.668-4.175,56.298c-9.784,90.211,21.576,125.53,27.816,153.102c14.17,62.608,21.836,84.297,19.284,101.432
	c-3.623,24.326-28.684,43.25-25.149,77.287c0.991,9.546-12.649,8.61-12.003,33.344c0.613,23.452,48.449,18.236,68.568,19.374
	c187.699,10.615,168.745,6.458,211.199-11.211c12.021-5.003,17.603-21.77,1.796-30.675c-33.094-18.645-46.509-23.653-90.091-41.651
	c-7.551-3.118-14.38-11.626-24.331-1.059c1.696-18.425-12.272-24.582-18.686-28.345c-12.235-7.176,0.654-16.549,4.071-18.16
	c18.136-8.554,20.473-25.234,13.435-32.975c-5.808-6.389-11.347-2.263-17.059,0.451c-7.369,3.501-9.483,10.197-11.331,17.238
	c-0.286,1.089,1.372,3.328-1.528,3.231c-7.027-0.236-11.229,4.871-15.956,8.26c-3.812-13.454-6.228-27.47-11.319-40.905
	c-1.855-4.894-6.896-7.367-7.395-12.619c-1.676-17.614-4.116-35.203-4.771-52.856c-3.845-103.751,1.446-102.864-4.79-123.31
	c-16.083-52.729,45.69-78.787,9.5-144.511c-15.879-28.837-18.133-75.246-24.765-100.018c-5.584-20.858-14.899-41.518-21.743-62.11
	c-7.025-21.136-14.998-42.281-28.071-60.513c-2.281-3.182-1.731-7.422,4.179-6.56c7.545,1.1,15.286,0.422,22.526,4.217
	c13.637,7.149,29.569,1.608,55.223,6.736c27.342,5.465,25.106-12.378,46.086-2.51c31.469,14.801,35.437,16.942,42.868,10.263
	c5.292-4.756,15.303-2.236,18.936-10.815c0.161-0.38,1.584-0.44,2.363-0.31c13.725,2.282,17.147-7.38,35.831-39.73
	c1.359-2.352,4.337-5.346-0.119-8.489c-2.113-1.491-0.892-3.139,1.853-4.503c12.15-6.034,12.605,24.4,37.081,7.67
	c5.013-3.427,13.572,0.809,16.328-9.721c1.762-6.734,13.954,2.593,16.354-8.538c1.21-5.614,10.106,8.992,16.19,0.215
	c7.758-11.192,2.426-13.361-1.798-21.325c-2.878-5.431-6.667-8.983-0.701-11.423c29.097-11.904,75.038-21.125,110.278-18.947
	c32.876,2.034,52.932,9.659,90.213,2.688c34.279-6.407,72.742-23.694,99.072-41.133
	C1081.275,443.519,1098.907,335.371,1030.198,299.547z M170.327,1441.389c2.396,6.14-2.432,9.025-4.642,12.851
	C163.843,1448.964,166.482,1445.355,170.327,1441.389z M496.226,1235.898c1.724-5.371,7.333-3.918,11.012-5.666
	c3.248-1.543,7.089-7.532,10.017-3.652c8.275,10.968-20.11,29.419-25.414,33.831
	C490.294,1250.611,493.831,1243.359,496.226,1235.898z M477.967,162.255c-0.258-6.574,0.365-12.32-1.639-17.85
	c-0.498-1.373-0.632-3.517,1.516-4.054c1.563-0.391,2.199,1.205,3.072,2.212C488.342,151.13,487.969,154.733,477.967,162.255z
	 M483.719,185.081c-5.518-0.323-10.098,0.168-15.072,2.843c0.173-5.864,1.832-10.481,5.063-15.561
	C476.519,177.318,484.576,177.04,483.719,185.081z M467.135,57.587c2.816-1.406,3.973,0.466,5.474,1.989
	c4.394,4.458,9.873,3.945,8.977,8.115c-0.866,4.031-5.306,7.355-8.348,10.837c-6.826,7.815-6.838-10.771-8.425-14.763
	C464.945,61.04,464.492,58.907,467.135,57.587z M543.665,585.792c-10.221,3.541-18.745,10.431-26.912,17.246
	c-2.84,2.37-5.09,2.193-7.753,2.548c-13.951-0.353-11.477-8.293-24.422-7.765c-17.376,0.71-33.921-4.906-50.92-6.995
	c-21.23-2.608-54.657-7.661-36.727-19.235c18.209-11.754,28.484-30.801,42.388-46.448c8.091-9.106,11.912-52.565,28.491-30.541
	c28.134,37.375,67.407,47.27,67.407,47.27c7.735,9.204,17.447,15.531,28.445,20.182C569.187,564.39,556.146,581.467,543.665,585.792
	z M592.759,580.11c-5.504,2.027-10.11,6.326-17.271,6.799c1.788-3.68,3.065-6.332,4.361-8.973
	c1.548-3.154,10.967-5.823,13.608-3.595C595.793,576.311,595.782,578.996,592.759,580.11z M784.23,524.669
	c-21.688-0.122-45.579,2.469-70.105,8.351c23.879-18.472,42.968-41.763,64.182-63.859c-1.613,1.68,6.754,35.773,9.122,42.024
	c1.764,4.651,3.432,6.89,3.929,9.757c0,0-0.029,0.015-0.029,0.015c0.133,0.358,0.093,0.699,0.077,1.074
	C791.257,525.585,786.549,524.682,784.23,524.669z M1057.849,361.634l-36.991,18.547l-2.422-10.512l37.472-18.788
	C1056.967,354.867,1057.51,358.21,1057.849,361.634z M920.207,418.921l11.358-5.695l2.422,10.512l-11.358,5.695L920.207,418.921z
	 M921.708,429.895l-11.358,5.695l-2.422-10.512l11.358-5.695L921.708,429.895z M932.485,412.765l11.358-5.695l2.422,10.512
	l-11.358,5.695L932.485,412.765z M944.764,406.608l11.358-5.695l2.422,10.512l-11.358,5.695L944.764,406.608z M957.042,400.452
	l11.358-5.695l2.422,10.512l-11.358,5.695L957.042,400.452z M956.811,399.449l-2.422-10.512l11.358-5.695l2.422,10.512
	L956.811,399.449z M955.891,399.911l-11.358,5.695l-2.422-10.512l11.358-5.695L955.891,399.911z M943.612,406.067l-11.358,5.695
	l-2.422-10.512l11.358-5.695L943.612,406.067z M931.334,412.224l-11.358,5.695l-2.422-10.512l11.358-5.695L931.334,412.224z
	 M919.055,418.38l-11.358,5.695l-2.422-10.512l11.358-5.695L919.055,418.38z M906.777,424.537l-11.358,5.695l-2.422-10.512
	l11.358-5.695L906.777,424.537z M894.498,430.693l-11.358,5.695l-2.422-10.512l11.358-5.695L894.498,430.693z M894.729,431.695
	l2.422,10.512l-11.358,5.695l-2.422-10.512L894.729,431.695z M895.65,431.234l11.358-5.695l2.422,10.512l-11.358,5.695
	L895.65,431.234z M909.661,437.054l2.422,10.512l-11.358,5.695l-2.422-10.512L909.661,437.054z M910.581,436.592l11.358-5.695
	l2.422,10.512l-11.358,5.695L910.581,436.592z M922.86,430.436l11.358-5.695l2.422,10.512l-11.358,5.695L922.86,430.436z
	 M935.138,424.279l11.358-5.695l2.422,10.512l-11.358,5.695L935.138,424.279z M947.417,418.123l11.358-5.695l2.422,10.512
	l-11.358,5.695L947.417,418.123z M959.696,411.966l11.358-5.695l2.422,10.512l-11.358,5.695L959.696,411.966z M969.321,394.295
	l11.358-5.695l2.422,10.512l-11.358,5.695L969.321,394.295z M969.09,393.293l-2.422-10.512l11.358-5.695l2.422,10.512
	L969.09,393.293z M966.437,381.778l-2.422-10.512l11.358-5.695l2.422,10.512L966.437,381.778z M965.516,382.24l-11.358,5.695
	l-2.422-10.512l11.358-5.695L965.516,382.24z M953.238,388.396l-11.358,5.695l-2.422-10.512l11.358-5.695L953.238,388.396z
	 M940.959,394.553l-11.358,5.695l-2.422-10.512l11.358-5.695L940.959,394.553z M928.68,400.709l-11.358,5.695l-2.422-10.512
	l11.358-5.695L928.68,400.709z M916.402,406.866l-11.358,5.695l-2.422-10.512l11.358-5.695L916.402,406.866z M904.123,413.022
	l-11.358,5.695l-2.422-10.512l11.358-5.695L904.123,413.022z M891.845,419.178l-11.358,5.695l-2.422-10.512l11.358-5.695
	L891.845,419.178z M879.566,425.335l-11.358,5.695l-2.422-10.512l11.358-5.695L879.566,425.335z M879.797,426.337l2.422,10.512
	l-11.358,5.695l-2.422-10.512L879.797,426.337z M882.451,437.852l2.422,10.512l-11.358,5.695l-2.422-10.512L882.451,437.852z
	 M885.104,449.366l2.422,10.512l-11.358,5.695l-2.422-10.512L885.104,449.366z M886.024,448.905l11.358-5.695l2.422,10.512
	l-11.358,5.695L886.024,448.905z M900.036,454.724l2.422,10.512l-11.358,5.695l-2.422-10.512L900.036,454.724z M900.956,454.263
	l11.358-5.695l2.422,10.512l-11.358,5.695L900.956,454.263z M913.235,448.106l11.358-5.695l2.422,10.512l-11.358,5.695
	L913.235,448.106z M925.513,441.95l11.358-5.695l2.422,10.512l-11.358,5.695L925.513,441.95z M937.792,435.794l11.358-5.695
	l2.422,10.512l-11.358,5.695L937.792,435.794z M950.07,429.637l11.358-5.695l2.422,10.512l-11.358,5.695L950.07,429.637z
	 M962.349,423.481l11.358-5.695l2.422,10.512l-11.358,5.695L962.349,423.481z M974.627,417.324l11.358-5.695l2.422,10.512
	l-11.358,5.695L974.627,417.324z M974.397,416.322l-2.422-10.512l11.358-5.695l2.422,10.512L974.397,416.322z M981.599,388.139
	l11.358-5.695l2.422,10.512l-11.358,5.695L981.599,388.139z M981.369,387.137l-2.422-10.512l11.358-5.695l2.422,10.512
	L981.369,387.137z M978.715,375.622l-2.422-10.512l11.358-5.695l2.422,10.512L978.715,375.622z M976.062,364.107l-2.422-10.512
	l11.358-5.695l2.422,10.512L976.062,364.107z M975.141,364.569l-11.358,5.695l-2.422-10.512l11.358-5.695L975.141,364.569z
	 M962.863,370.725l-11.358,5.695l-2.422-10.512l11.358-5.695L962.863,370.725z M950.584,376.882l-11.358,5.695l-2.422-10.512
	l11.358-5.695L950.584,376.882z M938.306,383.038l-11.358,5.695l-2.422-10.512l11.358-5.695L938.306,383.038z M926.027,389.195
	l-11.358,5.695l-2.422-10.512l11.358-5.695L926.027,389.195z M913.749,395.351l-11.358,5.695l-2.422-10.512l11.358-5.695
	L913.749,395.351z M901.47,401.507l-11.358,5.695l-2.422-10.512l11.358-5.695L901.47,401.507z M889.191,407.664l-11.358,5.695
	l-2.422-10.512l11.358-5.695L889.191,407.664z M876.913,413.82l-11.358,5.695l-2.422-10.512l11.358-5.695L876.913,413.82z
	 M864.634,419.977l-11.358,5.695l-2.422-10.512l11.358-5.695L864.634,419.977z M864.865,420.979l2.422,10.512l-11.358,5.695
	l-2.422-10.512L864.865,420.979z M867.518,432.493l2.422,10.512l-11.358,5.695l-2.422-10.512L867.518,432.493z M870.172,444.008
	l2.422,10.512l-11.358,5.695l-2.422-10.512L870.172,444.008z M872.825,455.523l2.422,10.512l-11.358,5.695l-2.422-10.512
	L872.825,455.523z M875.478,467.037l2.422,10.512l-11.358,5.695l-2.422-10.512L875.478,467.037z M876.399,466.576l11.358-5.695
	l2.422,10.512l-11.358,5.695L876.399,466.576z M890.41,472.395l2.422,10.512l-11.358,5.695l-2.422-10.512L890.41,472.395z
	 M891.331,471.934l11.358-5.695l2.422,10.512l-11.358,5.695L891.331,471.934z M903.609,465.778l11.358-5.695l2.422,10.512
	l-11.358,5.695L903.609,465.778z M915.888,459.621l11.358-5.695l2.422,10.512l-11.358,5.695L915.888,459.621z M928.166,453.465
	l11.358-5.695l2.422,10.512l-11.358,5.695L928.166,453.465z M940.445,447.308l11.358-5.695l2.422,10.512l-11.358,5.695
	L940.445,447.308z M952.724,441.152l11.358-5.695l2.422,10.512l-11.358,5.695L952.724,441.152z M965.002,434.996l11.358-5.695
	l2.422,10.512l-11.358,5.695L965.002,434.996z M977.281,428.839l11.358-5.695l2.422,10.512l-11.358,5.695L977.281,428.839z
	 M989.559,422.683l11.358-5.695l2.422,10.512l-11.358,5.695L989.559,422.683z M989.328,421.68l-2.422-10.512l11.358-5.695
	l2.422,10.512L989.328,421.68z M986.675,410.165l-2.422-10.512l11.358-5.695l2.422,10.512L986.675,410.165z M993.878,381.983
	l11.358-5.695l2.422,10.512l-11.358,5.695L993.878,381.983z M993.647,380.98l-2.422-10.512l11.358-5.695l2.422,10.512
	L993.647,380.98z M990.994,369.465l-2.422-10.512l11.358-5.695l2.422,10.512L990.994,369.465z M988.34,357.951l-2.422-10.512
	l11.358-5.695l2.422,10.512L988.34,357.951z M985.687,346.437l-2.422-10.512l11.358-5.695l2.422,10.512L985.687,346.437z
	 M984.767,346.898l-11.358,5.695l-2.422-10.512l11.358-5.695L984.767,346.898z M972.488,353.054l-11.358,5.695l-2.422-10.512
	l11.358-5.695L972.488,353.054z M960.21,359.211l-11.358,5.695l-2.422-10.512l11.358-5.695L960.21,359.211z M947.931,365.367
	l-11.358,5.695l-2.422-10.512l11.358-5.695L947.931,365.367z M935.652,371.524l-11.358,5.695l-2.422-10.512l11.358-5.695
	L935.652,371.524z M923.374,377.68l-11.358,5.695l-2.422-10.512l11.358-5.695L923.374,377.68z M911.095,383.837l-11.358,5.695
	l-2.422-10.512l11.358-5.695L911.095,383.837z M898.817,389.993l-11.358,5.695l-2.422-10.512l11.358-5.695L898.817,389.993z
	 M886.538,396.149l-11.358,5.695l-2.422-10.512l11.358-5.695L886.538,396.149z M874.26,402.306l-11.358,5.695l-2.422-10.512
	l11.358-5.695L874.26,402.306z M861.981,408.462l-11.358,5.695l-2.422-10.512l11.358-5.695L861.981,408.462z M849.703,414.618
	l-11.358,5.695l-2.422-10.512l11.358-5.695L849.703,414.618z M849.934,415.621l2.422,10.512l-11.358,5.695l-2.422-10.512
	L849.934,415.621z M852.587,427.135l2.422,10.512l-11.358,5.695l-2.422-10.512L852.587,427.135z M855.24,438.65l2.422,10.512
	l-11.358,5.695l-2.422-10.512L855.24,438.65z M857.893,450.165l2.422,10.512l-11.358,5.695l-2.422-10.512L857.893,450.165z
	 M860.547,461.679l2.422,10.512l-11.358,5.695l-2.422-10.512L860.547,461.679z M863.2,473.194l2.422,10.512l-11.358,5.695
	l-2.422-10.512L863.2,473.194z M865.853,484.708l2.422,10.512l-11.358,5.695l-2.422-10.512L865.853,484.708z M866.774,484.247
	l11.358-5.695l2.422,10.512l-11.358,5.695L866.774,484.247z M880.785,490.066l2.422,10.512l-11.358,5.695l-2.422-10.512
	L880.785,490.066z M881.706,489.605l11.358-5.695l2.422,10.512l-11.358,5.695L881.706,489.605z M893.984,483.449l11.358-5.695
	l2.422,10.512l-11.358,5.695L893.984,483.449z M906.263,477.292l11.358-5.695l2.422,10.512l-11.358,5.695L906.263,477.292z
	 M918.541,471.136l11.358-5.695l2.422,10.512l-11.358,5.695L918.541,471.136z M930.82,464.979l11.358-5.695l2.422,10.512
	l-11.358,5.695L930.82,464.979z M943.098,458.823l11.358-5.695l2.422,10.512l-11.358,5.695L943.098,458.823z M955.377,452.666
	l11.358-5.695l2.422,10.512l-11.358,5.695L955.377,452.666z M967.655,446.51l11.358-5.695l2.422,10.512l-11.358,5.695
	L967.655,446.51z M979.934,440.354l11.358-5.695l2.422,10.512l-11.358,5.695L979.934,440.354z M992.213,434.197l11.358-5.695
	l2.422,10.512l-11.358,5.695L992.213,434.197z M1004.491,428.041l11.358-5.695l2.422,10.512l-11.358,5.695L1004.491,428.041z
	 M1004.26,427.038l-2.422-10.512l11.358-5.695l2.422,10.512L1004.26,427.038z M1001.607,415.524l-2.422-10.512l11.358-5.695
	l2.422,10.512L1001.607,415.524z M998.953,404.009l-2.422-10.512l11.358-5.695l2.422,10.512L998.953,404.009z M1006.157,375.826
	l11.358-5.695l2.422,10.512l-11.358,5.695L1006.157,375.826z M1005.925,374.824l-2.422-10.512l11.358-5.695l2.422,10.512
	L1005.925,374.824z M1003.272,363.309l-2.422-10.512l11.358-5.695l2.422,10.512L1003.272,363.309z M1000.619,351.794l-2.422-10.512
	l11.358-5.695l2.422,10.512L1000.619,351.794z M997.966,340.28l-2.422-10.512l11.358-5.695l2.422,10.512L997.966,340.28z
	 M995.312,328.765l-2.422-10.512l11.358-5.695l2.422,10.512L995.312,328.765z M994.392,329.227l-11.358,5.695l-2.422-10.512
	l11.358-5.695L994.392,329.227z M982.113,335.383l-11.358,5.695l-2.422-10.512l11.358-5.695L982.113,335.383z M969.835,341.54
	l-11.358,5.695l-2.422-10.512l11.358-5.695L969.835,341.54z M957.556,347.696l-11.358,5.695l-2.422-10.512l11.358-5.695
	L957.556,347.696z M945.278,353.853l-11.358,5.695l-2.422-10.512l11.358-5.695L945.278,353.853z M932.999,360.009l-11.358,5.695
	l-2.422-10.512l11.358-5.695L932.999,360.009z M920.721,366.165l-11.358,5.695l-2.422-10.512l11.358-5.695L920.721,366.165z
	 M908.442,372.322l-11.358,5.695l-2.422-10.512l11.358-5.695L908.442,372.322z M896.163,378.478l-11.358,5.695l-2.422-10.512
	l11.358-5.695L896.163,378.478z M883.885,384.634l-11.358,5.695l-2.422-10.512l11.358-5.695L883.885,384.634z M871.606,390.791
	l-11.358,5.695l-2.422-10.512l11.358-5.695L871.606,390.791z M859.328,396.947l-11.358,5.695l-2.422-10.512l11.358-5.695
	L859.328,396.947z M847.049,403.104l-11.358,5.695l-2.422-10.512l11.358-5.695L847.049,403.104z M837.424,420.775l-16.853,8.45
	l-2.422-10.512l16.854-8.45L837.424,420.775z M837.655,421.777l2.422,10.512l-16.854,8.45l-2.422-10.512L837.655,421.777z
	 M840.308,433.292l2.422,10.512l-16.854,8.45l-2.422-10.512L840.308,433.292z M842.961,444.806l2.422,10.512l-16.854,8.45
	l-2.422-10.512L842.961,444.806z M845.615,456.321l2.422,10.512l-16.854,8.45l-2.422-10.512L845.615,456.321z M848.268,467.836
	l2.422,10.512l-16.854,8.45l-2.422-10.512L848.268,467.836z M850.921,479.35l2.422,10.512l-16.854,8.45l-2.422-10.512
	L850.921,479.35z M853.575,490.865l2.422,10.512l-16.854,8.45l-2.422-10.512L853.575,490.865z M856.228,502.379l2.422,10.512
	l-16.854,8.45l-2.422-10.512L856.228,502.379z M857.148,501.918l11.358-5.695l2.422,10.512l-11.358,5.695L857.148,501.918z
	 M871.16,507.737l2.422,10.512l-11.358,5.695l-2.422-10.512L871.16,507.737z M872.08,507.276l11.358-5.695l2.422,10.512
	l-11.358,5.695L872.08,507.276z M884.359,501.119l11.358-5.695l2.422,10.512l-11.358,5.695L884.359,501.119z M896.637,494.963
	l11.358-5.695l2.422,10.512l-11.358,5.695L896.637,494.963z M908.916,488.807l11.358-5.695l2.422,10.512l-11.358,5.695
	L908.916,488.807z M921.194,482.65l11.358-5.695l2.422,10.512l-11.358,5.695L921.194,482.65z M933.473,476.494l11.358-5.695
	l2.422,10.512l-11.358,5.695L933.473,476.494z M945.752,470.337l11.358-5.695l2.422,10.512l-11.358,5.695L945.752,470.337z
	 M958.03,464.181l11.358-5.695l2.422,10.512l-11.358,5.695L958.03,464.181z M970.309,458.024l11.358-5.695l2.422,10.512
	l-11.358,5.695L970.309,458.024z M982.587,451.868l11.358-5.695l2.422,10.512l-11.358,5.695L982.587,451.868z M994.866,445.712
	l11.358-5.695l2.422,10.512l-11.358,5.695L994.866,445.712z M1007.145,439.555l11.358-5.695l2.422,10.512l-11.358,5.695
	L1007.145,439.555z M1016.77,421.884l11.358-5.695l2.422,10.512l-11.358,5.695L1016.77,421.884z M1016.539,420.882l-2.422-10.512
	l11.358-5.695l2.422,10.512L1016.539,420.882z M1013.885,409.368l-2.422-10.512l11.358-5.695l2.422,10.512L1013.885,409.368z
	 M1011.232,397.853l-2.422-10.512l11.358-5.695l2.422,10.512L1011.232,397.853z M1055.64,349.897l-37.436,18.77l-2.422-10.512
	l36.236-18.168C1053.466,343.196,1054.683,346.506,1055.64,349.897z M1051.602,339.077l-36.051,18.076l-2.422-10.512l33.377-16.735
	C1048.416,332.848,1050.121,335.912,1051.602,339.077z M1045.947,329.067l-33.05,16.571l-2.422-10.512l28.694-14.387
	C1041.955,323.532,1043.969,326.109,1045.947,329.067z M1029.236,312.875c3.28,2.029,6.358,4.399,9.184,7.122l-28.175,14.127
	l-2.422-10.512L1029.236,312.875z M1028.217,312.267l-20.626,10.342l-2.422-10.512l10.708-5.369
	C1020.191,308.139,1024.335,309.975,1028.217,312.267z M1014.511,306.294l-9.573,4.8l-1.674-7.263
	C1007.09,304.368,1010.857,305.184,1014.511,306.294z M1002.206,303.694l1.812,7.862l-11.358,5.695l-3.269-14.188
	C993.678,302.955,997.974,303.158,1002.206,303.694z M988.371,303.097l3.368,14.615l-11.358,5.695l-4.382-19.014
	C980.055,303.702,983.895,303.261,988.371,303.097z M975.012,304.567l4.448,19.302l-11.358,5.695l-5.152-22.358
	C966.933,306.17,970.954,305.287,975.012,304.567z M961.982,307.462l5.199,22.563l-11.358,5.695l-5.677-24.638
	C954.051,309.736,957.997,308.525,961.982,307.462z M949.195,311.412l5.708,24.77l-11.358,5.695l-5.981-25.956
	C941.398,314.295,945.276,312.787,949.195,311.412z M936.629,316.318l5.996,26.02l-11.358,5.695l-6.083-26.401
	C928.952,319.755,932.768,317.977,936.629,316.318z M924.261,322.09l6.084,26.404l-11.358,5.695l-6.004-26.056
	C916.694,326.028,920.453,324.008,924.261,322.09z M912.075,328.647l5.992,26.004l-11.358,5.695l-5.762-25.004
	C904.604,333.036,908.314,330.799,912.075,328.647z M900.052,335.913l5.737,24.895l-11.358,5.695l-5.372-23.312
	C892.666,340.708,896.331,338.276,900.052,335.913z M888.173,343.802l5.337,23.161l-11.358,5.695l-4.848-21.04
	C880.142,349.487,883.184,347.256,888.173,343.802z M876.428,352.275l4.803,20.845l-11.358,5.695l-4.15-18.01
	C869.22,357.88,872.786,355.032,876.428,352.275z M864.865,361.534l4.088,17.742l-11.358,5.695l-3.25-14.103
	C857.771,367.672,861.278,364.559,864.865,361.534z M853.5,371.656l3.175,13.777l-11.358,5.695l-2.135-9.266
	C846.528,378.368,849.975,374.972,853.5,371.656z M842.357,382.741l2.039,8.849l-11.358,5.695l-0.765-3.319
	C835.535,390.133,838.894,386.388,842.357,382.741z M831.465,394.914l0.653,2.832l-5.081,2.547
	C828.49,398.48,829.967,396.689,831.465,394.914z M825.557,402.153l6.791-3.405l2.422,10.512l-16.854,8.45l-0.935-4.057
	C819.746,409.743,822.601,405.906,825.557,402.153z M816.209,414.753l0.788,3.419l-4.736,2.375
	C813.552,418.597,814.87,416.666,816.209,414.753z M811.137,422.228l6.091-3.054l2.422,10.512l-17.082,8.565
	C804.859,432.816,807.718,427.474,811.137,422.228z M801.979,439.665l17.901-8.976l2.422,10.512l-24.597,12.333
	C798.72,448.845,800.148,444.221,801.979,439.665z M797.452,454.78l25.082-12.576l2.422,10.512l-29.018,14.549
	C796.117,463.052,796.629,458.891,797.452,454.78z M795.906,468.4l29.281-14.682l2.422,10.512l-31.233,15.66
	C795.951,476.019,795.798,472.189,795.906,468.4z M796.5,480.947l31.341-15.714l2.422,10.512l-31.788,15.939
	C797.586,488.07,796.933,484.492,796.5,480.947z M801.953,502.784c-1.396-3.569-2.36-6.757-3.222-10.111l31.764-15.926l2.422,10.512
	L801.953,502.784z M802.324,503.716l30.823-15.454l2.422,10.512l-28.496,14.288C805.217,510.116,803.648,506.966,802.324,503.716z
	 M807.606,513.913l28.195-14.137l2.422,10.512l-23.605,11.836C811.926,519.712,809.598,516.939,807.606,513.913z M826.315,529.104
	c-4.037-1.462-7.565-3.445-10.899-6.262l23.037-11.551l2.422,10.512L826.315,529.104z M827.664,529.546l13.443-6.74l2.174,9.434
	C837.889,531.922,832.572,531.14,827.664,529.546z M845.463,532.348c-0.382-0.014-0.763-0.038-1.144-0.057l-2.292-9.947l16.854-8.45
	l2.422,10.512L845.463,532.348z M847.585,532.403l13.95-6.994l1.532,6.649C858.149,532.277,852.882,532.505,847.585,532.403z
	 M864.083,532.012l-1.628-7.065l11.358-5.695l2.738,11.884C871.327,531.656,867.851,531.844,864.083,532.012z M877.558,531.046
	l-2.824-12.256l11.358-5.695l3.755,16.293C885.767,530.063,881.669,530.617,877.558,531.046z M890.833,529.214l-3.82-16.58
	l11.358-5.695l4.573,19.848C898.931,527.715,894.892,528.523,890.833,529.214z M903.916,526.551l-4.626-20.073l11.358-5.695
	l5.203,22.582C911.905,524.542,907.925,525.605,903.916,526.551z M916.811,523.071l-5.242-22.75l11.358-5.695l5.645,24.498
	C924.691,520.553,920.769,521.869,916.811,523.071z M929.518,518.773l-5.67-24.608l11.358-5.695l5.895,25.584
	C937.287,515.74,933.425,517.313,929.518,518.773z M942.034,513.645l-5.907-25.636l11.358-5.695l5.949,25.817
	C949.69,510.082,945.888,511.92,942.034,513.645z M954.352,507.661l-5.947-25.809l11.358-5.695l5.799,25.165
	C961.33,503.869,958.068,505.702,954.352,507.661z M966.461,500.769l-5.778-25.074l11.358-5.695l5.45,23.65
	C973.869,496.128,970.19,498.503,966.461,500.769z M978.379,493.046l-5.417-23.507l11.358-5.695l4.899,21.26
	C985.679,487.86,982.059,490.505,978.379,493.046z M990.087,484.415l-4.847-21.032l11.358-5.695l4.11,17.838
	C997.26,478.599,993.716,481.563,990.087,484.415z M1001.563,474.773l-4.043-17.547l11.358-5.695l3.05,13.236
	C1008.587,468.216,1005.133,471.558,1001.563,474.773z M1012.756,463.907l-2.958-12.837l11.358-5.695l1.658,7.197
	C1019.613,456.476,1016.253,460.254,1012.756,463.907z M1023.613,451.583l-1.537-6.669l10.419-5.224
	C1029.457,444.123,1026.943,447.465,1023.613,451.583z M1021.845,443.911l-2.422-10.512l11.358-5.695l2.422,10.512L1021.845,443.911
	z M1034.042,437.397l-2.34-10.155l11.883-5.958C1040.643,426.913,1037.415,432.316,1034.042,437.397z M1044.366,419.774
	l-12.895,6.466l-2.422-10.512l22.012-11.036C1049.117,409.839,1046.856,414.887,1044.366,419.774z M1051.571,403.317l-22.754,11.409
	l-2.422-10.512l29.322-14.702C1054.634,394.159,1053.229,398.773,1051.571,403.317z M1055.994,388.254l-29.83,14.957l-2.422-10.512
	l34.195-17.145C1057.593,379.789,1056.924,384.032,1055.994,388.254z M1058.014,374.397l-34.503,17.3l-2.422-10.512l36.853-18.478
	C1058.265,366.577,1058.279,370.481,1058.014,374.397z"/>
</svg>
