<svg viewBox="0 0 36 36" fill="none" xmlns="http://www.w3.org/2000/svg">
<path d="M35 17C35 26.389 27.389 34 18 34C8.612 34 1 26.389 1 17C1 7.612 8.612 0 18 0C27.389 0 35 7.612 35 17Z" fill="#FFCC4D"/>
<path d="M28.457 14.297C28.397 14.162 26.958 11 24 11C21.043 11 19.603 14.162 19.543 14.297C19.451 14.504 19.511 14.746 19.688 14.888C19.863 15.03 20.114 15.035 20.298 14.902C20.31 14.893 21.56 14 24 14C26.426 14 27.674 14.881 27.702 14.901C27.79 14.967 27.896 15 28 15C28.11 15 28.221 14.963 28.312 14.891C28.489 14.749 28.55 14.505 28.457 14.297ZM16.457 14.297C16.397 14.162 14.958 11 12 11C9.043 11 7.603 14.162 7.543 14.297C7.451 14.504 7.511 14.746 7.687 14.888C7.863 15.03 8.114 15.035 8.297 14.902C8.31 14.893 9.559 14 12 14C14.426 14 15.674 14.881 15.702 14.901C15.79 14.967 15.896 15 16 15C16.11 15 16.221 14.963 16.312 14.891C16.49 14.749 16.549 14.505 16.457 14.297Z" fill="#664500"/>
<g clip-path="url(#clip0)">
<path d="M21 19.9167C19.75 19.9167 19.75 20.3333 18.5 20.3333C17.25 20.3333 17.25 19.9167 16 19.9167C14.3333 19.9167 12.25 20.75 12.25 23.6667C12.25 28.25 14.75 32 16.4167 32C17.6667 32 17.6667 31.5833 18.5 31.5833C19.3333 31.5833 19.3333 32 20.5833 32C22.25 32 24.75 28.25 24.75 23.6667C24.75 20.7496 22.6667 19.9167 21 19.9167Z" fill="#DD2E44"/>
<path d="M18.9167 19.9167C18.9167 19.9167 20.1667 18.25 22.25 18.25C23.9167 18.25 24.75 19.0833 24.75 19.0833C24.75 19.0833 23.0833 20.3333 21.8333 20.3333C20.5833 20.3333 18.9167 19.9167 18.9167 19.9167Z" fill="#77B255"/>
<path d="M18.5 21.1667C18.27 21.1667 18.0833 20.98 18.0833 20.75C18.0833 19.3162 18.5833 17.9937 19.4554 17.1221C19.6183 16.9592 19.8817 16.9592 20.0446 17.1221C20.2075 17.285 20.2075 17.5487 20.0446 17.7112C19.3275 18.4279 18.9167 19.5354 18.9167 20.75C18.9167 20.98 18.73 21.1667 18.5 21.1667Z" fill="#662113"/>
</g>
<path d="M22.6271 29.4069C22.6271 29.4069 23.3761 28.8559 22.751 28.1736C22.1259 27.4912 21.5331 28.2133 21.5331 28.2133L18.4173 31.1674C18.3654 31.0108 18.0724 30.5997 18.004 30.4438L22.328 26.3435C22.328 26.3435 23.0779 25.7926 22.4512 25.1095C21.8261 24.4279 21.2326 25.1485 21.2326 25.1485L17.1655 29.0042C17.0716 28.8835 16.8192 28.5916 16.7192 28.4708L21.4347 24.0008C21.4347 24.0008 22.1838 23.4491 21.5579 22.7675C20.9328 22.0851 20.34 22.8064 20.34 22.8064L15.623 27.275C15.5103 27.1642 15.1632 26.8096 15.049 26.705L19.4564 22.5268C19.4564 22.5268 20.2047 21.9751 19.5796 21.2935C18.9537 20.6111 18.3617 21.3325 18.3617 21.3325L13.7011 25.7498L13.3277 26.1044L13.1609 26.2625C13.1609 26.2625 12.7567 26.831 12.3442 26.3993L13.7281 23.2221C13.7281 23.2221 14.1639 22.4015 13.3577 21.9575C12.55 21.5136 12.1143 22.3342 12.1143 22.3342L10.861 24.4416C10.3629 25.2768 9.84745 26.1059 9.23886 26.8616C7.52279 28.9958 7.57763 32.1447 9.47778 34.2193C11.5507 36.4803 15.0347 36.6049 17.258 34.4974L17.5938 34.178L22.6271 29.4069Z" fill="#F4900C"/>
<defs>
<clipPath id="clip0">
<rect x="11" y="17" width="15" height="15" fill="white"/>
</clipPath>
</defs>
</svg>
