<?xml version="1.0" encoding="UTF-8" standalone="no"?>
<!-- Created with Inkscape (http://www.inkscape.org/) -->

<svg
   width="297mm"
   height="210mm"
   viewBox="0 0 297 210"
   version="1.1"
   id="svg5"
   inkscape:version="1.1.1 (3bf5ae0d25, 2021-09-20)"
   sodipodi:docname="db_database_drawing.svg"
   xmlns:inkscape="http://www.inkscape.org/namespaces/inkscape"
   xmlns:sodipodi="http://sodipodi.sourceforge.net/DTD/sodipodi-0.dtd"
   xmlns="http://www.w3.org/2000/svg"
   xmlns:svg="http://www.w3.org/2000/svg">
  <sodipodi:namedview
     id="namedview7"
     pagecolor="#ffffff"
     bordercolor="#666666"
     borderopacity="1.0"
     inkscape:pageshadow="2"
     inkscape:pageopacity="0.0"
     inkscape:pagecheckerboard="0"
     inkscape:document-units="mm"
     showgrid="false"
     inkscape:zoom="0.22984007"
     inkscape:cx="-907.15254"
     inkscape:cy="402.45376"
     inkscape:window-width="1240"
     inkscape:window-height="736"
     inkscape:window-x="808"
     inkscape:window-y="27"
     inkscape:window-maximized="1"
     inkscape:current-layer="layer1" />
  <defs
     id="defs2">
    <inkscape:path-effect
       effect="powerstroke"
       id="path-effect66670"
       is_visible="true"
       lpeversion="1"
       offset_points="0,4.99214"
       not_jump="false"
       sort_points="true"
       interpolator_type="CubicBezierJohan"
       interpolator_beta="0.2"
       start_linecap_type="zerowidth"
       linejoin_type="extrp_arc"
       miter_limit="4"
       scale_width="1"
       end_linecap_type="zerowidth" />
    <inkscape:path-effect
       effect="spiro"
       id="path-effect66668"
       is_visible="true"
       lpeversion="1" />
    <inkscape:path-effect
       effect="simplify"
       id="path-effect66666"
       is_visible="true"
       lpeversion="1"
       steps="1"
       threshold="0.000408163"
       smooth_angles="360"
       helper_size="0"
       simplify_individual_paths="false"
       simplify_just_coalesce="false" />
    <inkscape:path-effect
       effect="powerstroke"
       id="path-effect66662"
       is_visible="true"
       lpeversion="1"
       offset_points="0,4.99214"
       not_jump="false"
       sort_points="true"
       interpolator_type="CubicBezierJohan"
       interpolator_beta="0.2"
       start_linecap_type="zerowidth"
       linejoin_type="extrp_arc"
       miter_limit="4"
       scale_width="1"
       end_linecap_type="zerowidth" />
    <inkscape:path-effect
       effect="spiro"
       id="path-effect66660"
       is_visible="true"
       lpeversion="1" />
    <inkscape:path-effect
       effect="simplify"
       id="path-effect66658"
       is_visible="true"
       lpeversion="1"
       steps="1"
       threshold="0.000408163"
       smooth_angles="360"
       helper_size="0"
       simplify_individual_paths="false"
       simplify_just_coalesce="false" />
    <inkscape:path-effect
       effect="powerstroke"
       id="path-effect32477"
       is_visible="true"
       lpeversion="1"
       offset_points="0,12.094856"
       not_jump="false"
       sort_points="true"
       interpolator_type="CubicBezierJohan"
       interpolator_beta="0.2"
       start_linecap_type="zerowidth"
       linejoin_type="extrp_arc"
       miter_limit="4"
       scale_width="1"
       end_linecap_type="zerowidth" />
    <inkscape:path-effect
       effect="spiro"
       id="path-effect32475"
       is_visible="true"
       lpeversion="1" />
    <inkscape:path-effect
       effect="simplify"
       id="path-effect32473"
       is_visible="true"
       lpeversion="1"
       steps="1"
       threshold="0.000408163"
       smooth_angles="360"
       helper_size="0"
       simplify_individual_paths="false"
       simplify_just_coalesce="false" />
    <inkscape:path-effect
       effect="powerstroke"
       id="path-effect32469"
       is_visible="true"
       lpeversion="1"
       offset_points="0,11.681684"
       not_jump="false"
       sort_points="true"
       interpolator_type="CubicBezierJohan"
       interpolator_beta="0.2"
       start_linecap_type="zerowidth"
       linejoin_type="extrp_arc"
       miter_limit="4"
       scale_width="1"
       end_linecap_type="zerowidth" />
    <inkscape:path-effect
       effect="spiro"
       id="path-effect32467"
       is_visible="true"
       lpeversion="1" />
    <inkscape:path-effect
       effect="simplify"
       id="path-effect32465"
       is_visible="true"
       lpeversion="1"
       steps="1"
       threshold="0.000408163"
       smooth_angles="360"
       helper_size="0"
       simplify_individual_paths="false"
       simplify_just_coalesce="false" />
    <rect
       x="-233.90129"
       y="-395.92125"
       width="1016.1926"
       height="2130.7951"
       id="rect30677" />
    <rect
       x="46.666228"
       y="268.27013"
       width="497.93355"
       height="380.03078"
       id="rect9263" />
    <rect
       x="117.18832"
       y="62.93857"
       width="386.02521"
       height="162.33949"
       id="rect1023" />
  </defs>
  <g
     inkscape:label="Layer 1"
     inkscape:groupmode="layer"
     id="layer1">
    <text
       xml:space="preserve"
       transform="matrix(0.41206332,0,0,0.92337374,-888.72271,-229.86444)"
       id="text1021"
       style="font-size:40px;line-height:1.25;font-family:sans-serif;word-spacing:0px;white-space:pre;shape-inside:url(#rect1023)"><tspan
         x="117.1875"
         y="98.330078"
         id="tspan98538">database design</tspan></text>
    <text
       xml:space="preserve"
       transform="matrix(0.63689506,0,0,0.36813951,-551.05723,-245.45352)"
       id="text9261"
       style="font-size:40px;line-height:1.25;font-family:sans-serif;word-spacing:0px;white-space:pre;shape-inside:url(#rect9263)"><tspan
         x="46.666016"
         y="303.66016"
         id="tspan98540">questions 
</tspan><tspan
         x="46.666016"
         y="353.66016"
         id="tspan98542">(questions_ID, </tspan><tspan
         x="46.666016"
         y="403.66016"
         id="tspan98544">text,category </tspan><tspan
         x="46.666016"
         y="453.66016"
         id="tspan98546">ID,tags,question_type, </tspan><tspan
         x="46.666016"
         y="503.66016"
         id="tspan98548">time_stamp,sourceID)
</tspan></text>
    <text
       xml:space="preserve"
       style="font-size:34.0887px;line-height:1.25;font-family:sans-serif;word-spacing:0px;stroke-width:0.852223"
       x="-1285.772"
       y="131.2482"
       id="text24173"
       transform="scale(0.62463498,1.600935)"><tspan
         sodipodi:role="line"
         id="tspan24171"
         style="stroke-width:0.852223"
         x="-1285.772"
         y="131.2482">answers</tspan><tspan
         sodipodi:role="line"
         style="stroke-width:0.852223"
         x="-1285.772"
         y="173.85907"
         id="tspan38104">answers_ID, text, correct:bool,time_stamp,counter,</tspan><tspan
         sodipodi:role="line"
         style="stroke-width:0.852223"
         x="-1285.772"
         y="216.46994"
         id="tspan46484">why,sourceID,original,before,after</tspan><tspan
         sodipodi:role="line"
         style="stroke-width:0.852223"
         x="-1285.772"
         y="259.08081"
         id="tspan26841" /></text>
    <text
       xml:space="preserve"
       style="font-size:10.5833px;line-height:1.25;font-family:sans-serif;word-spacing:0px;stroke-width:0.264583"
       x="-616.10931"
       y="-191.59995"
       id="text28669"><tspan
         sodipodi:role="line"
         id="tspan28667"
         style="stroke-width:0.264583"
         x="-616.10931"
         y="-191.59995">s</tspan></text>
    <text
       xml:space="preserve"
       transform="matrix(0.48131491,0,0,0.86798753,72.378525,500.33364)"
       id="text30675"
       style="font-size:40px;line-height:1.25;font-family:sans-serif;word-spacing:0px;white-space:pre;shape-inside:url(#rect30677)"><tspan
         x="-233.90039"
         y="-360.53125"
         id="tspan98550">category
</tspan><tspan
         x="-233.90039"
         y="-310.53125"
         id="tspan98552">category,instructions,categoryID
</tspan><tspan
         x="-233.90039"
         y="-260.53125"
         id="tspan98554">,time_stamp</tspan></text>
    <path
       style="fill:#000000;fill-rule:nonzero;stroke:none;stroke-width:0.619128px;stroke-linecap:butt;stroke-linejoin:miter;stroke-opacity:1"
       d="m -501.81533,-32.567299 c 0,0 -6.21278,-9.892579 -6.21278,-9.892579 -9.29866,5.839783 -19.07191,13.711648 -28.02394,24.011343 -6.91784,7.970854 -12.786,16.7378534 -18.61502,26.3789268 -5.85822,9.6546912 -11.50956,19.9250332 -18.11551,28.6961122 -3.37304,4.588043 -7.23716,9.106627 -11.61873,13.665451 -7.80862,7.915561 -17.14448,15.662044 -26.36446,24.911024 -3.04379,3.209782 -6.68193,7.218452 -9.54492,12.013309 -0.7589,1.336417 -1.51149,2.881829 -1.93735,3.721687 -0.51799,1.021533 -0.83765,1.594548 -1.13777,2.077555 0.0215,0.121927 -0.14801,0.43035 -0.45395,0.954125 -0.2834,0.485191 -0.75829,1.290364 -1.13277,2.288841 -0.29071,1.044029 -0.50363,2.404352 -0.32479,3.900674 0.1704,1.48238 0.76685,3.13277 1.97666,4.51668 0.9993,1.0795 2.14974,1.64701 3.14115,1.91743 0.99393,0.26644 1.85614,0.23179 2.50188,0.1054 1.11557,0.034 2.07947,-0.2065 2.8426,-0.52779 0.76135,-0.32054 1.37769,-0.74277 1.8583,-1.15864 0.4606,-0.40557 0.79515,-0.81199 1.02807,-1.14675 0.23445,-0.33696 0.39071,-0.63661 0.48092,-0.85723 1.02643,-1.23419 2.10002,-2.32832 3.25332,-3.222131 1.5535,-1.008127 3.32201,-1.72394 5.18052,-2.108199 1.87918,-0.388531 3.82492,-0.432876 5.70422,-0.11727 1.90625,0.320134 3.76311,1.015518 5.45023,2.022223 1.71283,1.022047 3.23156,2.353367 4.44655,3.911577 1.23756,1.58716 2.16697,3.42033 2.74821,5.36309 0.59303,1.98214 0.81848,4.06009 0.655,6.09533 -0.16739,2.08389 -0.74336,4.12889 -1.65403,6.00565 -0.935,1.92692 -2.21545,3.6624 -3.75629,5.09146 -1.58857,1.47332 -3.45327,2.6207 -5.44108,3.40529 -2.05852,0.8125 -4.23649,1.2318 -6.38873,1.24065 -2.24068,0.009 -4.44655,-0.42559 -6.47785,-1.20944 -2.13025,-0.82204 -4.05862,-2.02289 -5.67363,-3.50062 -1.70714,-1.56202 -3.05578,-3.42356 -4.02485,-5.39843 -1.03768,-2.1147 -1.63762,-4.35001 -1.81688,-6.54418 -0.19475,-2.38373 0.10584,-4.70108 0.74199,-6.79458 0.71036,-2.3377 1.83382,-4.39022 3.18357,-6.07687 -1.34829,1.68483 -2.49651,3.72369 -3.25898,6.05307 -0.68263,2.08547 -1.05613,4.41239 -0.94508,6.83609 0.10227,2.23215 0.61715,4.53941 1.58341,6.76296 0.90171,2.07499 2.20033,4.08129 3.90248,5.81758 1.61142,1.64375 3.57623,3.03546 5.79822,4.05177 2.11664,0.96812 4.47288,1.59689 6.93438,1.74927 2.36625,0.14649 4.81116,-0.14892 7.17877,-0.89592 2.28357,-0.72049 4.50284,-1.86469 6.46933,-3.43456 1.90967,-1.52452 3.56075,-3.43402 4.83926,-5.62108 1.2436,-2.12734 2.13908,-4.52713 2.55021,-7.06976 0.40192,-2.4857 0.33651,-5.07732 -0.199,-7.61278 -0.52412,-2.48156 -1.50238,-4.92339 -2.94381,-7.13662 -1.41661,-2.175125 -3.2593,-4.098608 -5.41212,-5.651284 -2.11733,-1.527079 -4.54979,-2.705531 -7.17295,-3.390436 -2.58888,-0.675953 -5.32035,-0.861387 -8.02355,-0.553392 -2.6693,0.304131 -5.33281,1.092478 -7.79816,2.385753 -1.96541,0.891414 -3.76306,2.04065 -5.41885,3.285171 -0.28078,0.1175 -0.4977,0.179847 -0.64933,0.16897 -0.14809,-0.01062 -0.22229,-0.09666 -0.19194,-0.239008 0.0561,-0.153115 0.18509,-0.350765 0.46384,-0.53729 0.27729,-0.185544 0.72727,-0.370633 1.34147,-0.401081 0.37139,-0.166053 0.92696,-0.27477 1.66485,-0.138773 0.76002,0.146554 1.64163,0.511131 2.48018,1.356159 0.99915,1.080882 1.50887,2.365324 1.68325,3.484091 0.18383,1.12261 0.08,2.13949 -0.0551,2.85228 -0.22416,0.69548 -0.45862,1.1481 -0.52862,1.38823 -0.0684,0.23466 0.0102,0.29062 0.2842,0.14568 1.55776,-1.52076 2.7637,-3.13132 3.67014,-4.40149 1.04666,-1.466648 1.57875,-2.293945 2.2983,-3.203698 1.98468,-2.710852 4.59688,-5.218653 7.70102,-7.990725 8.56995,-8.092153 18.18073,-15.603485 27.17342,-24.220926 5.16501,-4.835641 9.9256,-9.843999 14.21535,-15.134703 7.78034,-9.787402 14.73273,-21.654008 20.10758,-30.099336 5.77827,-9.045486 11.03509,-16.4663653 16.86499,-22.9653951 7.46258,-8.3336069 15.52611,-14.7113359 23.12776,-19.4853569 0,0 -6.21278,-9.892579 -6.21278,-9.892579 z"
       id="path32463"
       inkscape:path-effect="#path-effect32465;#path-effect32467;#path-effect32469"
       inkscape:original-d="m -501.81533,-32.567299 c -40.92147,26.2181471 -44.59915,59.084321 -72.35634,87.269398 -11.85133,12.034067 -27.5187,23.397007 -37.08136,35.810351 -19.68866,25.55802 13.44181,-4.587045 -4.08444,10.65937" />
    <path
       style="fill:#000000;fill-rule:nonzero;stroke:none;stroke-width:0.641026px;stroke-linecap:butt;stroke-linejoin:miter;stroke-opacity:1"
       d="m -204.20432,-6.7883395 c 0,0 -2.27262,11.8794255 -2.27262,11.8794255 9.46678,1.8110617 21.22466,4.9014556 33.91931,10.591991 3.18358,1.224909 6.36122,2.51848 10.23593,4.153595 18.39519,9.596446 36.28494,20.841927 55.52233,33.776683 19.914352,13.455454 40.242773,28.001965 59.497827,44.106711 12.069867,9.890744 23.823467,20.454024 34.239947,32.230414 1.647552,1.25646 3.1021865,2.34812 4.4031735,3.52278 2.2563189,2.63123 3.9149511,5.83678 5.8708657,9.54641 0.973206,1.84665 1.98382231,3.73595 3.12859418,5.57183 1.17708302,1.88771 2.47651592,3.68719 3.99952082,5.32135 1.36333,1.10478 3.0110404,2.16599 4.145288,2.9548 0.5318529,0.30307 0.9999823,0.57912 1.4307781,0.88766 0.4612057,0.33032 0.8541357,0.68116 1.1680237,1.08339 0.751441,0.92399 0.973697,2.0433 0.828423,2.8977 0.134372,-0.79029 0.326797,-1.97029 0.107195,-3.29366 -0.110152,-0.60438 -0.294799,-1.20173 -0.543147,-1.8381 -0.234135,-0.59994 -0.48482,-1.13793 -0.75004,-1.73649 -0.7622539,-1.38774 -1.5611998,-2.8227 -2.1104157,-4.2533 -0.9103252,-1.5196 -1.6406049,-3.18302 -2.2784737,-4.9779 C 5.7119918,143.8749 5.1919441,142.03807 4.659016,140.07391 3.6713592,136.43668 2.5190287,131.86794 0.36812172,127.68728 -0.56761207,125.38815 -1.7109348,123.23956 -2.7162859,121.32724 -13.082365,108.17098 -24.827656,96.377683 -36.696703,85.497817 -55.961466,68.180409 -76.28569,52.547677 -96.017507,38.225105 -114.97607,24.3992 -133.17057,11.986811 -152.19715,1.2262391 c -3.61104,-2.4274936 -7.01554,-4.5698328 -10.39172,-6.4631712 -14.52675,-7.2813099 -28.20106,-11.2993339 -39.34283,-13.4308329 0,0 -2.27262,11.8794255 -2.27262,11.8794255 z"
       id="path32471"
       inkscape:path-effect="#path-effect32473;#path-effect32475;#path-effect32477"
       inkscape:original-d="m -204.20432,-6.7883395 c 14.5954,5.178207 30.23895,7.9436007 43.78617,15.5346227 44.15754,24.7431348 121.6249,77.3366418 155.8633777,121.0121568 0.070253,0.0897 10.9810275,22.41652 11.0010227,22.45056 2.7616542,4.70401 5.4668206,3.39824 5.4668206,9.5274" />
    <text
       xml:space="preserve"
       style="font-size:33.115px;line-height:1.25;font-family:sans-serif;word-spacing:0px;stroke-width:0.827876"
       x="24.73642"
       y="-108.73409"
       id="text62034"
       transform="scale(0.97726749,1.0232613)"><tspan
         sodipodi:role="line"
         id="tspan62032"
         style="stroke-width:0.827876"
         x="24.73642"
         y="-108.73409">Source</tspan><tspan
         sodipodi:role="line"
         style="stroke-width:0.827876"
         x="24.73642"
         y="-67.34034"
         id="tspan62036">SourceID,text,details</tspan></text>
    <path
       style="fill:#000000;fill-rule:nonzero;stroke:none;stroke-width:0.264583px;stroke-linecap:butt;stroke-linejoin:miter;stroke-opacity:1"
       d="m -13.681862,-132.55772 c 0,0 2.038252,-4.55708 2.038252,-4.55708 -3.350278,-1.49848 -7.595331,-3.06097 -12.603407,-4.28119 -7.529682,-1.91819 -15.295499,-2.77069 -23.977281,-3.303 -13.067356,-0.89711 -26.554761,-1.05548 -40.840037,-0.66 -12.758115,0.35304 -27.088085,1.21913 -40.342005,1.0747 -8.47817,-0.0391 -18.0677,-0.52909 -27.18198,0.21541 -2.92687,0.26998 -5.93882,0.67952 -8.90519,1.38042 -2.95639,0.69853 -5.87932,1.68901 -8.64758,3.1282 -2.06844,1.19524 -3.94805,2.61003 -5.67736,3.98634 -1.69976,1.36325 -3.41752,2.80506 -4.84364,4.56589 -0.45688,0.73981 -0.88882,1.52607 -1.12823,2.40458 -0.192,0.59968 -0.26509,1.19149 -0.29025,1.72902 -0.0261,0.55727 -0.002,1.11802 0.0207,1.60573 0.0255,0.5403 0.048,1.02488 0.0323,1.51144 -0.0169,0.51915 -0.0773,0.99853 -0.21013,1.45063 -0.1038,0.56375 -0.33494,1.02797 -0.59964,1.34524 0.25378,-0.30418 0.60913,-0.70756 0.9361,-1.2078 0.23691,-0.45228 0.41371,-0.94021 0.56381,-1.47952 0.14078,-0.50582 0.24266,-0.99628 0.36156,-1.52613 0.10881,-0.48416 0.22649,-0.97231 0.38657,-1.42858 0.15393,-0.43875 0.34125,-0.83144 0.58653,-1.16895 0.37567,-0.45049 0.88369,-0.83301 1.48515,-1.2245 1.41137,-1.26394 3.07764,-2.26731 4.91828,-3.30263 1.88878,-1.07225 3.73448,-2.04129 5.63696,-2.7691 2.38923,-1.0625 4.93811,-1.76398 7.58342,-2.22198 2.66018,-0.46056 5.40671,-0.67301 8.16995,-0.76144 8.776,-0.37956 17.74483,0.43956 26.63816,0.81017 13.44226,0.47769 28.2173,-0.048 40.636489,-0.10514 14.103186,-0.0647 27.298769,0.38436 40.011959,1.51684 8.472008,0.81886 15.521751,1.84538 22.187747,3.7278 4.370059,1.29 8.064407,2.78216 11.014631,4.10171 0,0 2.038252,-4.55708 2.038252,-4.55708 z"
       id="path66656"
       inkscape:path-effect="#path-effect66658;#path-effect66660;#path-effect66662"
       inkscape:original-d="m -13.681862,-132.55772 c -3.724416,-1.34168 -7.347923,-3.00608 -11.173249,-4.02503 -26.954282,-7.1798 -76.016629,-4.17817 -106.055369,-4.17817 -14.79456,0 -33.20815,-2.95879 -46.28006,5.75582 -0.91263,0.60842 -6.76116,4.72944 -7.5264,6.37548 -1.05315,2.26533 -0.50743,6.05534 -2.12049,7.66823" />
    <path
       style="fill:#000000;fill-rule:nonzero;stroke:none;stroke-width:0.264583px;stroke-linecap:butt;stroke-linejoin:miter;stroke-opacity:1"
       d="m 6.6370324,-74.390381 c 0,0 -0.013178,-4.992123 -0.013178,-4.992123 -30.2243013,0.07979 -63.9796603,2.654279 -100.1492213,9.407131 -23.633893,4.419771 -46.106263,10.164755 -72.210163,16.83635 -14.56421,3.736798 -31.17922,7.957071 -47.07973,13.111334 -11.12792,3.621367 -22.6424,7.928096 -34.09398,13.169093 -11.30092,5.17026 -21.83488,10.906381 -33.20862,16.85097 -33.41226,17.3068054 -68.90073,33.491384 -106.24322,44.957518 -16.12422,4.989006 -34.53326,9.595177 -51.13467,16.717897 -8.31745,3.568486 -16.57581,7.963149 -24.11836,13.40151 -7.44668,5.369228 -14.24384,11.790735 -19.69791,19.485264 -0.62743,0.945774 -1.07271,1.653593 -1.59448,2.328849 -0.48548,0.62831 -0.91026,1.0517 -1.32389,1.333181 -0.18386,0.150404 -0.37208,0.26742 -0.5477,0.353288 -0.17038,0.0833 -0.32299,0.134397 -0.44182,0.162656 -0.10049,0.03367 -0.21517,0.03659 -0.31531,0.03114 -0.1049,-0.0057 -0.1456,-0.01371 -0.18839,0.0061 -0.0472,0.0085 -0.14683,-0.08567 -0.28944,-0.310649 -0.13938,-0.219887 -0.3092,-0.554726 -0.54799,-0.969499 -0.27363,-0.396958 -0.60549,-0.830363 -1.01468,-1.237321 -0.81183,-0.937015 -1.85527,-1.567788 -2.92438,-1.90326 -1.07503,-0.33685 -2.17464,-0.377005 -3.17999,-0.213403 -1.01947,0.125957 -1.95417,0.459838 -2.78367,0.909036 -0.83084,0.449921 -1.56886,1.022945 -2.19848,1.648089 -1.27276,1.210132 -2.17018,2.63889 -2.91266,3.977805 -0.75818,1.367211 -1.39504,2.700949 -2.1101,3.861517 -1.23063,1.947459 -2.8218,3.64706 -4.63948,5.152021 -1.83665,1.52066 -3.892,2.83218 -6.01201,3.99105 -2.14689,1.17349 -4.37815,2.21314 -6.62062,3.25361 -2.27589,1.05597 -4.5493,2.10651 -6.767,3.3 -5.36396,2.82892 -10.20668,6.38359 -14.70629,10.22288 -4.56289,3.89329 -8.85852,8.15556 -12.98079,12.29829 -1.92989,2.01865 -3.77116,3.95377 -5.5572,5.96906 -1.61732,1.83773 -3.12643,3.66297 -4.6756,5.35026 -3.67374,3.8424 -7.81756,7.2773 -11.79953,10.60895 -4.18521,3.50168 -8.1876,6.88591 -11.7748,10.75909 -5.05254,5.43992 -9.2279,11.83345 -13.24407,17.69234 -4.30803,6.28468 -8.51973,12.09677 -13.88548,16.91966 -4.69256,4.25364 -10.26007,7.66169 -15.02692,10.54938 -5.1329,3.11336 -9.87371,5.91174 -14.14382,8.37721 4.26864,-2.46463 9.029,-5.2359 14.19312,-8.29497 4.78135,-2.83593 10.41841,-6.19303 15.18961,-10.39429 5.42824,-4.82027 9.69719,-10.63463 14.05159,-16.89592 4.06958,-5.85174 8.25953,-12.1691 13.31557,-17.53275 3.59408,-3.80188 7.60197,-7.11962 11.82524,-10.57543 4.00559,-3.27768 8.23158,-6.7001 11.99204,-10.54337 1.65717,-1.62747 3.27241,-3.37901 4.96933,-5.1022 1.85958,-1.9017 3.78067,-3.72664 5.80967,-5.63965 4.17396,-4.09627 8.46981,-8.25667 13.01248,-12.03845 4.476,-3.72628 9.23155,-7.12007 14.44517,-9.78779 2.18134,-1.09232 4.42194,-2.04867 6.73938,-3.04079 2.26037,-0.96769 4.5984,-1.97134 6.86687,-3.12324 2.25322,-1.14423 4.5094,-2.48311 6.57432,-4.08825 2.04514,-1.58978 3.9276,-3.459882 5.43644,-5.690163 0.90508,-1.310143 1.63491,-2.663574 2.39079,-3.872513 0.76001,-1.215552 1.51119,-2.237273 2.44052,-3.028578 0.46488,-0.369488 0.96373,-0.668108 1.46998,-0.871147 0.50334,-0.201877 0.99297,-0.301167 1.45577,-0.30028 0.46873,0.04126 0.87921,0.183066 1.18986,0.392607 0.30857,0.209903 0.51488,0.474508 0.59988,0.723317 0.007,0.146241 0.019,0.311909 0.0364,0.542135 0.0417,0.162245 0.14685,0.565154 0.26752,0.92999 0.13121,0.396717 0.33831,0.937615 0.68897,1.493279 0.5691,0.861723 1.32503,1.527288 2.14098,2.001084 0.81811,0.475053 1.72901,0.777143 2.65665,0.894418 0.91368,0.116702 1.80442,0.05863 2.63077,-0.112583 0.83132,-0.172243 1.61452,-0.462206 2.32481,-0.825104 1.38814,-0.750712 2.46434,-1.75024 3.31532,-2.689658 0.82664,-0.912531 1.59035,-1.946652 2.15577,-2.677095 4.95993,-6.872758 11.18196,-12.680066 18.12444,-17.597945 7.03704,-4.984855 14.8137,-9.055179 22.7583,-12.386537 16.14896,-6.771759 33.72748,-10.983804 50.49018,-16.025709 38.04413,-11.530756 74.08456,-27.831182 107.80225,-45.1499028 11.61889,-5.9143403 21.88447,-11.3700882 32.96219,-16.3057072 11.12659,-4.955587 22.34619,-9.031985 33.24053,-12.468785 15.59505,-4.939971 31.94834,-8.990259 46.59699,-12.66356 26.19913,-6.595712 48.34615,-12.183481 71.640051,-16.483702 35.536157,-6.571435 68.688694,-9.06651 98.3690495,-9.144859 0,0 -0.013178,-4.992123 -0.013178,-4.992123 z"
       id="path66664"
       inkscape:path-effect="#path-effect66666;#path-effect66668;#path-effect66670"
       inkscape:original-d="m 6.6370324,-74.390381 c -48.8900434,-2.639026 -97.1944214,8.057589 -144.3415024,19.545561 -46.54128,11.340357 -59.67205,12.715055 -104.95705,31.08786 -11.4073,4.628114 -21.76167,11.564383 -33.03214,16.5164173 -34.75077,15.2688627 -70.21256,28.8829377 -104.97643,44.1220167 -32.03045,14.040861 -61.96785,32.461388 -93.40479,47.785022 -39.99063,19.493044 18.76308,-19.523855 -52.73358,26.228544 -0.68415,0.43781 -26.4351,20.599 -32.04143,26.11427 -1.37335,1.35103 -2.066,3.30092 -3.46433,4.62608 -7.00394,6.63753 -14.53515,12.69764 -21.67043,19.19376 -12.59086,11.46299 -22.28077,25.10117 -31.93703,38.89583 -6.69034,9.5576 -22.45966,12.1142 -29.59693,19.25086" />
    <g
       id="g88270"
       transform="translate(-6.9380323,3.6766737)">
      <text
         xml:space="preserve"
         style="font-size:31.3564px;line-height:1.25;font-family:sans-serif;word-spacing:0px;stroke-width:0.783912"
         x="-964.64551"
         y="31.651001"
         id="text74478"
         transform="scale(0.68779476,1.4539221)"><tspan
           sodipodi:role="line"
           id="tspan74476"
           style="stroke-width:0.783912"
           x="-964.64551"
           y="31.651001">M to N</tspan></text>
      <text
         xml:space="preserve"
         style="font-size:10.5833px;line-height:1.25;font-family:sans-serif;word-spacing:0px;stroke-width:0.264583"
         x="-817.22485"
         y="-9.6500874"
         id="text85490"><tspan
           sodipodi:role="line"
           id="tspan85488"
           style="stroke-width:0.264583"
           x="-817.22485"
           y="-9.6500874">questionID, answerID</tspan></text>
    </g>
  </g>
</svg>
